<?xml version="1.0" standalone="no"?>
<!DOCTYPE svg PUBLIC "-//W3C//DTD SVG 1.1//EN" "http://www.w3.org/Graphics/SVG/1.1/DTD/svg11.dtd" >
<svg xmlns="http://www.w3.org/2000/svg" xmlns:xlink="http://www.w3.org/1999/xlink" version="1.1">
<metadata>
Created by FontForge 20201107 at Thu Jul 28 03:54:52 2022
 By 
Copyright (c) 2021 by Megatype. All rights reserved.
</metadata>
<defs>
<font id="ChandlerMountain-SemBdSlant" horiz-adv-x="518" >
  <font-face 
    font-family="Chandler Mountain SemBd Slant"
    font-weight="600"
    font-style="italic"
    font-stretch="normal"
    units-per-em="1000"
    panose-1="0 0 0 0 0 0 0 0 0 0"
    ascent="800"
    descent="-200"
    x-height="750"
    cap-height="750"
    bbox="-9 -201 1107.5 958"
    underline-thickness="50"
    underline-position="-125"
    slope="-11.3"
    unicode-range="U+000D-FB02"
  />
<missing-glyph horiz-adv-x="376" 
 />
    <glyph glyph-name="fi" unicode="fi" horiz-adv-x="683" 
d="M189 750h386l-22 -109h-244l-43 -215h219l-21 -103h-218l-65 -323h-142zM648 750h142l-150 -750h-142z" />
    <glyph glyph-name="fl" unicode="fl" horiz-adv-x="910" 
d="M189 750h386l-22 -109h-244l-43 -215h219l-21 -103h-218l-65 -323h-142zM644 750h143l-128 -641h243l-22 -109h-386z" />
    <glyph glyph-name=".notdef" horiz-adv-x="376" 
 />
    <glyph glyph-name=".null" horiz-adv-x="0" 
 />
    <glyph glyph-name=".null" horiz-adv-x="0" 
 />
    <glyph glyph-name="uni000D" unicode="&#xd;" horiz-adv-x="250" 
 />
    <glyph glyph-name="space" unicode=" " horiz-adv-x="232" 
 />
    <glyph glyph-name="exclam" unicode="!" horiz-adv-x="202" 
d="M186 750h130l-160 -604h-51zM157 0h-112l23 112h112z" />
    <glyph glyph-name="quotedbl" unicode="&#x22;" horiz-adv-x="345" 
d="M463 750l-74 -231h-56l19 231h111zM293 750l-74 -231h-56l19 231h111z" />
    <glyph glyph-name="numbersign" unicode="#" horiz-adv-x="627" 
d="M203 528h91l73 171h101l-74 -171h119l73 171h100l-73 -171h89l-38 -90h-90l-52 -123h90l-38 -90h-90l-75 -174h-100l74 174h-118l-74 -174h-101l75 174h-90l38 90h90l52 123h-90zM356 438l-52 -123h118l52 123h-118z" />
    <glyph glyph-name="dollar" unicode="$" horiz-adv-x="434" 
d="M311 710l9 44h112l-10 -46q56 -11 78 -53.5t6 -118.5q-2 -6 -4 -18.5t-4 -18.5h-121q2 6 4 18.5t4 17.5q6 29 -5 50t-41 21q-35 0 -55 -23t-27 -55q-4 -21 1 -35.5t16 -26t26.5 -21t33.5 -19.5q36 -20 61 -39.5t39.5 -43.5t17 -56t-6.5 -77q-15 -77 -56.5 -117t-99.5 -50
l-9 -47h-111l9 44q-64 7 -91 49.5t-10 124.5q1 2 1 4t1 4l5 21q0 2 0.5 4t0.5 4h121q-2 -6 -4 -18t-4 -18q-6 -30 5 -50.5t42 -20.5q35 0 55.5 24.5t26.5 57.5q5 21 -1 36t-18.5 26.5t-30 21.5t-36.5 21q-34 20 -57.5 39t-36 42.5t-15 54t6.5 73.5q17 82 63 122.5t109 47.5z
" />
    <glyph glyph-name="percent" unicode="%" horiz-adv-x="573" 
d="M167 663q8 45 39 68.5t75 23.5t65 -23.5t12 -68.5l-36 -180q-9 -45 -39.5 -68.5t-74.5 -23.5t-65.5 23.5t-12.5 68.5zM553 755l-315 -750h-64l315 750h64zM197 475q-2 -12 3 -20.5t19 -8.5q13 0 21 8.5t10 20.5l40 197q2 11 -3 20t-17 9q-14 0 -22.5 -8.5t-10.5 -20.5z
M402 272q10 45 40.5 68.5t74.5 23.5q43 0 64.5 -23.5t12.5 -68.5l-36 -180q-9 -46 -39.5 -69t-74.5 -23t-65 23t-12 69zM434 84q-3 -12 2.5 -20.5t19.5 -8.5q12 0 20 8.5t10 20.5l40 196q2 12 -2.5 21t-17.5 9t-22 -8.5t-11 -21.5z" />
    <glyph glyph-name="ampersand" unicode="&#x26;" horiz-adv-x="528" 
d="M172 553q11 54 29.5 93t47 63.5t69 36.5t95.5 12q56 0 91.5 -12t54 -36.5t21 -63.5t-8.5 -93q-12 -60 -35.5 -99.5t-68.5 -59.5q40 -20 60.5 -60.5t12.5 -102.5q-2 -21 -8 -55.5t-12.5 -70.5t-13 -68t-9.5 -47h-143q3 13 5.5 27t4.5 25q-21 -20 -49.5 -30.5t-63.5 -10.5
q-6 -1 -12 -1h-12q-45 2 -79 13t-54 35.5t-25.5 63t5.5 95.5q5 24 14.5 52t25 54t36.5 47.5t49 31.5l1 6q-21 11 -29.5 28t-9.5 37.5t3 44t8 45.5zM388 635q-46 0 -65 -40q-4 -10 -7 -19.5t-5 -20.5l-7 -35q-2 -9 -3 -16.5t-2 -15.5q-1 -48 50 -48q40 0 55.5 23t21.5 57
l7 35q2 11 3 20.5t0 19.5q0 21 -12.5 30.5t-35.5 9.5zM287 121q32 0 56 13.5t35 36.5q6 10 11 26t8 28q6 32 -6.5 61.5t-48.5 36.5q-8 3 -25 6.5t-29 7.5q-13 -3 -24 -14.5t-19.5 -27t-14.5 -34t-9 -35.5q-8 -35 -5 -54q2 -23 20.5 -37t50.5 -14z" />
    <glyph glyph-name="quotesingle" unicode="'" horiz-adv-x="175" 
d="M293 750l-74 -231h-56l19 231h111z" />
    <glyph glyph-name="parenleft" unicode="(" horiz-adv-x="249" 
d="M155 594q9 46 29 76t47.5 48t62.5 25t74 7l-20 -99q-35 0 -56 -18.5t-26 -45.5l-85 -424q-5 -27 8.5 -45.5t48.5 -18.5l-20 -99q-39 0 -71 7t-52.5 25t-28 48t1.5 76z" />
    <glyph glyph-name="parenright" unicode=")" horiz-adv-x="249" 
d="M331 594l-87 -438q-9 -46 -29 -76t-47.5 -48t-62.5 -25t-74 -7l20 99q35 0 56 18.5t26 45.5l85 424q5 27 -8.5 45.5t-48.5 18.5l20 99q39 0 71 -7t52.5 -25t28 -48t-1.5 -76z" />
    <glyph glyph-name="asterisk" unicode="*" horiz-adv-x="343" 
d="M287 750h70l-16 -82l87 32l12 -58l-93 -39l46 -66l-65 -46l-44 72l-75 -72l-46 46l75 67l-78 38l34 58l76 -31z" />
    <glyph glyph-name="plus" unicode="+" horiz-adv-x="390" 
d="M118 426h108l24 119h109l-24 -119h108l-20 -102h-108l-24 -119h-109l24 119h-108z" />
    <glyph glyph-name="comma" unicode="," horiz-adv-x="182" 
d="M85 -79h-67l61 79h-45l22 112h113l-23 -111z" />
    <glyph glyph-name="hyphen" unicode="-" horiz-adv-x="365" 
d="M118 426h300l-20 -102h-300z" />
    <glyph glyph-name="period" unicode="." horiz-adv-x="184" 
d="M148 0h-112l22 112h113z" />
    <glyph glyph-name="slash" unicode="/" horiz-adv-x="289" 
d="M298 750h112l-269 -750h-112z" />
    <glyph glyph-name="zero" unicode="0" horiz-adv-x="484" 
d="M149 565q9 48 31.5 84t54.5 61t72.5 37.5t86.5 12.5t81.5 -12.5t57.5 -37.5t29.5 -61t-1.5 -84l-76 -380q-9 -48 -31.5 -84t-54.5 -61t-72.5 -37.5t-86.5 -12.5t-81.5 12.5t-58 37.5t-30 61t2.5 84zM372 651q-31 0 -51.5 -20.5t-26.5 -49.5l-82 -412q-6 -29 6.5 -49.5
t43.5 -20.5t51.5 20.5t25.5 49.5l83 412q6 29 -6.5 49.5t-43.5 20.5z" />
    <glyph glyph-name="one" unicode="1" horiz-adv-x="281" 
d="M149 597l21 107l87 46h135l-150 -750h-142l123 616z" />
    <glyph glyph-name="two" unicode="2" horiz-adv-x="496" 
d="M378 651q-34 0 -56.5 -21t-28.5 -54q-1 -4 -3.5 -16t-5 -24.5t-5 -22.5t-2.5 -12h-142q1 3 2.5 10.5t3 16.5t3 16.5t2.5 10.5q12 58 34 97.5t54 63.5t73.5 34t92.5 10q55 0 93 -11t59.5 -36.5t26 -67t-7.5 -102.5t-42 -108t-68.5 -84.5t-80.5 -68.5t-78.5 -58.5t-63 -55
t-32.5 -59.5h263q-1 -3 -4 -19t-7 -34.5t-7 -34.5t-4 -21h-406q2 7 4.5 21t6 29.5t6.5 30t4 22.5q11 55 37.5 96.5t61.5 75t74 61t74.5 54t63.5 54.5t41 62q5 9 9 20.5t7 24.5t3.5 24.5t-1.5 20.5q-2 23 -13.5 39t-40.5 16z" />
    <glyph glyph-name="three" unicode="3" horiz-adv-x="495" 
d="M131 501l11 54q12 58 34 97.5t54 63.5t73.5 34t92.5 10q60 0 99 -13t59.5 -41t23 -72t-9.5 -107q-4 -19 -11 -42t-17.5 -44t-25.5 -37.5t-36 -24.5l-2 -7q18 -8 26.5 -24.5t11 -37.5t0 -44t-6.5 -43q-12 -63 -32.5 -107t-52 -72t-76 -41t-104.5 -13q-51 0 -88.5 10
t-60 34t-29 63.5t5.5 97.5l10 54h143l-14 -69q-8 -38 6 -59.5t49 -21.5q25 0 42 10.5t28 28.5t18 41t12 48q5 23 6.5 40.5t-4.5 30t-22 19t-46 6.5l21 103q30 0 48.5 6.5t29.5 19.5t17 31t10 40q5 23 7 45.5t-2.5 41t-17 30t-37.5 11.5q-34 0 -56.5 -21.5t-30.5 -59.5
l-14 -69h-142z" />
    <glyph glyph-name="four" unicode="4" horiz-adv-x="475" 
d="M452 219l-44 -219h-142l43 219h-237l21 105l293 426h172l-86 -428h38l-21 -103h-37zM330 322l63 314l-213 -314h150z" />
    <glyph glyph-name="five" unicode="5" horiz-adv-x="503" 
d="M598 750l-22 -109h-269l-34 -172q35 24 84 24q61 0 98.5 -15t55.5 -45t19 -75.5t-12 -107.5q-13 -63 -30.5 -111.5t-47.5 -81.5t-76 -50t-116 -17q-52 0 -90 11t-60 35t-28 63t6 96l10 54h143l-15 -75q-7 -33 7 -54t49 -21q23 0 39 9t27.5 23t18 32.5t10.5 37.5l18 91
q4 19 4.5 37t-5 31.5t-18.5 22t-36 8.5q-32 0 -55 -16.5t-28 -44.5h-142l84 420h411z" />
    <glyph glyph-name="six" unicode="6" horiz-adv-x="501" 
d="M148 561q10 51 33 88t56 62t75 37t90 12q102 0 149.5 -50.5t28.5 -144.5l-12 -55h-142l14 67q6 33 -9 53.5t-51 20.5t-58 -21t-28 -52l-27 -136q30 24 76 24q58 0 96 -15.5t58.5 -45t24.5 -72.5t-7 -98q-12 -58 -32.5 -103.5t-53 -77t-77 -48t-104.5 -16.5
q-97 0 -145.5 49.5t-29.5 149.5zM321 357q-36 0 -58 -21t-28 -52l-22 -111q-7 -32 7 -53t49 -21q22 0 38 8t27 20.5t18 29t10 34.5l15 74q3 18 3 34.5t-6 29t-18.5 20.5t-34.5 8z" />
    <glyph glyph-name="seven" unicode="7" horiz-adv-x="412" 
d="M71 0l292 641h-204l22 109h352l-21 -106l-292 -644h-149z" />
    <glyph glyph-name="eight" unicode="8" horiz-adv-x="511" 
d="M75 212q4 20 11.5 44t19.5 47t29 41.5t40 27.5l2 7q-19 10 -28 29t-11 42t0.5 47t6.5 44q12 58 31.5 99.5t50.5 68t75 39t103 12.5q60 0 99.5 -11.5t61 -38t25 -68t-8.5 -101.5q-4 -20 -11 -44t-18 -47t-27.5 -42t-39.5 -29l-2 -7q20 -9 29.5 -27.5t12.5 -41.5t0.5 -47
t-6.5 -44q-12 -61 -32 -103t-51.5 -68.5t-75.5 -38.5t-104 -12q-61 0 -101.5 11t-62.5 37t-26 68.5t8 105.5zM385 651q-34 0 -54.5 -17t-30.5 -44q-4 -11 -7.5 -28t-6.5 -35t-4 -34.5t0 -26.5q2 -17 12 -28t31 -11h31q21 0 35 11t23 28q6 10 11.5 26.5t9.5 34.5t6.5 35
t2.5 28q2 27 -11.5 44t-47.5 17zM241 282q-7 -12 -13 -30.5t-10 -38.5t-5.5 -38.5t1.5 -30.5q3 -23 19.5 -34t41.5 -11q24 0 44.5 11t33.5 34q8 12 14 30.5t10 38.5t5 38.5t-1 30.5q-2 17 -10.5 29.5t-32.5 12.5h-36q-24 0 -38.5 -12.5t-22.5 -29.5z" />
    <glyph glyph-name="nine" unicode="9" horiz-adv-x="501" 
d="M137 515q12 58 32.5 103.5t52.5 77t77 48t105 16.5q48 0 85 -12t60 -37t31 -62.5t-2 -87.5l-74 -372q-21 -101 -89.5 -150t-164.5 -49q-103 0 -150 50.5t-28 144.5l11 55h143l-14 -67q-7 -33 8 -53.5t52 -20.5q36 0 58 21t28 53l27 135q-30 -24 -76 -24q-58 0 -96 15.5
t-58.5 45t-24.5 72.5t7 98zM382 651q-22 0 -37.5 -8t-27 -20.5t-18 -29t-10.5 -34.5l-14 -74q-4 -18 -3.5 -34.5t6.5 -29t18.5 -20.5t34.5 -8q36 0 57.5 21t28.5 53l22 111q6 31 -8 52t-49 21z" />
    <glyph glyph-name="colon" unicode=":" horiz-adv-x="184" 
d="M122 432h113l-23 -112h-112zM58 112h113l-23 -112h-112z" />
    <glyph glyph-name="semicolon" unicode=";" horiz-adv-x="182" 
d="M120 432h113l-23 -112h-112zM56 112h113l-23 -110l-61 -81h-67l61 79h-45z" />
    <glyph glyph-name="less" unicode="&#x3c;" horiz-adv-x="320" 
d="M118 425l277 109l-19 -93l-206 -85l-5 -23l172 -88l-19 -93l-233 113z" />
    <glyph glyph-name="equal" unicode="=" horiz-adv-x="397" 
d="M128 476h331l-20 -102h-331zM79 230h331l-21 -102h-331z" />
    <glyph glyph-name="greater" unicode="&#x3e;" horiz-adv-x="320" 
d="M373 425l-33 -160l-277 -113l19 93l205 88l5 23l-171 85l19 93z" />
    <glyph glyph-name="question" unicode="?" horiz-adv-x="462" 
d="M131 508l10 47q12 62 33 101.5t51 62.5t68.5 32t86.5 9t84 -9t57.5 -33t27 -66.5t-7.5 -108.5q-11 -57 -38.5 -98t-63 -72.5t-74 -57t-72 -50.5t-58.5 -53.5t-32 -65.5h-77q11 54 33.5 94.5t51 72.5t59.5 57.5t58 50.5t47 52t27 61q11 50 1 74.5t-49 24.5q-67 0 -82 -74
l-11 -51h-130zM191 0h-112l22 112h113z" />
    <glyph glyph-name="at" unicode="@" horiz-adv-x="707" 
d="M110 370q18 89 50 159t82 119.5t120.5 75.5t164.5 26q81 0 133 -19.5t79 -58.5t31 -97t-11 -136q-11 -55 -27 -105t-43.5 -88t-71 -60.5t-108.5 -22.5h-129q-32 0 -54.5 4.5t-35 17.5t-15.5 35t4 57l40 196q7 35 20.5 56.5t33 33.5t45.5 16t57 4h109l-63 -319
q-4 -17 4 -25.5t25 -8.5q36 0 61.5 19.5t42 48.5t26 62t14.5 61q13 66 13.5 116t-18 84t-60.5 51t-114 17q-82 0 -140 -21.5t-98.5 -62.5t-65.5 -100.5t-40 -134.5q-13 -65 -11 -122t24 -100t67 -67.5t117 -24.5q35 0 71 6t71 17l7 -59q-40 -12 -81 -18.5t-80 -6.5
q-86 0 -141 29t-83.5 79.5t-33 119t11.5 147.5zM367 270q-2 -14 5.5 -19.5t20.5 -5.5h34l51 257h-25q-17 0 -29 -6t-16 -26z" />
    <glyph glyph-name="A" unicode="A" 
d="M293 750h232l-31 -750h-145l18 219h-128l-70 -219h-145zM267 322h113l21 319h-28z" />
    <glyph glyph-name="B" unicode="B" horiz-adv-x="530" 
d="M415 750q117 0 165 -55.5t29 -153.5q-6 -27 -14 -54t-19.5 -49t-26.5 -37.5t-35 -21.5l-1 -7q18 -8 26.5 -25t10.5 -39.5t-1 -48t-8 -49.5q-21 -107 -91 -158.5t-185 -51.5h-226l150 750h226zM382 432q24 0 39.5 13t23.5 30q6 10 10.5 24.5t7.5 30t4.5 30t-0.5 23.5
q-2 23 -19 40.5t-55 17.5h-84l-41 -209h114zM287 109q34 0 62.5 17.5t40.5 52.5q3 9 6.5 22.5t6.5 28.5t5 29t2 23q2 23 -11 38.5t-37 15.5h-113l-46 -227h84z" />
    <glyph glyph-name="C" unicode="C" horiz-adv-x="524" 
d="M526 189q-21 -105 -91 -152t-175 -47q-106 0 -156.5 47.5t-30.5 151.5l75 372q21 104 90.5 151.5t175.5 47.5q105 0 156 -47t30 -152l-21 -105h-142l23 115q7 33 -9.5 56.5t-58.5 23.5t-67.5 -23t-32.5 -57l-78 -392q-7 -34 9.5 -57t58.5 -23t67.5 23.5t31.5 56.5l23 115
h143z" />
    <glyph glyph-name="D" unicode="D" horiz-adv-x="527" 
d="M189 750h226q105 0 156 -47t30 -152q-3 -17 -8.5 -45t-12 -60.5t-13.5 -68.5t-14 -69.5t-12.5 -62t-9.5 -46.5q-21 -105 -91 -152t-175 -47h-226zM287 109q42 0 67.5 23.5t31.5 56.5l75 372q7 33 -9.5 56.5t-58.5 23.5h-84l-106 -532h84z" />
    <glyph glyph-name="E" unicode="E" horiz-adv-x="457" 
d="M189 750h386l-22 -109h-244l-43 -215h219l-21 -103h-218l-43 -214h244l-22 -109h-386z" />
    <glyph glyph-name="F" unicode="F" horiz-adv-x="456" 
d="M189 750h386l-22 -109h-244l-43 -215h219l-21 -103h-218l-65 -323h-142z" />
    <glyph glyph-name="G" unicode="G" horiz-adv-x="525" 
d="M148 561q21 104 90.5 151.5t175.5 47.5q105 0 156 -47t30 -152l-14 -73h-143l17 83q7 33 -9.5 56.5t-58.5 23.5t-67.5 -23t-32.5 -57l-78 -392q-7 -34 9.5 -57t58.5 -23t67.5 23.5t31.5 56.5l12 57h-64l21 104h206l-30 -151q-21 -105 -91 -152t-175 -47
q-106 0 -156.5 47.5t-30.5 151.5z" />
    <glyph glyph-name="H" unicode="H" horiz-adv-x="530" 
d="M189 750h142l-65 -324h168l65 324h142l-150 -750h-142l65 324h-168l-65 -324h-142z" />
    <glyph glyph-name="I" unicode="I" horiz-adv-x="227" 
d="M192 750h143l-150 -750h-143z" />
    <glyph glyph-name="J" unicode="J" horiz-adv-x="321" 
d="M435 750q-6 -29 -14.5 -73.5t-19 -96t-22 -107.5t-22 -107.5t-19 -95t-14.5 -71.5q-12 -60 -34.5 -98.5t-54.5 -61t-72.5 -31t-88.5 -8.5h-45l22 109h20q38 0 69 18.5t39 56.5l113 566h143z" />
    <glyph glyph-name="K" unicode="K" 
d="M189 750h142l-64 -323h37l200 323h144l-229 -375l77 -375h-144l-69 324h-37l-65 -324h-142z" />
    <glyph glyph-name="L" unicode="L" horiz-adv-x="455" 
d="M189 750h142l-128 -641h244l-22 -109h-386z" />
    <glyph glyph-name="M" unicode="M" horiz-adv-x="735" 
d="M385 750l4 -636h3l258 636h196l-150 -750h-142l100 505l-217 -505h-139l-16 505l-101 -505h-142l150 750h196z" />
    <glyph glyph-name="N" unicode="N" horiz-adv-x="530" 
d="M189 750h142l64 -515l104 515h142l-150 -750h-142l-65 515l-103 -515h-142z" />
    <glyph glyph-name="O" unicode="O" horiz-adv-x="524" 
d="M148 561q21 104 90.5 151.5t175.5 47.5q105 0 156 -47t30 -152l-74 -372q-21 -105 -91 -152t-175 -47q-106 0 -156.5 47.5t-30.5 151.5zM214 179q-7 -34 9.5 -57t58.5 -23t67.5 23.5t31.5 56.5l79 392q7 33 -9.5 56.5t-58.5 23.5t-67.5 -23t-32.5 -57z" />
    <glyph glyph-name="P" unicode="P" horiz-adv-x="531" 
d="M416 750q122 0 167 -55t22 -172q-23 -119 -91 -176t-195 -57h-80l-58 -290h-142l150 750h227zM309 641l-48 -241h80q39 0 67 19t40 50q3 9 6.5 22.5t6.5 28t5 28.5t2 23q2 31 -17 50.5t-58 19.5h-84z" />
    <glyph glyph-name="Q" unicode="Q" horiz-adv-x="529" 
d="M148 561q21 104 90.5 151.5t175.5 47.5q105 0 156 -47t30 -152l-9 -45t-13 -66.5t-15 -76.5t-15.5 -76.5t-13 -65t-8.5 -42.5q-11 -56 -36 -94.5t-61 -61.5l74 -71q-10 -7 -29 -20t-39 -26.5t-37.5 -25t-24.5 -16.5q-4 6 -15 23.5t-23.5 37.5t-23.5 37t-14 23
q-20 -5 -37 -5q-106 0 -156.5 47.5t-30.5 151.5q4 17 9.5 46t13 64t15 74t15 75t13.5 65.5t9 47.5zM392 651q-42 0 -67.5 -23t-32.5 -57l-78 -392q-7 -34 9.5 -57t58.5 -23t67.5 23.5t31.5 56.5l79 392q7 33 -9.5 56.5t-58.5 23.5z" />
    <glyph glyph-name="R" unicode="R" horiz-adv-x="525" 
d="M189 750h227q122 0 167 -55t22 -172q-17 -85 -55.5 -138t-104.5 -75l48 -310h-137l-45 291q-5 -1 -9 -1h-8h-55l-58 -290h-142zM341 400q39 0 67 19t40 50q8 25 13 51t7 51q2 28 -13 46.5t-48 22.5q-3 0 -6.5 0.5t-7.5 0.5h-84l-48 -241h80z" />
    <glyph glyph-name="S" unicode="S" horiz-adv-x="534" 
d="M140 542q23 113 97 165.5t182 52.5q115 0 162.5 -51t23.5 -169q-2 -8 -3.5 -16.5t-3.5 -16.5h-143q2 5 3.5 14.5t3.5 14.5q5 23 5 43.5t-6.5 36.5t-22 25.5t-41.5 9.5q-41 0 -71.5 -24.5t-38.5 -66.5q-6 -30 4 -51t30 -36.5t46.5 -28.5t54.5 -26.5t54 -30.5t44.5 -41
t25.5 -57.5t-2 -80.5q-23 -114 -96.5 -166t-182.5 -52q-114 0 -161.5 51.5t-24.5 169.5q2 8 3.5 16t3.5 16h143q-2 -5 -3.5 -14.5t-2.5 -14.5q-5 -22 -5.5 -43t6.5 -37t22 -25.5t41 -9.5q44 0 73.5 26.5t38.5 70.5q6 30 -4 50.5t-30 36t-47 27.5t-55 25t-54.5 29.5t-44.5 40
t-25.5 57t1.5 80.5z" />
    <glyph glyph-name="T" unicode="T" horiz-adv-x="532" 
d="M652 750l-22 -109h-165l-128 -641h-142l128 641h-165l22 109h472z" />
    <glyph glyph-name="U" unicode="U" horiz-adv-x="526" 
d="M187 750h142l-114 -571q-7 -34 9.5 -57t58.5 -23t67.5 23.5t31.5 56.5l115 571h142l-112 -561q-21 -105 -91 -152t-175 -47q-106 0 -156.5 47.5t-30.5 151.5z" />
    <glyph glyph-name="V" unicode="V" horiz-adv-x="537" 
d="M177 750h148l-46 -641h22l210 641h149l-270 -750h-244z" />
    <glyph glyph-name="W" unicode="W" horiz-adv-x="825" 
d="M177 750h148l-46 -641h22l193 641h137l-63 -641h21l211 641h148l-269 -750h-206l63 612h-2l-182 -612h-206z" />
    <glyph glyph-name="X" unicode="X" horiz-adv-x="547" 
d="M177 750h144l33 -317h13l159 317h144l-191 -375l40 -375h-144l-31 317h-14l-158 -317h-144l190 375z" />
    <glyph glyph-name="Y" unicode="Y" horiz-adv-x="545" 
d="M325 750l28 -346l167 346h149l-276 -502l-49 -248h-143l50 248l-74 502h148z" />
    <glyph glyph-name="Z" unicode="Z" horiz-adv-x="466" 
d="M201 109h255l-21 -109h-407l21 107l364 534h-256l22 109h407l-21 -106z" />
    <glyph glyph-name="bracketleft" unicode="[" horiz-adv-x="286" 
d="M189 750h216l-20 -100h-105l-110 -550h105l-20 -100h-216z" />
    <glyph glyph-name="backslash" unicode="\" horiz-adv-x="289" 
d="M291 750l-31 -750h-112l31 750h112z" />
    <glyph glyph-name="bracketright" unicode="]" horiz-adv-x="286" 
d="M397 750l-150 -750h-216l20 100h105l110 550h-105l20 100h216z" />
    <glyph glyph-name="asciicircum" unicode="^" horiz-adv-x="342" 
d="M242 750h158l6 -276h-93l5 209h-20l-79 -209h-92z" />
    <glyph glyph-name="underscore" unicode="_" horiz-adv-x="441" 
d="M26 -10h381l-16 -78h-381z" />
    <glyph glyph-name="grave" unicode="`" horiz-adv-x="216" 
d="M176 750h115l22 -135h-84z" />
    <glyph glyph-name="a" unicode="a" 
d="M293 750h232l-31 -750h-145l18 219h-128l-70 -219h-145q19 50 41 111.5t45.5 128t48 135.5t48.5 135.5t46 128t40 111.5zM267 322h113l21 319h-28z" />
    <glyph glyph-name="b" unicode="b" horiz-adv-x="530" 
d="M415 750q117 0 165 -55.5t29 -153.5q-6 -27 -14 -54t-19.5 -49t-26.5 -37.5t-35 -21.5l-1 -7q18 -8 26.5 -25t10.5 -39.5t-1 -48t-8 -49.5q-21 -107 -91 -158.5t-185 -51.5h-226l150 750h226zM382 432q24 0 39.5 13t23.5 30q6 10 10.5 24.5t7.5 30t4.5 30t-0.5 23.5
q-2 23 -19 40.5t-55 17.5h-84l-41 -209h114zM287 109q34 0 62.5 17.5t40.5 52.5q3 9 6.5 22.5t6.5 28.5t5 29t2 23q2 23 -11 38.5t-37 15.5h-113l-46 -227h84z" />
    <glyph glyph-name="c" unicode="c" horiz-adv-x="524" 
d="M526 189q-21 -105 -91 -152t-175 -47q-106 0 -156.5 47.5t-30.5 151.5l75 372q21 104 90.5 151.5t175.5 47.5q105 0 156 -47t30 -152l-21 -105h-142l23 115q7 33 -9.5 56.5t-58.5 23.5t-67.5 -23t-32.5 -57l-78 -392q-7 -34 9.5 -57t58.5 -23t67.5 23.5t31.5 56.5l23 115
h143z" />
    <glyph glyph-name="d" unicode="d" horiz-adv-x="525" 
d="M187 750h226q105 0 156 -47t30 -152q-3 -17 -8.5 -45t-12 -60.5t-13.5 -68.5t-14 -69.5t-12.5 -62t-9.5 -46.5q-21 -105 -91 -152t-175 -47h-226zM285 109q42 0 67.5 23.5t31.5 56.5l75 372q7 33 -9.5 56.5t-58.5 23.5h-84l-106 -532h84z" />
    <glyph glyph-name="e" unicode="e" horiz-adv-x="457" 
d="M189 750h386l-22 -109h-244l-43 -215h219l-21 -103h-218l-43 -214h244l-22 -109h-386z" />
    <glyph glyph-name="f" unicode="f" horiz-adv-x="456" 
d="M189 750h386l-22 -109h-244l-43 -215h219l-21 -103h-218l-65 -323h-142z" />
    <glyph glyph-name="g" unicode="g" horiz-adv-x="525" 
d="M148 561q21 104 90.5 151.5t175.5 47.5q105 0 156 -47t30 -152l-14 -73h-143l17 83q7 33 -9.5 56.5t-58.5 23.5t-67.5 -23t-32.5 -57l-78 -392q-7 -34 9.5 -57t58.5 -23t67.5 23.5t31.5 56.5l12 57h-64l21 104h206l-30 -151q-21 -105 -91 -152t-175 -47
q-106 0 -156.5 47.5t-30.5 151.5z" />
    <glyph glyph-name="h" unicode="h" horiz-adv-x="530" 
d="M189 750h142l-65 -324h168l65 324h142l-150 -750h-142l65 324h-168l-65 -324h-142z" />
    <glyph glyph-name="i" unicode="i" horiz-adv-x="227" 
d="M192 750h143l-150 -750h-143z" />
    <glyph glyph-name="j" unicode="j" horiz-adv-x="321" 
d="M435 750q-6 -29 -14.5 -73.5t-19 -96t-22 -107.5t-22 -107.5t-19 -95t-14.5 -71.5q-12 -60 -34.5 -98.5t-54.5 -61t-72.5 -31t-88.5 -8.5h-45l22 109h20q38 0 69 18.5t39 56.5l113 566h143z" />
    <glyph glyph-name="k" unicode="k" 
d="M189 750h142l-64 -323h37l200 323h144l-229 -375l77 -375h-144l-69 324h-37l-65 -324h-142z" />
    <glyph glyph-name="l" unicode="l" horiz-adv-x="455" 
d="M189 750h142l-128 -641h244l-22 -109h-386z" />
    <glyph glyph-name="m" unicode="m" horiz-adv-x="750" 
d="M385 750l12 -636h2l266 636h196l-150 -750h-142l100 505l-226 -505h-136l-25 505l-101 -505h-142l150 750h196z" />
    <glyph glyph-name="n" unicode="n" horiz-adv-x="530" 
d="M189 750h142l64 -515l104 515h142l-150 -750h-142l-65 515l-103 -515h-142z" />
    <glyph glyph-name="o" unicode="o" horiz-adv-x="524" 
d="M148 561q21 104 90.5 151.5t175.5 47.5q105 0 156 -47t30 -152l-74 -372q-21 -105 -91 -152t-175 -47q-106 0 -156.5 47.5t-30.5 151.5zM214 179q-7 -34 9.5 -57t58.5 -23t67.5 23.5t31.5 56.5l79 392q7 33 -9.5 56.5t-58.5 23.5t-67.5 -23t-32.5 -57z" />
    <glyph glyph-name="p" unicode="p" horiz-adv-x="531" 
d="M416 750q122 0 167 -55t22 -172q-23 -119 -91 -176t-195 -57h-80l-58 -290h-142l150 750h227zM309 641l-48 -241h80q39 0 67 19t40 50q3 9 6.5 22.5t6.5 28t5 28.5t2 23q2 31 -17 50.5t-58 19.5h-84z" />
    <glyph glyph-name="q" unicode="q" horiz-adv-x="529" 
d="M148 561q21 104 90.5 151.5t175.5 47.5q105 0 156 -47t30 -152l-9 -45t-13 -66.5t-15 -76.5t-15.5 -76.5t-13 -65t-8.5 -42.5q-11 -56 -36 -94.5t-61 -61.5l74 -71q-10 -7 -29 -20t-39 -26.5t-37.5 -25t-24.5 -16.5q-4 6 -15 23.5t-23.5 37.5t-23.5 37t-14 23
q-20 -5 -37 -5q-106 0 -156.5 47.5t-30.5 151.5q4 17 9.5 46t13 64t15 74t15 75t13.5 65.5t9 47.5zM392 651q-42 0 -67.5 -23t-32.5 -57l-78 -392q-7 -34 9.5 -57t58.5 -23t67.5 23.5t31.5 56.5l79 392q7 33 -9.5 56.5t-58.5 23.5z" />
    <glyph glyph-name="r" unicode="r" horiz-adv-x="525" 
d="M189 750h227q122 0 167 -55t22 -172q-17 -85 -55.5 -138t-104.5 -75l48 -310h-137l-45 291q-5 -1 -9 -1h-8h-55l-58 -290h-142zM341 400q39 0 67 19t40 50q8 25 13 51t7 51q2 28 -13 46.5t-48 22.5q-3 0 -6.5 0.5t-7.5 0.5h-84l-48 -241h80z" />
    <glyph glyph-name="s" unicode="s" horiz-adv-x="534" 
d="M140 542q23 113 97 165.5t182 52.5q115 0 162.5 -51t23.5 -169q-2 -8 -3.5 -16.5t-3.5 -16.5h-143q2 5 3.5 14.5t3.5 14.5q5 23 5 43.5t-6.5 36.5t-22 25.5t-41.5 9.5q-41 0 -71.5 -24.5t-38.5 -66.5q-6 -30 4 -51t30 -36.5t46.5 -28.5t54.5 -26.5t54 -30.5t44.5 -41
t25.5 -57.5t-2 -80.5q-23 -114 -96.5 -166t-182.5 -52q-114 0 -161.5 51.5t-24.5 169.5q2 8 3.5 16t3.5 16h143q-2 -5 -3.5 -14.5t-2.5 -14.5q-5 -22 -5.5 -43t6.5 -37t22 -25.5t41 -9.5q44 0 73.5 26.5t38.5 70.5q6 30 -4 50.5t-30 36t-47 27.5t-55 25t-54.5 29.5t-44.5 40
t-25.5 57t1.5 80.5z" />
    <glyph glyph-name="t" unicode="t" horiz-adv-x="532" 
d="M652 750l-22 -109h-165l-128 -641h-142l128 641h-165l22 109h472z" />
    <glyph glyph-name="u" unicode="u" horiz-adv-x="526" 
d="M187 750h142l-114 -571q-7 -34 9.5 -57t58.5 -23t67.5 23.5t31.5 56.5l115 571h142l-112 -561q-21 -105 -91 -152t-175 -47q-106 0 -156.5 47.5t-30.5 151.5z" />
    <glyph glyph-name="v" unicode="v" horiz-adv-x="537" 
d="M177 750h148l-46 -641h22l210 641h149l-270 -750h-244z" />
    <glyph glyph-name="w" unicode="w" horiz-adv-x="825" 
d="M177 750h148l-46 -641h22l193 641h137l-63 -641h21l211 641h148l-269 -750h-206l63 612h-2l-182 -612h-206z" />
    <glyph glyph-name="x" unicode="x" horiz-adv-x="547" 
d="M177 750h144l33 -317h13l159 317h144l-191 -375l40 -375h-144l-31 317h-14l-158 -317h-144l190 375z" />
    <glyph glyph-name="y" unicode="y" horiz-adv-x="545" 
d="M325 750l28 -346l167 346h149l-276 -502l-49 -248h-143l50 248l-74 502h148z" />
    <glyph glyph-name="z" unicode="z" horiz-adv-x="466" 
d="M201 109h255l-21 -109h-407l21 107l364 534h-256l22 109h407l-21 -106z" />
    <glyph glyph-name="braceleft" unicode="{" horiz-adv-x="291" 
d="M106 386q29 16 45 41t24.5 53.5t12.5 58t9 55.5q9 45 28 75t47 48t63 25.5t75 7.5l-20 -99q-29 0 -52.5 -17t-29.5 -47q-4 -21 -9 -53t-14 -63.5t-24 -57t-41 -34.5l-1 -7q22 -9 27 -34.5t1 -57.5t-12 -64t-12 -53q-6 -30 11 -47t46 -17l-20 -99q-40 0 -72 7.5
t-52.5 25.5t-27.5 48t2 75q5 26 13 55.5t10.5 58t-3.5 53.5t-29 41z" />
    <glyph glyph-name="bar" unicode="|" horiz-adv-x="195" 
d="M198 780h111l-162 -810h-111z" />
    <glyph glyph-name="braceright" unicode="}" horiz-adv-x="291" 
d="M335 364q-29 -16 -45 -41t-24.5 -53.5t-12.5 -58t-9 -55.5q-9 -45 -28 -75t-47 -48t-62.5 -25.5t-75.5 -7.5l20 99q29 0 52.5 17t29.5 47q4 21 9 53t14 64t24.5 57.5t40.5 34.5l1 7q-22 9 -27 34.5t-1 57t12 63.5t12 53q6 30 -11 47t-46 17l20 99q41 0 72.5 -7.5
t52 -25.5t27.5 -48t-2 -75q-5 -26 -13 -55.5t-10.5 -58t4 -53.5t28.5 -41z" />
    <glyph glyph-name="asciitilde" unicode="~" horiz-adv-x="503" 
d="M85 250q9 44 25 73t36.5 46.5t44.5 25t48 7.5q42 0 82.5 -10t72.5 -10q22 0 37.5 13.5t20.5 38.5h103q-9 -45 -25.5 -75t-37.5 -48t-45.5 -25.5t-49.5 -7.5q-42 0 -83.5 9.5t-71.5 9.5q-21 0 -35 -12.5t-19 -34.5h-103z" />
    <glyph glyph-name="exclamdown" unicode="&#xa1;" horiz-adv-x="202" 
d="M297 700l-22 -112h-113l23 112h112zM26 -50l161 604h51l-82 -604h-130z" />
    <glyph glyph-name="cent" unicode="&#xa2;" horiz-adv-x="521" 
d="M133 492q18 91 72 137.5t138 57.5l14 73h112l-15 -73q79 -11 114.5 -57.5t16.5 -137.5l-12 -64h-143l15 74q7 33 -9.5 56t-58.5 23t-67.5 -23t-32.5 -56l-50 -253q-7 -33 9.5 -56t58.5 -23t67.5 23t31.5 56l15 75h143l-13 -65q-18 -91 -72 -137.5t-138 -57.5l-14 -74
h-112l15 74q-79 11 -114.5 57.5t-17.5 137.5z" />
    <glyph glyph-name="sterling" unicode="&#xa3;" horiz-adv-x="568" 
d="M488 386l-21 -102h-183l-35 -175h290l-22 -109h-433l57 284h-54l21 102h53l36 175q20 104 90 151.5t175 47.5q106 0 157 -47t30 -152l-11 -56h-143l14 66q7 33 -9.5 56.5t-58.5 23.5t-67.5 -23t-32.5 -57l-37 -185h184z" />
    <glyph glyph-name="currency" unicode="&#xa4;" horiz-adv-x="563" 
d="M132 369q8 38 26.5 71t44.5 60l-52 66l92 78l60 -74q48 25 101 25q25 0 46.5 -5.5t41.5 -15.5l85 74l59 -72l-74 -65q18 -29 25 -65t-1 -77q-8 -42 -30.5 -79.5t-54.5 -66.5l51 -68l-88 -72l-59 79q-45 -20 -92 -20q-25 0 -47 6t-41 17l-93 -78l-61 78l81 68
q-17 28 -22.5 62.5t2.5 73.5zM328 215q32 0 62 12t55.5 33t43.5 49t24 60t-0.5 60t-23.5 48.5t-42.5 32.5t-57.5 12q-31 0 -61.5 -12t-55.5 -32.5t-43 -48.5t-24 -60t0.5 -60t23 -49t42 -33t57.5 -12z" />
    <glyph glyph-name="yen" unicode="&#xa5;" horiz-adv-x="547" 
d="M326 750l33 -321l162 321h149l-216 -381h84l-14 -71h-110l-12 -21l-11 -52h118l-14 -72h-120l-30 -153h-143l31 153h-120l15 72h118l10 52l-4 21h-110l15 71h84l-63 381h148z" />
    <glyph glyph-name="brokenbar" unicode="&#xa6;" horiz-adv-x="191" 
d="M131 454l65 326h111l-65 -326h-111zM36 -20l65 326h111l-65 -326h-111z" />
    <glyph glyph-name="section" unicode="&#xa7;" horiz-adv-x="548" 
d="M147 542q23 112 98 165t181 53q56 0 96.5 -12.5t64.5 -39.5t30.5 -68.5t-4.5 -99.5l-4 -16l-4 -16h-143q2 5 3.5 14t3.5 14q5 22 5 42.5t-7 36.5t-22 26t-41 10q-39 0 -70.5 -25.5t-39.5 -65.5q-8 -39 12.5 -63t53 -43t69.5 -39t63 -51q0 -4 -2 -8q-13 3 -37.5 8.5
t-55 12t-64 13.5t-64.5 14t-56 12.5t-40 8.5q-17 21 -25.5 48.5t-0.5 68.5zM551 208q-23 -112 -98 -165t-181 -53q-112 0 -160.5 52.5t-26.5 167.5q2 8 4 16.5t4 16.5h143q-2 -5 -4 -14.5t-3 -14.5q-4 -22 -4.5 -42.5t6.5 -36.5t22 -26t41 -10q42 0 72.5 27t38.5 69
q5 26 -3 44.5t-24 32.5t-38 26t-45.5 25t-45.5 28t-39 36l3 7q10 -2 34.5 -7.5t56.5 -12t67.5 -14.5t67 -14.5t55.5 -12t33 -7.5q17 -21 24.5 -49t-0.5 -69z" />
    <glyph glyph-name="dieresis" unicode="&#xa8;" horiz-adv-x="294" 
d="M397 646h-103l20 104h104zM259 646h-104l21 104h103z" />
    <glyph glyph-name="copyright" unicode="&#xa9;" horiz-adv-x="831" 
d="M114 373q16 81 58 150.5t102.5 119.5t135.5 78.5t156 28.5t144.5 -28.5t103.5 -78.5t55 -119.5t-1 -150.5t-58.5 -150.5t-103 -119.5t-135.5 -78.5t-156 -28.5t-144.5 28.5t-104 78.5t-54.5 119.5t2 150.5zM166 373q-14 -70 -1.5 -129.5t47 -102.5t89.5 -67.5t125 -24.5
t134 24.5t116 67.5t88.5 102.5t50.5 129.5t1.5 129.5t-47.5 102.5t-89.5 67.5t-124.5 24.5t-134.5 -24.5t-116.5 -67.5t-88 -102.5t-50 -129.5zM646 312l-16 -79q-15 -78 -67 -113t-130 -35t-116 35t-23 113l57 284q16 78 67.5 113t129.5 35q79 0 117 -35.5t22 -112.5
l-16 -79h-102l17 86q5 26 -7.5 44.5t-45.5 18.5q-32 0 -52.5 -18.5t-25.5 -44.5l-59 -298q-6 -26 7 -44t45 -18q33 0 53 18t25 44l17 86h103z" />
    <glyph glyph-name="ordfeminine" unicode="&#xaa;" horiz-adv-x="276" 
d="M235 750h106l-14 -339h-66l8 99h-59l-31 -99h-65zM222 556h52l10 145h-13z" />
    <glyph glyph-name="guillemotleft" unicode="&#xab;" horiz-adv-x="464" 
d="M325 346v-4l145 -169l-20 -97l-203 233l15 72l296 229l-20 -97zM168 346l-1 -4l145 -169l-19 -97l-204 233l15 72l296 229l-20 -97z" />
    <glyph glyph-name="logicalnot" unicode="&#xac;" horiz-adv-x="509" 
d="M102 313h432l-59 -292h-78l43 214h-354z" />
    <glyph glyph-name="registered" unicode="&#xae;" horiz-adv-x="817" 
d="M559 750q81 0 144.5 -28.5t103.5 -78.5t55 -119.5t-1 -150.5t-58.5 -150.5t-103 -119.5t-135.5 -78.5t-156 -28.5t-144.5 28.5t-104 78.5t-54.5 119.5t2 150.5t58 150.5t102.5 119.5t135.5 78.5t156 28.5zM159 373q-14 -70 -1.5 -129.5t47 -102.5t89.5 -67.5t125 -24.5
t134 24.5t116 67.5t88.5 102.5t50.5 129.5t1.5 129.5t-47.5 102.5t-89.5 67.5t-124.5 24.5t-134.5 -24.5t-116.5 -67.5t-88 -102.5t-50 -129.5zM396 636h154q83 0 113.5 -38t14.5 -117q-12 -58 -38.5 -95t-74.5 -52l35 -214h-89l-31 202h-12h-42l-41 -202h-92zM497 392
q23 0 44 11t30 32q2 3 3 5.5t2 5.5q6 19 9.5 38t3.5 39q-1 17 -12 27.5t-28 14.5h-10h-65l-34 -173h57z" />
    <glyph glyph-name="macron" unicode="&#xaf;" horiz-adv-x="379" 
d="M162 688h331l-21 -103h-331z" />
    <glyph glyph-name="degree" unicode="&#xb0;" horiz-adv-x="295" 
d="M148 582q10 51 49 83.5t90 32.5t77 -32.5t16 -83.5q-5 -25 -18 -46.5t-31.5 -37t-41.5 -24t-48 -8.5q-50 0 -76.5 32.5t-16.5 83.5zM213 582q-5 -23 6.5 -37t34.5 -14t39.5 14t21.5 37t-6.5 37t-34.5 14t-39.5 -14t-21.5 -37z" />
    <glyph glyph-name="plusminus" unicode="&#xb1;" horiz-adv-x="390" 
d="M118 426h108l24 119h109l-24 -119h108l-20 -102h-108l-24 -119h-109l24 119h-108zM67 172h325l-20 -103h-325z" />
    <glyph glyph-name="twosuperior" unicode="&#xb2;" horiz-adv-x="272" 
d="M277 707q-15 0 -25.5 -10t-12.5 -25q0 -2 -1.5 -7t-2.5 -11t-2 -10.5t-1 -5.5h-66q1 3 2.5 13t2.5 12q11 53 41 73t76 20q51 0 69.5 -21t7.5 -78q-8 -41 -33.5 -69t-53.5 -49t-51 -39t-28 -39h120q0 -1 -1.5 -8.5t-3.5 -15.5t-3.5 -15.5t-1.5 -9.5h-184q2 6 5 22.5
t5 23.5q7 38 29.5 62.5t48 43.5t48.5 36.5t32 40.5q5 8 7.5 20.5t0.5 20.5q0 10 -5 17.5t-19 7.5z" />
    <glyph glyph-name="threesuperior" unicode="&#xb3;" horiz-adv-x="270" 
d="M167 640l4 24q11 53 40 72.5t74 19.5q54 0 71 -23.5t6 -80.5q-3 -17 -12 -38t-28 -28l-1 -4q8 -3 12 -10.5t5 -16.5t0 -19.5t-3 -19.5q-11 -57 -38 -80.5t-81 -23.5q-45 0 -66 20t-11 72l5 24h64l-6 -31q-4 -17 2.5 -26.5t21.5 -9.5q23 0 32 17.5t13 39.5q4 18 0.5 30
t-27.5 13l9 46q26 1 33.5 12.5t11.5 31.5q2 10 3 20t-1 18t-7.5 13t-17.5 5q-14 0 -24.5 -9.5t-13.5 -26.5l-6 -31h-64z" />
    <glyph glyph-name="acute" unicode="&#xb4;" horiz-adv-x="216" 
d="M225 750h115l-107 -135h-84z" />
    <glyph glyph-name="paragraph" unicode="&#xb6;" horiz-adv-x="426" 
d="M311 386q-52 0 -86 15t-52.5 40.5t-23 58.5t2.5 69q8 36 25.5 69t46 58t68.5 39.5t92 14.5h61l-156 -780h-61zM477 750h61l-156 -780h-61z" />
    <glyph glyph-name="periodcentered" unicode="&#xb7;" horiz-adv-x="178" 
d="M272 638h-112l23 112h112z" />
    <glyph glyph-name="cedilla" unicode="&#xb8;" horiz-adv-x="211" 
d="M16 -87q35 -4 52 10t21 31q3 16 -3 29.5t-20 15.5l56 15q32 -13 43 -37t5 -50q-4 -20 -16 -39t-30 -34t-42 -24t-52 -9q-16 0 -39 5z" />
    <glyph glyph-name="onesuperior" unicode="&#xb9;" horiz-adv-x="173" 
d="M175 681l10 49l39 20h61l-68 -339h-64l56 278z" />
    <glyph glyph-name="ordmasculine" unicode="&#xba;" horiz-adv-x="248" 
d="M165 670q9 44 39 66t72 22t62.5 -22t11.5 -66l-33 -171q-9 -44 -39 -66t-72 -22t-62.5 22t-11.5 66zM266 709q-14 0 -23 -9t-12 -22l-37 -187q-2 -13 3 -22t19 -9t24 9t12 22l38 187q2 13 -4 22t-20 9z" />
    <glyph glyph-name="guillemotright" unicode="&#xbb;" horiz-adv-x="464" 
d="M277 346l-146 167l20 97l204 -229l-15 -72l-297 -233l20 97l213 169zM434 346l-145 167l19 97l205 -229l-15 -72l-297 -233l20 97l213 169v4z" />
    <glyph glyph-name="onequarter" unicode="&#xbc;" horiz-adv-x="453" 
d="M412 750h57l-315 -750h-58zM165 681l10 49l39 20h61l-68 -339h-64l56 278zM431 99l-19 -99h-65l20 99h-103l10 48l127 193h79l-40 -194h13l-9 -47h-13zM376 146l29 142l-93 -142h64z" />
    <glyph glyph-name="onehalf" unicode="&#xbd;" horiz-adv-x="496" 
d="M175 730l39 20h61l-68 -339h-64l56 278l-34 -8zM475 750l-315 -750h-57l315 750h57zM428 295q-15 0 -25 -10t-13 -24q-1 -2 -2 -7t-2 -11t-2 -11t-1 -6h-66q1 3 3 13.5t2 12.5q11 53 40.5 72.5t75.5 19.5q51 0 70 -21t8 -78q-8 -41 -33.5 -69t-53.5 -49t-51 -38.5
t-28 -38.5h120q0 -1 -1.5 -8.5t-3.5 -16t-3.5 -16t-1.5 -9.5h-184q2 6 4.5 22.5t4.5 24.5q8 38 30.5 62t48 43t48.5 36.5t32 40.5q4 8 7.5 20.5t1.5 20.5q-1 10 -6 17.5t-19 7.5z" />
    <glyph glyph-name="threequarters" unicode="&#xbe;" horiz-adv-x="501" 
d="M157 640l4 24q11 53 40 72.5t74 19.5q54 0 71 -23.5t6 -80.5q-3 -17 -12 -38t-28 -28l-1 -4q8 -3 12 -10.5t5 -16.5t0 -19.5t-3 -19.5q-11 -57 -38 -80.5t-81 -23.5q-45 0 -66 20t-11 72l5 24h64l-6 -31q-4 -17 2.5 -26.5t21.5 -9.5q23 0 32 17.5t13 39.5q4 18 0.5 30
t-27.5 13l9 46q26 1 33.5 12.5t11.5 31.5q2 10 3 20t-1 18t-7.5 13t-17.5 5q-14 0 -24.5 -9.5t-13.5 -26.5l-6 -31h-64zM472 750h57l-315 -750h-58zM480 99l-20 -99h-65l20 99h-103l10 48l127 193h79l-40 -194h13l-9 -47h-12zM424 146l29 142l-93 -142h64z" />
    <glyph glyph-name="questiondown" unicode="&#xbf;" horiz-adv-x="462" 
d="M413 710h112l-23 -112h-112zM401 564h77q-11 -54 -34 -94.5t-51.5 -72.5t-59 -57.5t-57.5 -50.5t-47 -52t-27 -61q-11 -50 -1 -74.5t49 -24.5q67 0 82 74l11 52h130l-10 -48q-12 -62 -33 -101.5t-51 -62.5t-68.5 -32t-86.5 -9t-84 9t-57.5 33t-27 66.5t7.5 109.5
q12 57 39 97.5t62.5 72.5t74 57t72 50.5t58.5 53.5t32 65z" />
    <glyph glyph-name="Agrave" unicode="&#xc0;" 
d="M330 917h115l22 -135h-84zM293 750h232l-31 -750h-145l18 219h-128l-70 -219h-145zM267 322h113l21 319h-28z" />
    <glyph glyph-name="Aacute" unicode="&#xc1;" 
d="M443 917h115l-108 -135h-84zM293 750h232l-31 -750h-145l18 219h-128l-70 -219h-145zM267 322h113l21 319h-28z" />
    <glyph glyph-name="Acircumflex" unicode="&#xc2;" 
d="M392 917h101l81 -135h-96l-48 64h-3l-75 -64h-95zM293 750h232l-31 -750h-145l18 219h-128l-70 -219h-145zM267 322h113l21 319h-28z" />
    <glyph glyph-name="Atilde" unicode="&#xc3;" 
d="M345 782h-69q14 56 42 77.5t59 21.5q27 0 53.5 -8t45.5 -8q12 0 20.5 7.5t11.5 18.5h68q-13 -56 -41 -77.5t-59 -21.5q-27 0 -53.5 8t-46.5 8q-11 0 -19.5 -7.5t-11.5 -18.5zM293 750h232l-31 -750h-145l18 219h-128l-70 -219h-145zM267 322h113l21 319h-28z" />
    <glyph glyph-name="Adieresis" unicode="&#xc4;" 
d="M535 775h-103l20 103h104zM396 775h-103l21 103h103zM293 750h232l-31 -750h-145l18 219h-128l-70 -219h-145zM267 322h113l21 319h-28z" />
    <glyph glyph-name="Aring" unicode="&#xc5;" 
d="M343 869q8 39 38 64t70 25q39 0 59 -25t12 -64t-38 -64.5t-69 -25.5q-40 0 -60 25.5t-12 64.5zM381 869q-5 -23 6.5 -37t34.5 -14t40 14t21 37q5 23 -6.5 37t-34.5 14t-39.5 -14t-21.5 -37zM293 750h232l-31 -750h-145l18 219h-128l-70 -219h-145zM267 322h113l21 319
h-28z" />
    <glyph glyph-name="AE" unicode="&#xc6;" horiz-adv-x="691" 
d="M293 750h516l-22 -109h-243l-43 -215h218l-20 -103h-219l-43 -214h244l-22 -109h-386l44 219h-78l-70 -219h-145zM267 322h70l64 319h-28z" />
    <glyph glyph-name="Ccedilla" unicode="&#xc7;" horiz-adv-x="524" 
d="M148 561q21 104 90.5 151.5t175.5 47.5q105 0 156 -47t30 -152l-21 -105h-142l23 115q7 33 -9.5 56.5t-58.5 23.5t-67.5 -23t-32.5 -57l-78 -392q-7 -34 9.5 -57t58.5 -23t67.5 23.5t31.5 56.5l23 115h143l-21 -105q-19 -94 -76.5 -141.5t-145.5 -55.5q11 -14 15 -31
t1 -34q-4 -20 -16 -39t-30.5 -34t-42.5 -24t-52 -9q-16 0 -39 5l25 87q35 -4 52.5 10t20.5 31q5 23 -8 37q-91 6 -133.5 53.5t-23.5 144.5z" />
    <glyph glyph-name="Egrave" unicode="&#xc8;" horiz-adv-x="457" 
d="M305 917h115l22 -135h-84zM189 750h386l-22 -109h-244l-43 -215h219l-21 -103h-218l-43 -214h244l-22 -109h-386z" />
    <glyph glyph-name="Eacute" unicode="&#xc9;" horiz-adv-x="457" 
d="M408 917h115l-108 -135h-84zM189 750h386l-22 -109h-244l-43 -215h219l-21 -103h-218l-43 -214h244l-22 -109h-386z" />
    <glyph glyph-name="Ecircumflex" unicode="&#xca;" horiz-adv-x="457" 
d="M365 917h101l80 -135h-95l-48 64h-3l-75 -64h-96zM189 750h386l-22 -109h-244l-43 -215h219l-21 -103h-218l-43 -214h244l-22 -109h-386z" />
    <glyph glyph-name="Edieresis" unicode="&#xcb;" horiz-adv-x="457" 
d="M509 782h-103l21 104h104zM370 782h-103l21 104h104zM189 750h386l-22 -109h-244l-43 -215h219l-21 -103h-218l-43 -214h244l-22 -109h-386z" />
    <glyph glyph-name="Igrave" unicode="&#xcc;" horiz-adv-x="220" 
d="M174 917h115l22 -135h-84zM189 750h142l-150 -750h-142z" />
    <glyph glyph-name="Iacute" unicode="&#xcd;" horiz-adv-x="220" 
d="M303 917h115l-108 -135h-83zM189 750h142l-150 -750h-142z" />
    <glyph glyph-name="Icircumflex" unicode="&#xce;" horiz-adv-x="220" 
d="M244 917h100l81 -135h-95l-48 64h-4l-75 -64h-95zM189 750h142l-150 -750h-142z" />
    <glyph glyph-name="Idieresis" unicode="&#xcf;" horiz-adv-x="220" 
d="M387 782h-104l22 104h103zM249 782h-104l21 104h104zM189 750h142l-150 -750h-142z" />
    <glyph glyph-name="Eth" unicode="&#xd0;" horiz-adv-x="562" 
d="M224 750h225q106 0 157 -47t30 -152l-70 -352q-21 -105 -91 -152t-176 -47h-225l65 330h-53l20 103h54zM282 330l-44 -221h84q42 0 67 23.5t32 56.5l75 372q7 33 -9.5 56.5t-58.5 23.5h-84l-41 -208h80l-21 -103h-80z" />
    <glyph glyph-name="Ntilde" unicode="&#xd1;" horiz-adv-x="530" 
d="M360 782h-68q13 56 41.5 77.5t59.5 21.5q27 0 53.5 -8t45.5 -8q12 0 20.5 7.5t11.5 18.5h68q-13 -56 -41 -77.5t-60 -21.5q-27 0 -53 8t-46 8q-11 0 -19.5 -7.5t-12.5 -18.5zM189 750h142l64 -515l104 515h142l-150 -750h-142l-65 515l-103 -515h-142z" />
    <glyph glyph-name="Ograve" unicode="&#xd2;" horiz-adv-x="524" 
d="M446 917l22 -135h-84l-53 135h115zM148 561q21 104 90.5 151.5t175.5 47.5q105 0 156 -47t30 -152l-74 -372q-21 -105 -91 -152t-175 -47q-106 0 -156.5 47.5t-30.5 151.5zM214 179q-7 -34 9.5 -57t58.5 -23t67.5 23.5t31.5 56.5l79 392q7 33 -9.5 56.5t-58.5 23.5
t-67.5 -23t-32.5 -57z" />
    <glyph glyph-name="Oacute" unicode="&#xd3;" horiz-adv-x="524" 
d="M566 917l-108 -135h-84l77 135h115zM148 561q21 104 90.5 151.5t175.5 47.5q105 0 156 -47t30 -152l-74 -372q-21 -105 -91 -152t-175 -47q-106 0 -156.5 47.5t-30.5 151.5zM214 179q-7 -34 9.5 -57t58.5 -23t67.5 23.5t31.5 56.5l79 392q7 33 -9.5 56.5t-58.5 23.5
t-67.5 -23t-32.5 -57z" />
    <glyph glyph-name="Ocircumflex" unicode="&#xd4;" horiz-adv-x="524" 
d="M496 917l80 -135h-95l-48 64h-3l-75 -64h-96l136 135h101zM148 561q21 104 90.5 151.5t175.5 47.5q105 0 156 -47t30 -152l-74 -372q-21 -105 -91 -152t-175 -47q-106 0 -156.5 47.5t-30.5 151.5zM214 179q-7 -34 9.5 -57t58.5 -23t67.5 23.5t31.5 56.5l79 392
q7 33 -9.5 56.5t-58.5 23.5t-67.5 -23t-32.5 -57z" />
    <glyph glyph-name="Otilde" unicode="&#xd5;" horiz-adv-x="524" 
d="M279 782q13 56 41.5 77.5t59.5 21.5q27 0 53.5 -8t45.5 -8q12 0 20.5 7.5t11.5 18.5h68q-13 -56 -41 -77.5t-60 -21.5q-27 0 -53 8t-46 8q-11 0 -19.5 -7.5t-12.5 -18.5h-68zM148 561q21 104 90.5 151.5t175.5 47.5q105 0 156 -47t30 -152l-74 -372q-21 -105 -91 -152
t-175 -47q-106 0 -156.5 47.5t-30.5 151.5zM214 179q-7 -34 9.5 -57t58.5 -23t67.5 23.5t31.5 56.5l79 392q7 33 -9.5 56.5t-58.5 23.5t-67.5 -23t-32.5 -57z" />
    <glyph glyph-name="Odieresis" unicode="&#xd6;" horiz-adv-x="524" 
d="M435 782l22 104h103l-21 -104h-104zM297 782l21 104h104l-21 -104h-104zM148 561q21 104 90.5 151.5t175.5 47.5q105 0 156 -47t30 -152l-74 -372q-21 -105 -91 -152t-175 -47q-106 0 -156.5 47.5t-30.5 151.5zM214 179q-7 -34 9.5 -57t58.5 -23t67.5 23.5t31.5 56.5
l79 392q7 33 -9.5 56.5t-58.5 23.5t-67.5 -23t-32.5 -57z" />
    <glyph glyph-name="multiply" unicode="&#xd7;" horiz-adv-x="501" 
d="M340 446l171 150l63 -71l-177 -154l115 -155l-91 -71l-111 150l-172 -150l-62 71l177 155l-115 154l90 71z" />
    <glyph glyph-name="Oslash" unicode="&#xd8;" horiz-adv-x="527" 
d="M149 561q20 104 90 151.5t175 47.5q106 0 157 -47t30 -152l-74 -372q-21 -105 -91 -152t-176 -47q-105 0 -156 47.5t-30 151.5zM215 179q-7 -34 9.5 -57t58.5 -23t67 23.5t32 56.5l79 392q7 33 -9.5 56.5t-58.5 23.5t-67.5 -23t-32.5 -57zM605 760l-471 -770h-62l471 770
h62z" />
    <glyph glyph-name="Ugrave" unicode="&#xd9;" horiz-adv-x="526" 
d="M332 917h115l22 -135h-84zM187 750h142l-114 -571q-7 -34 9.5 -57t58.5 -23t67.5 23.5t31.5 56.5l115 571h142l-112 -561q-21 -105 -91 -152t-175 -47q-106 0 -156.5 47.5t-30.5 151.5z" />
    <glyph glyph-name="Uacute" unicode="&#xda;" horiz-adv-x="526" 
d="M446 917h115l-108 -135h-84zM187 750h142l-114 -571q-7 -34 9.5 -57t58.5 -23t67.5 23.5t31.5 56.5l115 571h142l-112 -561q-21 -105 -91 -152t-175 -47q-106 0 -156.5 47.5t-30.5 151.5z" />
    <glyph glyph-name="Ucircumflex" unicode="&#xdb;" horiz-adv-x="526" 
d="M397 917h100l81 -135h-95l-48 64h-4l-75 -64h-95zM187 750h142l-114 -571q-7 -34 9.5 -57t58.5 -23t67.5 23.5t31.5 56.5l115 571h142l-112 -561q-21 -105 -91 -152t-175 -47q-106 0 -156.5 47.5t-30.5 151.5z" />
    <glyph glyph-name="Udieresis" unicode="&#xdc;" horiz-adv-x="526" 
d="M539 782h-104l21 104h104zM401 782h-104l22 104h103zM187 750h142l-114 -571q-7 -34 9.5 -57t58.5 -23t67.5 23.5t31.5 56.5l115 571h142l-112 -561q-21 -105 -91 -152t-175 -47q-106 0 -156.5 47.5t-30.5 151.5z" />
    <glyph glyph-name="Yacute" unicode="&#xdd;" horiz-adv-x="545" 
d="M576 917l-108 -135h-84l77 135h115zM325 750l28 -346l167 346h149l-276 -502l-49 -248h-143l50 248l-74 502h148z" />
    <glyph glyph-name="Thorn" unicode="&#xde;" horiz-adv-x="531" 
d="M331 750l-27 -136h85q122 0 167 -55t22 -172q-24 -119 -91.5 -176t-194.5 -57h-80l-31 -154h-142l150 750h142zM282 505l-48 -241h80q39 0 67 19t40 50q3 9 6.5 22.5t6.5 28t5 28.5t2 23q2 31 -17 50.5t-58 19.5h-84z" />
    <glyph glyph-name="germandbls" unicode="&#xdf;" horiz-adv-x="1029" 
d="M635 542q23 113 96.5 165.5t181.5 52.5q115 0 162.5 -51t24.5 -169q-2 -8 -4 -16.5t-4 -16.5h-142q1 5 2.5 14.5t3.5 14.5q5 23 5 43.5t-6.5 36.5t-21.5 25.5t-41 9.5q-42 0 -72.5 -24.5t-38.5 -66.5q-6 -30 4 -51t30 -36.5t47 -28.5t55 -26.5t54 -30.5t44 -41
t25.5 -57.5t-2.5 -80.5q-23 -114 -96.5 -166t-182.5 -52q-114 0 -161.5 51.5t-24.5 169.5l4 16l4 16h142q-2 -5 -3.5 -14.5t-2.5 -14.5q-4 -22 -4.5 -43t6 -37t21.5 -25.5t41 -9.5q44 0 73.5 26.5t38.5 70.5q8 40 -11.5 64t-52.5 41.5t-72 33.5t-70.5 41.5t-48 64
t-3.5 101.5zM140 542q23 113 97 165.5t182 52.5q115 0 162.5 -51t23.5 -169q-2 -8 -3.5 -16.5t-3.5 -16.5h-143q2 5 3.5 14.5t3.5 14.5q5 23 5 43.5t-6.5 36.5t-22 25.5t-41.5 9.5q-41 0 -71.5 -24.5t-38.5 -66.5q-6 -30 4 -51t30 -36.5t46.5 -28.5t54.5 -26.5t54 -30.5
t44.5 -41t25.5 -57.5t-2 -80.5q-23 -114 -96.5 -166t-182.5 -52q-114 0 -161.5 51.5t-24.5 169.5q2 8 3.5 16t3.5 16h143q-2 -5 -3.5 -14.5t-2.5 -14.5q-5 -22 -5.5 -43t6.5 -37t22 -25.5t41 -9.5q44 0 73.5 26.5t38.5 70.5q6 30 -4 50.5t-30 36t-47 27.5t-55 25t-54.5 29.5
t-44.5 40t-25.5 57t1.5 80.5z" />
    <glyph glyph-name="agrave" unicode="&#xe0;" 
d="M330 917h115l22 -135h-84zM293 750h232l-31 -750h-145l18 219h-128l-70 -219h-145zM267 322h113l21 319h-28z" />
    <glyph glyph-name="aacute" unicode="&#xe1;" 
d="M443 917h115l-108 -135h-84zM293 750h232l-31 -750h-145l18 219h-128l-70 -219h-145zM267 322h113l21 319h-28z" />
    <glyph glyph-name="acircumflex" unicode="&#xe2;" 
d="M392 917h101l81 -135h-96l-48 64h-3l-75 -64h-95zM293 750h232l-31 -750h-145l18 219h-128l-70 -219h-145zM267 322h113l21 319h-28z" />
    <glyph glyph-name="atilde" unicode="&#xe3;" 
d="M345 782h-69q14 56 42 77.5t59 21.5q27 0 53.5 -8t45.5 -8q12 0 20.5 7.5t11.5 18.5h68q-13 -56 -41 -77.5t-59 -21.5q-27 0 -53.5 8t-46.5 8q-11 0 -19.5 -7.5t-11.5 -18.5zM293 750h232l-31 -750h-145l18 219h-128l-70 -219h-145zM267 322h113l21 319h-28z" />
    <glyph glyph-name="adieresis" unicode="&#xe4;" 
d="M535 775h-103l20 103h104zM396 775h-103l21 103h103zM293 750h232l-31 -750h-145l18 219h-128l-70 -219h-145zM267 322h113l21 319h-28z" />
    <glyph glyph-name="aring" unicode="&#xe5;" 
d="M343 869q8 39 38 64t70 25q39 0 59 -25t12 -64t-38 -64.5t-69 -25.5q-40 0 -60 25.5t-12 64.5zM381 869q-5 -23 6.5 -37t34.5 -14t40 14t21 37q5 23 -6.5 37t-34.5 14t-39.5 -14t-21.5 -37zM293 750h232l-31 -750h-145l18 219h-128l-70 -219h-145zM267 322h113l21 319
h-28z" />
    <glyph glyph-name="ae" unicode="&#xe6;" horiz-adv-x="691" 
d="M293 750h516l-22 -109h-243l-43 -215h218l-20 -103h-219l-43 -214h244l-22 -109h-386l44 219h-78l-70 -219h-145zM267 322h70l64 319h-28z" />
    <glyph glyph-name="ccedilla" unicode="&#xe7;" horiz-adv-x="520" 
d="M146 561q21 104 90.5 151.5t175.5 47.5q105 0 156 -47t30 -152l-21 -105h-142l23 115q7 33 -9.5 56.5t-58.5 23.5t-67.5 -23t-32.5 -57l-78 -392q-7 -34 9.5 -57t58.5 -23t67.5 23.5t31.5 56.5l23 115h143l-21 -105q-19 -94 -76.5 -141.5t-145.5 -55.5q11 -14 15 -31
t1 -34q-4 -20 -16 -39t-30.5 -34t-42.5 -24t-52 -9q-16 0 -39 5l25 87q35 -4 52.5 10t20.5 31q5 23 -8 37q-91 6 -133.5 53.5t-23.5 144.5z" />
    <glyph glyph-name="egrave" unicode="&#xe8;" horiz-adv-x="457" 
d="M305 917h115l22 -135h-84zM189 750h386l-22 -109h-244l-43 -215h219l-21 -103h-218l-43 -214h244l-22 -109h-386z" />
    <glyph glyph-name="eacute" unicode="&#xe9;" horiz-adv-x="457" 
d="M408 917h115l-108 -135h-84zM189 750h386l-22 -109h-244l-43 -215h219l-21 -103h-218l-43 -214h244l-22 -109h-386z" />
    <glyph glyph-name="ecircumflex" unicode="&#xea;" horiz-adv-x="457" 
d="M365 917h101l80 -135h-95l-48 64h-3l-75 -64h-96zM189 750h386l-22 -109h-244l-43 -215h219l-21 -103h-218l-43 -214h244l-22 -109h-386z" />
    <glyph glyph-name="edieresis" unicode="&#xeb;" horiz-adv-x="457" 
d="M509 782h-103l21 104h104zM370 782h-103l21 104h104zM189 750h386l-22 -109h-244l-43 -215h219l-21 -103h-218l-43 -214h244l-22 -109h-386z" />
    <glyph glyph-name="igrave" unicode="&#xec;" horiz-adv-x="220" 
d="M174 917h115l21 -135h-83zM189 750h142l-150 -750h-142z" />
    <glyph glyph-name="iacute" unicode="&#xed;" horiz-adv-x="220" 
d="M301 917h115l-108 -135h-83zM189 750h142l-150 -750h-142z" />
    <glyph glyph-name="icircumflex" unicode="&#xee;" horiz-adv-x="220" 
d="M243 917h101l80 -135h-95l-48 64h-3l-75 -64h-96zM189 750h142l-150 -750h-142z" />
    <glyph glyph-name="idieresis" unicode="&#xef;" horiz-adv-x="220" 
d="M387 782h-104l22 104h103zM249 782h-104l21 104h104zM189 750h142l-150 -750h-142z" />
    <glyph glyph-name="eth" unicode="&#xf0;" horiz-adv-x="524" 
d="M231 -10q-78 0 -122 43.5t-42 121.5q2 35 8 67t15 65q27 81 86.5 123t138.5 45q37 1 57 -19q2 34 -1 65t-14 61l-131 -35l-4 69l116 32q-12 27 -28 49.5t-37 39.5l69 40q38 -14 67 -39.5t52 -60.5l149 40l4 -69l-121 -33q30 -72 32 -153.5t-15 -162.5q-10 -57 -30 -109.5
t-53 -92.5t-81 -63.5t-115 -23.5zM312 352q-35 0 -57 -24t-30 -59q-5 -20 -10 -42t-7 -43q-8 -44 6.5 -64.5t46.5 -20.5q29 0 51.5 20.5t32.5 59.5q4 14 7 28.5t6 30.5q2 7 3 13t3 12l1 5q5 35 -6.5 59.5t-46.5 24.5z" />
    <glyph glyph-name="ntilde" unicode="&#xf1;" horiz-adv-x="530" 
d="M360 782h-68q13 56 41.5 77.5t59.5 21.5q27 0 53.5 -8t45.5 -8q12 0 20.5 7.5t11.5 18.5h68q-13 -56 -41 -77.5t-60 -21.5q-27 0 -53 8t-46 8q-11 0 -19.5 -7.5t-12.5 -18.5zM189 750h142l64 -515l104 515h142l-150 -750h-142l-65 515l-103 -515h-142z" />
    <glyph glyph-name="ograve" unicode="&#xf2;" horiz-adv-x="524" 
d="M446 917l22 -135h-84l-53 135h115zM148 561q21 104 90.5 151.5t175.5 47.5q105 0 156 -47t30 -152l-74 -372q-21 -105 -91 -152t-175 -47q-106 0 -156.5 47.5t-30.5 151.5zM214 179q-7 -34 9.5 -57t58.5 -23t67.5 23.5t31.5 56.5l79 392q7 33 -9.5 56.5t-58.5 23.5
t-67.5 -23t-32.5 -57z" />
    <glyph glyph-name="oacute" unicode="&#xf3;" horiz-adv-x="524" 
d="M566 917l-108 -135h-84l77 135h115zM148 561q21 104 90.5 151.5t175.5 47.5q105 0 156 -47t30 -152l-74 -372q-21 -105 -91 -152t-175 -47q-106 0 -156.5 47.5t-30.5 151.5zM214 179q-7 -34 9.5 -57t58.5 -23t67.5 23.5t31.5 56.5l79 392q7 33 -9.5 56.5t-58.5 23.5
t-67.5 -23t-32.5 -57z" />
    <glyph glyph-name="ocircumflex" unicode="&#xf4;" horiz-adv-x="524" 
d="M496 917l80 -135h-95l-48 64h-3l-75 -64h-96l136 135h101zM148 561q21 104 90.5 151.5t175.5 47.5q105 0 156 -47t30 -152l-74 -372q-21 -105 -91 -152t-175 -47q-106 0 -156.5 47.5t-30.5 151.5zM214 179q-7 -34 9.5 -57t58.5 -23t67.5 23.5t31.5 56.5l79 392
q7 33 -9.5 56.5t-58.5 23.5t-67.5 -23t-32.5 -57z" />
    <glyph glyph-name="otilde" unicode="&#xf5;" horiz-adv-x="524" 
d="M279 782q13 56 41.5 77.5t59.5 21.5q27 0 53.5 -8t45.5 -8q12 0 20.5 7.5t11.5 18.5h68q-13 -56 -41 -77.5t-60 -21.5q-27 0 -53 8t-46 8q-11 0 -19.5 -7.5t-12.5 -18.5h-68zM148 561q21 104 90.5 151.5t175.5 47.5q105 0 156 -47t30 -152l-74 -372q-21 -105 -91 -152
t-175 -47q-106 0 -156.5 47.5t-30.5 151.5zM214 179q-7 -34 9.5 -57t58.5 -23t67.5 23.5t31.5 56.5l79 392q7 33 -9.5 56.5t-58.5 23.5t-67.5 -23t-32.5 -57z" />
    <glyph glyph-name="odieresis" unicode="&#xf6;" horiz-adv-x="524" 
d="M435 782l22 104h103l-21 -104h-104zM297 782l21 104h104l-21 -104h-104zM148 561q21 104 90.5 151.5t175.5 47.5q105 0 156 -47t30 -152l-74 -372q-21 -105 -91 -152t-175 -47q-106 0 -156.5 47.5t-30.5 151.5zM214 179q-7 -34 9.5 -57t58.5 -23t67.5 23.5t31.5 56.5
l79 392q7 33 -9.5 56.5t-58.5 23.5t-67.5 -23t-32.5 -57z" />
    <glyph glyph-name="divide" unicode="&#xf7;" horiz-adv-x="401" 
d="M237 465l23 112h112l-22 -112h-113zM95 302l21 102h331l-21 -102h-331zM305 241l-22 -112h-113l22 112h113z" />
    <glyph glyph-name="oslash" unicode="&#xf8;" horiz-adv-x="527" 
d="M149 561q20 104 90 151.5t175 47.5q106 0 157 -47t30 -152l-74 -372q-21 -105 -91 -152t-176 -47q-105 0 -156 47.5t-30 151.5zM215 179q-7 -34 9.5 -57t58.5 -23t67 23.5t32 56.5l79 392q7 33 -9.5 56.5t-58.5 23.5t-67.5 -23t-32.5 -57zM605 760l-471 -770h-62l471 770
h62z" />
    <glyph glyph-name="ugrave" unicode="&#xf9;" horiz-adv-x="526" 
d="M332 917h115l22 -135h-84zM187 750h142l-114 -571q-7 -34 9.5 -57t58.5 -23t67.5 23.5t31.5 56.5l115 571h142l-112 -561q-21 -105 -91 -152t-175 -47q-106 0 -156.5 47.5t-30.5 151.5z" />
    <glyph glyph-name="uacute" unicode="&#xfa;" horiz-adv-x="526" 
d="M446 917h115l-108 -135h-84zM187 750h142l-114 -571q-7 -34 9.5 -57t58.5 -23t67.5 23.5t31.5 56.5l115 571h142l-112 -561q-21 -105 -91 -152t-175 -47q-106 0 -156.5 47.5t-30.5 151.5z" />
    <glyph glyph-name="ucircumflex" unicode="&#xfb;" horiz-adv-x="526" 
d="M397 917h100l81 -135h-95l-48 64h-4l-75 -64h-95zM187 750h142l-114 -571q-7 -34 9.5 -57t58.5 -23t67.5 23.5t31.5 56.5l115 571h142l-112 -561q-21 -105 -91 -152t-175 -47q-106 0 -156.5 47.5t-30.5 151.5z" />
    <glyph glyph-name="udieresis" unicode="&#xfc;" horiz-adv-x="526" 
d="M539 782h-104l21 104h104zM401 782h-104l22 104h103zM187 750h142l-114 -571q-7 -34 9.5 -57t58.5 -23t67.5 23.5t31.5 56.5l115 571h142l-112 -561q-21 -105 -91 -152t-175 -47q-106 0 -156.5 47.5t-30.5 151.5z" />
    <glyph glyph-name="yacute" unicode="&#xfd;" horiz-adv-x="545" 
d="M576 917l-108 -135h-84l77 135h115zM325 750l28 -346l167 346h149l-276 -502l-49 -248h-143l50 248l-74 502h148z" />
    <glyph glyph-name="thorn" unicode="&#xfe;" horiz-adv-x="531" 
d="M331 750l-27 -136h85q122 0 167 -55t22 -172q-24 -119 -91.5 -176t-194.5 -57h-80l-31 -154h-142l150 750h142zM282 505l-48 -241h80q39 0 67 19t40 50q3 9 6.5 22.5t6.5 28t5 28.5t2 23q2 31 -17 50.5t-58 19.5h-84z" />
    <glyph glyph-name="ydieresis" unicode="&#xff;" horiz-adv-x="545" 
d="M449 782l21 104h104l-22 -104h-103zM310 782l21 104h104l-22 -104h-103zM325 750l28 -346l167 346h149l-276 -502l-49 -248h-143l50 248l-74 502h148z" />
    <glyph glyph-name="Dcroat" unicode="&#x110;" horiz-adv-x="540" 
d="M202 750h226q106 0 157 -47t30 -152l-71 -352q-20 -105 -90 -152t-176 -47h-226l66 330h-54l21 103h54zM261 330l-44 -221h83q42 0 67.5 23.5t32.5 56.5l74 372q7 33 -9 56.5t-58 23.5h-84l-42 -208h80l-20 -103h-80z" />
    <glyph glyph-name="dcroat" unicode="&#x111;" horiz-adv-x="540" 
d="M202 750h226q106 0 157 -47t30 -152l-71 -352q-20 -105 -90 -152t-176 -47h-226l67 332h-54l20 103h54zM261 332l-44 -223h83q42 0 67.5 23.5t32.5 56.5l74 372q7 33 -9 56.5t-58 23.5h-84l-41 -206h86l-21 -103h-86z" />
    <glyph glyph-name="dotlessi" unicode="&#x131;" horiz-adv-x="220" 
d="M189 750h142l-150 -750h-142z" />
    <glyph glyph-name="Lslash" unicode="&#x141;" horiz-adv-x="521" 
d="M255 750h143l-63 -315l115 21l-20 -102l-116 -21l-44 -224h243l-22 -109h-386l62 308l-80 -14l20 102l80 15z" />
    <glyph glyph-name="lslash" unicode="&#x142;" horiz-adv-x="521" 
d="M255 750h143l-63 -315l115 21l-20 -102l-116 -21l-44 -224h243l-22 -109h-386l62 308l-80 -14l20 102l80 15z" />
    <glyph glyph-name="OE" unicode="&#x152;" horiz-adv-x="764" 
d="M148 561q11 54 36.5 92t63 62t84 34.5t99.5 10.5q26 0 50.5 -2.5t46.5 -7.5h354l-22 -109h-244l-43 -215h219l-21 -103h-218l-43 -214h244l-22 -109h-354q-23 -5 -49 -7.5t-52 -2.5q-53 0 -95.5 10.5t-70 34.5t-38 62t-0.5 92zM214 179q-4 -21 1.5 -36t18 -24.5t30 -14
t36.5 -4.5q31 0 50.5 10t21.5 22l97 486q3 12 -12.5 22t-46.5 10q-39 0 -74 -18.5t-44 -60.5z" />
    <glyph glyph-name="oe" unicode="&#x153;" horiz-adv-x="764" 
d="M148 561q11 54 36.5 92t63 62t84 34.5t99.5 10.5q26 0 50.5 -2.5t46.5 -7.5h354l-22 -109h-244l-43 -215h219l-21 -103h-218l-43 -214h244l-22 -109h-354q-23 -5 -49 -7.5t-52 -2.5q-53 0 -95.5 10.5t-70 34.5t-38 62t-0.5 92zM214 179q-4 -21 1.5 -36t18 -24.5t30 -14
t36.5 -4.5q31 0 50.5 10t21.5 22l97 486q3 12 -12.5 22t-46.5 10q-39 0 -74 -18.5t-44 -60.5z" />
    <glyph glyph-name="Scaron" unicode="&#x160;" horiz-adv-x="534" 
d="M290 923h95l51 -70h3l80 70h95l-141 -141h-100zM140 542q23 113 97 165.5t182 52.5q115 0 162.5 -51t23.5 -169q-2 -8 -3.5 -16.5t-3.5 -16.5h-143q2 5 3.5 14.5t3.5 14.5q5 23 5 43.5t-6.5 36.5t-22 25.5t-41.5 9.5q-41 0 -71.5 -24.5t-38.5 -66.5q-6 -30 4 -51
t30 -36.5t46.5 -28.5t54.5 -26.5t54 -30.5t44.5 -41t25.5 -57.5t-2 -80.5q-23 -114 -96.5 -166t-182.5 -52q-114 0 -161.5 51.5t-24.5 169.5q2 8 3.5 16t3.5 16h143q-2 -5 -3.5 -14.5t-2.5 -14.5q-5 -22 -5.5 -43t6.5 -37t22 -25.5t41 -9.5q44 0 73.5 26.5t38.5 70.5
q6 30 -4 50.5t-30 36t-47 27.5t-55 25t-54.5 29.5t-44.5 40t-25.5 57t1.5 80.5z" />
    <glyph glyph-name="scaron" unicode="&#x161;" horiz-adv-x="534" 
d="M290 923h95l51 -70h3l80 70h95l-141 -141h-100zM140 542q23 113 97 165.5t182 52.5q115 0 162.5 -51t23.5 -169q-2 -8 -3.5 -16.5t-3.5 -16.5h-143q2 5 3.5 14.5t3.5 14.5q5 23 5 43.5t-6.5 36.5t-22 25.5t-41.5 9.5q-41 0 -71.5 -24.5t-38.5 -66.5q-6 -30 4 -51
t30 -36.5t46.5 -28.5t54.5 -26.5t54 -30.5t44.5 -41t25.5 -57.5t-2 -80.5q-23 -114 -96.5 -166t-182.5 -52q-114 0 -161.5 51.5t-24.5 169.5q2 8 3.5 16t3.5 16h143q-2 -5 -3.5 -14.5t-2.5 -14.5q-5 -22 -5.5 -43t6.5 -37t22 -25.5t41 -9.5q44 0 73.5 26.5t38.5 70.5
q6 30 -4 50.5t-30 36t-47 27.5t-55 25t-54.5 29.5t-44.5 40t-25.5 57t1.5 80.5z" />
    <glyph glyph-name="Ydieresis" unicode="&#x178;" horiz-adv-x="545" 
d="M452 782l22 104h103l-21 -104h-104zM313 782l22 104h103l-21 -104h-104zM325 750l28 -346l167 346h149l-276 -502l-49 -248h-143l50 248l-74 502h148z" />
    <glyph glyph-name="Zcaron" unicode="&#x17d;" horiz-adv-x="466" 
d="M351 923l51 -70h4l79 70h96l-141 -141h-101l-83 141h95zM202 109h256l-22 -109h-406l21 107l364 534h-256l21 109h407l-21 -106z" />
    <glyph glyph-name="zcaron" unicode="&#x17e;" horiz-adv-x="466" 
d="M351 923l51 -70h4l79 70h96l-141 -141h-101l-83 141h95zM202 109h256l-22 -109h-406l21 107l364 534h-256l21 109h407l-21 -106z" />
    <glyph glyph-name="florin" unicode="&#x192;" horiz-adv-x="395" 
d="M119 426h91l28 135q20 104 90 151.5t176 47.5l-22 -109q-42 0 -67.5 -23t-32.5 -57l-29 -145h98l-21 -102h-97l-27 -135q-21 -104 -91 -151.5t-175 -47.5l21 109q42 0 67.5 23t32.5 57l29 145h-91z" />
    <glyph glyph-name="circumflex" unicode="&#x2c6;" horiz-adv-x="368" 
d="M384 750l82 -135h-95l-49 64h-4l-74 -64h-95l135 135h100z" />
    <glyph glyph-name="caron" unicode="&#x2c7;" horiz-adv-x="376" 
d="M271 750l51 -70h4l79 70h95l-140 -141h-100l-84 141h95z" />
    <glyph glyph-name="breve" unicode="&#x2d8;" horiz-adv-x="355" 
d="M241 750q-3 -13 -1.5 -28.5t9 -28.5t22.5 -21.5t39 -8.5t42.5 8.5t31.5 21.5t20 28.5t10 28.5h65q-6 -29 -21.5 -56.5t-39 -48.5t-54.5 -33.5t-67 -12.5t-62 12.5t-41 33.5t-19.5 48.5t1.5 56.5h65z" />
    <glyph glyph-name="dotaccent" unicode="&#x2d9;" horiz-adv-x="155" 
d="M259 646h-104l21 104h103z" />
    <glyph glyph-name="ring" unicode="&#x2da;" horiz-adv-x="230" 
d="M161 677q8 39 38 64t69 25q40 0 60 -25t12 -64t-38 -64.5t-70 -25.5q-39 0 -59 25.5t-12 64.5zM200 677q-5 -23 6 -37t34 -14t40 14t22 37t-6.5 37t-34.5 14t-39.5 -14t-21.5 -37z" />
    <glyph glyph-name="ogonek" unicode="&#x2db;" horiz-adv-x="185" 
d="M144 1q-23 0 -39.5 -16t-20.5 -35q-4 -20 8 -36t46 -16l-19 -99q-34 0 -57 11t-35.5 29.5t-16 41.5t1.5 47t16.5 47t30 40.5t43 28.5t54.5 11z" />
    <glyph glyph-name="tilde" unicode="&#x2dc;" horiz-adv-x="325" 
d="M220 641h-68q13 56 41 77.5t59 21.5q27 0 53.5 -8t46.5 -8q11 0 19.5 7.5t11.5 18.5h68q-13 -56 -41.5 -77.5t-59.5 -21.5q-27 0 -53.5 8t-45.5 8q-11 0 -19.5 -7.5t-11.5 -18.5z" />
    <glyph glyph-name="hungarumlaut" unicode="&#x2dd;" horiz-adv-x="374" 
d="M280 511l98 189h110l-143 -189h-65zM128 511l98 189h111l-144 -189h-65z" />
    <glyph glyph-name="endash" unicode="&#x2013;" horiz-adv-x="397" 
d="M118 426h331l-20 -102h-331z" />
    <glyph glyph-name="emdash" unicode="&#x2014;" horiz-adv-x="478" 
d="M118 426h412l-20 -102h-412z" />
    <glyph glyph-name="quoteleft" unicode="&#x2018;" horiz-adv-x="179" 
d="M228 750h67l-61 -79h45l-22 -112h-112l21 111z" />
    <glyph glyph-name="quoteright" unicode="&#x2019;" horiz-adv-x="179" 
d="M213 559h-67l60 79h-45l23 112h112l-23 -111z" />
    <glyph glyph-name="quotesinglbase" unicode="&#x201a;" horiz-adv-x="182" 
d="M85 -79h-67l61 79h-45l22 112h113l-23 -111z" />
    <glyph glyph-name="quotedblleft" unicode="&#x201c;" horiz-adv-x="330" 
d="M228 750h67l-61 -79h45l-22 -112h-112l21 111zM380 750h67l-61 -79h45l-22 -112h-112l21 111z" />
    <glyph glyph-name="quotedblright" unicode="&#x201d;" horiz-adv-x="330" 
d="M364 559h-66l60 79h-45l22 112h113l-23 -111zM213 559h-67l60 79h-45l23 112h112l-23 -111z" />
    <glyph glyph-name="quotedblbase" unicode="&#x201e;" horiz-adv-x="333" 
d="M237 -79h-67l61 79h-46l23 112h112l-22 -111zM85 -79h-67l61 79h-45l22 112h113l-23 -111z" />
    <glyph glyph-name="dagger" unicode="&#x2020;" horiz-adv-x="367" 
d="M147 565h94l43 215h111l-43 -215h95l-21 -103h-94l-99 -492h-111l98 492h-94z" />
    <glyph glyph-name="daggerdbl" unicode="&#x2021;" horiz-adv-x="399" 
d="M210 328l28 143h-110l21 103h110l41 206h111l-41 -206h110l-21 -103h-110l-28 -143h110l-21 -103h-110l-51 -255h-111l51 255h-110l21 103h110z" />
    <glyph glyph-name="bullet" unicode="&#x2022;" horiz-adv-x="249" 
d="M109 375q4 19 14.5 35.5t25 29t32.5 19.5t37 7q18 0 33 -7t25 -19.5t14 -29t0 -35.5t-14.5 -35.5t-25 -29t-32.5 -19.5t-36 -7q-19 0 -34 7t-25 19.5t-14 29t0 35.5z" />
    <glyph glyph-name="ellipsis" unicode="&#x2026;" horiz-adv-x="556" 
d="M148 0h-112l22 112h113zM334 0h-112l22 112h113zM520 0h-112l22 112h113z" />
    <glyph glyph-name="perthousand" unicode="&#x2030;" horiz-adv-x="753" 
d="M165 670q9 44 39 66t72 22t62.5 -22t11.5 -66l-33 -171q-9 -44 -39 -66t-72 -22t-62.5 22t-11.5 66zM521 750l-315 -750h-57l315 750h57zM266 709q-14 0 -23 -9t-12 -22l-37 -187q-2 -13 3 -22t19 -9t24 9t12 22l38 187q2 13 -4 22t-20 9zM356 259q9 44 38.5 66t71.5 22
t63 -22t12 -66l-34 -171q-8 -44 -38 -66t-72 -22t-62.5 22t-12.5 66zM587 259q10 44 39 66t71 22t63.5 -22t12.5 -66l-34 -171q-9 -44 -39 -66t-72 -22t-62.5 22t-12.5 66zM456 298q-14 0 -23 -9t-12 -22l-37 -187q-2 -13 3 -22t19 -9t24 9t13 22l37 187q3 13 -3.5 22
t-20.5 9zM688 298q-14 0 -23 -9t-12 -22l-37 -187q-3 -13 2.5 -22t19.5 -9t24 9t12 22l37 187q3 13 -3 22t-20 9z" />
    <glyph glyph-name="guilsinglleft" unicode="&#x2039;" horiz-adv-x="306" 
d="M168 346l-1 -4l145 -169l-19 -97l-204 233l15 72l296 229l-20 -97z" />
    <glyph glyph-name="guilsinglright" unicode="&#x203a;" horiz-adv-x="306" 
d="M277 346l-146 167l20 97l204 -229l-15 -72l-297 -233l20 97l213 169z" />
    <glyph glyph-name="fraction" unicode="&#x2044;" horiz-adv-x="355" 
d="M356 750h114l-320 -750h-114z" />
    <glyph glyph-name="Euro" unicode="&#x20ac;" horiz-adv-x="467" 
d="M79 254l15 71h57l20 99h-58l15 71h57l18 91q10 47 28.5 79.5t45 52t60 28t72.5 8.5q40 0 70.5 -8t49.5 -27.5t24.5 -52t-4.5 -80.5l-4 -19h-112l5 23q6 29 -6.5 47t-40.5 18q-29 0 -49 -18t-26 -47l-19 -95h136l-15 -71h-135l-20 -99h136l-15 -71h-135l-19 -94
q-6 -29 7 -47t42 -18q28 0 47.5 18t25.5 47l5 23h112l-4 -19q-10 -48 -28.5 -80t-45 -51.5t-60 -28t-73.5 -8.5t-70 8.5t-49 28t-24.5 52t4.5 79.5l18 90h-58z" />
    <glyph glyph-name="trademark" unicode="&#x2122;" horiz-adv-x="482" 
d="M335 750l-7 -36h-56l-42 -214h-47l42 214h-55l8 36h157zM434 750l17 -162h1l81 162h68l-50 -250h-48l34 168l-84 -168h-39l-16 168l-34 -168h-47l50 250h67z" />
    <glyph glyph-name="minus" unicode="&#x2212;" horiz-adv-x="415" 
d="M118 426h350l-20 -102h-350z" />
    </font>
</defs>
</svg>
