<?xml version="1.0" standalone="no"?>
<!DOCTYPE svg PUBLIC "-//W3C//DTD SVG 1.1//EN" "http://www.w3.org/Graphics/SVG/1.1/DTD/svg11.dtd" >
<svg xmlns="http://www.w3.org/2000/svg" xmlns:xlink="http://www.w3.org/1999/xlink" version="1.1">
<metadata>
Created by FontForge 20201107 at Thu Jul 28 03:54:49 2022
 By 
Copyright (c) 2021 by Megatype. All rights reserved.
</metadata>
<defs>
<font id="ChandlerMountain-Regular" horiz-adv-x="510" >
  <font-face 
    font-family="Chandler Mountain Regular"
    font-weight="400"
    font-stretch="normal"
    units-per-em="1000"
    panose-1="0 0 0 0 0 0 0 0 0 0"
    ascent="800"
    descent="-200"
    x-height="750"
    cap-height="750"
    bbox="-30 -196 942 929"
    underline-thickness="50"
    underline-position="-125"
    unicode-range="U+000D-FB02"
  />
<missing-glyph horiz-adv-x="376" 
 />
    <glyph glyph-name="fi" unicode="fi" horiz-adv-x="683" 
d="M54 750h364v-76h-266v-263h241v-72h-241v-339h-98v750zM525 750h98v-750h-98v750z" />
    <glyph glyph-name="fl" unicode="fl" horiz-adv-x="928" 
d="M54 750h364v-76h-266v-263h241v-72h-241v-339h-98v750zM519 750h97v-674h267v-76h-364v750z" />
    <glyph glyph-name=".notdef" horiz-adv-x="376" 
 />
    <glyph glyph-name=".null" horiz-adv-x="0" 
 />
    <glyph glyph-name=".null" horiz-adv-x="0" 
 />
    <glyph glyph-name="uni000D" unicode="&#xd;" horiz-adv-x="250" 
 />
    <glyph glyph-name="space" unicode=" " horiz-adv-x="220" 
 />
    <glyph glyph-name="exclam" unicode="!" horiz-adv-x="195" 
d="M53 750h90l-26 -627h-39zM138 0h-81v81h81v-81z" />
    <glyph glyph-name="quotedbl" unicode="&#x22;" horiz-adv-x="324" 
d="M276 750l-20 -219h-39l-20 219h79zM126 750l-20 -219h-39l-20 219h79z" />
    <glyph glyph-name="numbersign" unicode="#" horiz-adv-x="652" 
d="M108 516h104l42 183h73l-42 -183h146l41 183h73l-42 -183h104l-15 -65h-103l-34 -148h104l-15 -64h-104l-42 -188h-73l43 188h-146l-42 -188h-73l42 188h-104l15 64h104l34 148h-105zM271 451l-34 -148h145l34 148h-145z" />
    <glyph glyph-name="dollar" unicode="$" horiz-adv-x="447" 
d="M193 719v37h78v-39q62 -10 92.5 -56t30.5 -117q0 -7 -0.5 -17t-0.5 -17h-83q1 6 1 16.5v16.5q0 21 -5 40t-16 33.5t-27 23t-39 8.5q-45 0 -70 -31.5t-25 -74.5q0 -27 9.5 -46.5t25.5 -34.5t36.5 -26.5t42.5 -23.5q36 -18 65 -36.5t49.5 -42.5t31.5 -56t11 -77
q0 -71 -35 -113.5t-94 -51.5v-40h-78v37q-69 5 -104.5 51.5t-35.5 123.5v16.5t1 16.5h83q-1 -6 -1 -15.5v-16.5q0 -21 5 -40t16 -33.5t27.5 -23t38.5 -8.5q23 0 40.5 8.5t29.5 23.5t18.5 34.5t6.5 41.5q0 28 -10.5 47.5t-28 35t-39.5 27.5t-46 25q-34 18 -61.5 36
t-46.5 41.5t-29.5 54.5t-10.5 74q0 77 40.5 120t106.5 48z" />
    <glyph glyph-name="percent" unicode="%" horiz-adv-x="586" 
d="M49 664q0 42 23.5 65.5t65.5 23.5t65 -23.5t23 -65.5v-196q0 -42 -23 -66t-65 -24t-65.5 24t-23.5 66v196zM399 753l-161 -750h-51l162 750h50zM103 460q0 -16 8.5 -27.5t26.5 -11.5q17 0 25.5 12t8.5 27v211q0 15 -8.5 27t-25.5 12t-26 -11.5t-9 -27.5v-211zM360 286
q0 42 23.5 65.5t65.5 23.5t64.5 -23.5t22.5 -65.5v-196q0 -42 -22.5 -66t-64.5 -24t-65.5 24t-23.5 66v196zM413 83q0 -17 9 -28.5t27 -11.5q16 0 24.5 12t8.5 28v210q0 15 -8 27.5t-25 12.5q-18 0 -27 -12t-9 -28v-210z" />
    <glyph glyph-name="ampersand" unicode="&#x26;" horiz-adv-x="532" 
d="M82 558q0 48 8.5 85.5t29.5 63t55.5 38.5t86.5 13t86.5 -13t55 -38.5t29 -63t8.5 -85.5q0 -59 -13.5 -100.5t-54.5 -62.5q45 -18 72 -61t33 -103q4 -25 5.5 -59t2 -68.5t0.5 -65v-48.5h-97q0 20 -0.5 39t-0.5 35q-38 -63 -132 -64h-12.5t-12.5 1q-88 5 -135.5 52.5
t-47.5 152.5q0 26 5 54t16 53.5t29 46.5t44 33v5q-24 12 -36 29.5t-17.5 38.5t-6 44.5t-0.5 47.5zM261 674q-24 0 -40.5 -8t-26 -22t-13.5 -32.5t-4 -39.5v-44q0 -22 3 -41t12 -32.5t25.5 -21t43.5 -7.5t43.5 7.5t26 21t12.5 32.5t3 41v44q0 21 -4 39.5t-14 32.5t-26.5 22
t-40.5 8zM263 82q40 0 67.5 17.5t38.5 46.5q6 13 9 31.5t3 35.5q0 21 -5.5 43t-17.5 41t-30 31.5t-43 14.5q-4 1 -12 2t-17 2t-18.5 2t-15.5 2q-21 -2 -35.5 -15.5t-23.5 -33t-13 -43t-4 -44.5q0 -28 6.5 -52.5t20.5 -42.5t36 -28t54 -10z" />
    <glyph glyph-name="quotesingle" unicode="'" horiz-adv-x="174" 
d="M126 750l-20 -219h-39l-20 219h79z" />
    <glyph glyph-name="parenleft" unicode="(" horiz-adv-x="264" 
d="M52 593q0 84 44 120.5t122 36.5v-70q-45 0 -65.5 -25t-20.5 -63v-434q0 -38 20.5 -63t65.5 -25v-70q-78 0 -122 36.5t-44 120.5v436z" />
    <glyph glyph-name="parenright" unicode=")" horiz-adv-x="264" 
d="M212 593v-436q0 -84 -43.5 -120.5t-122.5 -36.5v70q45 0 66 25t21 63v434q0 38 -21 63t-66 25v70q79 0 122.5 -36.5t43.5 -120.5z" />
    <glyph glyph-name="asterisk" unicode="*" horiz-adv-x="369" 
d="M160 750h52v-94l92 37l18 -44l-96 -42l65 -77l-40 -34l-66 82l-67 -82l-41 34l68 78l-98 41l18 44l94 -36z" />
    <glyph glyph-name="plus" unicode="+" horiz-adv-x="412" 
d="M48 411h120v134h76v-134h119v-72h-119v-134h-76v134h-120v72z" />
    <glyph glyph-name="comma" unicode="," horiz-adv-x="181" 
d="M98 -57h-49l33 57h-33v81h81v-80z" />
    <glyph glyph-name="hyphen" unicode="-" horiz-adv-x="397" 
d="M48 411h300v-72h-300v72z" />
    <glyph glyph-name="period" unicode="." horiz-adv-x="183" 
d="M132 0h-81v81h81v-81z" />
    <glyph glyph-name="slash" unicode="/" horiz-adv-x="303" 
d="M179 750h80l-135 -750h-80z" />
    <glyph glyph-name="zero" unicode="0" horiz-adv-x="470" 
d="M51 575q0 87 48.5 136t135.5 49t135.5 -49.5t48.5 -135.5v-400q0 -86 -48.5 -135.5t-135.5 -49.5t-135.5 49t-48.5 136v400zM235 684q-42 0 -64 -28t-22 -67v-428q0 -39 22 -67t64 -28t64 28t22 67v428q0 39 -22 67t-64 28z" />
    <glyph glyph-name="one" unicode="1" horiz-adv-x="257" 
d="M45 635v71l65 44h93v-750h-98v653z" />
    <glyph glyph-name="two" unicode="2" horiz-adv-x="492" 
d="M246 685q-48 0 -73 -29t-25 -74v-73h-98v56q0 106 51.5 150.5t145.5 44.5q99 0 147.5 -46.5t48.5 -155.5q0 -61 -21.5 -109t-53.5 -88.5t-69.5 -75t-70 -68t-54 -67.5t-21.5 -74h277v-76h-375v67q0 54 18 97t45.5 78.5t60.5 66t64 61t56 62t35 69.5q5 13 8 29t3.5 33
t-2 33t-9.5 29q-11 26 -32 43t-56 17z" />
    <glyph glyph-name="three" unicode="3" horiz-adv-x="494" 
d="M46 509v56q0 106 51.5 150.5t145.5 44.5q57 0 96 -14.5t62.5 -43t34 -71t10.5 -99.5q0 -19 -2.5 -43t-9.5 -46t-19 -39.5t-30 -25.5v-5q18 -8 30 -25.5t19 -40t9.5 -46t2.5 -43.5q0 -57 -10.5 -99.5t-34 -71t-62.5 -43t-96 -14.5q-94 0 -145.5 44.5t-51.5 150.5v56h98
v-69q0 -48 25 -77.5t73 -29.5q33 0 53.5 13t32 35t15.5 49.5t4 57.5q0 23 -2 44.5t-11 38t-26.5 26.5t-47.5 10v72q30 0 47.5 10t26.5 27t11 38.5t2 43.5q0 28 -4 56t-15.5 50t-32 35.5t-53.5 13.5q-48 0 -73 -29.5t-25 -77.5v-69h-98z" />
    <glyph glyph-name="four" unicode="4" horiz-adv-x="468" 
d="M386 234v-234h-97v234h-245v74l223 442h119v-444h36v-72h-36zM289 306v359l-182 -359h182z" />
    <glyph glyph-name="five" unicode="5" horiz-adv-x="502" 
d="M431 750v-76h-281v-219q34 40 104 40q62 0 100.5 -17t60.5 -48.5t29.5 -77.5t7.5 -103q0 -58 -6.5 -105.5t-28 -81.5t-61.5 -53t-107 -19q-97 0 -147 45.5t-50 149.5v56h98v-73q0 -45 25 -74t73 -29q32 0 52.5 12t32 31.5t16 45t4.5 51.5v85q0 26 -4.5 50t-16 42.5
t-32 29.5t-52.5 11q-47 0 -72.5 -24t-25.5 -62h-98v413h379z" />
    <glyph glyph-name="six" unicode="6" horiz-adv-x="500" 
d="M51 569q0 96 53.5 143.5t143.5 47.5q100 0 151 -50t51 -135v-58h-98v65q0 48 -27 75t-77 27q-49 0 -74 -28.5t-25 -72.5v-153q16 20 41.5 30t57.5 10q57 0 95.5 -17t62.5 -47.5t34 -73t10 -92.5q0 -54 -9 -100t-32 -79.5t-62 -52t-99 -18.5q-90 0 -143.5 47.5
t-53.5 143.5v388zM248 394q-49 0 -74 -28.5t-25 -72.5v-125q0 -45 25.5 -73.5t73.5 -28.5q31 0 51 11t32 30t16.5 43t4.5 49v62q0 26 -4.5 49.5t-16.5 42.5t-32 30t-51 11z" />
    <glyph glyph-name="seven" unicode="7" horiz-adv-x="427" 
d="M88 0l192 674h-234v76h335v-73l-192 -677h-101z" />
    <glyph glyph-name="eight" unicode="8" horiz-adv-x="518" 
d="M48 204q0 21 3.5 46.5t12 49.5t23 44t35.5 29v6q-21 11 -34 30.5t-20.5 43t-10 48t-2.5 45.5q0 53 10.5 93t34.5 67t62.5 40.5t94.5 13.5q57 0 96 -13.5t63 -40t35 -66.5t11 -94q0 -21 -2.5 -45.5t-10 -48t-20.5 -43t-34 -30.5v-6q21 -9 35.5 -29t23 -44t12 -49.5
t3.5 -46.5q0 -112 -49 -163.5t-159 -51.5q-111 0 -162 50t-51 165zM258 685q-47 0 -70 -23t-30 -59q-3 -15 -4 -34.5t0.5 -40t5 -39t9.5 -32.5q8 -20 25 -33t43 -13h44q26 0 42.5 13t24.5 33q6 14 9.5 32.5t4.5 39t0 40t-4 34.5q-7 35 -29.5 58.5t-70.5 23.5zM162 289
q-7 -17 -11 -39t-4.5 -45t3 -45.5t12.5 -39.5q14 -29 39.5 -42t56.5 -13q32 0 57.5 13t39.5 42q9 17 12.5 39.5t3 45.5t-4.5 45t-11 39q-8 20 -23 35t-46 15h-54q-31 0 -46.5 -15t-23.5 -35z" />
    <glyph glyph-name="nine" unicode="9" horiz-adv-x="500" 
d="M49 510q0 54 9.5 100t32.5 79.5t62 52t98 18.5q91 0 144 -47t53 -144v-388q0 -97 -53 -144t-144 -47q-99 0 -150 50.5t-51 134.5v58h98v-65q0 -48 27 -75t77 -27q49 0 74 28.5t25 73.5v152q-16 -20 -41.5 -30t-58.5 -10q-57 0 -95.5 17t-62 47.5t-34 73t-10.5 92.5z
M252 684q-31 0 -51 -11t-32 -30t-16.5 -42.5t-4.5 -49.5v-62q0 -25 4.5 -49t16.5 -43t32 -30t51 -11q49 0 74 28.5t25 73.5v125q0 44 -25.5 72.5t-73.5 28.5z" />
    <glyph glyph-name="colon" unicode=":" horiz-adv-x="183" 
d="M51 401h81v-81h-81v81zM51 81h81v-81h-81v81z" />
    <glyph glyph-name="semicolon" unicode=";" horiz-adv-x="181" 
d="M49 401h81v-81h-81v81zM49 81h81v-80l-32 -57h-49l33 56h-33v81z" />
    <glyph glyph-name="less" unicode="&#x3c;" horiz-adv-x="352" 
d="M48 413l255 111v-67l-207 -94v-37l207 -97v-67l-255 115v136z" />
    <glyph glyph-name="equal" unicode="=" horiz-adv-x="416" 
d="M48 461h319v-72h-319v72zM48 215h319v-72h-319v72z" />
    <glyph glyph-name="greater" unicode="&#x3e;" horiz-adv-x="352" 
d="M303 413v-136l-255 -115v67l208 97v37l-208 94v67z" />
    <glyph glyph-name="question" unicode="?" horiz-adv-x="468" 
d="M45 513v46q0 57 12.5 96t36.5 62t59 33t80 10t80 -10t59.5 -33.5t37.5 -62.5t13 -96q0 -54 -19.5 -95.5t-48 -76t-62.5 -64.5t-62.5 -60.5t-48 -64t-19.5 -74.5h-54q0 53 16 95t40.5 77t53 65t53 60.5t41 63t16.5 71.5q0 56 -23 87.5t-74 31.5q-47 0 -72 -28t-25 -81v-52
h-90zM176 0h-81v81h81v-81z" />
    <glyph glyph-name="at" unicode="@" horiz-adv-x="726" 
d="M51 370q0 86 18 156.5t58 120t104.5 76.5t156.5 27q78 0 132.5 -21t88.5 -60.5t49.5 -97.5t15.5 -132q0 -55 -6 -104t-26 -85.5t-59 -57.5t-104 -21h-121q-30 0 -51.5 4.5t-35 16.5t-20 32.5t-6.5 52.5v196q0 32 10 52t27 31t40.5 14.5t51.5 3.5l90 -1v-325
q0 -14 12 -20.5t24 -6.5q42 0 66.5 18.5t38 48t17.5 64.5t4 68q0 65 -10 117t-36.5 88.5t-73 56t-118.5 19.5q-82 0 -137 -23.5t-88.5 -67t-48 -104.5t-14.5 -136q0 -66 14.5 -125t46 -104t83 -71t124.5 -26q35 0 70 6.5t68 17.5l16 -48q-38 -11 -76.5 -18t-77.5 -7
q-85 0 -145 29.5t-98.5 80.5t-56 119.5t-17.5 145.5zM311 265q0 -19 12.5 -26t29.5 -7h45v280q-7 0 -15.5 0.5t-16.5 0.5q-23 0 -39 -8.5t-16 -35.5v-204z" />
    <glyph glyph-name="A" unicode="A" horiz-adv-x="518" 
d="M174 750h170l135 -750h-99l-38 235h-166l-38 -235h-99zM182 307h154l-62 367h-30z" />
    <glyph glyph-name="B" unicode="B" horiz-adv-x="523" 
d="M258 750q57 0 98.5 -16.5t68.5 -44.5t40 -66t13 -81q0 -29 -4 -56.5t-12 -49.5t-20 -37.5t-28 -20.5v-5q19 -8 31 -26t18.5 -41t9 -48t2.5 -47q0 -103 -53 -157t-164 -54h-204v750h204zM308 415q23 0 37.5 12.5t21.5 32.5q6 14 9 32.5t3 39t-3 39.5t-9 33q-11 30 -37 50
t-72 20h-106v-259h156zM258 76q45 0 76 22t39 66q2 12 3.5 28t1.5 32.5t-1.5 32t-4.5 27.5q-5 24 -21 43.5t-43 19.5h-156v-271h106z" />
    <glyph glyph-name="C" unicode="C" 
d="M459 181q0 -99 -53.5 -145t-150.5 -46q-96 0 -150 46t-54 145v388q0 99 54 145t150 46q97 0 150.5 -46t53.5 -145v-95h-98v105q0 45 -26.5 75t-79.5 30q-52 0 -79 -30t-27 -75v-408q0 -45 27 -75t79 -30q53 0 79.5 30t26.5 75v105h98v-95z" />
    <glyph glyph-name="D" unicode="D" horiz-adv-x="513" 
d="M54 750h204q97 0 150.5 -46t53.5 -145v-368q0 -99 -53.5 -145t-150.5 -46h-204v750zM258 76q53 0 79.5 30t26.5 75v388q0 45 -26.5 75t-79.5 30h-106v-598h106z" />
    <glyph glyph-name="E" unicode="E" horiz-adv-x="466" 
d="M54 750h364v-76h-266v-263h241v-72h-241v-263h266v-76h-364v750z" />
    <glyph glyph-name="F" unicode="F" horiz-adv-x="465" 
d="M54 750h364v-76h-266v-263h241v-72h-241v-339h-98v750z" />
    <glyph glyph-name="G" unicode="G" horiz-adv-x="511" 
d="M51 569q0 99 54 145t150 46q97 0 150.5 -46t53.5 -145v-76h-98v86q0 45 -26.5 75t-79.5 30q-52 0 -79 -30t-27 -75v-408q0 -45 27 -75t79 -30q53 0 79.5 30t26.5 75v66h-76v72h174v-128q0 -99 -53.5 -145t-150.5 -46q-96 0 -150 46t-54 145v388z" />
    <glyph glyph-name="H" unicode="H" horiz-adv-x="516" 
d="M54 750h98v-339h212v339h98v-750h-98v339h-212v-339h-98v750z" />
    <glyph glyph-name="I" unicode="I" horiz-adv-x="219" 
d="M61 750h97v-750h-97v750z" />
    <glyph glyph-name="J" unicode="J" horiz-adv-x="329" 
d="M276 750v-559q0 -54 -13.5 -90.5t-39 -59t-61.5 -32t-81 -9.5h-37v76h23q51 0 81.5 27t30.5 75v572h97z" />
    <glyph glyph-name="K" unicode="K" horiz-adv-x="509" 
d="M54 750h98v-338h58l163 338h100l-177 -374l174 -376h-100l-160 340h-58v-340h-98v750z" />
    <glyph glyph-name="L" unicode="L" horiz-adv-x="464" 
d="M54 750h98v-674h266v-76h-364v750z" />
    <glyph glyph-name="M" unicode="M" horiz-adv-x="723" 
d="M189 750l170 -666h4l172 666h134v-750h-98v584l-161 -584h-97l-161 584v-584h-98v750h135z" />
    <glyph glyph-name="N" unicode="N" horiz-adv-x="516" 
d="M54 750h98l212 -583v583h98v-750h-98l-212 583v-583h-98v750z" />
    <glyph glyph-name="O" unicode="O" 
d="M51 569q0 99 54 145t150 46q97 0 150.5 -46t53.5 -145v-388q0 -99 -53.5 -145t-150.5 -46q-96 0 -150 46t-54 145v388zM149 171q0 -45 27 -75t79 -30q53 0 79.5 30t26.5 75v408q0 45 -26.5 75t-79.5 30q-52 0 -79 -30t-27 -75v-408z" />
    <glyph glyph-name="P" unicode="P" horiz-adv-x="522" 
d="M258 750q116 0 167 -56.5t51 -165.5q0 -110 -52.5 -167.5t-171.5 -57.5h-100v-303h-98v750h204zM152 674v-295h100q48 0 80 23t41 65q5 25 5 59.5t-5 59.5q-8 42 -37.5 65t-77.5 23h-106z" />
    <glyph glyph-name="Q" unicode="Q" horiz-adv-x="514" 
d="M51 569q0 99 54 145t150 46q97 0 150.5 -46t53.5 -145v-388q0 -109 -68 -155l90 -73q-6 -5 -17 -14t-23 -18.5t-22.5 -18t-15.5 -11.5q-6 6 -19.5 21.5t-28.5 33t-28.5 32.5t-18.5 21q-24 -9 -53 -9q-96 0 -150 46t-54 145v388zM255 684q-52 0 -79 -30t-27 -75v-408
q0 -45 27 -75t79 -30q53 0 79.5 30t26.5 75v408q0 45 -26.5 75t-79.5 30z" />
    <glyph glyph-name="R" unicode="R" horiz-adv-x="516" 
d="M54 750h204q116 0 167 -56.5t51 -165.5q0 -83 -30 -137t-98 -74l120 -317h-96l-114 304q-5 -1 -10.5 -1h-11.5h-84v-303h-98v750zM252 379q48 0 80 23t41 65q5 29 5 59.5t-5 59.5q-9 46 -40 67t-75 21h-106v-295h100z" />
    <glyph glyph-name="S" unicode="S" horiz-adv-x="532" 
d="M47 551q0 105 58.5 157t160.5 52q107 0 158.5 -54t51.5 -161v-16.5t-1 -16.5h-98q1 6 1 14.5v14.5q0 29 -5.5 54.5t-18.5 45.5t-34.5 31.5t-53.5 11.5q-56 0 -88.5 -34.5t-32.5 -89.5q0 -45 25 -72.5t63 -47t81.5 -36t81.5 -41.5t63 -63.5t25 -100.5q0 -105 -58 -157
t-160 -52q-107 0 -158.5 54t-51.5 162v16t1 16h98q-1 -6 -1.5 -14.5t-0.5 -14.5q0 -29 5.5 -55t18.5 -45.5t35 -31t54 -11.5q57 0 89 35.5t32 91.5q0 46 -25 72.5t-63 45.5t-82 35.5t-82 41.5t-63 63t-25 100z" />
    <glyph glyph-name="T" unicode="T" horiz-adv-x="538" 
d="M493 750v-76h-175v-674h-98v674h-175v76h448z" />
    <glyph glyph-name="U" unicode="U" horiz-adv-x="512" 
d="M52 750h98v-579q0 -45 27 -75t79 -30q53 0 79.5 30t26.5 75v579h98v-569q0 -99 -53.5 -145t-150.5 -46q-96 0 -150 46t-54 145v569z" />
    <glyph glyph-name="V" unicode="V" horiz-adv-x="532" 
d="M42 750h102l109 -674h26l109 674h101l-134 -750h-178z" />
    <glyph glyph-name="W" unicode="W" horiz-adv-x="831" 
d="M42 750h102l109 -674h26l89 674h95l89 -674h27l108 674h102l-135 -750h-154l-83 634h-2l-84 -634h-154z" />
    <glyph glyph-name="X" unicode="X" horiz-adv-x="541" 
d="M42 750h100l119 -335h19l119 335h100l-134 -375l131 -375h-100l-116 336h-19l-116 -336h-100l131 375z" />
    <glyph glyph-name="Y" unicode="Y" horiz-adv-x="529" 
d="M144 750l120 -377l121 377h101l-173 -487v-263h-97v263l-174 487h102z" />
    <glyph glyph-name="Z" unicode="Z" horiz-adv-x="483" 
d="M147 76h287v-76h-392v74l290 600h-288v76h392v-73z" />
    <glyph glyph-name="bracketleft" unicode="[" horiz-adv-x="295" 
d="M54 750h194v-69h-115v-612h115v-69h-194v750z" />
    <glyph glyph-name="backslash" unicode="\" horiz-adv-x="303" 
d="M124 750l135 -750h-80l-135 750h80z" />
    <glyph glyph-name="bracketright" unicode="]" horiz-adv-x="295" 
d="M240 750v-750h-194v69h115v612h-115v69h194z" />
    <glyph glyph-name="asciicircum" unicode="^" horiz-adv-x="352" 
d="M111 750h130l63 -276h-66l-47 228h-30l-47 -228h-67z" />
    <glyph glyph-name="underscore" unicode="_" horiz-adv-x="456" 
d="M40 -10h369v-56h-369v56z" />
    <glyph glyph-name="grave" unicode="`" horiz-adv-x="213" 
d="M41 750h85l45 -120h-58z" />
    <glyph glyph-name="a" unicode="a" horiz-adv-x="518" 
d="M174 750h170l135 -750h-99l-38 235h-166l-38 -235h-99q16 79 33 176.5t34.5 199t34.5 198.5t33 176zM182 307h154l-62 367h-30z" />
    <glyph glyph-name="b" unicode="b" horiz-adv-x="523" 
d="M258 750q57 0 98.5 -16.5t68.5 -44.5t40 -66t13 -81q0 -29 -4 -56.5t-12 -49.5t-20 -37.5t-28 -20.5v-5q19 -8 31 -26t18.5 -41t9 -48t2.5 -47q0 -103 -53 -157t-164 -54h-204v750h204zM308 415q23 0 37.5 12.5t21.5 32.5q6 14 9 32.5t3 39t-3 39.5t-9 33q-11 30 -37 50
t-72 20h-106v-259h156zM258 76q45 0 76 22t39 66q2 12 3.5 28t1.5 32.5t-1.5 32t-4.5 27.5q-5 24 -21 43.5t-43 19.5h-156v-271h106z" />
    <glyph glyph-name="c" unicode="c" 
d="M459 181q0 -99 -53.5 -145t-150.5 -46q-96 0 -150 46t-54 145v388q0 99 54 145t150 46q97 0 150.5 -46t53.5 -145v-95h-98v105q0 45 -26.5 75t-79.5 30q-52 0 -79 -30t-27 -75v-408q0 -45 27 -75t79 -30q53 0 79.5 30t26.5 75v105h98v-95z" />
    <glyph glyph-name="d" unicode="d" horiz-adv-x="511" 
d="M52 750h204q97 0 150.5 -46t53.5 -145v-368q0 -99 -53.5 -145t-150.5 -46h-204v750zM256 76q53 0 79.5 30t26.5 75v388q0 45 -26.5 75t-79.5 30h-106v-598h106z" />
    <glyph glyph-name="e" unicode="e" horiz-adv-x="466" 
d="M54 750h364v-76h-266v-263h241v-72h-241v-263h266v-76h-364v750z" />
    <glyph glyph-name="f" unicode="f" horiz-adv-x="465" 
d="M54 750h364v-76h-266v-263h241v-72h-241v-339h-98v750z" />
    <glyph glyph-name="g" unicode="g" horiz-adv-x="511" 
d="M51 569q0 99 54 145t150 46q97 0 150.5 -46t53.5 -145v-76h-98v86q0 45 -26.5 75t-79.5 30q-52 0 -79 -30t-27 -75v-408q0 -45 27 -75t79 -30q53 0 79.5 30t26.5 75v66h-76v72h174v-128q0 -99 -53.5 -145t-150.5 -46q-96 0 -150 46t-54 145v388z" />
    <glyph glyph-name="h" unicode="h" horiz-adv-x="516" 
d="M54 750h98v-339h212v339h98v-750h-98v339h-212v-339h-98v750z" />
    <glyph glyph-name="i" unicode="i" horiz-adv-x="219" 
d="M61 750h97v-750h-97v750z" />
    <glyph glyph-name="j" unicode="j" horiz-adv-x="329" 
d="M276 750v-559q0 -54 -13.5 -90.5t-39 -59t-61.5 -32t-81 -9.5h-37v76h23q51 0 81.5 27t30.5 75v572h97z" />
    <glyph glyph-name="k" unicode="k" horiz-adv-x="509" 
d="M54 750h98v-338h58l163 338h100l-177 -374l174 -376h-100l-160 340h-58v-340h-98v750z" />
    <glyph glyph-name="l" unicode="l" horiz-adv-x="464" 
d="M54 750h98v-674h266v-76h-364v750z" />
    <glyph glyph-name="m" unicode="m" horiz-adv-x="748" 
d="M188 750l185 -666h2l185 666h134v-750h-98v584l-175 -584h-93l-176 584v-584h-98v750h134z" />
    <glyph glyph-name="n" unicode="n" horiz-adv-x="516" 
d="M54 750h98l212 -583v583h98v-750h-98l-212 583v-583h-98v750z" />
    <glyph glyph-name="o" unicode="o" 
d="M51 569q0 99 54 145t150 46q97 0 150.5 -46t53.5 -145v-388q0 -99 -53.5 -145t-150.5 -46q-96 0 -150 46t-54 145v388zM149 171q0 -45 27 -75t79 -30q53 0 79.5 30t26.5 75v408q0 45 -26.5 75t-79.5 30q-52 0 -79 -30t-27 -75v-408z" />
    <glyph glyph-name="p" unicode="p" horiz-adv-x="522" 
d="M258 750q116 0 167 -56.5t51 -165.5q0 -110 -52.5 -167.5t-171.5 -57.5h-100v-303h-98v750h204zM152 674v-295h100q48 0 80 23t41 65q5 25 5 59.5t-5 59.5q-8 42 -37.5 65t-77.5 23h-106z" />
    <glyph glyph-name="q" unicode="q" horiz-adv-x="514" 
d="M51 569q0 99 54 145t150 46q97 0 150.5 -46t53.5 -145v-388q0 -109 -68 -155l90 -73q-6 -5 -17 -14t-23 -18.5t-22.5 -18t-15.5 -11.5q-6 6 -19.5 21.5t-28.5 33t-28.5 32.5t-18.5 21q-24 -9 -53 -9q-96 0 -150 46t-54 145v388zM255 684q-52 0 -79 -30t-27 -75v-408
q0 -45 27 -75t79 -30q53 0 79.5 30t26.5 75v408q0 45 -26.5 75t-79.5 30z" />
    <glyph glyph-name="r" unicode="r" horiz-adv-x="516" 
d="M54 750h204q116 0 167 -56.5t51 -165.5q0 -83 -30 -137t-98 -74l120 -317h-96l-114 304q-5 -1 -10.5 -1h-11.5h-84v-303h-98v750zM252 379q48 0 80 23t41 65q5 29 5 59.5t-5 59.5q-9 46 -40 67t-75 21h-106v-295h100z" />
    <glyph glyph-name="s" unicode="s" horiz-adv-x="532" 
d="M47 551q0 105 58.5 157t160.5 52q107 0 158.5 -54t51.5 -161v-16.5t-1 -16.5h-98q1 6 1 14.5v14.5q0 29 -5.5 54.5t-18.5 45.5t-34.5 31.5t-53.5 11.5q-56 0 -88.5 -34.5t-32.5 -89.5q0 -45 25 -72.5t63 -47t81.5 -36t81.5 -41.5t63 -63.5t25 -100.5q0 -105 -58 -157
t-160 -52q-107 0 -158.5 54t-51.5 162v16t1 16h98q-1 -6 -1.5 -14.5t-0.5 -14.5q0 -29 5.5 -55t18.5 -45.5t35 -31t54 -11.5q57 0 89 35.5t32 91.5q0 46 -25 72.5t-63 45.5t-82 35.5t-82 41.5t-63 63t-25 100z" />
    <glyph glyph-name="t" unicode="t" horiz-adv-x="538" 
d="M493 750v-76h-175v-674h-98v674h-175v76h448z" />
    <glyph glyph-name="u" unicode="u" horiz-adv-x="512" 
d="M52 750h98v-579q0 -45 27 -75t79 -30q53 0 79.5 30t26.5 75v579h98v-569q0 -99 -53.5 -145t-150.5 -46q-96 0 -150 46t-54 145v569z" />
    <glyph glyph-name="v" unicode="v" horiz-adv-x="532" 
d="M42 750h102l109 -674h26l109 674h101l-134 -750h-178z" />
    <glyph glyph-name="w" unicode="w" horiz-adv-x="831" 
d="M42 750h102l109 -674h26l89 674h95l89 -674h27l108 674h102l-135 -750h-154l-83 634h-2l-84 -634h-154z" />
    <glyph glyph-name="x" unicode="x" horiz-adv-x="541" 
d="M42 750h100l119 -335h19l119 335h100l-134 -375l131 -375h-100l-116 336h-19l-116 -336h-100l131 375z" />
    <glyph glyph-name="y" unicode="y" horiz-adv-x="529" 
d="M144 750l120 -377l121 377h101l-173 -487v-263h-97v263l-174 487h102z" />
    <glyph glyph-name="z" unicode="z" horiz-adv-x="483" 
d="M147 76h287v-76h-392v74l290 600h-288v76h392v-73z" />
    <glyph glyph-name="braceleft" unicode="{" horiz-adv-x="306" 
d="M44 384q26 15 37 40t14 54t1 59.5t-2 55.5q0 83 42.5 120t123.5 37v-70q-41 0 -63.5 -24t-22.5 -64q0 -21 1.5 -54t-1 -65.5t-12 -59t-32.5 -35.5v-5q23 -9 32.5 -35.5t12 -59.5t1 -66t-1.5 -54q0 -40 22.5 -64t63.5 -24v-70q-81 0 -123.5 37t-42.5 120q0 25 2 55.5
t-1 59.5t-14 54t-37 40v18z" />
    <glyph glyph-name="bar" unicode="|" horiz-adv-x="194" 
d="M57 780h79v-810h-79v810z" />
    <glyph glyph-name="braceright" unicode="}" horiz-adv-x="306" 
d="M262 366q-25 -15 -36 -40t-14 -54t-1.5 -59.5t1.5 -55.5q0 -83 -42.5 -120t-123.5 -37v70q42 0 64.5 24t22.5 64q0 21 -1.5 54t0.5 66t12 59.5t32 35.5v5q-22 9 -32 35.5t-12 59t-0.5 65.5t1.5 54q0 40 -22.5 64t-64.5 24v70q81 0 123.5 -37t42.5 -120q0 -25 -1.5 -55.5
t1.5 -59.5t14 -54t36 -40v-18z" />
    <glyph glyph-name="asciitilde" unicode="~" horiz-adv-x="501" 
d="M52 260q0 37 8.5 61.5t23 39t34 20.5t40.5 6q20 0 42 -3.5t44 -8t42.5 -8t37.5 -3.5q25 0 40 14t15 46h70q0 -52 -15.5 -81t-40.5 -41t-56 -12q-21 0 -43 3.5t-43.5 7.5t-41.5 7.5t-37 3.5q-23 0 -37 -12.5t-14 -39.5h-69z" />
    <glyph glyph-name="exclamdown" unicode="&#xa1;" horiz-adv-x="195" 
d="M138 700v-81h-81v81h81zM53 -50l25 627h39l26 -627h-90z" />
    <glyph glyph-name="cent" unicode="&#xa2;" horiz-adv-x="507" 
d="M50 499q0 89 43.5 135t121.5 54v72h79v-72q78 -8 121 -54t43 -135v-70h-98v80q0 45 -26.5 75.5t-79.5 30.5q-52 0 -79 -30t-27 -76v-267q0 -46 27 -76t79 -30q53 0 79.5 30.5t26.5 75.5v81h98v-71q0 -89 -43 -135t-121 -54v-73h-79v73q-78 8 -121.5 54t-43.5 135v247z
" />
    <glyph glyph-name="sterling" unicode="&#xa3;" horiz-adv-x="557" 
d="M406 373v-72h-206v-225h290v-76h-387v301h-57v72h57v196q0 99 53.5 145t149.5 46q97 0 150.5 -46t53.5 -145v-54h-97v64q0 45 -27 75t-80 30q-51 0 -78.5 -30t-27.5 -75v-206h206z" />
    <glyph glyph-name="currency" unicode="&#xa4;" horiz-adv-x="578" 
d="M64 369q0 42 14.5 78.5t40.5 65.5l-63 65l54 55l68 -71q50 33 113 33q29 0 56 -7.5t50 -20.5l67 70l51 -50l-60 -65q29 -29 46 -68.5t17 -84.5q0 -47 -18 -87.5t-48 -69.5l63 -68l-51 -50l-71 75q-22 -13 -48 -20t-54 -7q-30 0 -58 8.5t-51 22.5l-72 -75l-54 55l66 68
q-27 29 -42.5 67t-15.5 81zM291 197q35 0 66.5 13.5t55 36.5t37 54.5t13.5 67.5t-13.5 67t-37 54t-55 36.5t-66.5 13.5t-66.5 -13.5t-55 -36.5t-37 -54t-13.5 -67t13.5 -67.5t37 -54.5t55 -36.5t66.5 -13.5z" />
    <glyph glyph-name="yen" unicode="&#xa5;" horiz-adv-x="531" 
d="M145 750l120 -362l121 362h101l-146 -398h99v-53h-118l-7 -18v-74h125v-52h-126v-155h-97v155h-126v52h125v74l-8 18h-117v53h99l-147 398h102z" />
    <glyph glyph-name="brokenbar" unicode="&#xa6;" horiz-adv-x="190" 
d="M55 454v326h79v-326h-79zM55 -20v326h79v-326h-79z" />
    <glyph glyph-name="section" unicode="&#xa7;" horiz-adv-x="545" 
d="M54 552q0 50 16 89t45 65.5t69 40.5t89 14q105 0 157.5 -56t52.5 -160v-16t-1 -16h-98q1 6 1 14.5v14.5q0 27 -6 52.5t-19 46t-34.5 32.5t-52.5 12q-26 0 -48.5 -10t-38.5 -26.5t-25 -39t-9 -48.5q0 -40 21.5 -65.5t53.5 -45t70 -37.5t71 -42q0 -1 -0.5 -2.5t-0.5 -2.5
q-14 3 -48 9.5t-72 14.5t-72.5 15.5t-49.5 10.5q-31 23 -51 54t-20 82zM491 198q0 -50 -16 -89t-45 -65.5t-69 -40.5t-89 -14q-105 0 -157.5 56t-52.5 160q0 8 0.5 16.5t1.5 16.5h97q-1 -6 -1 -15v-15q0 -27 5.5 -53t19 -46t35 -32t52.5 -12q27 0 49.5 10t38.5 27.5t24.5 41
t8.5 49.5q0 39 -20.5 63.5t-51 43t-66.5 36t-68 41.5v5q6 -1 24.5 -5t43.5 -9t52.5 -11t52 -11t42.5 -8.5t24 -4.5q28 -23 46.5 -54.5t18.5 -80.5z" />
    <glyph glyph-name="dieresis" unicode="&#xa8;" horiz-adv-x="269" 
d="M228 675h-75v75h75v-75zM117 675h-76v75h76v-75z" />
    <glyph glyph-name="copyright" unicode="&#xa9;" horiz-adv-x="859" 
d="M54 373q0 81 28.5 149.5t78.5 119t118.5 78.5t149.5 28t149.5 -28t119 -78.5t78.5 -119t28 -149.5t-28 -149.5t-78.5 -119t-119 -78.5t-149.5 -28t-149.5 28t-118.5 78.5t-78.5 119t-28.5 149.5zM95 373q0 -72 25 -133.5t70 -106t106 -70t133 -25.5t133.5 25.5t106.5 70
t70 106t25 133.5t-25 133.5t-70 106t-106.5 70t-133.5 25.5t-133 -25.5t-106 -70t-70 -106t-25 -133.5zM587 295v-73q0 -77 -41.5 -113t-116.5 -36q-74 0 -115.5 36t-41.5 113v306q0 77 41.5 113t115.5 36q75 0 116.5 -36t41.5 -113v-73h-72v81q0 37 -21.5 61.5t-64.5 24.5
q-42 0 -63.5 -24t-21.5 -62v-322q0 -38 21.5 -61.5t63.5 -23.5q43 0 64.5 24t21.5 61v81h72z" />
    <glyph glyph-name="ordfeminine" unicode="&#xaa;" horiz-adv-x="293" 
d="M107 750h78l61 -338h-46l-16 105h-76l-16 -105h-45zM111 550h70l-28 166h-14z" />
    <glyph glyph-name="guillemotleft" unicode="&#xab;" horiz-adv-x="467" 
d="M231 345v-2l192 -180v-75l-247 230v54l247 226v-75zM98 345v-2l192 -180v-75l-247 230v54l247 226v-75z" />
    <glyph glyph-name="logicalnot" unicode="&#xac;" horiz-adv-x="541" 
d="M54 313h432v-292h-56v235h-376v57z" />
    <glyph glyph-name="registered" unicode="&#xae;" horiz-adv-x="845" 
d="M422 748q81 0 149.5 -28t119 -78.5t78.5 -119t28 -149.5t-28 -149.5t-78.5 -119t-119 -78.5t-149.5 -28t-149.5 28t-118.5 78.5t-78.5 119t-28.5 149.5t28.5 149.5t78.5 119t118.5 78.5t149.5 28zM88 373q0 -72 25 -133.5t70 -106t106 -70t133 -25.5t133.5 25.5t106.5 70
t70 106t25 133.5t-25 133.5t-70 106t-106.5 70t-133.5 25.5t-133 -25.5t-106 -70t-70 -106t-25 -133.5zM293 648h145q83 0 119 -41t36 -119q0 -60 -22 -99t-72 -53l88 -230h-64l-84 221h-16h-65v-221h-65v542zM433 377q31 0 54.5 14t33.5 41q1 4 3 14q8 41 0 83l-3 15
q-8 22 -24 35t-39 17q-6 2 -12 2h-88v-221h75z" />
    <glyph glyph-name="macron" unicode="&#xaf;" horiz-adv-x="398" 
d="M39 688h319v-71h-319v71z" />
    <glyph glyph-name="degree" unicode="&#xb0;" horiz-adv-x="295" 
d="M47 599q0 43 28.5 71.5t71.5 28.5q44 0 72 -28.5t28 -71.5q0 -44 -28 -72t-72 -28q-43 0 -71.5 28t-28.5 72zM96 599q0 -23 14 -37t37 -14t37 14t14 37t-14 37t-37 14t-37 -14t-14 -37z" />
    <glyph glyph-name="plusminus" unicode="&#xb1;" horiz-adv-x="412" 
d="M48 411h120v134h76v-134h119v-72h-119v-134h-76v134h-120v72zM48 170h315v-71h-315v71z" />
    <glyph glyph-name="twosuperior" unicode="&#xb2;" horiz-adv-x="287" 
d="M143 720q-21 0 -32.5 -13.5t-11.5 -33.5v-33h-45q0 27 2.5 48t11.5 35.5t27 22t49 7.5q45 0 66.5 -20.5t21.5 -70.5q0 -27 -9.5 -49t-24 -40t-31.5 -33.5t-31.5 -30.5t-24.5 -30t-10 -33h125v-35h-169v31q0 37 17 62.5t39 46.5t42 41t27 45q5 12 5.5 28t-5.5 28
q-4 11 -13.5 19t-25.5 8z" />
    <glyph glyph-name="threesuperior" unicode="&#xb3;" horiz-adv-x="287" 
d="M54 642v25q0 47 22.5 67t64.5 20q51 0 71 -25t20 -76q0 -18 -5 -40t-22 -29v-3q8 -3 13.5 -11t8.5 -17.5t4 -20t1 -19.5q0 -51 -20 -76t-71 -25q-42 0 -64.5 19t-22.5 67v26h44v-32q0 -21 11.5 -33.5t31.5 -12.5q29 0 38 20.5t9 46.5q0 18 -6 35t-29 18v33q23 1 29 18
t6 35q0 12 -1.5 24.5t-7 22t-14.5 15.5t-24 6q-20 0 -31.5 -13t-11.5 -34v-31h-44z" />
    <glyph glyph-name="acute" unicode="&#xb4;" horiz-adv-x="213" 
d="M86 750h85l-71 -120h-59z" />
    <glyph glyph-name="paragraph" unicode="&#xb6;" horiz-adv-x="425" 
d="M234 416q-49 0 -83.5 14.5t-56 37.5t-31 53t-9.5 63t9.5 63t31 53t56 36.5t83.5 13.5h49v-780h-49v446zM322 750h48v-780h-48v780z" />
    <glyph glyph-name="periodcentered" unicode="&#xb7;" horiz-adv-x="177" 
d="M129 669h-81v81h81v-81z" />
    <glyph glyph-name="cedilla" unicode="&#xb8;" horiz-adv-x="228" 
d="M48 -94q39 -6 55.5 8.5t16.5 34.5q0 17 -9.5 32t-26.5 19l40 11q32 -10 47.5 -32.5t15.5 -48.5q0 -17 -7 -34t-21 -30.5t-34.5 -21.5t-46.5 -8q-8 0 -17.5 1t-19.5 3z" />
    <glyph glyph-name="onesuperior" unicode="&#xb9;" horiz-adv-x="180" 
d="M54 698v33l30 19h42v-339h-44v295z" />
    <glyph glyph-name="ordmasculine" unicode="&#xba;" horiz-adv-x="261" 
d="M47 675q0 39 22 61t61 22t61 -22.5t22 -60.5v-180q0 -39 -22 -61.5t-61 -22.5t-61 22t-22 62v180zM130 724q-19 0 -29 -12.5t-10 -29.5v-194q0 -18 10 -31t29 -13q20 0 30 13t10 31v194q0 17 -10 29.5t-30 12.5z" />
    <glyph glyph-name="guillemotright" unicode="&#xbb;" horiz-adv-x="467" 
d="M236 345l-192 178v75l247 -226v-54l-247 -230v75l192 180v2zM369 345l-192 178v75l247 -226v-54l-247 -230v75l192 180v2z" />
    <glyph glyph-name="onequarter" unicode="&#xbc;" horiz-adv-x="461" 
d="M273 750h39l-162 -750h-39zM44 698v33l30 19h42v-339h-44v295zM405 106v-106h-44v106h-106v34l96 199h54v-201h12v-32h-12zM361 138v163l-78 -163h78z" />
    <glyph glyph-name="onehalf" unicode="&#xbd;" horiz-adv-x="493" 
d="M44 731l30 19h42v-339h-44v295l-28 -8v33zM316 750l-162 -750h-40l162 750h40zM360 308q-21 0 -32.5 -13t-11.5 -33v-33h-45q0 27 2.5 48t11.5 35.5t27 22t49 7.5q45 0 66.5 -20.5t21.5 -70.5q0 -41 -20.5 -70t-45 -52.5t-45 -45.5t-20.5 -49h125v-34h-169v30
q0 37 17 62.5t39 46.5t42 41.5t27 45.5q5 11 5.5 27.5t-5.5 27.5q-5 12 -14.5 19.5t-24.5 7.5z" />
    <glyph glyph-name="threequarters" unicode="&#xbe;" 
d="M44 642v25q0 47 22.5 67t64.5 20q51 0 71 -25t20 -76q0 -18 -5 -40t-22 -29v-3q8 -3 13.5 -11t8.5 -17.5t4 -20t1 -19.5q0 -51 -20 -76t-71 -25q-42 0 -64.5 19t-22.5 67v26h44v-32q0 -21 11.5 -33.5t31.5 -12.5q29 0 38 20.5t9 46.5q0 18 -6 35t-29 18v33q23 1 29 18
t6 35q0 12 -1.5 24.5t-7 22t-14.5 15.5t-24 6q-20 0 -31.5 -13t-11.5 -34v-31h-44zM333 750h39l-162 -750h-39zM453 106v-106h-43v106h-106v34l96 199h53v-201h13v-32h-13zM410 138v163l-78 -163h78z" />
    <glyph glyph-name="questiondown" unicode="&#xbf;" horiz-adv-x="468" 
d="M292 710h81v-81h-81v81zM306 587h53q0 -53 -16 -95t-40.5 -77t-53 -65t-53 -60.5t-41 -63t-16.5 -71.5q0 -56 23 -87.5t74 -31.5q48 0 72.5 28t24.5 81v53h90v-47q0 -57 -12.5 -96t-36.5 -62t-59 -33t-80 -10q-44 0 -79.5 10t-60 33.5t-37.5 62.5t-13 97q0 54 19.5 95
t48.5 75.5t62.5 64.5t62.5 60.5t48.5 64t19.5 74.5z" />
    <glyph glyph-name="Agrave" unicode="&#xc0;" horiz-adv-x="518" 
d="M164 902h85l45 -120h-58zM174 750h170l135 -750h-99l-38 235h-166l-38 -235h-99zM182 307h154l-62 367h-30z" />
    <glyph glyph-name="Aacute" unicode="&#xc1;" horiz-adv-x="518" 
d="M271 902h85l-72 -120h-58zM174 750h170l135 -750h-99l-38 235h-166l-38 -235h-99zM182 307h154l-62 367h-30z" />
    <glyph glyph-name="Acircumflex" unicode="&#xc2;" horiz-adv-x="518" 
d="M225 902h68l100 -120h-71l-62 65h-2l-62 -65h-70zM174 750h170l135 -750h-99l-38 235h-166l-38 -235h-99zM182 307h154l-62 367h-30z" />
    <glyph glyph-name="Atilde" unicode="&#xc3;" horiz-adv-x="518" 
d="M182 782h-47q2 47 22 64.5t45 17.5q14 0 28 -3t28.5 -7t27.5 -7t23 -3q25 0 28 27h47q-3 -47 -23.5 -64.5t-46.5 -17.5q-13 0 -27.5 3t-28.5 7t-26.5 7t-22.5 3q-25 0 -27 -27zM174 750h170l135 -750h-99l-38 235h-166l-38 -235h-99zM182 307h154l-62 367h-30z" />
    <glyph glyph-name="Adieresis" unicode="&#xc4;" horiz-adv-x="518" 
d="M353 778h-76v75h76v-75zM241 778h-75v75h75v-75zM174 750h170l135 -750h-99l-38 235h-166l-38 -235h-99zM182 307h154l-62 367h-30z" />
    <glyph glyph-name="Aring" unicode="&#xc5;" horiz-adv-x="518" 
d="M184 854q0 33 21 54t53 21q33 0 54 -21t21 -54t-21 -53.5t-54 -20.5q-32 0 -53 20.5t-21 53.5zM214 854q0 -20 12 -32.5t32 -12.5t32.5 12.5t12.5 32.5t-12.5 32.5t-32.5 12.5t-32 -12.5t-12 -32.5zM174 750h170l135 -750h-99l-38 235h-166l-38 -235h-99zM182 307h154
l-62 367h-30z" />
    <glyph glyph-name="AE" unicode="&#xc6;" horiz-adv-x="685" 
d="M174 750h464v-76h-266v-263h241v-72h-241v-263h266v-76h-364v235h-98l-38 -235h-99zM182 307h92v367h-30z" />
    <glyph glyph-name="Ccedilla" unicode="&#xc7;" 
d="M51 569q0 99 54 145t150 46q97 0 150.5 -46t53.5 -145v-95h-98v105q0 45 -26.5 75t-79.5 30q-52 0 -79 -30t-27 -75v-408q0 -45 27 -75t79 -30q53 0 79.5 30t26.5 75v105h98v-95q0 -90 -45 -136t-126 -53q28 -26 28 -62q0 -17 -7 -34t-21 -30.5t-34.5 -21.5t-46.5 -8
q-8 0 -17.5 1t-19.5 3l6 66q40 -6 56.5 8.5t16.5 34.5q0 26 -18 41q-85 6 -132.5 52t-47.5 139v388z" />
    <glyph glyph-name="Egrave" unicode="&#xc8;" horiz-adv-x="466" 
d="M145 902h85l44 -120h-58zM54 750h364v-76h-266v-263h241v-72h-241v-263h266v-76h-364v750z" />
    <glyph glyph-name="Eacute" unicode="&#xc9;" horiz-adv-x="466" 
d="M240 902h85l-72 -120h-58zM54 750h364v-76h-266v-263h241v-72h-241v-263h266v-76h-364v750z" />
    <glyph glyph-name="Ecircumflex" unicode="&#xca;" horiz-adv-x="466" 
d="M203 902h67l100 -120h-71l-61 65h-3l-61 -65h-71zM54 750h364v-76h-266v-263h241v-72h-241v-263h266v-76h-364v750z" />
    <glyph glyph-name="Edieresis" unicode="&#xcb;" horiz-adv-x="466" 
d="M330 782h-75v75h75v-75zM219 782h-76v75h76v-75zM54 750h364v-76h-266v-263h241v-72h-241v-263h266v-76h-364v750z" />
    <glyph glyph-name="Igrave" unicode="&#xcc;" horiz-adv-x="206" 
d="M4 902h85l45 -120h-58zM54 750h98v-750h-98v750z" />
    <glyph glyph-name="Iacute" unicode="&#xcd;" horiz-adv-x="206" 
d="M120 902h85l-71 -120h-58zM54 750h98v-750h-98v750z" />
    <glyph glyph-name="Icircumflex" unicode="&#xce;" horiz-adv-x="206" 
d="M70 902h67l100 -120h-71l-61 65h-3l-61 -65h-71zM54 750h98v-750h-98v750z" />
    <glyph glyph-name="Idieresis" unicode="&#xcf;" horiz-adv-x="206" 
d="M196 782h-75v75h75v-75zM86 782h-76v75h76v-75zM54 750h98v-750h-98v750z" />
    <glyph glyph-name="Eth" unicode="&#xd0;" horiz-adv-x="557" 
d="M99 750h203q97 0 150.5 -46t53.5 -145v-368q0 -99 -53.5 -145t-150.5 -46h-203v346h-64v71h64v333zM196 346v-270h106q53 0 80 30t27 75v388q0 45 -27 75t-80 30h-106v-257h100v-71h-100z" />
    <glyph glyph-name="Ntilde" unicode="&#xd1;" horiz-adv-x="516" 
d="M191 782h-47q2 47 22 64.5t46 17.5q14 0 28 -3t28 -7t27 -7t23 -3q25 0 28 27h47q-3 -47 -23 -64.5t-46 -17.5q-13 0 -27.5 3t-28.5 7t-27 7t-23 3q-24 0 -27 -27zM54 750h98l212 -583v583h98v-750h-98l-212 583v-583h-98v750z" />
    <glyph glyph-name="Ograve" unicode="&#xd2;" 
d="M248 902l45 -120h-59l-71 120h85zM51 569q0 99 54 145t150 46q97 0 150.5 -46t53.5 -145v-388q0 -99 -53.5 -145t-150.5 -46q-96 0 -150 46t-54 145v388zM149 171q0 -45 27 -75t79 -30q53 0 79.5 30t26.5 75v408q0 45 -26.5 75t-79.5 30q-52 0 -79 -30t-27 -75v-408z" />
    <glyph glyph-name="Oacute" unicode="&#xd3;" 
d="M353 902l-72 -120h-58l45 120h85zM51 569q0 99 54 145t150 46q97 0 150.5 -46t53.5 -145v-388q0 -99 -53.5 -145t-150.5 -46q-96 0 -150 46t-54 145v388zM149 171q0 -45 27 -75t79 -30q53 0 79.5 30t26.5 75v408q0 45 -26.5 75t-79.5 30q-52 0 -79 -30t-27 -75v-408z" />
    <glyph glyph-name="Ocircumflex" unicode="&#xd4;" 
d="M289 902l100 -120h-71l-61 65h-3l-62 -65h-70l99 120h68zM51 569q0 99 54 145t150 46q97 0 150.5 -46t53.5 -145v-388q0 -99 -53.5 -145t-150.5 -46q-96 0 -150 46t-54 145v388zM149 171q0 -45 27 -75t79 -30q53 0 79.5 30t26.5 75v408q0 45 -26.5 75t-79.5 30
q-52 0 -79 -30t-27 -75v-408z" />
    <glyph glyph-name="Otilde" unicode="&#xd5;" 
d="M131 782q2 47 22 64.5t46 17.5q14 0 28 -3t28 -7t27 -7t23 -3q25 0 28 27h47q-3 -47 -23 -64.5t-46 -17.5q-13 0 -27.5 3t-28.5 7t-27 7t-23 3q-24 0 -27 -27h-47zM51 569q0 99 54 145t150 46q97 0 150.5 -46t53.5 -145v-388q0 -99 -53.5 -145t-150.5 -46q-96 0 -150 46
t-54 145v388zM149 171q0 -45 27 -75t79 -30q53 0 79.5 30t26.5 75v408q0 45 -26.5 75t-79.5 30q-52 0 -79 -30t-27 -75v-408z" />
    <glyph glyph-name="Odieresis" unicode="&#xd6;" 
d="M273 782v75h75v-75h-75zM162 782v75h76v-75h-76zM51 569q0 99 54 145t150 46q97 0 150.5 -46t53.5 -145v-388q0 -99 -53.5 -145t-150.5 -46q-96 0 -150 46t-54 145v388zM149 171q0 -45 27 -75t79 -30q53 0 79.5 30t26.5 75v408q0 45 -26.5 75t-79.5 30q-52 0 -79 -30
t-27 -75v-408z" />
    <glyph glyph-name="multiply" unicode="&#xd7;" 
d="M255 425l152 161l55 -50l-156 -166l156 -165l-55 -50l-152 161l-152 -161l-55 50l156 165l-156 166l55 50z" />
    <glyph glyph-name="Oslash" unicode="&#xd8;" horiz-adv-x="515" 
d="M53 569q0 99 53.5 145t149.5 46q75 0 124 -28l11 28h50l-24 -58q43 -48 43 -133v-388q0 -99 -53.5 -145t-150.5 -46q-72 0 -121 26l-11 -26h-50l23 56q-44 47 -44 135v388zM344 644q-14 19 -35.5 29.5t-52.5 10.5q-51 0 -78.5 -30t-27.5 -75v-405zM171 104q29 -38 85 -38
q53 0 80 30t27 75v399z" />
    <glyph glyph-name="Ugrave" unicode="&#xd9;" horiz-adv-x="512" 
d="M168 902h85l45 -120h-59zM52 750h98v-579q0 -45 27 -75t79 -30q53 0 79.5 30t26.5 75v579h98v-569q0 -99 -53.5 -145t-150.5 -46q-96 0 -150 46t-54 145v569z" />
    <glyph glyph-name="Uacute" unicode="&#xda;" horiz-adv-x="512" 
d="M262 902h85l-71 -120h-58zM52 750h98v-579q0 -45 27 -75t79 -30q53 0 79.5 30t26.5 75v579h98v-569q0 -99 -53.5 -145t-150.5 -46q-96 0 -150 46t-54 145v569z" />
    <glyph glyph-name="Ucircumflex" unicode="&#xdb;" horiz-adv-x="512" 
d="M224 902h67l100 -120h-71l-61 65h-3l-61 -65h-71zM52 750h98v-579q0 -45 27 -75t79 -30q53 0 79.5 30t26.5 75v579h98v-569q0 -99 -53.5 -145t-150.5 -46q-96 0 -150 46t-54 145v569z" />
    <glyph glyph-name="Udieresis" unicode="&#xdc;" horiz-adv-x="512" 
d="M348 782h-76v75h76v-75zM238 782h-75v75h75v-75zM52 750h98v-579q0 -45 27 -75t79 -30q53 0 79.5 30t26.5 75v579h98v-569q0 -99 -53.5 -145t-150.5 -46q-96 0 -150 46t-54 145v569z" />
    <glyph glyph-name="Yacute" unicode="&#xdd;" horiz-adv-x="529" 
d="M362 902l-72 -120h-58l45 120h85zM144 750l120 -377l121 377h101l-173 -487v-263h-97v263l-174 487h102z" />
    <glyph glyph-name="Thorn" unicode="&#xde;" horiz-adv-x="522" 
d="M152 750v-146h106q116 0 167 -56.5t51 -165.5q0 -110 -52.5 -167.5t-171.5 -57.5h-100v-157h-98v750h98zM152 528v-295h100q48 0 80 23t41 65q5 25 5 59.5t-5 59.5q-8 42 -37.5 65t-77.5 23h-106z" />
    <glyph glyph-name="germandbls" unicode="&#xdf;" horiz-adv-x="990" 
d="M505 551q0 105 58.5 157t160.5 52q107 0 158.5 -54t51.5 -161q0 -8 -0.5 -16.5t-1.5 -16.5h-97q1 6 1 14.5v14.5q0 29 -5.5 54.5t-18.5 45.5t-34.5 31.5t-53.5 11.5q-56 0 -88.5 -34.5t-32.5 -89.5q0 -45 25 -72.5t63 -47t81.5 -36t81.5 -41.5t63 -63.5t25 -100.5
q0 -105 -58.5 -157t-159.5 -52q-211 0 -211 216q0 8 0.5 16t1.5 16h97q0 -6 -0.5 -14.5t-0.5 -14.5q0 -29 5.5 -55t18.5 -45.5t35 -31t54 -11.5q57 0 88.5 35.5t31.5 91.5q0 46 -25 72.5t-63 45.5t-81.5 35.5t-81.5 41.5t-63 63t-25 100zM47 551q0 105 58.5 157t160.5 52
q107 0 158.5 -54t51.5 -161v-16.5t-1 -16.5h-98q1 6 1 14.5v14.5q0 29 -5.5 54.5t-18.5 45.5t-34.5 31.5t-53.5 11.5q-56 0 -88.5 -34.5t-32.5 -89.5q0 -45 25 -72.5t63 -47t81.5 -36t81.5 -41.5t63 -63.5t25 -100.5q0 -105 -58 -157t-160 -52q-107 0 -158.5 54t-51.5 162
v16t1 16h98q-1 -6 -1.5 -14.5t-0.5 -14.5q0 -29 5.5 -55t18.5 -45.5t35 -31t54 -11.5q57 0 89 35.5t32 91.5q0 46 -25 72.5t-63 45.5t-82 35.5t-82 41.5t-63 63t-25 100z" />
    <glyph glyph-name="agrave" unicode="&#xe0;" horiz-adv-x="518" 
d="M164 902h85l45 -120h-58zM174 750h170l135 -750h-99l-38 235h-166l-38 -235h-99zM182 307h154l-62 367h-30z" />
    <glyph glyph-name="aacute" unicode="&#xe1;" horiz-adv-x="518" 
d="M271 902h85l-72 -120h-58zM174 750h170l135 -750h-99l-38 235h-166l-38 -235h-99zM182 307h154l-62 367h-30z" />
    <glyph glyph-name="acircumflex" unicode="&#xe2;" horiz-adv-x="518" 
d="M225 902h68l100 -120h-71l-62 65h-2l-62 -65h-70zM174 750h170l135 -750h-99l-38 235h-166l-38 -235h-99zM182 307h154l-62 367h-30z" />
    <glyph glyph-name="atilde" unicode="&#xe3;" horiz-adv-x="518" 
d="M182 782h-47q2 47 22 64.5t45 17.5q14 0 28 -3t28.5 -7t27.5 -7t23 -3q25 0 28 27h47q-3 -47 -23.5 -64.5t-46.5 -17.5q-13 0 -27.5 3t-28.5 7t-26.5 7t-22.5 3q-25 0 -27 -27zM174 750h170l135 -750h-99l-38 235h-166l-38 -235h-99zM182 307h154l-62 367h-30z" />
    <glyph glyph-name="adieresis" unicode="&#xe4;" horiz-adv-x="518" 
d="M353 778h-76v75h76v-75zM241 778h-75v75h75v-75zM174 750h170l135 -750h-99l-38 235h-166l-38 -235h-99zM182 307h154l-62 367h-30z" />
    <glyph glyph-name="aring" unicode="&#xe5;" horiz-adv-x="518" 
d="M184 854q0 33 21 54t53 21q33 0 54 -21t21 -54t-21 -53.5t-54 -20.5q-32 0 -53 20.5t-21 53.5zM214 854q0 -20 12 -32.5t32 -12.5t32.5 12.5t12.5 32.5t-12.5 32.5t-32.5 12.5t-32 -12.5t-12 -32.5zM174 750h170l135 -750h-99l-38 235h-166l-38 -235h-99zM182 307h154
l-62 367h-30z" />
    <glyph glyph-name="ae" unicode="&#xe6;" horiz-adv-x="685" 
d="M174 750h464v-76h-266v-263h241v-72h-241v-263h266v-76h-364v235h-98l-38 -235h-99zM182 307h92v367h-30z" />
    <glyph glyph-name="ccedilla" unicode="&#xe7;" horiz-adv-x="506" 
d="M49 569q0 99 54 145t150 46q97 0 150.5 -46t53.5 -145v-95h-98v105q0 45 -26.5 75t-79.5 30q-52 0 -79 -30t-27 -75v-408q0 -45 27 -75t79 -30q53 0 79.5 30t26.5 75v105h98v-95q0 -90 -45 -136t-126 -53q28 -26 28 -62q0 -17 -7 -34t-21 -30.5t-34.5 -21.5t-46.5 -8
q-8 0 -17.5 1t-19.5 3l6 66q40 -6 56.5 8.5t16.5 34.5q0 26 -18 41q-85 6 -132.5 52t-47.5 139v388z" />
    <glyph glyph-name="egrave" unicode="&#xe8;" horiz-adv-x="466" 
d="M145 902h85l44 -120h-58zM54 750h364v-76h-266v-263h241v-72h-241v-263h266v-76h-364v750z" />
    <glyph glyph-name="eacute" unicode="&#xe9;" horiz-adv-x="466" 
d="M240 902h85l-72 -120h-58zM54 750h364v-76h-266v-263h241v-72h-241v-263h266v-76h-364v750z" />
    <glyph glyph-name="ecircumflex" unicode="&#xea;" horiz-adv-x="466" 
d="M203 902h67l100 -120h-71l-61 65h-3l-61 -65h-71zM54 750h364v-76h-266v-263h241v-72h-241v-263h266v-76h-364v750z" />
    <glyph glyph-name="edieresis" unicode="&#xeb;" horiz-adv-x="466" 
d="M330 782h-75v75h75v-75zM219 782h-76v75h76v-75zM54 750h364v-76h-266v-263h241v-72h-241v-263h266v-76h-364v750z" />
    <glyph glyph-name="igrave" unicode="&#xec;" horiz-adv-x="206" 
d="M4 902h85l45 -120h-58zM54 750h98v-750h-98v750z" />
    <glyph glyph-name="iacute" unicode="&#xed;" horiz-adv-x="206" 
d="M119 902h85l-71 -120h-59zM54 750h98v-750h-98v750z" />
    <glyph glyph-name="icircumflex" unicode="&#xee;" horiz-adv-x="206" 
d="M69 902h68l100 -120h-71l-61 65h-3l-62 -65h-70zM54 750h98v-750h-98v750z" />
    <glyph glyph-name="idieresis" unicode="&#xef;" horiz-adv-x="206" 
d="M196 782h-75v75h75v-75zM86 782h-76v75h76v-75zM54 750h98v-750h-98v750z" />
    <glyph glyph-name="eth" unicode="&#xf0;" 
d="M228 -10q-75 0 -122.5 44t-55.5 123q-2 18 -3.5 36.5t-1.5 37.5q0 14 0.5 27t1.5 26q7 81 53.5 124t121.5 45q53 0 83 -33q-5 46 -17 87t-36 82l-121 -39l-14 51l110 36q-35 54 -85 93l46 24q68 -34 119 -96l137 44l14 -51l-118 -39q49 -75 64.5 -159.5t15.5 -170.5
q0 -32 -1.5 -64t-5.5 -62q-10 -78 -57.5 -122t-127.5 -44zM232 381q-44 0 -66.5 -30t-23.5 -74v-59v-48q1 -49 24.5 -77t65.5 -28q41 0 64.5 28t24.5 75q1 17 1 35v37v38q-1 44 -23.5 73.5t-66.5 29.5z" />
    <glyph glyph-name="ntilde" unicode="&#xf1;" horiz-adv-x="516" 
d="M191 782h-47q2 47 22 64.5t46 17.5q14 0 28 -3t28 -7t27 -7t23 -3q25 0 28 27h47q-3 -47 -23 -64.5t-46 -17.5q-13 0 -27.5 3t-28.5 7t-27 7t-23 3q-24 0 -27 -27zM54 750h98l212 -583v583h98v-750h-98l-212 583v-583h-98v750z" />
    <glyph glyph-name="ograve" unicode="&#xf2;" 
d="M248 902l45 -120h-59l-71 120h85zM51 569q0 99 54 145t150 46q97 0 150.5 -46t53.5 -145v-388q0 -99 -53.5 -145t-150.5 -46q-96 0 -150 46t-54 145v388zM149 171q0 -45 27 -75t79 -30q53 0 79.5 30t26.5 75v408q0 45 -26.5 75t-79.5 30q-52 0 -79 -30t-27 -75v-408z" />
    <glyph glyph-name="oacute" unicode="&#xf3;" 
d="M353 902l-72 -120h-58l45 120h85zM51 569q0 99 54 145t150 46q97 0 150.5 -46t53.5 -145v-388q0 -99 -53.5 -145t-150.5 -46q-96 0 -150 46t-54 145v388zM149 171q0 -45 27 -75t79 -30q53 0 79.5 30t26.5 75v408q0 45 -26.5 75t-79.5 30q-52 0 -79 -30t-27 -75v-408z" />
    <glyph glyph-name="ocircumflex" unicode="&#xf4;" 
d="M289 902l100 -120h-71l-61 65h-3l-62 -65h-70l99 120h68zM51 569q0 99 54 145t150 46q97 0 150.5 -46t53.5 -145v-388q0 -99 -53.5 -145t-150.5 -46q-96 0 -150 46t-54 145v388zM149 171q0 -45 27 -75t79 -30q53 0 79.5 30t26.5 75v408q0 45 -26.5 75t-79.5 30
q-52 0 -79 -30t-27 -75v-408z" />
    <glyph glyph-name="otilde" unicode="&#xf5;" 
d="M131 782q2 47 22 64.5t46 17.5q14 0 28 -3t28 -7t27 -7t23 -3q25 0 28 27h47q-3 -47 -23 -64.5t-46 -17.5q-13 0 -27.5 3t-28.5 7t-27 7t-23 3q-24 0 -27 -27h-47zM51 569q0 99 54 145t150 46q97 0 150.5 -46t53.5 -145v-388q0 -99 -53.5 -145t-150.5 -46q-96 0 -150 46
t-54 145v388zM149 171q0 -45 27 -75t79 -30q53 0 79.5 30t26.5 75v408q0 45 -26.5 75t-79.5 30q-52 0 -79 -30t-27 -75v-408z" />
    <glyph glyph-name="odieresis" unicode="&#xf6;" 
d="M273 782v75h75v-75h-75zM162 782v75h76v-75h-76zM51 569q0 99 54 145t150 46q97 0 150.5 -46t53.5 -145v-388q0 -99 -53.5 -145t-150.5 -46q-96 0 -150 46t-54 145v388zM149 171q0 -45 27 -75t79 -30q53 0 79.5 30t26.5 75v408q0 45 -26.5 75t-79.5 30q-52 0 -79 -30
t-27 -75v-408z" />
    <glyph glyph-name="divide" unicode="&#xf7;" horiz-adv-x="420" 
d="M170 471v81h80v-81h-80zM50 317v72h319v-72h-319zM250 235v-81h-80v81h80z" />
    <glyph glyph-name="oslash" unicode="&#xf8;" horiz-adv-x="515" 
d="M53 569q0 99 53.5 145t149.5 46q75 0 124 -28l11 28h50l-24 -58q43 -48 43 -133v-388q0 -99 -53.5 -145t-150.5 -46q-72 0 -121 26l-11 -26h-50l23 56q-44 47 -44 135v388zM344 644q-14 19 -35.5 29.5t-52.5 10.5q-51 0 -78.5 -30t-27.5 -75v-405zM171 104q29 -38 85 -38
q53 0 80 30t27 75v399z" />
    <glyph glyph-name="ugrave" unicode="&#xf9;" horiz-adv-x="512" 
d="M168 902h85l45 -120h-59zM52 750h98v-579q0 -45 27 -75t79 -30q53 0 79.5 30t26.5 75v579h98v-569q0 -99 -53.5 -145t-150.5 -46q-96 0 -150 46t-54 145v569z" />
    <glyph glyph-name="uacute" unicode="&#xfa;" horiz-adv-x="512" 
d="M262 902h85l-71 -120h-58zM52 750h98v-579q0 -45 27 -75t79 -30q53 0 79.5 30t26.5 75v579h98v-569q0 -99 -53.5 -145t-150.5 -46q-96 0 -150 46t-54 145v569z" />
    <glyph glyph-name="ucircumflex" unicode="&#xfb;" horiz-adv-x="512" 
d="M224 902h67l100 -120h-71l-61 65h-3l-61 -65h-71zM52 750h98v-579q0 -45 27 -75t79 -30q53 0 79.5 30t26.5 75v579h98v-569q0 -99 -53.5 -145t-150.5 -46q-96 0 -150 46t-54 145v569z" />
    <glyph glyph-name="udieresis" unicode="&#xfc;" horiz-adv-x="512" 
d="M348 782h-76v75h76v-75zM238 782h-75v75h75v-75zM52 750h98v-579q0 -45 27 -75t79 -30q53 0 79.5 30t26.5 75v579h98v-569q0 -99 -53.5 -145t-150.5 -46q-96 0 -150 46t-54 145v569z" />
    <glyph glyph-name="yacute" unicode="&#xfd;" horiz-adv-x="529" 
d="M362 902l-72 -120h-58l45 120h85zM144 750l120 -377l121 377h101l-173 -487v-263h-97v263l-174 487h102z" />
    <glyph glyph-name="thorn" unicode="&#xfe;" horiz-adv-x="522" 
d="M152 750v-146h106q116 0 167 -56.5t51 -165.5q0 -110 -52.5 -167.5t-171.5 -57.5h-100v-157h-98v750h98zM152 528v-295h100q48 0 80 23t41 65q5 25 5 59.5t-5 59.5q-8 42 -37.5 65t-77.5 23h-106z" />
    <glyph glyph-name="ydieresis" unicode="&#xff;" horiz-adv-x="529" 
d="M286 782v75h76v-75h-76zM175 782v75h75v-75h-75zM144 750l120 -377l121 377h101l-173 -487v-263h-97v263l-174 487h102z" />
    <glyph glyph-name="Dcroat" unicode="&#x110;" horiz-adv-x="522" 
d="M63 750h203q97 0 150.5 -46t53.5 -145v-368q0 -99 -53.5 -145t-150.5 -46h-203v346h-63v71h63v333zM160 346v-270h107q52 0 79 30t27 75v388q0 45 -27 75t-79 30h-107v-257h100v-71h-100z" />
    <glyph glyph-name="dcroat" unicode="&#x111;" horiz-adv-x="522" 
d="M63 750h203q97 0 150.5 -46t53.5 -145v-368q0 -99 -53.5 -145t-150.5 -46h-203v347h-63v71h63v332zM160 347v-271h107q52 0 79 30t27 75v388q0 45 -27 75t-79 30h-107v-256h104v-71h-104z" />
    <glyph glyph-name="dotlessi" unicode="&#x131;" horiz-adv-x="206" 
d="M54 750h98v-750h-98v750z" />
    <glyph glyph-name="Lslash" unicode="&#x141;" horiz-adv-x="545" 
d="M136 750h97v-334l129 25v-72l-129 -25v-268h267v-76h-364v327l-93 -18v72l93 17v352z" />
    <glyph glyph-name="lslash" unicode="&#x142;" horiz-adv-x="545" 
d="M136 750h97v-334l129 25v-72l-129 -25v-268h267v-76h-364v327l-93 -18v72l93 17v352z" />
    <glyph glyph-name="OE" unicode="&#x152;" horiz-adv-x="773" 
d="M51 569q0 53 18.5 89.5t50 59t73.5 32.5t90 10q26 0 50.5 -2.5t47.5 -7.5h344v-76h-266v-263h241v-72h-241v-263h266v-76h-344q-23 -5 -47.5 -7.5t-50.5 -2.5q-48 0 -90 10t-73.5 32.5t-50 59t-18.5 89.5v388zM149 171q0 -30 12.5 -50t32 -32t44 -17.5t48.5 -5.5
q33 0 54 9t21 18v564q0 9 -21 18t-54 9q-24 0 -48.5 -5.5t-44 -17.5t-32 -32t-12.5 -50v-408z" />
    <glyph glyph-name="oe" unicode="&#x153;" horiz-adv-x="773" 
d="M51 569q0 53 18.5 89.5t50 59t73.5 32.5t90 10q26 0 50.5 -2.5t47.5 -7.5h344v-76h-266v-263h241v-72h-241v-263h266v-76h-344q-23 -5 -47.5 -7.5t-50.5 -2.5q-48 0 -90 10t-73.5 32.5t-50 59t-18.5 89.5v388zM149 171q0 -30 12.5 -50t32 -32t44 -17.5t48.5 -5.5
q33 0 54 9t21 18v564q0 9 -21 18t-54 9q-24 0 -48.5 -5.5t-44 -17.5t-32 -32t-12.5 -50v-408z" />
    <glyph glyph-name="Scaron" unicode="&#x160;" horiz-adv-x="532" 
d="M126 914h71l68 -77h2l68 77h71l-106 -132h-68zM47 551q0 105 58.5 157t160.5 52q107 0 158.5 -54t51.5 -161v-16.5t-1 -16.5h-98q1 6 1 14.5v14.5q0 29 -5.5 54.5t-18.5 45.5t-34.5 31.5t-53.5 11.5q-56 0 -88.5 -34.5t-32.5 -89.5q0 -45 25 -72.5t63 -47t81.5 -36
t81.5 -41.5t63 -63.5t25 -100.5q0 -105 -58 -157t-160 -52q-107 0 -158.5 54t-51.5 162v16t1 16h98q-1 -6 -1.5 -14.5t-0.5 -14.5q0 -29 5.5 -55t18.5 -45.5t35 -31t54 -11.5q57 0 89 35.5t32 91.5q0 46 -25 72.5t-63 45.5t-82 35.5t-82 41.5t-63 63t-25 100z" />
    <glyph glyph-name="scaron" unicode="&#x161;" horiz-adv-x="532" 
d="M126 914h71l68 -77h2l68 77h71l-106 -132h-68zM47 551q0 105 58.5 157t160.5 52q107 0 158.5 -54t51.5 -161v-16.5t-1 -16.5h-98q1 6 1 14.5v14.5q0 29 -5.5 54.5t-18.5 45.5t-34.5 31.5t-53.5 11.5q-56 0 -88.5 -34.5t-32.5 -89.5q0 -45 25 -72.5t63 -47t81.5 -36
t81.5 -41.5t63 -63.5t25 -100.5q0 -105 -58 -157t-160 -52q-107 0 -158.5 54t-51.5 162v16t1 16h98q-1 -6 -1.5 -14.5t-0.5 -14.5q0 -29 5.5 -55t18.5 -45.5t35 -31t54 -11.5q57 0 89 35.5t32 91.5q0 46 -25 72.5t-63 45.5t-82 35.5t-82 41.5t-63 63t-25 100z" />
    <glyph glyph-name="Ydieresis" unicode="&#x178;" horiz-adv-x="529" 
d="M293 782v75h75v-75h-75zM181 782v75h75v-75h-75zM144 750l120 -377l121 377h101l-173 -487v-263h-97v263l-174 487h102z" />
    <glyph glyph-name="Zcaron" unicode="&#x17d;" horiz-adv-x="483" 
d="M173 914l67 -77h3l68 77h70l-106 -132h-67l-106 132h71zM148 76h288v-76h-391v74l290 600h-288v76h390v-73z" />
    <glyph glyph-name="zcaron" unicode="&#x17e;" horiz-adv-x="483" 
d="M173 914l67 -77h3l68 77h70l-106 -132h-67l-106 132h71zM148 76h288v-76h-391v74l290 600h-288v76h390v-73z" />
    <glyph glyph-name="florin" unicode="&#x192;" horiz-adv-x="417" 
d="M53 411h106v158q0 99 53.5 145t150.5 46v-76q-52 0 -79.5 -30t-27.5 -75v-168h116v-72h-116v-158q0 -99 -53.5 -145t-149.5 -46v76q51 0 78.5 30t27.5 75v168h-106v72z" />
    <glyph glyph-name="circumflex" unicode="&#x2c6;" horiz-adv-x="350" 
d="M209 750l99 -120h-70l-62 65h-2l-62 -65h-71l100 120h68z" />
    <glyph glyph-name="caron" unicode="&#x2c7;" horiz-adv-x="362" 
d="M112 750l68 -77h3l67 77h71l-106 -132h-68l-106 132h71z" />
    <glyph glyph-name="breve" unicode="&#x2d8;" horiz-adv-x="362" 
d="M90 750q0 -14 5 -30t16 -29.5t28 -22t42 -8.5t42 8.5t27.5 22t15.5 29.5t5 30h49q0 -26 -9 -51t-26 -44.5t-43 -31.5t-61 -12q-34 0 -60.5 12t-44 31.5t-26.5 44.5t-9 51h49z" />
    <glyph glyph-name="dotaccent" unicode="&#x2d9;" horiz-adv-x="158" 
d="M117 675h-76v75h76v-75z" />
    <glyph glyph-name="ring" unicode="&#x2da;" horiz-adv-x="232" 
d="M41 689q0 33 21 54t54 21t53.5 -21t20.5 -54q0 -32 -20.5 -53t-53.5 -21t-54 21t-21 53zM71 689q0 -20 12.5 -32t32.5 -12t32.5 12t12.5 32t-12.5 32.5t-32.5 12.5t-32.5 -12.5t-12.5 -32.5z" />
    <glyph glyph-name="ogonek" unicode="&#x2db;" horiz-adv-x="210" 
d="M153 0q-26 0 -41 -18t-15 -41t17 -42.5t54 -19.5l1 -75q-33 0 -57 10.5t-39.5 27.5t-23.5 38.5t-8 44.5q0 22 7 43t21.5 37.5t35.5 26.5t49 10z" />
    <glyph glyph-name="tilde" unicode="&#x2dc;" horiz-adv-x="328" 
d="M86 661h-47q3 47 23 64.5t45 17.5q14 0 28 -3t28.5 -7t27.5 -7t23 -3q24 0 28 27h47q-3 -47 -23.5 -64.5t-46.5 -17.5q-13 0 -27.5 3t-28.5 7t-27 7t-23 3q-24 0 -27 -27z" />
    <glyph glyph-name="hungarumlaut" unicode="&#x2dd;" horiz-adv-x="354" 
d="M170 518l59 182h84l-101 -182h-42zM41 518l60 182h83l-100 -182h-43z" />
    <glyph glyph-name="endash" unicode="&#x2013;" horiz-adv-x="416" 
d="M48 411h319v-72h-319v72z" />
    <glyph glyph-name="emdash" unicode="&#x2014;" horiz-adv-x="484" 
d="M48 411h388v-72h-388v72z" />
    <glyph glyph-name="quoteleft" unicode="&#x2018;" horiz-adv-x="178" 
d="M81 750h48l-33 -57h33v-81h-81v80z" />
    <glyph glyph-name="quoteright" unicode="&#x2019;" horiz-adv-x="178" 
d="M98 612h-49l33 57h-33v81h81v-80z" />
    <glyph glyph-name="quotesinglbase" unicode="&#x201a;" horiz-adv-x="181" 
d="M98 -57h-49l33 57h-33v81h81v-80z" />
    <glyph glyph-name="quotedblleft" unicode="&#x201c;" horiz-adv-x="295" 
d="M81 750h48l-33 -57h33v-81h-81v80zM197 750h48l-32 -57h32v-81h-80v80z" />
    <glyph glyph-name="quotedblright" unicode="&#x201d;" horiz-adv-x="295" 
d="M214 612h-48l32 57h-32v81h80v-80zM98 612h-49l33 57h-33v81h81v-80z" />
    <glyph glyph-name="quotedblbase" unicode="&#x201e;" horiz-adv-x="298" 
d="M214 -57h-48l32 57h-32v81h80v-80zM98 -57h-49l33 57h-33v81h81v-80z" />
    <glyph glyph-name="dagger" unicode="&#x2020;" horiz-adv-x="399" 
d="M49 565h111v215h79v-215h110v-71h-110v-524h-79v524h-111v71z" />
    <glyph glyph-name="daggerdbl" unicode="&#x2021;" horiz-adv-x="418" 
d="M169 328v175h-120v71h120v206h79v-206h120v-71h-120v-175h120v-71h-120v-287h-79v287h-120v71h120z" />
    <glyph glyph-name="bullet" unicode="&#x2022;" horiz-adv-x="246" 
d="M49 375q0 30 21.5 52t52.5 22q30 0 51.5 -22t21.5 -52t-21.5 -52t-51.5 -22q-31 0 -52.5 22t-21.5 52z" />
    <glyph glyph-name="ellipsis" unicode="&#x2026;" horiz-adv-x="555" 
d="M132 0h-81v81h81v-81zM318 0h-81v81h81v-81zM504 0h-81v81h81v-81z" />
    <glyph glyph-name="perthousand" unicode="&#x2030;" horiz-adv-x="710" 
d="M47 675q0 39 22 61t61 22t61 -22.5t22 -60.5v-180q0 -39 -22 -61.5t-61 -22.5t-61 22t-22 62v180zM351 750l-162 -750h-40l162 750h40zM130 724q-19 0 -29 -12.5t-10 -29.5v-194q0 -18 10 -31t29 -13q20 0 30 13t10 31v194q0 17 -10 29.5t-30 12.5zM288 264q0 39 22 61
t60 22q39 0 61.5 -22.5t22.5 -60.5v-180q0 -39 -22.5 -61.5t-61.5 -22.5q-38 0 -60 22t-22 62v180zM497 264q0 39 22 61t61 22q38 0 60.5 -22.5t22.5 -60.5v-180q0 -39 -22.5 -61.5t-60.5 -22.5q-39 0 -61 22t-22 62v180zM370 313q-18 0 -28 -12.5t-10 -29.5v-194
q0 -18 10 -31t28 -13q20 0 30 13t10 31v194q0 17 -10 29.5t-30 12.5zM580 313q-19 0 -29 -12.5t-10 -29.5v-194q0 -18 10 -31t29 -13q20 0 30 13t10 31v194q0 17 -10 29.5t-30 12.5z" />
    <glyph glyph-name="guilsinglleft" unicode="&#x2039;" horiz-adv-x="335" 
d="M98 345v-2l192 -180v-75l-247 230v54l247 226v-75z" />
    <glyph glyph-name="guilsinglright" unicode="&#x203a;" horiz-adv-x="335" 
d="M236 345l-192 178v75l247 -226v-54l-247 -230v75l192 180v2z" />
    <glyph glyph-name="fraction" unicode="&#x2044;" horiz-adv-x="354" 
d="M221 750h81l-170 -750h-81z" />
    <glyph glyph-name="Euro" unicode="&#x20ac;" horiz-adv-x="493" 
d="M44 263v52h62v118h-62v52h62v99q0 88 43.5 130t124.5 42t125 -41t44 -131v-17h-79v23q0 42 -23.5 69.5t-65.5 27.5t-66 -27.5t-24 -69.5v-105h154v-52h-154v-118h154v-52h-154v-103q0 -42 24 -69.5t66 -27.5t65.5 27.5t23.5 69.5v23h79v-17q0 -90 -44 -131t-125 -41
t-124.5 42t-43.5 130v97h-62z" />
    <glyph glyph-name="trademark" unicode="&#x2122;" horiz-adv-x="506" 
d="M193 750v-25h-59v-225h-32v225h-59v25h150zM285 750l63 -193h1l63 193h46v-250h-32v195l-64 -195h-27l-63 195v-195h-33v250h46z" />
    <glyph glyph-name="minus" unicode="&#x2212;" horiz-adv-x="447" 
d="M48 411h350v-72h-350v72z" />
    </font>
</defs>
</svg>
