<?xml version="1.0" standalone="no"?>
<!DOCTYPE svg PUBLIC "-//W3C//DTD SVG 1.1//EN" "http://www.w3.org/Graphics/SVG/1.1/DTD/svg11.dtd" >
<svg xmlns="http://www.w3.org/2000/svg" xmlns:xlink="http://www.w3.org/1999/xlink" version="1.1">
<metadata>
Created by FontForge 20201107 at Thu Jul 28 03:54:51 2022
 By 
Copyright (c) 2021 by Megatype. All rights reserved.
</metadata>
<defs>
<font id="ChandlerMountain-Medium" horiz-adv-x="518" >
  <font-face 
    font-family="Chandler Mountain Med"
    font-weight="500"
    font-stretch="normal"
    units-per-em="1000"
    panose-1="0 0 0 0 0 0 0 0 0 0"
    ascent="800"
    descent="-200"
    x-height="750"
    cap-height="750"
    bbox="-40 -198 970 944"
    underline-thickness="50"
    underline-position="-125"
    unicode-range="U+000D-FB02"
  />
<missing-glyph horiz-adv-x="376" 
 />
    <glyph glyph-name="fi" unicode="fi" horiz-adv-x="683" 
d="M47 750h375v-92h-255v-239h230v-88h-230v-331h-120v750zM512 750h120v-750h-120v750z" />
    <glyph glyph-name="fl" unicode="fl" horiz-adv-x="919" 
d="M47 750h375v-92h-255v-239h230v-88h-230v-331h-120v750zM507 750h120v-657h255v-93h-375v750z" />
    <glyph glyph-name=".notdef" horiz-adv-x="376" 
 />
    <glyph glyph-name=".null" horiz-adv-x="0" 
 />
    <glyph glyph-name=".null" horiz-adv-x="0" 
 />
    <glyph glyph-name="uni000D" unicode="&#xd;" horiz-adv-x="250" 
 />
    <glyph glyph-name="space" unicode=" " horiz-adv-x="226" 
 />
    <glyph glyph-name="exclam" unicode="!" horiz-adv-x="199" 
d="M45 750h110l-33 -615h-45zM148 0h-97v97h97v-97z" />
    <glyph glyph-name="quotedbl" unicode="&#x22;" horiz-adv-x="334" 
d="M295 750l-24 -225h-47l-24 225h95zM135 750l-24 -225h-47l-24 225h95z" />
    <glyph glyph-name="numbersign" unicode="#" horiz-adv-x="640" 
d="M103 522h98l40 177h86l-40 -177h132l40 177h87l-40 -177h96l-17 -77h-97l-31 -136h97l-17 -77h-97l-41 -181h-87l41 181h-132l-41 -181h-86l41 181h-97l17 77h97l31 136h-97zM270 445l-31 -136h132l31 136h-132z" />
    <glyph glyph-name="dollar" unicode="$" horiz-adv-x="440" 
d="M181 715v40h95v-42q60 -11 90.5 -55t30.5 -118q0 -6 -0.5 -17.5t-0.5 -17.5h-102q1 6 1 17v17q0 35 -18 61.5t-56 26.5q-40 0 -60 -27t-20 -65q0 -24 8.5 -41t23 -30t33.5 -23.5t40 -21.5q38 -19 67 -38t49 -43t30 -56t10 -77q0 -74 -34.5 -115.5t-91.5 -51.5v-43h-95v41
q-67 5 -102 49.5t-35 124.5v17.5t1 17.5h102q-1 -6 -1 -17v-17q0 -35 18 -61.5t56 -26.5q41 0 60.5 28.5t19.5 66.5q0 24 -9.5 41.5t-25.5 31t-37 24.5t-43 23q-36 19 -63.5 37.5t-45.5 42t-27.5 54.5t-9.5 74q0 79 39.5 121t102.5 48z" />
    <glyph glyph-name="percent" unicode="%" horiz-adv-x="580" 
d="M42 664q0 43 24.5 66.5t67.5 23.5t67.5 -23.5t24.5 -66.5v-188q0 -45 -24.5 -68t-67.5 -23t-67.5 23t-24.5 68v188zM401 754l-164 -750h-57l163 750h58zM103 468q0 -14 7.5 -24t23.5 -10q15 0 22.5 10t7.5 24v203q0 14 -7.5 24.5t-22.5 10.5t-23 -10.5t-8 -24.5v-203z
M354 279q0 44 25 67.5t68 23.5q42 0 66.5 -23.5t24.5 -67.5v-188q0 -44 -24.5 -67.5t-66.5 -23.5q-43 0 -68 23.5t-25 67.5v188zM415 83q0 -14 8 -24t24 -10q14 0 21.5 10t7.5 24v204q0 14 -7.5 24t-21.5 10q-16 0 -24 -10t-8 -24v-204z" />
    <glyph glyph-name="ampersand" unicode="&#x26;" horiz-adv-x="530" 
d="M72 556q0 51 9.5 89t32 63t58.5 37.5t90 12.5t90 -12.5t58 -37.5t31.5 -63t9.5 -89q0 -60 -14.5 -100.5t-55.5 -60.5q45 -20 72.5 -61.5t32.5 -102.5q3 -23 4.5 -57.5t2 -69.5t0.5 -66v-48h-120q0 17 -0.5 33.5t-0.5 29.5q-37 -52 -118 -52q-13 -1 -25 0q-45 2 -80 14
t-59 36.5t-36.5 62.5t-12.5 93q0 25 4.5 53t15 53.5t27.5 46.5t43 32v6q-23 11 -35 28.5t-17.5 38.5t-6 44t-0.5 47zM261 655q-43 0 -58 -27t-15 -64v-40q0 -19 2.5 -35.5t10.5 -29t22.5 -19.5t37.5 -7q31 0 48.5 13t22.5 42q1 8 1.5 17t0.5 19v40q0 18 -3 34.5t-11.5 29
t-22.5 20t-36 7.5zM263 102q58 0 80.5 33t22.5 84q0 18 -5 37t-15.5 35.5t-26.5 27.5t-38 14q-8 3 -27.5 5.5t-31.5 5.5q-17 -2 -29 -14.5t-19 -30t-10 -38.5t-3 -40q0 -38 9 -61q9 -27 33 -42.5t60 -15.5z" />
    <glyph glyph-name="quotesingle" unicode="'" horiz-adv-x="174" 
d="M135 750l-24 -225h-47l-24 225h95z" />
    <glyph glyph-name="parenleft" unicode="(" horiz-adv-x="257" 
d="M45 594q0 44 12.5 74t35 48t54.5 26t71 8v-84q-40 0 -59 -22t-19 -54v-429q0 -32 19 -54t59 -22v-85q-39 0 -71 8t-54.5 26.5t-35 48.5t-12.5 74v437z" />
    <glyph glyph-name="parenright" unicode=")" horiz-adv-x="257" 
d="M212 594v-437q0 -44 -12.5 -74t-35 -48.5t-54.5 -26.5t-71 -8v85q40 0 59 22t19 54v429q0 32 -19 54t-59 22v84q39 0 71 -8t54.5 -26t35 -48t12.5 -74z" />
    <glyph glyph-name="asterisk" unicode="*" horiz-adv-x="356" 
d="M148 750h62v-88l87 34l20 -51l-90 -40l62 -71l-48 -40l-63 77l-63 -77l-48 40l64 72l-91 39l20 51l88 -33v87z" />
    <glyph glyph-name="plus" unicode="+" horiz-adv-x="401" 
d="M41 419h114v126h92v-126h114v-87h-114v-127h-92v127h-114v87z" />
    <glyph glyph-name="comma" unicode="," horiz-adv-x="182" 
d="M99 -68h-57l39 68h-39v97h96v-96z" />
    <glyph glyph-name="hyphen" unicode="-" horiz-adv-x="381" 
d="M41 419h300v-87h-300v87z" />
    <glyph glyph-name="period" unicode="." horiz-adv-x="184" 
d="M140 0h-96v97h96v-97z" />
    <glyph glyph-name="slash" unicode="/" horiz-adv-x="296" 
d="M164 750h96l-127 -750h-96z" />
    <glyph glyph-name="zero" unicode="0" horiz-adv-x="477" 
d="M44 570q0 91 52.5 140.5t142.5 49.5q89 0 142 -49.5t53 -140.5v-390q0 -91 -53 -140.5t-142 -49.5q-90 0 -142.5 49.5t-52.5 140.5v390zM239 668q-36 0 -55.5 -24t-19.5 -59v-420q0 -34 19.5 -58t55.5 -24t55.5 24t19.5 58v420q0 35 -19.5 59t-55.5 24z" />
    <glyph glyph-name="one" unicode="1" horiz-adv-x="269" 
d="M38 616v89l71 45h114v-750h-120v634z" />
    <glyph glyph-name="two" unicode="2" horiz-adv-x="494" 
d="M247 668q-41 0 -62.5 -25t-21.5 -64v-74h-120v55q0 56 14 94t40 61.5t64 34t87 10.5q52 0 90.5 -11t64 -36t38 -65t12.5 -98q0 -60 -21 -108t-52.5 -86.5t-68.5 -71.5t-68.5 -63.5t-52.5 -61.5t-21 -66h270v-93h-391v85q0 55 18 97t46 76.5t61.5 63.5t64 57t54.5 58
t32 66q4 11 6.5 25.5t2.5 29t-2 28.5t-7 25q-8 24 -26.5 40.5t-50.5 16.5z" />
    <glyph glyph-name="three" unicode="3" horiz-adv-x="495" 
d="M39 505v55q0 56 14 94t40 61.5t64 34t87 10.5q58 0 98 -13.5t65 -42t36 -71.5t11 -103q0 -19 -2.5 -42.5t-9 -45t-18 -39t-30.5 -25.5v-6q19 -7 30.5 -24.5t18 -39t9 -44.5t2.5 -43q0 -60 -11 -103.5t-36 -72t-65 -42t-98 -13.5q-49 0 -87 10.5t-64 34t-40 62t-14 93.5
v55h120v-69q0 -42 21.5 -68t62.5 -26q29 0 46.5 12t27.5 31.5t13 45.5t3 53q0 23 -2 42.5t-10.5 34t-26 22.5t-47.5 8v88q30 0 47.5 8.5t26 23t10.5 34.5t2 42q0 25 -3 50t-12.5 45.5t-27.5 33t-47 12.5q-41 0 -62.5 -25.5t-21.5 -68.5v-69h-120z" />
    <glyph glyph-name="four" unicode="4" horiz-adv-x="472" 
d="M397 227v-227h-120v227h-240v89l214 434h146v-436h37v-87h-37zM277 314v337l-165 -337h165z" />
    <glyph glyph-name="five" unicode="5" horiz-adv-x="503" 
d="M440 750v-92h-275v-196q16 17 39 24.5t52 7.5q62 0 101.5 -16t62 -46.5t31.5 -76t9 -105.5t-7 -108.5t-29.5 -82t-64 -51.5t-109.5 -18q-100 0 -152.5 46t-52.5 154v55h120v-74q0 -38 21.5 -63.5t62.5 -25.5q27 0 44.5 10.5t27.5 27.5t14 39t4 44v88q0 23 -4 44t-14 37
t-27.5 25.5t-44.5 9.5q-39 0 -62 -20.5t-22 -52.5h-120v416h395z" />
    <glyph glyph-name="six" unicode="6" horiz-adv-x="501" 
d="M44 565q0 99 56 147t149 48q101 0 155 -50.5t54 -139.5v-56h-120v66q0 40 -23 64t-66 24t-64 -25t-21 -63v-144q28 32 85 32t97 -16t65 -46t36.5 -72.5t11.5 -95.5q0 -56 -10.5 -102t-35 -78.5t-64.5 -50t-100 -17.5q-93 0 -149 48.5t-56 146.5v380zM249 376
q-43 0 -64 -25t-21 -63v-118q0 -38 21.5 -62.5t63.5 -24.5q26 0 43.5 9.5t27.5 25t14 36t4 41.5v68q0 22 -4 42.5t-14 36t-27.5 25t-43.5 9.5z" />
    <glyph glyph-name="seven" unicode="7" horiz-adv-x="420" 
d="M80 0l178 658h-219v92h343v-90l-177 -660h-125z" />
    <glyph glyph-name="eight" unicode="8" horiz-adv-x="514" 
d="M41 208q0 20 3 45t11 48.5t22 42.5t35 28v7q-21 10 -34 29.5t-20 42.5t-9.5 47.5t-2.5 45.5q0 55 11 95.5t36 67.5t65 40t97 13q59 0 99.5 -12.5t65.5 -39t36.5 -67t11.5 -97.5q0 -21 -2.5 -45.5t-9 -47.5t-19.5 -42.5t-34 -29.5v-7q21 -9 35 -28t22 -42.5t11 -48.5
t3 -45q0 -58 -12 -99.5t-37.5 -68t-66 -39t-98.5 -12.5t-99.5 11.5t-68 38t-39 68t-12.5 101.5zM257 668q-41 0 -61 -20t-25 -52q-2 -13 -3 -31t-0.5 -37t3.5 -36.5t8 -29.5q7 -19 21.5 -31t38.5 -12h37q23 0 37 12t21 31q5 12 8 29.5t4 36.5t0 37t-3 31q-6 32 -26 52
t-60 20zM174 286q-6 -15 -9.5 -35t-3.5 -41.5t3 -42t10 -35.5q11 -26 33 -38t50 -12t50 12t33 38q7 15 10 35.5t2.5 42t-3.5 41.5t-9 35q-6 18 -19.5 32t-40.5 14h-45q-28 0 -41.5 -14t-19.5 -32z" />
    <glyph glyph-name="nine" unicode="9" horiz-adv-x="501" 
d="M42 513q0 56 10.5 101.5t35 78t64.5 50t100 17.5q93 0 149 -48.5t56 -146.5v-380q0 -98 -56 -146.5t-149 -48.5q-101 0 -155 50.5t-54 139.5v57h120v-66q0 -41 23 -64.5t66 -23.5t64 24.5t21 62.5v144q-29 -32 -85 -32q-57 0 -97 16.5t-65 46.5t-36.5 73t-11.5 95z
M252 668q-26 0 -43.5 -9.5t-27.5 -25t-14 -36t-4 -42.5v-68q0 -21 4 -41.5t14 -36t27.5 -25t43.5 -9.5q43 0 64 24.5t21 62.5v118q0 38 -21.5 63t-63.5 25z" />
    <glyph glyph-name="colon" unicode=":" horiz-adv-x="184" 
d="M44 417h96v-97h-96v97zM44 97h96v-97h-96v97z" />
    <glyph glyph-name="semicolon" unicode=";" horiz-adv-x="182" 
d="M42 417h96v-97h-96v97zM42 97h96v-95l-39 -70h-57l39 68h-39v97z" />
    <glyph glyph-name="less" unicode="&#x3c;" horiz-adv-x="336" 
d="M41 419l255 110v-80l-198 -89v-30l198 -93v-80l-255 114v148z" />
    <glyph glyph-name="equal" unicode="=" horiz-adv-x="406" 
d="M41 469h325v-87h-325v87zM41 223h325v-87h-325v87z" />
    <glyph glyph-name="greater" unicode="&#x3e;" horiz-adv-x="336" 
d="M296 419v-148l-255 -114v80l198 93v30l-198 89v80z" />
    <glyph glyph-name="question" unicode="?" horiz-adv-x="465" 
d="M38 510v47q0 60 12.5 99t37.5 62t61 32.5t82 9.5t82.5 -9.5t62 -33.5t39 -64.5t13.5 -102.5q0 -55 -19.5 -96t-48 -74.5t-62.5 -61t-62.5 -55t-48 -58.5t-19.5 -70h-65q0 54 15.5 95t39 74t50.5 61.5t50.5 56t39 57.5t15.5 66q0 53 -19 81t-64 28q-82 0 -82 -92v-52h-110
zM184 0h-97v97h97v-97z" />
    <glyph glyph-name="at" unicode="@" horiz-adv-x="716" 
d="M44 370q0 87 18 157.5t58 120t105 76t158 26.5q79 0 134.5 -20t90 -59.5t50 -97.5t15.5 -134q0 -55 -6 -104t-26 -86.5t-59 -59.5t-104 -22h-125q-31 0 -53.5 4.5t-36.5 17t-21 34t-7 54.5v196q0 34 9.5 54.5t27 32t41.5 15.5t53 4l100 -1v-322q0 -15 11 -22.5t26 -7.5
q39 0 61.5 19t34.5 48t15.5 63.5t3.5 64.5q0 66 -9.5 117t-36 86t-72 53t-117.5 18q-82 0 -136.5 -22.5t-87.5 -64.5t-46.5 -102.5t-13.5 -135.5q0 -65 14 -123.5t45 -102t81.5 -69t123.5 -25.5q35 0 69.5 6.5t67.5 17.5l18 -54q-38 -11 -77 -18t-79 -7q-85 0 -145.5 29.5
t-99 80t-56 119t-17.5 146.5zM312 268q0 -17 11 -23.5t26 -6.5h39v269l-28 1q-20 0 -34 -7.5t-14 -30.5v-202z" />
    <glyph glyph-name="A" unicode="A" 
d="M159 750h201l127 -750h-122l-32 227h-147l-32 -227h-122zM192 315h134l-52 343h-29z" />
    <glyph glyph-name="B" unicode="B" horiz-adv-x="527" 
d="M261 750q58 0 101 -15.5t71 -43t42 -65.5t14 -84q0 -28 -3.5 -55t-11 -49.5t-19 -38t-28.5 -21.5v-6q19 -8 31 -25.5t18.5 -40t8.5 -47.5t2 -48q0 -211 -226 -211h-214v750h214zM302 424q23 0 37 12.5t20 31.5q5 12 7 28.5t2 34.5t-2 34.5t-7 28.5q-9 26 -32 45t-65 19
h-95v-234h135zM262 93q39 0 67 20t35 59q2 11 3 25.5t1 30t-1.5 30.5t-3.5 25q-4 24 -19.5 41t-41.5 17h-135v-248h95z" />
    <glyph glyph-name="C" unicode="C" horiz-adv-x="517" 
d="M474 185q0 -101 -57.5 -148t-158.5 -47q-100 0 -157 47t-57 148v380q0 101 57 148t157 47q101 0 158.5 -46.5t57.5 -148.5v-100h-120v110q0 39 -23.5 66t-71.5 27q-47 0 -71 -26.5t-24 -66.5v-400q0 -39 24 -65.5t71 -26.5t71 26.5t24 65.5v110h120v-100z" />
    <glyph glyph-name="D" unicode="D" horiz-adv-x="520" 
d="M47 750h214q101 0 158.5 -46.5t57.5 -148.5v-360q0 -101 -57.5 -148t-158.5 -47h-214v750zM262 93q47 0 71 26.5t24 65.5v380q0 39 -24 66t-71 27h-95v-565h95z" />
    <glyph glyph-name="E" unicode="E" horiz-adv-x="461" 
d="M47 750h375v-92h-255v-239h230v-88h-230v-238h255v-93h-375v750z" />
    <glyph glyph-name="F" unicode="F" horiz-adv-x="460" 
d="M47 750h375v-92h-255v-239h230v-88h-230v-331h-120v750z" />
    <glyph glyph-name="G" unicode="G" 
d="M44 565q0 101 57 148t157 47q101 0 158.5 -46.5t57.5 -148.5v-75h-120v85q0 39 -23.5 66t-71.5 27q-47 0 -71 -26.5t-24 -66.5v-400q0 -39 24 -65.5t71 -26.5t71 26.5t24 65.5v62h-70v87h190v-139q0 -101 -57.5 -148t-158.5 -47q-100 0 -157 47t-57 148v380z" />
    <glyph glyph-name="H" unicode="H" horiz-adv-x="523" 
d="M47 750h120v-331h190v331h120v-750h-120v332h-190v-332h-120v750z" />
    <glyph glyph-name="I" unicode="I" horiz-adv-x="223" 
d="M52 750h120v-750h-120v750z" />
    <glyph glyph-name="J" unicode="J" horiz-adv-x="325" 
d="M281 750v-555q0 -57 -14.5 -94.5t-41 -60t-64 -31.5t-83.5 -9h-41v93h21q45 0 74 23t29 65v569h120z" />
    <glyph glyph-name="K" unicode="K" horiz-adv-x="514" 
d="M47 750h120v-330h47l149 330h122l-165 -374l163 -376h-122l-147 332h-47v-332h-120v750z" />
    <glyph glyph-name="L" unicode="L" horiz-adv-x="459" 
d="M47 750h120v-657h255v-93h-375v750z" />
    <glyph glyph-name="M" unicode="M" horiz-adv-x="729" 
d="M212 750l151 -651h3l151 651h166v-750h-120v545l-140 -545h-117l-139 545v-545h-120v750h165z" />
    <glyph glyph-name="N" unicode="N" horiz-adv-x="523" 
d="M47 750h120l190 -549v549h120v-750h-120l-190 549v-549h-120v750z" />
    <glyph glyph-name="O" unicode="O" horiz-adv-x="517" 
d="M44 565q0 101 57 148t157 47q101 0 158.5 -46.5t57.5 -148.5v-380q0 -101 -57.5 -148t-158.5 -47q-100 0 -157 47t-57 148v380zM164 175q0 -39 24 -65.5t71 -26.5t71 26.5t24 65.5v400q0 39 -23.5 66t-71.5 27q-47 0 -71 -26.5t-24 -66.5v-400z" />
    <glyph glyph-name="P" unicode="P" horiz-adv-x="526" 
d="M262 750q120 0 173.5 -55.5t53.5 -168.5q0 -115 -54.5 -172t-177.5 -57h-90v-297h-120v750h215zM167 658v-269h90q44 0 71.5 21.5t35.5 57.5q4 22 4 55.5t-4 55.5q-7 36 -33 57.5t-69 21.5h-95z" />
    <glyph glyph-name="Q" unicode="Q" horiz-adv-x="522" 
d="M44 565q0 101 57 148t157 47q101 0 158.5 -46.5t57.5 -148.5v-380q0 -56 -17.5 -94.5t-49.5 -61.5l89 -72q-7 -6 -21 -17t-28.5 -22.5t-27.5 -21.5t-18 -14q-6 6 -20 22.5t-29.5 35t-29.5 35t-19 22.5q-20 -7 -45 -7q-100 0 -157 47t-57 148v380zM259 668
q-47 0 -71 -26.5t-24 -66.5v-400q0 -39 24 -65.5t71 -26.5t71 26.5t24 65.5v400q0 39 -23.5 66t-71.5 27z" />
    <glyph glyph-name="R" unicode="R" horiz-adv-x="520" 
d="M47 750h215q120 0 173.5 -55.5t53.5 -168.5q0 -84 -29 -138t-95 -74l116 -314h-117l-108 297h-20h-69v-297h-120v750zM257 389q44 0 71.5 21.5t35.5 57.5q8 55 0 111q-8 38 -36 58.5t-66 20.5h-95v-269h90z" />
    <glyph glyph-name="S" unicode="S" horiz-adv-x="533" 
d="M40 547q0 109 60.5 161t166.5 52q111 0 165.5 -52.5t54.5 -165.5v-16t-1 -16h-120q0 5 0.5 14t0.5 15q0 26 -5 49t-16.5 41t-30.5 28.5t-48 10.5q-48 0 -77.5 -30t-29.5 -78q0 -43 24.5 -68.5t62 -44.5t80.5 -36t80.5 -42t62 -64t24.5 -101q0 -109 -61 -161.5t-166 -52.5
q-111 0 -166 52.5t-55 165.5q0 8 0.5 16.5t1.5 16.5h120q-1 -5 -1 -14.5v-14.5q0 -26 4.5 -49.5t16 -41t31 -28t48.5 -10.5q51 0 78.5 31t27.5 81q0 43 -24.5 68t-61.5 43.5t-80.5 35t-80.5 41t-61.5 63.5t-24.5 101z" />
    <glyph glyph-name="T" unicode="T" horiz-adv-x="535" 
d="M498 750v-92h-170v-658h-120v658h-170v92h460z" />
    <glyph glyph-name="U" unicode="U" horiz-adv-x="519" 
d="M45 750h120v-575q0 -39 24 -65.5t71 -26.5t71 26.5t24 65.5v575h120v-565q0 -101 -57.5 -148t-158.5 -47q-100 0 -157 47t-57 148v565z" />
    <glyph glyph-name="V" unicode="V" horiz-adv-x="534" 
d="M35 750h125l95 -657h24l96 657h125l-127 -750h-211z" />
    <glyph glyph-name="W" unicode="W" horiz-adv-x="828" 
d="M35 750h125l95 -657h24l77 657h116l77 -657h24l96 657h125l-127 -750h-180l-72 623h-2l-71 -623h-180z" />
    <glyph glyph-name="X" unicode="X" horiz-adv-x="544" 
d="M35 750h122l107 -326h16l108 326h122l-125 -375l123 -375h-122l-106 327h-16l-105 -327h-122l123 375z" />
    <glyph glyph-name="Y" unicode="Y" horiz-adv-x="537" 
d="M160 750l109 -361l109 361h125l-174 -495v-255h-120v255l-174 495h125z" />
    <glyph glyph-name="Z" unicode="Z" horiz-adv-x="475" 
d="M163 93h271v-93h-399v90l273 568h-271v92h399v-90z" />
    <glyph glyph-name="bracketleft" unicode="[" horiz-adv-x="290" 
d="M47 750h205v-84h-110v-581h110v-85h-205v750z" />
    <glyph glyph-name="backslash" unicode="\" horiz-adv-x="296" 
d="M133 750l127 -750h-96l-127 750h96z" />
    <glyph glyph-name="bracketright" unicode="]" horiz-adv-x="290" 
d="M244 750v-750h-205v85h110v581h-110v84h205z" />
    <glyph glyph-name="asciicircum" unicode="^" horiz-adv-x="347" 
d="M102 750h144l62 -276h-80l-42 219h-25l-42 -219h-79z" />
    <glyph glyph-name="underscore" unicode="_" horiz-adv-x="448" 
d="M34 -10h375v-67h-375v67z" />
    <glyph glyph-name="grave" unicode="`" horiz-adv-x="214" 
d="M34 750h100l47 -127h-71z" />
    <glyph glyph-name="a" unicode="a" 
d="M159 750h201l127 -750h-122l-32 227h-147l-32 -227h-122q9 46 19 106.5t21.5 129t23 140t22.5 139.5t21.5 129t19.5 106zM192 315h134l-52 343h-29z" />
    <glyph glyph-name="b" unicode="b" horiz-adv-x="527" 
d="M261 750q58 0 101 -15.5t71 -43t42 -65.5t14 -84q0 -28 -3.5 -55t-11 -49.5t-19 -38t-28.5 -21.5v-6q19 -8 31 -25.5t18.5 -40t8.5 -47.5t2 -48q0 -211 -226 -211h-214v750h214zM302 424q23 0 37 12.5t20 31.5q5 12 7 28.5t2 34.5t-2 34.5t-7 28.5q-9 26 -32 45t-65 19
h-95v-234h135zM262 93q39 0 67 20t35 59q2 11 3 25.5t1 30t-1.5 30.5t-3.5 25q-4 24 -19.5 41t-41.5 17h-135v-248h95z" />
    <glyph glyph-name="c" unicode="c" horiz-adv-x="517" 
d="M474 185q0 -101 -57.5 -148t-158.5 -47q-100 0 -157 47t-57 148v380q0 101 57 148t157 47q101 0 158.5 -46.5t57.5 -148.5v-100h-120v110q0 39 -23.5 66t-71.5 27q-47 0 -71 -26.5t-24 -66.5v-400q0 -39 24 -65.5t71 -26.5t71 26.5t24 65.5v110h120v-100z" />
    <glyph glyph-name="d" unicode="d" 
d="M45 750h214q101 0 158.5 -46.5t57.5 -148.5v-360q0 -101 -57.5 -148t-158.5 -47h-214v750zM260 93q47 0 71 26.5t24 65.5v380q0 39 -24 66t-71 27h-95v-565h95z" />
    <glyph glyph-name="e" unicode="e" horiz-adv-x="461" 
d="M47 750h375v-92h-255v-239h230v-88h-230v-238h255v-93h-375v750z" />
    <glyph glyph-name="f" unicode="f" horiz-adv-x="460" 
d="M47 750h375v-92h-255v-239h230v-88h-230v-331h-120v750z" />
    <glyph glyph-name="g" unicode="g" 
d="M44 565q0 101 57 148t157 47q101 0 158.5 -46.5t57.5 -148.5v-75h-120v85q0 39 -23.5 66t-71.5 27q-47 0 -71 -26.5t-24 -66.5v-400q0 -39 24 -65.5t71 -26.5t71 26.5t24 65.5v62h-70v87h190v-139q0 -101 -57.5 -148t-158.5 -47q-100 0 -157 47t-57 148v380z" />
    <glyph glyph-name="h" unicode="h" horiz-adv-x="523" 
d="M47 750h120v-331h190v331h120v-750h-120v332h-190v-332h-120v750z" />
    <glyph glyph-name="i" unicode="i" horiz-adv-x="223" 
d="M52 750h120v-750h-120v750z" />
    <glyph glyph-name="j" unicode="j" horiz-adv-x="325" 
d="M281 750v-555q0 -57 -14.5 -94.5t-41 -60t-64 -31.5t-83.5 -9h-41v93h21q45 0 74 23t29 65v569h120z" />
    <glyph glyph-name="k" unicode="k" horiz-adv-x="514" 
d="M47 750h120v-330h47l149 330h122l-165 -374l163 -376h-122l-147 332h-47v-332h-120v750z" />
    <glyph glyph-name="l" unicode="l" horiz-adv-x="459" 
d="M47 750h120v-657h255v-93h-375v750z" />
    <glyph glyph-name="m" unicode="m" horiz-adv-x="749" 
d="M212 750l162 -651h2l162 651h165v-750h-120v545l-151 -545h-115l-150 545v-545h-120v750h165z" />
    <glyph glyph-name="n" unicode="n" horiz-adv-x="523" 
d="M47 750h120l190 -549v549h120v-750h-120l-190 549v-549h-120v750z" />
    <glyph glyph-name="o" unicode="o" horiz-adv-x="517" 
d="M44 565q0 101 57 148t157 47q101 0 158.5 -46.5t57.5 -148.5v-380q0 -101 -57.5 -148t-158.5 -47q-100 0 -157 47t-57 148v380zM164 175q0 -39 24 -65.5t71 -26.5t71 26.5t24 65.5v400q0 39 -23.5 66t-71.5 27q-47 0 -71 -26.5t-24 -66.5v-400z" />
    <glyph glyph-name="p" unicode="p" horiz-adv-x="526" 
d="M262 750q120 0 173.5 -55.5t53.5 -168.5q0 -115 -54.5 -172t-177.5 -57h-90v-297h-120v750h215zM167 658v-269h90q44 0 71.5 21.5t35.5 57.5q4 22 4 55.5t-4 55.5q-7 36 -33 57.5t-69 21.5h-95z" />
    <glyph glyph-name="q" unicode="q" horiz-adv-x="522" 
d="M44 565q0 101 57 148t157 47q101 0 158.5 -46.5t57.5 -148.5v-380q0 -56 -17.5 -94.5t-49.5 -61.5l89 -72q-7 -6 -21 -17t-28.5 -22.5t-27.5 -21.5t-18 -14q-6 6 -20 22.5t-29.5 35t-29.5 35t-19 22.5q-20 -7 -45 -7q-100 0 -157 47t-57 148v380zM259 668
q-47 0 -71 -26.5t-24 -66.5v-400q0 -39 24 -65.5t71 -26.5t71 26.5t24 65.5v400q0 39 -23.5 66t-71.5 27z" />
    <glyph glyph-name="r" unicode="r" horiz-adv-x="520" 
d="M47 750h215q120 0 173.5 -55.5t53.5 -168.5q0 -84 -29 -138t-95 -74l116 -314h-117l-108 297h-20h-69v-297h-120v750zM257 389q44 0 71.5 21.5t35.5 57.5q8 55 0 111q-8 38 -36 58.5t-66 20.5h-95v-269h90z" />
    <glyph glyph-name="s" unicode="s" horiz-adv-x="533" 
d="M40 547q0 109 60.5 161t166.5 52q111 0 165.5 -52.5t54.5 -165.5v-16t-1 -16h-120q0 5 0.5 14t0.5 15q0 26 -5 49t-16.5 41t-30.5 28.5t-48 10.5q-48 0 -77.5 -30t-29.5 -78q0 -43 24.5 -68.5t62 -44.5t80.5 -36t80.5 -42t62 -64t24.5 -101q0 -109 -61 -161.5t-166 -52.5
q-111 0 -166 52.5t-55 165.5q0 8 0.5 16.5t1.5 16.5h120q-1 -5 -1 -14.5v-14.5q0 -26 4.5 -49.5t16 -41t31 -28t48.5 -10.5q51 0 78.5 31t27.5 81q0 43 -24.5 68t-61.5 43.5t-80.5 35t-80.5 41t-61.5 63.5t-24.5 101z" />
    <glyph glyph-name="t" unicode="t" horiz-adv-x="535" 
d="M498 750v-92h-170v-658h-120v658h-170v92h460z" />
    <glyph glyph-name="u" unicode="u" horiz-adv-x="519" 
d="M45 750h120v-575q0 -39 24 -65.5t71 -26.5t71 26.5t24 65.5v575h120v-565q0 -101 -57.5 -148t-158.5 -47q-100 0 -157 47t-57 148v565z" />
    <glyph glyph-name="v" unicode="v" horiz-adv-x="534" 
d="M35 750h125l95 -657h24l96 657h125l-127 -750h-211z" />
    <glyph glyph-name="w" unicode="w" horiz-adv-x="828" 
d="M35 750h125l95 -657h24l77 657h116l77 -657h24l96 657h125l-127 -750h-180l-72 623h-2l-71 -623h-180z" />
    <glyph glyph-name="x" unicode="x" horiz-adv-x="544" 
d="M35 750h122l107 -326h16l108 326h122l-125 -375l123 -375h-122l-106 327h-16l-105 -327h-122l123 375z" />
    <glyph glyph-name="y" unicode="y" horiz-adv-x="537" 
d="M160 750l109 -361l109 361h125l-174 -495v-255h-120v255l-174 495h125z" />
    <glyph glyph-name="z" unicode="z" horiz-adv-x="475" 
d="M163 93h271v-93h-399v90l273 568h-271v92h399v-90z" />
    <glyph glyph-name="braceleft" unicode="{" horiz-adv-x="299" 
d="M37 385q26 15 37 40t14 54t1 59.5t-2 55.5q0 43 12 73t34.5 48.5t54.5 26.5t72 8v-84q-35 0 -56.5 -20.5t-21.5 -55.5q0 -21 1.5 -53.5t-1 -65t-12.5 -58.5t-33 -35v-6q23 -9 33 -35t12.5 -58t1 -64.5t-1.5 -53.5q0 -35 21.5 -55.5t56.5 -20.5v-85q-40 0 -72 8t-54.5 27
t-34.5 49t-12 73q0 26 2 55.5t-1 58.5t-14 54t-37 40v20z" />
    <glyph glyph-name="bar" unicode="|" horiz-adv-x="194" 
d="M50 780h95v-810h-95v810z" />
    <glyph glyph-name="braceright" unicode="}" horiz-adv-x="299" 
d="M262 365q-25 -15 -36 -40t-14 -54t-1.5 -58.5t1.5 -55.5q0 -43 -12 -73t-34.5 -49t-54.5 -27t-72 -8v85q35 0 56.5 20.5t21.5 55.5q0 21 -1.5 53.5t1 64.5t12.5 58t33 35v6q-23 9 -33 35t-12.5 58.5t-1 65t1.5 53.5q0 35 -21.5 55.5t-56.5 20.5v84q40 0 72 -8t54.5 -26.5
t34.5 -48.5t12 -73q0 -25 -1.5 -55.5t1.5 -59.5t14 -54t36 -40v-20z" />
    <glyph glyph-name="asciitilde" unicode="~" horiz-adv-x="502" 
d="M43 255q0 40 9.5 67t25 43t36.5 22.5t44 6.5q21 0 42.5 -3.5l43 -7t41.5 -7t36 -3.5q23 0 37 14t14 42h87q0 -42 -9.5 -70t-26 -44.5t-38.5 -23.5t-46 -7q-21 0 -42.5 3.5l-43 7t-41 7t-35.5 3.5q-22 0 -34.5 -12.5t-12.5 -37.5h-87z" />
    <glyph glyph-name="exclamdown" unicode="&#xa1;" horiz-adv-x="199" 
d="M148 700v-96h-97v96h97zM45 -50l32 616h45l33 -616h-110z" />
    <glyph glyph-name="cent" unicode="&#xa2;" horiz-adv-x="514" 
d="M43 496q0 90 44 136.5t123 55.5v72h95v-72q80 -9 124 -55.5t44 -136.5v-67h-120v77q0 39 -23.5 65.5t-71.5 26.5q-47 0 -71 -26.5t-24 -65.5v-260q0 -40 24 -66.5t71 -26.5t71 27t24 66v78h120v-68q0 -90 -44 -136.5t-124 -55.5v-74h-95v74q-79 9 -123 55.5t-44 136.5
v240z" />
    <glyph glyph-name="sterling" unicode="&#xa3;" horiz-adv-x="562" 
d="M409 380v-87h-195v-200h290v-93h-410v293h-55v87h55v185q0 101 57 148t157 47q101 0 158.5 -46.5t57.5 -148.5v-55h-120v65q0 39 -23.5 66t-71.5 27q-47 0 -71 -26.5t-24 -66.5v-195h195z" />
    <glyph glyph-name="currency" unicode="&#xa4;" horiz-adv-x="570" 
d="M61 369q0 40 13.5 75t36.5 63l-64 65l65 67l71 -73q47 29 105 29q54 0 99 -25l69 73l62 -61l-61 -65q27 -29 42.5 -67t15.5 -81q0 -45 -16 -83.5t-45 -67.5l64 -68l-62 -61l-73 77q-21 -11 -45 -17.5t-50 -6.5q-27 0 -52.5 7t-48.5 20l-75 -76l-65 66l67 68
q-25 29 -39 65t-14 77zM288 206q34 0 63.5 12.5t51.5 34.5t35 52t13 64t-13 63.5t-35 51.5t-51.5 34.5t-63.5 12.5q-33 0 -63 -12.5t-52 -34.5t-35 -51.5t-13 -63.5t13 -64t35 -52t52 -34.5t63 -12.5z" />
    <glyph glyph-name="yen" unicode="&#xa5;" horiz-adv-x="539" 
d="M161 750l109 -341l109 341h125l-143 -389h91v-62h-113l-8 -20v-63h121v-62h-122v-154h-120v154h-123v62h122l-1 63l-7 20h-114v62h92l-143 389h125z" />
    <glyph glyph-name="brokenbar" unicode="&#xa6;" horiz-adv-x="190" 
d="M48 454v326h95v-326h-95zM48 -20v326h95v-326h-95z" />
    <glyph glyph-name="section" unicode="&#xa7;" horiz-adv-x="547" 
d="M47 547q0 53 16.5 93t46 67t71.5 40.5t93 13.5q109 0 164.5 -54t55.5 -164v-16.5t-1 -16.5h-120q0 6 0.5 15t0.5 14q0 24 -5 47.5t-16.5 41.5t-30.5 29t-48 11q-23 0 -42.5 -8.5t-34 -22.5t-22.5 -33.5t-8 -42.5q0 -39 23 -64t57.5 -44.5t74 -38.5t72.5 -47l-1 -6
q-18 4 -57.5 12t-84.5 17t-85.5 17.5t-59.5 12.5q-26 22 -42.5 51.5t-16.5 75.5zM500 203q0 -53 -16.5 -93t-46 -67t-71.5 -40.5t-93 -13.5q-109 0 -164.5 54.5t-55.5 164.5v16t1 16h120q0 -5 -0.5 -14.5t-0.5 -14.5q0 -24 5 -47.5t16.5 -41.5t31 -29t47.5 -11q24 0 43.5 9
t34 24t22 35.5t7.5 43.5q0 39 -22.5 62.5t-56 42.5t-71.5 37t-70 46l1 6q6 -1 28 -5.5t51.5 -10.5t63 -13t63 -13t50.5 -10.5t27 -5.5q25 -22 40.5 -52t15.5 -75z" />
    <glyph glyph-name="dieresis" unicode="&#xa8;" horiz-adv-x="282" 
d="M248 661h-89v89h89v-89zM123 661h-89v89h89v-89z" />
    <glyph glyph-name="copyright" unicode="&#xa9;" horiz-adv-x="845" 
d="M47 373q0 81 28 150t78.5 119.5t119.5 78.5t150 28t150 -28t119 -78.5t78.5 -119.5t28.5 -150t-28.5 -150t-78.5 -119t-119 -78.5t-150 -28.5t-150 28.5t-119.5 78.5t-78.5 119t-28 150zM93 373q0 -71 25 -131t69 -104t104.5 -69t131.5 -25t131 25t104 69t69 104t25 131
t-25 131.5t-69 104.5t-104 69t-131 25t-131.5 -25t-104.5 -69t-69 -104.5t-25 -131.5zM585 304v-76q0 -78 -43 -113.5t-120 -35.5q-76 0 -119 35.5t-43 113.5v295q0 77 43 112.5t119 35.5q77 0 120 -35.5t43 -112.5v-76h-87v83q0 32 -18.5 53t-56.5 21t-57 -21t-19 -53v-310
q0 -32 19 -53t57 -21t56.5 21t18.5 53v84h87z" />
    <glyph glyph-name="ordfeminine" unicode="&#xaa;" horiz-adv-x="285" 
d="M96 750h92l57 -338h-55l-14 102h-68l-13 -102h-55zM111 553h61l-23 155h-14z" />
    <glyph glyph-name="guillemotleft" unicode="&#xab;" horiz-adv-x="466" 
d="M244 346v-3l185 -175v-86l-248 232v62l248 228v-86zM99 346v-3l185 -175v-86l-248 232v62l248 228v-86z" />
    <glyph glyph-name="logicalnot" unicode="&#xac;" horiz-adv-x="525" 
d="M47 313h432v-292h-68v225h-364v67z" />
    <glyph glyph-name="registered" unicode="&#xae;" horiz-adv-x="831" 
d="M416 749q81 0 150 -28t119 -78.5t78.5 -119.5t28.5 -150t-28.5 -150t-78.5 -119t-119 -78.5t-150 -28.5t-150 28.5t-119.5 78.5t-78.5 119t-28 150t28 150t78.5 119.5t119.5 78.5t150 28zM86 373q0 -71 25 -131t69 -104t104.5 -69t131.5 -25t131 25t104 69t69 104t25 131
t-25 131.5t-69 104.5t-104 69t-131 25t-131.5 -25t-104.5 -69t-69 -104.5t-25 -131.5zM281 642h149q84 0 120.5 -39.5t36.5 -117.5q0 -60 -20.5 -98t-67.5 -52l83 -222h-77l-78 212q-5 -1 -8 -1h-6h-53v-211h-79v529zM426 385q64 0 80 61q6 38 0 75q-2 8 -3 13
q-6 20 -20.5 31.5t-34.5 15.5q-2 0 -5 0.5t-6 0.5h-77v-197h66z" />
    <glyph glyph-name="macron" unicode="&#xaf;" horiz-adv-x="388" 
d="M32 688h325v-87h-325v87z" />
    <glyph glyph-name="degree" unicode="&#xb0;" horiz-adv-x="295" 
d="M40 590q0 48 30 78t78 30q47 0 77.5 -30t30.5 -78q0 -47 -30.5 -77.5t-77.5 -30.5q-48 0 -78 30.5t-30 77.5zM97 590q0 -23 14 -37t37 -14t37 14t14 37t-14 37t-37 14t-37 -14t-14 -37z" />
    <glyph glyph-name="plusminus" unicode="&#xb1;" horiz-adv-x="401" 
d="M41 419h114v126h92v-126h114v-87h-114v-127h-92v127h-114v87zM41 171h320v-87h-320v87z" />
    <glyph glyph-name="twosuperior" unicode="&#xb2;" horiz-adv-x="280" 
d="M140 713q-18 0 -28 -11.5t-10 -28.5v-34h-55q0 27 2.5 48.5t12.5 36.5t28.5 23t49.5 8q48 0 70.5 -21t22.5 -74q0 -41 -20 -69.5t-44 -51t-44.5 -42t-20.5 -43.5h123v-42h-177v38q0 37 17.5 62t39 45t41.5 39t26 43q3 10 4 24t-4 24q-4 11 -12 18.5t-22 7.5z" />
    <glyph glyph-name="threesuperior" unicode="&#xb3;" horiz-adv-x="279" 
d="M47 641v25q0 50 23.5 69.5t67.5 19.5q53 0 73.5 -24.5t20.5 -77.5q0 -18 -5 -39.5t-22 -28.5v-3q9 -3 14 -11t8 -17.5t4 -19.5t1 -19q0 -54 -20.5 -78.5t-73.5 -24.5q-44 0 -67.5 19.5t-23.5 69.5v25h53v-31q0 -19 10 -30t28 -11q26 0 33 19t7 43q0 18 -5.5 32t-29.5 16
v39q24 1 29.5 15.5t5.5 32.5q0 23 -7 43t-33 20q-18 0 -28 -11.5t-10 -30.5v-31h-53z" />
    <glyph glyph-name="acute" unicode="&#xb4;" horiz-adv-x="214" 
d="M81 750h100l-76 -127h-71z" />
    <glyph glyph-name="paragraph" unicode="&#xb6;" horiz-adv-x="426" 
d="M234 401q-51 0 -86.5 15t-58 39t-32.5 55.5t-10 65.5q0 35 10 66.5t32.5 55.5t58 38t86.5 14h55v-780h-55v431zM324 750h55v-780h-55v780z" />
    <glyph glyph-name="periodcentered" unicode="&#xb7;" horiz-adv-x="178" 
d="M137 654h-96v96h96v-96z" />
    <glyph glyph-name="cedilla" unicode="&#xb8;" horiz-adv-x="220" 
d="M41 -91q18 -2 31 1t21.5 9t12 15t3.5 18q0 16 -9 30t-25 17l47 14q33 -12 48.5 -35.5t15.5 -49.5q0 -19 -7.5 -36.5t-22.5 -31.5t-36 -22.5t-48 -8.5q-19 0 -38 4z" />
    <glyph glyph-name="onesuperior" unicode="&#xb9;" horiz-adv-x="177" 
d="M47 690v40l32 20h51v-339h-53v287z" />
    <glyph glyph-name="ordmasculine" unicode="&#xba;" horiz-adv-x="255" 
d="M40 672q0 42 23.5 64t63.5 22q41 0 64.5 -22t23.5 -64v-175q0 -42 -23.5 -64t-64.5 -22q-40 0 -63.5 22t-23.5 64v175zM127 717q-16 0 -24.5 -11t-8.5 -26v-190q0 -16 8.5 -27t24.5 -11q17 0 26 11t9 27v190q0 15 -9 26t-26 11z" />
    <glyph glyph-name="guillemotright" unicode="&#xbb;" horiz-adv-x="466" 
d="M222 346l-185 172v86l248 -228v-62l-248 -232v86l185 175v3zM367 346l-185 172v86l248 -228v-62l-248 -232v86l185 175v3z" />
    <glyph glyph-name="onequarter" unicode="&#xbc;" horiz-adv-x="457" 
d="M267 750h49l-164 -750h-48zM37 690v40l32 20h51v-339h-53v287zM408 103v-103h-54v103h-104v40l92 197h66v-198h13v-39h-13zM354 142v152l-71 -152h71z" />
    <glyph glyph-name="onehalf" unicode="&#xbd;" horiz-adv-x="495" 
d="M37 730l32 20h51v-339h-53v287l-30 -8v40zM321 750l-164 -750h-48l163 750h49zM365 302q-18 0 -28 -11.5t-10 -29.5v-33h-55q0 28 2.5 49.5t12.5 36t28.5 22t49.5 7.5q48 0 70.5 -20.5t22.5 -74.5q0 -41 -20 -69t-44 -50.5t-44.5 -42.5t-20.5 -44h123v-42h-177v39
q0 37 17.5 62t39 45t41.5 39t26 43q3 10 4 24t-4 24q-4 11 -12 18.5t-22 7.5z" />
    <glyph glyph-name="threequarters" unicode="&#xbe;" horiz-adv-x="506" 
d="M37 641v25q0 50 23.5 69.5t67.5 19.5q53 0 73.5 -24.5t20.5 -77.5q0 -18 -5 -39.5t-22 -28.5v-3q9 -3 14 -11t8 -17.5t4 -19.5t1 -19q0 -54 -20.5 -78.5t-73.5 -24.5q-44 0 -67.5 19.5t-23.5 69.5v25h53v-31q0 -19 10 -30t28 -11q26 0 33 19t7 43q0 18 -5.5 32t-29.5 16
v39q24 1 29.5 15.5t5.5 32.5q0 23 -7 43t-33 20q-18 0 -28 -11.5t-10 -30.5v-31h-53zM327 750h49l-164 -750h-48zM457 103v-103h-54v103h-105v40l93 197h66v-198h12v-39h-12zM403 142v152l-71 -152h71z" />
    <glyph glyph-name="questiondown" unicode="&#xbf;" horiz-adv-x="465" 
d="M282 710h96v-96h-96v96zM297 576h65q0 -54 -15.5 -95t-38.5 -74.5t-50 -61.5t-50.5 -55.5t-39 -57.5t-15.5 -66q0 -53 19 -81t64 -28q39 0 60.5 23t21.5 68v52h110v-47q0 -60 -13 -99t-37.5 -62t-60.5 -32.5t-82 -9.5t-82.5 9.5t-62 33.5t-39 64.5t-13.5 102.5
q0 55 19 96.5t48 74.5t62.5 61t62.5 55.5t48 58.5t19 70z" />
    <glyph glyph-name="Agrave" unicode="&#xc0;" 
d="M156 910h100l47 -128h-71zM159 750h201l127 -750h-122l-32 227h-147l-32 -227h-122zM192 315h134l-52 343h-29z" />
    <glyph glyph-name="Aacute" unicode="&#xc1;" 
d="M265 910h100l-76 -128h-71zM159 750h201l127 -750h-122l-32 227h-147l-32 -227h-122zM192 315h134l-52 343h-29z" />
    <glyph glyph-name="Acircumflex" unicode="&#xc2;" 
d="M217 910h84l104 -128h-83l-61 65h-3l-62 -65h-83zM159 750h201l127 -750h-122l-32 227h-147l-32 -227h-122zM192 315h134l-52 343h-29z" />
    <glyph glyph-name="Atilde" unicode="&#xc3;" 
d="M185 782h-57q2 52 23.5 71.5t50.5 19.5q27 0 55.5 -9t48.5 -9q25 0 28 26h57q-1 -26 -7.5 -43t-17 -27.5t-23.5 -15t-27 -4.5q-27 0 -55.5 9t-48.5 9q-24 0 -27 -27zM159 750h201l127 -750h-122l-32 227h-147l-32 -227h-122zM192 315h134l-52 343h-29z" />
    <glyph glyph-name="Adieresis" unicode="&#xc4;" 
d="M367 776h-90v90h90v-90zM242 776h-90v90h90v-90zM159 750h201l127 -750h-122l-32 227h-147l-32 -227h-122zM192 315h134l-52 343h-29z" />
    <glyph glyph-name="Aring" unicode="&#xc5;" 
d="M177 862q0 36 23 59t59 23t59 -23t23 -59t-23 -59t-59 -23t-59 23t-23 59zM211 862q0 -21 13.5 -34.5t34.5 -13.5t34.5 13.5t13.5 34.5t-13.5 34.5t-34.5 13.5t-34.5 -13.5t-13.5 -34.5zM159 750h201l127 -750h-122l-32 227h-147l-32 -227h-122zM192 315h134l-52 343h-29
z" />
    <glyph glyph-name="AE" unicode="&#xc6;" horiz-adv-x="688" 
d="M159 750h490v-92h-255v-239h230v-88h-230v-238h255v-93h-375v227h-88l-32 -227h-122zM192 315h82v343h-29z" />
    <glyph glyph-name="Ccedilla" unicode="&#xc7;" horiz-adv-x="517" 
d="M44 565q0 101 57 148t157 47q101 0 158.5 -46.5t57.5 -148.5v-100h-120v110q0 39 -23.5 66t-71.5 27q-47 0 -71 -26.5t-24 -66.5v-400q0 -39 24 -65.5t71 -26.5t71 26.5t24 65.5v110h120v-100q0 -92 -46 -138.5t-131 -54.5q28 -27 28 -64q0 -19 -7.5 -36.5t-22.5 -31.5
t-36 -22.5t-48 -8.5q-19 0 -38 4l7 76q18 -2 31 1t21.5 9t12 15t3.5 18q0 11 -4 21t-12 17q-89 6 -138.5 53t-49.5 142v380z" />
    <glyph glyph-name="Egrave" unicode="&#xc8;" horiz-adv-x="461" 
d="M133 910h100l47 -128h-71zM47 750h375v-92h-255v-239h230v-88h-230v-238h255v-93h-375v750z" />
    <glyph glyph-name="Eacute" unicode="&#xc9;" horiz-adv-x="461" 
d="M232 910h100l-76 -128h-71zM47 750h375v-92h-255v-239h230v-88h-230v-238h255v-93h-375v750z" />
    <glyph glyph-name="Ecircumflex" unicode="&#xca;" horiz-adv-x="461" 
d="M192 910h84l104 -128h-83l-61 65h-3l-62 -65h-83zM47 750h375v-92h-255v-239h230v-88h-230v-238h255v-93h-375v750z" />
    <glyph glyph-name="Edieresis" unicode="&#xcb;" horiz-adv-x="461" 
d="M342 782h-90v90h90v-90zM217 782h-90v90h90v-90zM47 750h375v-92h-255v-239h230v-88h-230v-238h255v-93h-375v750z" />
    <glyph glyph-name="Igrave" unicode="&#xcc;" horiz-adv-x="213" 
d="M-3 910h101l47 -128h-71zM47 750h120v-750h-120v750z" />
    <glyph glyph-name="Iacute" unicode="&#xcd;" horiz-adv-x="213" 
d="M120 910h100l-76 -128h-71zM47 750h120v-750h-120v750z" />
    <glyph glyph-name="Icircumflex" unicode="&#xce;" horiz-adv-x="213" 
d="M65 910h84l104 -128h-83l-61 65h-3l-62 -65h-83zM47 750h120v-750h-120v750z" />
    <glyph glyph-name="Idieresis" unicode="&#xcf;" horiz-adv-x="213" 
d="M214 782h-90v90h90v-90zM89 782h-90v90h90v-90zM47 750h120v-750h-120v750z" />
    <glyph glyph-name="Eth" unicode="&#xd0;" horiz-adv-x="560" 
d="M86 750h215q101 0 158 -46.5t57 -148.5v-360q0 -101 -57 -148t-158 -47h-215v338h-58v87h58v325zM206 338v-245h95q48 0 71.5 26.5t23.5 65.5v380q0 39 -23.5 66t-71.5 27h-95v-233h90v-87h-90z" />
    <glyph glyph-name="Ntilde" unicode="&#xd1;" horiz-adv-x="523" 
d="M198 782h-58q1 26 7.5 43.5t16.5 28t23 15t27 4.5q27 0 56 -9t49 -9q24 0 27 26h58q-1 -26 -7.5 -43t-17 -27.5t-24 -15t-27.5 -4.5q-27 0 -55.5 9t-48.5 9q-24 0 -26 -27zM47 750h120l190 -549v549h120v-750h-120l-190 549v-549h-120v750z" />
    <glyph glyph-name="Ograve" unicode="&#xd2;" horiz-adv-x="517" 
d="M255 910l47 -128h-71l-76 128h100zM44 565q0 101 57 148t157 47q101 0 158.5 -46.5t57.5 -148.5v-380q0 -101 -57.5 -148t-158.5 -47q-100 0 -157 47t-57 148v380zM164 175q0 -39 24 -65.5t71 -26.5t71 26.5t24 65.5v400q0 39 -23.5 66t-71.5 27q-47 0 -71 -26.5
t-24 -66.5v-400z" />
    <glyph glyph-name="Oacute" unicode="&#xd3;" horiz-adv-x="517" 
d="M368 910l-76 -128h-71l47 128h100zM44 565q0 101 57 148t157 47q101 0 158.5 -46.5t57.5 -148.5v-380q0 -101 -57.5 -148t-158.5 -47q-100 0 -157 47t-57 148v380zM164 175q0 -39 24 -65.5t71 -26.5t71 26.5t24 65.5v400q0 39 -23.5 66t-71.5 27q-47 0 -71 -26.5
t-24 -66.5v-400z" />
    <glyph glyph-name="Ocircumflex" unicode="&#xd4;" horiz-adv-x="517" 
d="M301 910l104 -128h-83l-62 65h-3l-61 -65h-83l104 128h84zM44 565q0 101 57 148t157 47q101 0 158.5 -46.5t57.5 -148.5v-380q0 -101 -57.5 -148t-158.5 -47q-100 0 -157 47t-57 148v380zM164 175q0 -39 24 -65.5t71 -26.5t71 26.5t24 65.5v400q0 39 -23.5 66t-71.5 27
q-47 0 -71 -26.5t-24 -66.5v-400z" />
    <glyph glyph-name="Otilde" unicode="&#xd5;" horiz-adv-x="517" 
d="M127 782q1 26 7.5 43.5t16.5 28t23 15t27 4.5q27 0 56 -9t49 -9q24 0 27 26h58q-1 -26 -7.5 -43t-17 -27.5t-24 -15t-27.5 -4.5q-27 0 -55.5 9t-48.5 9q-24 0 -26 -27h-58zM44 565q0 101 57 148t157 47q101 0 158.5 -46.5t57.5 -148.5v-380q0 -101 -57.5 -148t-158.5 -47
q-100 0 -157 47t-57 148v380zM164 175q0 -39 24 -65.5t71 -26.5t71 26.5t24 65.5v400q0 39 -23.5 66t-71.5 27q-47 0 -71 -26.5t-24 -66.5v-400z" />
    <glyph glyph-name="Odieresis" unicode="&#xd6;" horiz-adv-x="517" 
d="M276 782v90h90v-90h-90zM152 782v90h89v-90h-89zM44 565q0 101 57 148t157 47q101 0 158.5 -46.5t57.5 -148.5v-380q0 -101 -57.5 -148t-158.5 -47q-100 0 -157 47t-57 148v380zM164 175q0 -39 24 -65.5t71 -26.5t71 26.5t24 65.5v400q0 39 -23.5 66t-71.5 27
q-47 0 -71 -26.5t-24 -66.5v-400z" />
    <glyph glyph-name="multiply" unicode="&#xd7;" horiz-adv-x="506" 
d="M253 436l147 155l65 -60l-150 -160l150 -160l-65 -61l-147 156l-147 -156l-65 61l150 160l-150 160l65 60z" />
    <glyph glyph-name="Oslash" unicode="&#xd8;" horiz-adv-x="521" 
d="M45 565q0 101 57 148t157 47q73 0 122 -24l10 24h56l-22 -54q24 -24 37 -58.5t13 -82.5v-380q0 -101 -57.5 -148t-158.5 -47q-73 0 -120 23l-9 -23h-56l22 52q-51 49 -51 143v380zM338 632q-11 17 -31 26.5t-47 9.5q-47 0 -71 -26.5t-24 -66.5v-365zM182 117
q12 -16 31.5 -25t46.5 -9q47 0 71 26.5t24 65.5v360z" />
    <glyph glyph-name="Ugrave" unicode="&#xd9;" horiz-adv-x="519" 
d="M158 910h100l47 -128h-71zM45 750h120v-575q0 -39 24 -65.5t71 -26.5t71 26.5t24 65.5v575h120v-565q0 -101 -57.5 -148t-158.5 -47q-100 0 -157 47t-57 148v565z" />
    <glyph glyph-name="Uacute" unicode="&#xda;" horiz-adv-x="519" 
d="M263 910h100l-76 -128h-71zM45 750h120v-575q0 -39 24 -65.5t71 -26.5t71 26.5t24 65.5v575h120v-565q0 -101 -57.5 -148t-158.5 -47q-100 0 -157 47t-57 148v565z" />
    <glyph glyph-name="Ucircumflex" unicode="&#xdb;" horiz-adv-x="519" 
d="M219 910h84l104 -128h-83l-62 65h-3l-61 -65h-83zM45 750h120v-575q0 -39 24 -65.5t71 -26.5t71 26.5t24 65.5v575h120v-565q0 -101 -57.5 -148t-158.5 -47q-100 0 -157 47t-57 148v565z" />
    <glyph glyph-name="Udieresis" unicode="&#xdc;" horiz-adv-x="519" 
d="M365 782h-89v90h89v-90zM242 782h-90v90h90v-90zM45 750h120v-575q0 -39 24 -65.5t71 -26.5t71 26.5t24 65.5v575h120v-565q0 -101 -57.5 -148t-158.5 -47q-100 0 -157 47t-57 148v565z" />
    <glyph glyph-name="Yacute" unicode="&#xdd;" horiz-adv-x="537" 
d="M377 910l-76 -128h-71l47 128h100zM160 750l109 -361l109 361h125l-174 -495v-255h-120v255l-174 495h125z" />
    <glyph glyph-name="Thorn" unicode="&#xde;" horiz-adv-x="526" 
d="M167 750v-141h95q120 0 173.5 -55.5t53.5 -168.5q0 -115 -54.5 -172t-177.5 -57h-90v-156h-120v750h120zM167 517v-269h90q44 0 71.5 21.5t35.5 57.5q4 22 4 55.5t-4 55.5q-7 36 -33 57.5t-69 21.5h-95z" />
    <glyph glyph-name="germandbls" unicode="&#xdf;" horiz-adv-x="1009" 
d="M516 547q0 109 60.5 161t166.5 52q111 0 165.5 -52.5t54.5 -165.5v-16t-1 -16h-120q0 5 0.5 14t0.5 15q0 26 -5 49t-16.5 41t-30.5 28.5t-48 10.5q-48 0 -77.5 -30t-29.5 -78q0 -43 24.5 -68.5t62 -44.5t80.5 -36t80.5 -42t62 -64t24.5 -101q0 -109 -61 -161.5
t-166 -52.5q-111 0 -166 52.5t-55 165.5q0 8 0.5 16.5t1.5 16.5h120q-1 -5 -1 -14.5v-14.5q0 -26 4.5 -49.5t16 -41t31 -28t48.5 -10.5q51 0 78.5 31t27.5 81q0 43 -24.5 68t-61.5 43.5t-80.5 35t-80.5 41t-61.5 63.5t-24.5 101zM40 547q0 109 60.5 161t166.5 52
q111 0 165.5 -52.5t54.5 -165.5v-16t-1 -16h-120q0 5 0.5 14t0.5 15q0 26 -5 49t-16.5 41t-30.5 28.5t-48 10.5q-48 0 -77.5 -30t-29.5 -78q0 -43 24.5 -68.5t62 -44.5t80.5 -36t80.5 -42t62 -64t24.5 -101q0 -109 -61 -161.5t-166 -52.5q-111 0 -166 52.5t-55 165.5
q0 8 0.5 16.5t1.5 16.5h120q-1 -5 -1 -14.5v-14.5q0 -26 4.5 -49.5t16 -41t31 -28t48.5 -10.5q51 0 78.5 31t27.5 81q0 43 -24.5 68t-61.5 43.5t-80.5 35t-80.5 41t-61.5 63.5t-24.5 101z" />
    <glyph glyph-name="agrave" unicode="&#xe0;" 
d="M156 910h100l47 -128h-71zM159 750h201l127 -750h-122l-32 227h-147l-32 -227h-122zM192 315h134l-52 343h-29z" />
    <glyph glyph-name="aacute" unicode="&#xe1;" 
d="M265 910h100l-76 -128h-71zM159 750h201l127 -750h-122l-32 227h-147l-32 -227h-122zM192 315h134l-52 343h-29z" />
    <glyph glyph-name="acircumflex" unicode="&#xe2;" 
d="M217 910h84l104 -128h-83l-61 65h-3l-62 -65h-83zM159 750h201l127 -750h-122l-32 227h-147l-32 -227h-122zM192 315h134l-52 343h-29z" />
    <glyph glyph-name="atilde" unicode="&#xe3;" 
d="M185 782h-57q2 52 23.5 71.5t50.5 19.5q27 0 55.5 -9t48.5 -9q25 0 28 26h57q-1 -26 -7.5 -43t-17 -27.5t-23.5 -15t-27 -4.5q-27 0 -55.5 9t-48.5 9q-24 0 -27 -27zM159 750h201l127 -750h-122l-32 227h-147l-32 -227h-122zM192 315h134l-52 343h-29z" />
    <glyph glyph-name="adieresis" unicode="&#xe4;" 
d="M367 776h-90v90h90v-90zM242 776h-90v90h90v-90zM159 750h201l127 -750h-122l-32 227h-147l-32 -227h-122zM192 315h134l-52 343h-29z" />
    <glyph glyph-name="aring" unicode="&#xe5;" 
d="M177 862q0 36 23 59t59 23t59 -23t23 -59t-23 -59t-59 -23t-59 23t-23 59zM211 862q0 -21 13.5 -34.5t34.5 -13.5t34.5 13.5t13.5 34.5t-13.5 34.5t-34.5 13.5t-34.5 -13.5t-13.5 -34.5zM159 750h201l127 -750h-122l-32 227h-147l-32 -227h-122zM192 315h134l-52 343h-29
z" />
    <glyph glyph-name="ae" unicode="&#xe6;" horiz-adv-x="688" 
d="M159 750h490v-92h-255v-239h230v-88h-230v-238h255v-93h-375v227h-88l-32 -227h-122zM192 315h82v343h-29z" />
    <glyph glyph-name="ccedilla" unicode="&#xe7;" horiz-adv-x="513" 
d="M42 565q0 101 57 148t157 47q101 0 158.5 -46.5t57.5 -148.5v-100h-120v110q0 39 -23.5 66t-71.5 27q-47 0 -71 -26.5t-24 -66.5v-400q0 -39 24 -65.5t71 -26.5t71 26.5t24 65.5v110h120v-100q0 -92 -46 -138.5t-131 -54.5q28 -27 28 -64q0 -19 -7.5 -36.5t-22.5 -31.5
t-36 -22.5t-48 -8.5q-19 0 -38 4l7 76q18 -2 31 1t21.5 9t12 15t3.5 18q0 11 -4 21t-12 17q-89 6 -138.5 53t-49.5 142v380z" />
    <glyph glyph-name="egrave" unicode="&#xe8;" horiz-adv-x="461" 
d="M133 910h100l47 -128h-71zM47 750h375v-92h-255v-239h230v-88h-230v-238h255v-93h-375v750z" />
    <glyph glyph-name="eacute" unicode="&#xe9;" horiz-adv-x="461" 
d="M232 910h100l-76 -128h-71zM47 750h375v-92h-255v-239h230v-88h-230v-238h255v-93h-375v750z" />
    <glyph glyph-name="ecircumflex" unicode="&#xea;" horiz-adv-x="461" 
d="M192 910h84l104 -128h-83l-61 65h-3l-62 -65h-83zM47 750h375v-92h-255v-239h230v-88h-230v-238h255v-93h-375v750z" />
    <glyph glyph-name="edieresis" unicode="&#xeb;" horiz-adv-x="461" 
d="M342 782h-90v90h90v-90zM217 782h-90v90h90v-90zM47 750h375v-92h-255v-239h230v-88h-230v-238h255v-93h-375v750z" />
    <glyph glyph-name="igrave" unicode="&#xec;" horiz-adv-x="213" 
d="M-3 910h100l47 -128h-71zM47 750h120v-750h-120v750z" />
    <glyph glyph-name="iacute" unicode="&#xed;" horiz-adv-x="213" 
d="M119 910h100l-76 -128h-71zM47 750h120v-750h-120v750z" />
    <glyph glyph-name="icircumflex" unicode="&#xee;" horiz-adv-x="213" 
d="M65 910h84l104 -128h-83l-62 65h-3l-61 -65h-84zM47 750h120v-750h-120v750z" />
    <glyph glyph-name="idieresis" unicode="&#xef;" horiz-adv-x="213" 
d="M214 782h-90v90h90v-90zM89 782h-90v90h90v-90zM47 750h120v-750h-120v750z" />
    <glyph glyph-name="eth" unicode="&#xf0;" horiz-adv-x="517" 
d="M231 -10q-78 0 -127.5 44t-60.5 122q-2 19 -3.5 37.5t-1.5 38.5q0 14 0.5 27t1.5 26q8 81 57.5 124t125.5 45q45 1 72 -26q-5 40 -15.5 76.5t-30.5 71.5l-123 -37l-16 60l110 33q-18 27 -38.5 50.5t-45.5 41.5l53 32q38 -16 70.5 -41t59.5 -57l139 42l16 -60l-117 -36
q48 -75 64.5 -157t16.5 -166q0 -33 -2.5 -65t-7.5 -62q-13 -75 -62.5 -119.5t-134.5 -44.5zM237 366q-39 0 -59 -26.5t-21 -66.5q-1 -13 -1 -26v-26v-22t1 -22q1 -46 22 -70.5t58 -24.5q35 0 56 24t23 68q0 16 0.5 32t0.5 33v34q-2 40 -21.5 66.5t-58.5 26.5z" />
    <glyph glyph-name="ntilde" unicode="&#xf1;" horiz-adv-x="523" 
d="M198 782h-58q1 26 7.5 43.5t16.5 28t23 15t27 4.5q27 0 56 -9t49 -9q24 0 27 26h58q-1 -26 -7.5 -43t-17 -27.5t-24 -15t-27.5 -4.5q-27 0 -55.5 9t-48.5 9q-24 0 -26 -27zM47 750h120l190 -549v549h120v-750h-120l-190 549v-549h-120v750z" />
    <glyph glyph-name="ograve" unicode="&#xf2;" horiz-adv-x="517" 
d="M255 910l47 -128h-71l-76 128h100zM44 565q0 101 57 148t157 47q101 0 158.5 -46.5t57.5 -148.5v-380q0 -101 -57.5 -148t-158.5 -47q-100 0 -157 47t-57 148v380zM164 175q0 -39 24 -65.5t71 -26.5t71 26.5t24 65.5v400q0 39 -23.5 66t-71.5 27q-47 0 -71 -26.5
t-24 -66.5v-400z" />
    <glyph glyph-name="oacute" unicode="&#xf3;" horiz-adv-x="517" 
d="M368 910l-76 -128h-71l47 128h100zM44 565q0 101 57 148t157 47q101 0 158.5 -46.5t57.5 -148.5v-380q0 -101 -57.5 -148t-158.5 -47q-100 0 -157 47t-57 148v380zM164 175q0 -39 24 -65.5t71 -26.5t71 26.5t24 65.5v400q0 39 -23.5 66t-71.5 27q-47 0 -71 -26.5
t-24 -66.5v-400z" />
    <glyph glyph-name="ocircumflex" unicode="&#xf4;" horiz-adv-x="517" 
d="M301 910l104 -128h-83l-62 65h-3l-61 -65h-83l104 128h84zM44 565q0 101 57 148t157 47q101 0 158.5 -46.5t57.5 -148.5v-380q0 -101 -57.5 -148t-158.5 -47q-100 0 -157 47t-57 148v380zM164 175q0 -39 24 -65.5t71 -26.5t71 26.5t24 65.5v400q0 39 -23.5 66t-71.5 27
q-47 0 -71 -26.5t-24 -66.5v-400z" />
    <glyph glyph-name="otilde" unicode="&#xf5;" horiz-adv-x="517" 
d="M127 782q1 26 7.5 43.5t16.5 28t23 15t27 4.5q27 0 56 -9t49 -9q24 0 27 26h58q-1 -26 -7.5 -43t-17 -27.5t-24 -15t-27.5 -4.5q-27 0 -55.5 9t-48.5 9q-24 0 -26 -27h-58zM44 565q0 101 57 148t157 47q101 0 158.5 -46.5t57.5 -148.5v-380q0 -101 -57.5 -148t-158.5 -47
q-100 0 -157 47t-57 148v380zM164 175q0 -39 24 -65.5t71 -26.5t71 26.5t24 65.5v400q0 39 -23.5 66t-71.5 27q-47 0 -71 -26.5t-24 -66.5v-400z" />
    <glyph glyph-name="odieresis" unicode="&#xf6;" horiz-adv-x="517" 
d="M276 782v90h90v-90h-90zM152 782v90h89v-90h-89zM44 565q0 101 57 148t157 47q101 0 158.5 -46.5t57.5 -148.5v-380q0 -101 -57.5 -148t-158.5 -47q-100 0 -157 47t-57 148v380zM164 175q0 -39 24 -65.5t71 -26.5t71 26.5t24 65.5v400q0 39 -23.5 66t-71.5 27
q-47 0 -71 -26.5t-24 -66.5v-400z" />
    <glyph glyph-name="divide" unicode="&#xf7;" horiz-adv-x="410" 
d="M157 468v97h97v-97h-97zM43 310v87h325v-87h-325zM254 238v-96h-97v96h97z" />
    <glyph glyph-name="oslash" unicode="&#xf8;" horiz-adv-x="521" 
d="M45 565q0 101 57 148t157 47q73 0 122 -24l10 24h56l-22 -54q24 -24 37 -58.5t13 -82.5v-380q0 -101 -57.5 -148t-158.5 -47q-73 0 -120 23l-9 -23h-56l22 52q-51 49 -51 143v380zM338 632q-11 17 -31 26.5t-47 9.5q-47 0 -71 -26.5t-24 -66.5v-365zM182 117
q12 -16 31.5 -25t46.5 -9q47 0 71 26.5t24 65.5v360z" />
    <glyph glyph-name="ugrave" unicode="&#xf9;" horiz-adv-x="519" 
d="M158 910h100l47 -128h-71zM45 750h120v-575q0 -39 24 -65.5t71 -26.5t71 26.5t24 65.5v575h120v-565q0 -101 -57.5 -148t-158.5 -47q-100 0 -157 47t-57 148v565z" />
    <glyph glyph-name="uacute" unicode="&#xfa;" horiz-adv-x="519" 
d="M263 910h100l-76 -128h-71zM45 750h120v-575q0 -39 24 -65.5t71 -26.5t71 26.5t24 65.5v575h120v-565q0 -101 -57.5 -148t-158.5 -47q-100 0 -157 47t-57 148v565z" />
    <glyph glyph-name="ucircumflex" unicode="&#xfb;" horiz-adv-x="519" 
d="M219 910h84l104 -128h-83l-62 65h-3l-61 -65h-83zM45 750h120v-575q0 -39 24 -65.5t71 -26.5t71 26.5t24 65.5v575h120v-565q0 -101 -57.5 -148t-158.5 -47q-100 0 -157 47t-57 148v565z" />
    <glyph glyph-name="udieresis" unicode="&#xfc;" horiz-adv-x="519" 
d="M365 782h-89v90h89v-90zM242 782h-90v90h90v-90zM45 750h120v-575q0 -39 24 -65.5t71 -26.5t71 26.5t24 65.5v575h120v-565q0 -101 -57.5 -148t-158.5 -47q-100 0 -157 47t-57 148v565z" />
    <glyph glyph-name="yacute" unicode="&#xfd;" horiz-adv-x="537" 
d="M377 910l-76 -128h-71l47 128h100zM160 750l109 -361l109 361h125l-174 -495v-255h-120v255l-174 495h125z" />
    <glyph glyph-name="thorn" unicode="&#xfe;" horiz-adv-x="526" 
d="M167 750v-141h95q120 0 173.5 -55.5t53.5 -168.5q0 -115 -54.5 -172t-177.5 -57h-90v-156h-120v750h120zM167 517v-269h90q44 0 71.5 21.5t35.5 57.5q4 22 4 55.5t-4 55.5q-7 36 -33 57.5t-69 21.5h-95z" />
    <glyph glyph-name="ydieresis" unicode="&#xff;" horiz-adv-x="537" 
d="M290 782v90h89v-90h-89zM164 782v90h90v-90h-90zM160 750l109 -361l109 361h125l-174 -495v-255h-120v255l-174 495h125z" />
    <glyph glyph-name="Dcroat" unicode="&#x110;" horiz-adv-x="531" 
d="M58 750h214q101 0 158.5 -46.5t57.5 -148.5v-360q0 -101 -57.5 -148t-158.5 -47h-214v338h-59v87h59v325zM178 338v-245h95q47 0 71 26.5t24 65.5v380q0 39 -24 66t-71 27h-95v-233h90v-87h-90z" />
    <glyph glyph-name="dcroat" unicode="&#x111;" horiz-adv-x="531" 
d="M58 750h214q101 0 158.5 -46.5t57.5 -148.5v-360q0 -101 -57.5 -148t-158.5 -47h-214v340h-59v87h59v323zM178 340v-247h95q47 0 71 26.5t24 65.5v380q0 39 -24 66t-71 27h-95v-231h95v-87h-95z" />
    <glyph glyph-name="dotlessi" unicode="&#x131;" horiz-adv-x="213" 
d="M47 750h120v-750h-120v750z" />
    <glyph glyph-name="Lslash" unicode="&#x141;" horiz-adv-x="533" 
d="M121 750h120v-324l120 23v-87l-120 -23v-246h255v-93h-375v318l-85 -16v87l85 16v345z" />
    <glyph glyph-name="lslash" unicode="&#x142;" horiz-adv-x="533" 
d="M121 750h120v-324l120 23v-87l-120 -23v-246h255v-93h-375v318l-85 -16v87l85 16v345z" />
    <glyph glyph-name="OE" unicode="&#x152;" horiz-adv-x="768" 
d="M44 565q0 54 18 91t50 60t75 33.5t94 10.5q55 0 98 -10h350v-92h-255v-239h230v-88h-230v-238h255v-93h-350q-43 -10 -98 -10q-51 0 -94 10.5t-75 33.5t-50 60t-18 91v380zM164 175q0 -25 10.5 -42.5t27.5 -28.5t38 -16t43 -5q32 0 51.5 9.5t19.5 20.5v525q0 11 -19.5 20
t-51.5 9q-22 0 -43 -5t-38 -15.5t-27.5 -28t-10.5 -43.5v-400z" />
    <glyph glyph-name="oe" unicode="&#x153;" horiz-adv-x="768" 
d="M44 565q0 54 18 91t50 60t75 33.5t94 10.5q55 0 98 -10h350v-92h-255v-239h230v-88h-230v-238h255v-93h-350q-43 -10 -98 -10q-51 0 -94 10.5t-75 33.5t-50 60t-18 91v380zM164 175q0 -25 10.5 -42.5t27.5 -28.5t38 -16t43 -5q32 0 51.5 9.5t19.5 20.5v525q0 11 -19.5 20
t-51.5 9q-22 0 -43 -5t-38 -15.5t-27.5 -28t-10.5 -43.5v-400z" />
    <glyph glyph-name="Scaron" unicode="&#x160;" horiz-adv-x="533" 
d="M116 919h83l66 -74h3l67 74h83l-109 -137h-84zM40 547q0 109 60.5 161t166.5 52q111 0 165.5 -52.5t54.5 -165.5v-16t-1 -16h-120q0 5 0.5 14t0.5 15q0 26 -5 49t-16.5 41t-30.5 28.5t-48 10.5q-48 0 -77.5 -30t-29.5 -78q0 -43 24.5 -68.5t62 -44.5t80.5 -36t80.5 -42
t62 -64t24.5 -101q0 -109 -61 -161.5t-166 -52.5q-111 0 -166 52.5t-55 165.5q0 8 0.5 16.5t1.5 16.5h120q-1 -5 -1 -14.5v-14.5q0 -26 4.5 -49.5t16 -41t31 -28t48.5 -10.5q51 0 78.5 31t27.5 81q0 43 -24.5 68t-61.5 43.5t-80.5 35t-80.5 41t-61.5 63.5t-24.5 101z" />
    <glyph glyph-name="scaron" unicode="&#x161;" horiz-adv-x="533" 
d="M116 919h83l66 -74h3l67 74h83l-109 -137h-84zM40 547q0 109 60.5 161t166.5 52q111 0 165.5 -52.5t54.5 -165.5v-16t-1 -16h-120q0 5 0.5 14t0.5 15q0 26 -5 49t-16.5 41t-30.5 28.5t-48 10.5q-48 0 -77.5 -30t-29.5 -78q0 -43 24.5 -68.5t62 -44.5t80.5 -36t80.5 -42
t62 -64t24.5 -101q0 -109 -61 -161.5t-166 -52.5q-111 0 -166 52.5t-55 165.5q0 8 0.5 16.5t1.5 16.5h120q-1 -5 -1 -14.5v-14.5q0 -26 4.5 -49.5t16 -41t31 -28t48.5 -10.5q51 0 78.5 31t27.5 81q0 43 -24.5 68t-61.5 43.5t-80.5 35t-80.5 41t-61.5 63.5t-24.5 101z" />
    <glyph glyph-name="Ydieresis" unicode="&#x178;" horiz-adv-x="537" 
d="M295 782v90h89v-90h-89zM169 782v90h90v-90h-90zM160 750l109 -361l109 361h125l-174 -495v-255h-120v255l-174 495h125z" />
    <glyph glyph-name="Zcaron" unicode="&#x17d;" horiz-adv-x="475" 
d="M170 919l66 -74h3l67 74h83l-109 -137h-84l-109 137h83zM164 93h272v-93h-398v90l273 568h-272v92h398v-90z" />
    <glyph glyph-name="zcaron" unicode="&#x17e;" horiz-adv-x="475" 
d="M170 919l66 -74h3l67 74h83l-109 -137h-84l-109 137h83zM164 93h272v-93h-398v90l273 568h-272v92h398v-90z" />
    <glyph glyph-name="florin" unicode="&#x192;" horiz-adv-x="406" 
d="M44 419h98v146q0 101 57.5 148t157.5 47v-92q-47 0 -71 -26.5t-24 -66.5v-156h107v-87h-107v-147q0 -101 -57 -148t-158 -47v93q47 0 71 26.5t24 65.5v157h-98v87z" />
    <glyph glyph-name="circumflex" unicode="&#x2c6;" horiz-adv-x="359" 
d="M222 750l104 -127h-83l-62 64h-3l-61 -64h-83l104 127h84z" />
    <glyph glyph-name="caron" unicode="&#x2c7;" horiz-adv-x="369" 
d="M117 750l66 -73h3l67 73h83l-109 -136h-84l-109 136h83z" />
    <glyph glyph-name="breve" unicode="&#x2d8;" horiz-adv-x="358" 
d="M91 750q0 -14 4.5 -29.5t15 -28.5t27.5 -21.5t41 -8.5q25 0 42 8.5t27.5 21.5t15 28.5t4.5 29.5h57q0 -27 -9.5 -53.5t-28 -46.5t-45.5 -32.5t-63 -12.5q-35 0 -62 12.5t-45.5 32.5t-28 46.5t-9.5 53.5h57z" />
    <glyph glyph-name="dotaccent" unicode="&#x2d9;" horiz-adv-x="157" 
d="M123 661h-89v89h89v-89z" />
    <glyph glyph-name="ring" unicode="&#x2da;" horiz-adv-x="231" 
d="M34 683q0 36 23 59t59 23t59 -23t23 -59t-23 -59t-59 -23t-59 23t-23 59zM68 683q0 -21 13.5 -34.5t34.5 -13.5t34.5 13.5t13.5 34.5t-13.5 34.5t-34.5 13.5t-34.5 -13.5t-13.5 -34.5z" />
    <glyph glyph-name="ogonek" unicode="&#x2db;" horiz-adv-x="198" 
d="M149 1q-25 0 -39 -17.5t-14 -38.5t16.5 -39t51.5 -18v-86q-33 0 -57.5 11t-40.5 28.5t-24 40t-8 45.5t7.5 45t21.5 39t36 27.5t50 10.5v-48z" />
    <glyph glyph-name="tilde" unicode="&#x2dc;" horiz-adv-x="327" 
d="M89 651h-57q2 52 23.5 71.5t50.5 19.5q27 0 55.5 -9t48.5 -9q25 0 28 26h57q-1 -26 -7.5 -43t-17 -27.5t-23.5 -15t-27 -4.5q-27 0 -55.5 9t-48.5 9q-24 0 -27 -27z" />
    <glyph glyph-name="hungarumlaut" unicode="&#x2dd;" horiz-adv-x="364" 
d="M174 515l60 185h97l-103 -185h-54zM34 515l60 185h97l-103 -185h-54z" />
    <glyph glyph-name="endash" unicode="&#x2013;" horiz-adv-x="406" 
d="M41 419h325v-87h-325v87z" />
    <glyph glyph-name="emdash" unicode="&#x2014;" horiz-adv-x="481" 
d="M41 419h400v-87h-400v87z" />
    <glyph glyph-name="quoteleft" unicode="&#x2018;" horiz-adv-x="179" 
d="M80 750h57l-39 -68h39v-96h-96v95z" />
    <glyph glyph-name="quoteright" unicode="&#x2019;" horiz-adv-x="179" 
d="M99 586h-57l39 68h-39v96h96v-95z" />
    <glyph glyph-name="quotesinglbase" unicode="&#x201a;" horiz-adv-x="182" 
d="M99 -68h-57l39 68h-39v97h96v-96z" />
    <glyph glyph-name="quotedblleft" unicode="&#x201c;" horiz-adv-x="313" 
d="M80 750h57l-39 -68h39v-96h-96v95zM214 750h57l-39 -68h39v-96h-96v95z" />
    <glyph glyph-name="quotedblright" unicode="&#x201d;" horiz-adv-x="313" 
d="M233 586h-57l39 68h-39v96h96v-95zM99 586h-57l39 68h-39v96h96v-95z" />
    <glyph glyph-name="quotedblbase" unicode="&#x201e;" horiz-adv-x="316" 
d="M233 -68h-57l39 68h-39v97h96v-96zM99 -68h-57l39 68h-39v97h96v-96z" />
    <glyph glyph-name="dagger" unicode="&#x2020;" horiz-adv-x="383" 
d="M42 565h102v215h95v-215h103v-87h-103v-508h-95v508h-102v87z" />
    <glyph glyph-name="daggerdbl" unicode="&#x2021;" horiz-adv-x="408" 
d="M157 328v159h-115v87h115v206h95v-206h115v-87h-115v-159h115v-87h-115v-271h-95v271h-115v87h115z" />
    <glyph glyph-name="bullet" unicode="&#x2022;" horiz-adv-x="247" 
d="M42 375q0 34 24 58.5t58 24.5t58 -24.5t24 -58.5t-24 -58t-58 -24t-58 24t-24 58z" />
    <glyph glyph-name="ellipsis" unicode="&#x2026;" horiz-adv-x="556" 
d="M140 0h-96v97h96v-97zM326 0h-96v97h96v-97zM512 0h-96v97h96v-97z" />
    <glyph glyph-name="perthousand" unicode="&#x2030;" horiz-adv-x="732" 
d="M40 672q0 42 23.5 64t63.5 22q41 0 64.5 -22t23.5 -64v-175q0 -42 -23.5 -64t-64.5 -22q-40 0 -63.5 22t-23.5 64v175zM361 750l-163 -750h-49l164 750h48zM127 717q-16 0 -24.5 -11t-8.5 -26v-190q0 -16 8.5 -27t24.5 -11q17 0 26 11t9 27v190q0 15 -9 26t-26 11z
M296 261q0 42 23.5 64t64.5 22q40 0 64 -22t24 -64v-175q0 -42 -24 -64t-64 -22q-41 0 -64.5 22t-23.5 64v175zM517 261q0 42 23.5 64t63.5 22q41 0 64.5 -22t23.5 -64v-175q0 -42 -23.5 -64t-64.5 -22q-40 0 -63.5 22t-23.5 64v175zM384 306q-17 0 -25.5 -11t-8.5 -26v-190
q0 -16 8.5 -27t25.5 -11t26 11t9 27v190q0 15 -9 26t-26 11zM604 306q-16 0 -24.5 -11t-8.5 -26v-190q0 -16 8.5 -27t24.5 -11q17 0 26 11t9 27v190q0 15 -9 26t-26 11z" />
    <glyph glyph-name="guilsinglleft" unicode="&#x2039;" horiz-adv-x="321" 
d="M99 346v-3l185 -175v-86l-248 232v62l248 228v-86z" />
    <glyph glyph-name="guilsinglright" unicode="&#x203a;" horiz-adv-x="321" 
d="M222 346l-185 172v86l248 -228v-62l-248 -232v86l185 175v3z" />
    <glyph glyph-name="fraction" unicode="&#x2044;" horiz-adv-x="355" 
d="M214 750h97l-170 -750h-97z" />
    <glyph glyph-name="Euro" unicode="&#x20ac;" horiz-adv-x="480" 
d="M37 258v62h59v108h-59v62h59v95q0 92 45.5 131t124.5 39q80 0 126 -38.5t46 -131.5v-18h-96v23q0 35 -19.5 58t-54.5 23t-55.5 -23t-20.5 -58v-100h145v-62h-145v-108h145v-62h-145v-98q0 -35 20.5 -58t55.5 -23t54.5 23t19.5 58v23h96v-18q0 -92 -46 -131t-126 -39
t-125 39.5t-45 130.5v93h-59z" />
    <glyph glyph-name="trademark" unicode="&#x2122;" horiz-adv-x="494" 
d="M189 750v-30h-57v-220h-40v220h-56v30h153zM285 750l56 -177h1l56 177h57v-250h-40v182l-57 -182h-33l-57 182v-182h-40v250h57z" />
    <glyph glyph-name="minus" unicode="&#x2212;" horiz-adv-x="431" 
d="M41 419h350v-87h-350v87z" />
    </font>
</defs>
</svg>
