<?xml version="1.0" standalone="no"?>
<!DOCTYPE svg PUBLIC "-//W3C//DTD SVG 1.1//EN" "http://www.w3.org/Graphics/SVG/1.1/DTD/svg11.dtd" >
<svg xmlns="http://www.w3.org/2000/svg" xmlns:xlink="http://www.w3.org/1999/xlink" version="1.1">
<metadata>
Created by FontForge 20201107 at Thu Jul 28 03:54:53 2022
 By 
Copyright (c) 2021 by Megatype. All rights reserved.
</metadata>
<defs>
<font id="ChandlerMountain-BoldSlanted" horiz-adv-x="531" >
  <font-face 
    font-family="Chandler Mountain Slant"
    font-weight="700"
    font-style="oblique"
    font-stretch="normal"
    units-per-em="1000"
    panose-1="0 0 0 0 0 0 0 0 0 0"
    ascent="800"
    descent="-200"
    x-height="750"
    cap-height="750"
    bbox="-19 -203 1135.58 973"
    underline-thickness="50"
    underline-position="-125"
    slope="-11.3"
    unicode-range="U+000D-FB02"
  />
<missing-glyph horiz-adv-x="376" 
 />
    <glyph glyph-name="fi" unicode="fi" horiz-adv-x="683" 
d="M181 750h397l-25 -126h-232l-38 -190h207l-24 -118h-207l-63 -316h-165zM634 750h165l-150 -750h-165z" />
    <glyph glyph-name="fl" unicode="fl" horiz-adv-x="901" 
d="M181 750h397l-25 -126h-232l-38 -190h207l-24 -118h-207l-63 -316h-165zM632 750h165l-125 -624h233l-26 -126h-397z" />
    <glyph glyph-name=".notdef" horiz-adv-x="376" 
 />
    <glyph glyph-name=".null" horiz-adv-x="0" 
 />
    <glyph glyph-name=".null" horiz-adv-x="0" 
 />
    <glyph glyph-name="uni000D" unicode="&#xd;" horiz-adv-x="250" 
 />
    <glyph glyph-name="space" unicode=" " horiz-adv-x="239" 
 />
    <glyph glyph-name="exclam" unicode="!" horiz-adv-x="206" 
d="M178 750h150l-164 -593h-58zM167 0h-128l26 128h128z" />
    <glyph glyph-name="quotedbl" unicode="&#x22;" horiz-adv-x="355" 
d="M481 750l-79 -237h-64l16 237h127zM301 750l-79 -237h-64l16 237h127z" />
    <glyph glyph-name="numbersign" unicode="#" horiz-adv-x="614" 
d="M200 535h83l71 164h114l-70 -164h104l71 164h114l-71 -164h83l-44 -104h-83l-46 -109h83l-44 -103h-83l-72 -168h-114l71 168h-104l-72 -168h-114l72 168h-83l44 103h83l46 109h-83zM353 431l-46 -109h104l47 109h-105z" />
    <glyph glyph-name="dollar" unicode="$" horiz-adv-x="427" 
d="M299 706l10 47h127l-10 -50q54 -11 76 -51.5t6 -119.5q-2 -6 -4 -19.5t-4 -19.5h-140q2 6 4 19.5t4 19.5q5 23 -4 38t-32 15q-29 0 -44.5 -18.5t-20.5 -44.5q-3 -18 1.5 -30.5t14.5 -22.5t24.5 -18.5t30.5 -17.5q38 -21 63.5 -40.5t38.5 -44t14.5 -56.5t-7.5 -77
q-15 -79 -55 -118t-97 -50l-10 -50h-127l9 47q-62 8 -88.5 48.5t-9.5 125.5q0 2 2 8l4 22q2 8 2 9h140q0 -1 -2 -9l-4 -21l-2 -8q-5 -24 4.5 -39t32.5 -15q30 0 45 20.5t20 48.5q4 18 -1.5 30.5t-17.5 22.5t-28 19t-34 19q-36 20 -59 39.5t-35 43t-13.5 54.5t7.5 73
q17 85 61.5 124t107.5 47z" />
    <glyph glyph-name="percent" unicode="%" horiz-adv-x="567" 
d="M159 663q9 48 41 70.5t77 22.5t67.5 -22.5t13.5 -70.5l-35 -172q-9 -48 -41 -70.5t-77 -22.5t-67.5 22.5t-13.5 70.5zM554 756l-316 -750h-71l317 750h70zM199 482q-2 -10 3 -16.5t16 -6.5q10 0 16.5 6.5t8.5 16.5l39 190q2 10 -2.5 17t-14.5 7q-11 0 -18.5 -6.5
t-9.5 -17.5zM395 266q10 47 42 69.5t77 22.5q44 0 67 -22.5t13 -69.5l-34 -172q-9 -48 -41 -71t-77 -23t-67.5 23t-13.5 71zM436 84q-2 -10 3 -16.5t16 -6.5q10 0 16.5 6.5t8.5 16.5l38 190q2 10 -1.5 17t-14.5 7t-18.5 -6.5t-9.5 -17.5z" />
    <glyph glyph-name="ampersand" unicode="&#x26;" horiz-adv-x="527" 
d="M161 550q12 57 31.5 97t49.5 64.5t72 35.5t99 11t94.5 -11t57.5 -35.5t23.5 -64.5t-8.5 -97q-12 -60 -36 -98t-70 -58q40 -21 62 -60.5t12 -102.5q-2 -18 -8.5 -53t-13.5 -72t-13.5 -69.5t-9.5 -46.5h-165q2 10 4 22t4 20q-37 -29 -98 -31q-6 -1 -11.5 -1h-11.5
q-46 1 -81 11.5t-56 34.5t-27 63.5t6 98.5q5 23 14 50.5t24 54t35.5 47.5t47.5 31l2 8q-21 10 -29.5 26.5t-10 37t2.5 43.5t8 44zM384 615q-20 0 -33 -7t-21 -26q-3 -9 -5.5 -18t-3.5 -18l-6 -29q-2 -8 -3 -15l-2 -14q-3 -40 40 -40q44 0 57 40q2 7 3.5 14t3.5 15l6 29l2 18
t1 18q1 19 -9.5 26t-29.5 7zM290 140q24 0 40 7t26.5 19t16.5 28.5t10 36.5q5 26 -6.5 50t-40.5 32q-9 4 -24 8t-26 9q-19 -8 -31.5 -38.5t-17.5 -59.5q-3 -15 -5 -27t-1 -20q1 -20 16.5 -32.5t42.5 -12.5z" />
    <glyph glyph-name="quotesingle" unicode="'" horiz-adv-x="175" 
d="M301 750l-79 -237h-64l16 237h127z" />
    <glyph glyph-name="parenleft" unicode="(" horiz-adv-x="241" 
d="M148 595q9 48 30 78.5t50 47.5t65 23t76 6l-23 -114q-32 0 -49.5 -15t-22.5 -37l-84 -418q-5 -22 7.5 -37t44.5 -15l-23 -114q-40 0 -73.5 6t-55.5 23.5t-31 47.5t1 78z" />
    <glyph glyph-name="parenright" unicode=")" horiz-adv-x="241" 
d="M331 595l-87 -440q-10 -48 -31 -78t-50 -47.5t-65 -23.5t-75 -6l23 114q32 0 49.5 15t21.5 37l84 418q5 22 -7 37t-44 15l23 114q39 0 72.5 -6t55.5 -23t31 -47.5t-1 -78.5z" />
    <glyph glyph-name="asterisk" unicode="*" horiz-adv-x="330" 
d="M275 750h80l-15 -75l81 28l13 -65l-87 -37l44 -61l-73 -52l-42 68l-70 -68l-52 52l70 62l-73 36l39 65l70 -27z" />
    <glyph glyph-name="plus" unicode="+" horiz-adv-x="380" 
d="M112 434h102l22 111h126l-22 -111h102l-24 -118h-102l-22 -111h-126l22 111h-102z" />
    <glyph glyph-name="comma" unicode="," horiz-adv-x="182" 
d="M84 -90h-76l69 90h-51l26 128h128l-26 -126z" />
    <glyph glyph-name="hyphen" unicode="-" horiz-adv-x="350" 
d="M112 434h300l-24 -118h-300z" />
    <glyph glyph-name="period" unicode="." horiz-adv-x="184" 
d="M156 0h-128l26 128h128z" />
    <glyph glyph-name="slash" unicode="/" horiz-adv-x="282" 
d="M283 750h128l-262 -750h-128z" />
    <glyph glyph-name="zero" unicode="0" horiz-adv-x="491" 
d="M140 560q10 50 33.5 87.5t57 62.5t76 37.5t90.5 12.5t85 -12.5t61 -37.5t33 -62.5t-1 -87.5l-74 -370q-10 -50 -34 -87.5t-57.5 -62.5t-76 -37.5t-90.5 -12.5t-85 12.5t-61 37.5t-32.5 62.5t1.5 87.5zM372 634q-25 0 -42 -16t-22 -40l-81 -405q-5 -25 5.5 -41t36.5 -16
q25 0 41.5 16t21.5 41l81 405q5 24 -5 40t-36 16z" />
    <glyph glyph-name="one" unicode="1" horiz-adv-x="293" 
d="M137 578l25 125l93 47h157l-150 -750h-165l119 597z" />
    <glyph glyph-name="two" unicode="2" horiz-adv-x="498" 
d="M375 635q-27 0 -45 -17.5t-23 -43.5q-1 -4 -3.5 -16t-5 -25t-5 -23.5t-2.5 -11.5h-165q1 3 2.5 10.5t3 15.5t3 15.5t2.5 10.5q12 61 35 101.5t56 64.5t76.5 34t96.5 10q58 0 98 -11t62 -37t26.5 -69t-8.5 -108q-12 -61 -41.5 -107t-67 -82.5t-78.5 -65t-76.5 -54
t-60.5 -49.5t-30 -51h256q-1 -4 -5 -22t-8 -39.5t-8 -40.5t-5 -24h-420q2 9 5 25.5t6.5 34.5t7 35t5.5 26q11 55 38 96.5t61.5 73.5t73.5 57.5t73.5 50.5t61 50.5t37.5 58.5q7 14 12 37t3 37q0 21 -8.5 37t-35.5 16z" />
    <glyph glyph-name="three" unicode="3" horiz-adv-x="495" 
d="M122 498l11 52q12 61 35 101.5t56 64.5t76.5 34t96.5 10q61 0 101.5 -12t62 -40t25 -73t-9.5 -110q-4 -19 -11 -41.5t-17.5 -43.5t-25.5 -37t-36 -24l-1 -8q18 -7 26.5 -23.5t11 -37t0 -43t-6.5 -42.5q-13 -65 -34.5 -110t-54 -72.5t-78 -40t-106.5 -12.5q-53 0 -92 10
t-62.5 34t-30.5 64.5t5 101.5l10 53h165l-14 -69q-6 -32 5.5 -50t38.5 -18q21 0 35 9.5t23 25.5t15 36.5t10 42.5q5 23 6 39t-5 26.5t-22 15.5t-46 5l23 118q30 0 48 5t28.5 15.5t16 27t9.5 38.5q4 20 7 40t0 37t-13 27.5t-32 10.5q-27 0 -45.5 -18.5t-24.5 -50.5l-14 -68
h-165z" />
    <glyph glyph-name="four" unicode="4" horiz-adv-x="479" 
d="M461 212l-42 -212h-165l42 212h-233l24 120l283 418h199l-84 -419h38l-23 -119h-39zM320 331l59 291l-193 -291h134z" />
    <glyph glyph-name="five" unicode="5" horiz-adv-x="503" 
d="M606 750l-25 -126h-262l-30 -148q31 17 70 17q61 0 99.5 -14t58 -43.5t21.5 -75.5t-11 -110q-13 -66 -31.5 -114.5t-49.5 -81t-78.5 -48.5t-118.5 -16q-55 0 -94.5 10.5t-62.5 35.5t-29 65t6 99l10 53h165l-15 -76q-5 -27 6.5 -44t38.5 -17q19 0 32 7t22 19t14.5 27
t8.5 31l19 93q3 15 3.5 30t-4 26.5t-15 18.5t-29.5 7q-25 0 -43.5 -12.5t-22.5 -35.5h-165l85 423h427z" />
    <glyph glyph-name="six" unicode="6" horiz-adv-x="502" 
d="M139 558q11 51 34.5 89t58 63t78 37.5t93.5 12.5q103 0 153.5 -50.5t30.5 -149.5l-11 -53h-165l14 68q5 26 -6.5 42.5t-41.5 16.5q-29 0 -46.5 -17t-22.5 -42l-25 -127q23 16 60 16q117 0 160 -58.5t20 -173.5q-24 -119 -89 -180.5t-185 -61.5q-50 0 -88.5 12.5t-63 37.5
t-33 63.5t1.5 89.5zM318 338q-29 0 -46.5 -17t-22.5 -42l-21 -104q-5 -25 6 -42t40 -17q35 0 51.5 22t22.5 50l15 79q3 14 3 26.5t-5 22.5t-15.5 16t-27.5 6z" />
    <glyph glyph-name="seven" unicode="7" horiz-adv-x="405" 
d="M63 0l275 624h-190l25 126h361l-25 -123l-274 -627h-172z" />
    <glyph glyph-name="eight" unicode="8" horiz-adv-x="507" 
d="M68 216q4 20 11 43.5t18.5 45.5t28 40t39.5 26l1 9q-20 9 -28.5 27.5t-10.5 41t1 46.5t7 44q12 61 32.5 103t52.5 68.5t77 38t106 11.5q62 0 103 -11t63.5 -36.5t26.5 -68t-9 -105.5q-4 -20 -10.5 -44t-17 -46.5t-27 -41t-39.5 -27.5l-2 -9q20 -8 29.5 -26t12 -40
t0 -45.5t-6.5 -43.5q-13 -63 -33 -106t-52 -70t-77 -38.5t-108 -11.5t-105.5 10.5t-65 36.5t-26.5 69.5t9 109.5zM380 634q-28 0 -44.5 -14t-24.5 -37q-3 -9 -6.5 -24.5t-6.5 -32.5t-4.5 -32t-0.5 -24q0 -16 8.5 -25.5t27.5 -9.5h23q19 0 30.5 9.5t18.5 25.5q5 9 9 24
t7.5 32t6 32.5t3.5 24.5q2 23 -9 37t-38 14zM252 278q-5 -10 -10 -26.5t-8.5 -34.5t-5 -34.5t-0.5 -26.5q1 -20 14 -30t34 -10t38 10t27 30q6 10 10.5 26.5t8 34.5t5 34.5t0.5 26.5q0 15 -7.5 26.5t-27.5 11.5h-27q-20 0 -32.5 -11t-18.5 -27z" />
    <glyph glyph-name="nine" unicode="9" horiz-adv-x="502" 
d="M130 518q23 119 88.5 180.5t185.5 61.5q50 0 88 -12.5t62.5 -37.5t33 -63t-1.5 -89l-73 -365q-10 -52 -34 -90t-58.5 -63t-77.5 -37.5t-93 -12.5q-103 0 -153.5 51.5t-31.5 148.5l11 53h165l-14 -68q-5 -26 7 -42.5t41 -16.5q30 0 47.5 17t22.5 42l25 128
q-24 -17 -61 -17q-117 0 -159.5 58.5t-19.5 173.5zM379 634q-35 0 -52 -22t-22 -49l-16 -79q-5 -28 3.5 -50t42.5 -22q29 0 46.5 17t22.5 42l21 104q5 25 -6 42t-40 17z" />
    <glyph glyph-name="colon" unicode=":" horiz-adv-x="184" 
d="M118 448h128l-26 -128h-128zM54 128h128l-26 -128h-128z" />
    <glyph glyph-name="semicolon" unicode=";" horiz-adv-x="182" 
d="M116 448h128l-26 -128h-128zM52 128h128l-26 -126l-70 -92h-76l69 90h-51z" />
    <glyph glyph-name="less" unicode="&#x3c;" horiz-adv-x="305" 
d="M111 432l277 107l-22 -106l-195 -80l-3 -17l163 -83l-22 -106l-233 112z" />
    <glyph glyph-name="equal" unicode="=" horiz-adv-x="387" 
d="M122 484h337l-23 -118h-338zM73 238h337l-24 -118h-337z" />
    <glyph glyph-name="greater" unicode="&#x3e;" horiz-adv-x="305" 
d="M366 432l-35 -173l-277 -112l22 106l195 83l3 17l-163 80l22 106z" />
    <glyph glyph-name="question" unicode="?" horiz-adv-x="459" 
d="M123 505l10 49q12 64 33.5 104t52 62.5t70.5 31t89 8.5t86 -8.5t59.5 -33t28.5 -68.5t-8 -115q-12 -58 -39 -98.5t-62 -71t-73 -53.5t-71.5 -45.5t-57.5 -48.5t-31 -61h-87q11 55 32.5 95t48.5 70t56 53.5t54.5 46t44.5 46.5t25 55q9 48 3 69t-40 21q-52 0 -64 -57
l-10 -51h-150zM199 0h-128l25 128h129z" />
    <glyph glyph-name="at" unicode="@" horiz-adv-x="697" 
d="M102 370q18 90 50 160.5t82.5 119.5t121.5 74.5t166 25.5q81 0 134 -19t80.5 -57t32 -96.5t-11.5 -137.5q-11 -55 -27 -105.5t-43.5 -89.5t-71 -62t-108.5 -23h-132q-34 0 -57.5 4.5t-36.5 17.5t-16 36t4 59l40 196q7 36 20.5 58.5t33 35t46 17t59.5 4.5h119l-63 -315
q-4 -18 3 -28.5t26 -10.5q34 0 57 20t38.5 49t24 61t13.5 57q14 66 14.5 115.5t-18 82t-60.5 48.5t-114 16q-81 0 -138.5 -20.5t-97 -60.5t-64 -98.5t-39.5 -133.5q-13 -64 -11 -120.5t24 -97.5t66 -65t116 -24q35 0 70.5 5.5t70.5 16.5l8 -65q-41 -12 -82 -18.5t-81 -6.5
q-87 0 -142.5 29t-84 79t-33 119t11.5 148zM369 272q-3 -21 22 -21h27l49 246h-22q-14 0 -23.5 -5.5t-11.5 -20.5z" />
    <glyph glyph-name="A" unicode="A" horiz-adv-x="518" 
d="M278 750h262l-38 -750h-168l21 211h-107l-64 -211h-168zM279 330h93l25 294h-26z" />
    <glyph glyph-name="B" unicode="B" horiz-adv-x="534" 
d="M418 750q118 0 170 -53t32 -156q-5 -27 -12.5 -53.5t-19 -48.5t-26.5 -38t-35 -22l-2 -8q19 -7 27.5 -24t10 -39t-1.5 -47.5t-8 -50.5q-22 -109 -95 -159.5t-190 -50.5h-237l150 750h237zM377 441q25 0 40 12.5t22 29.5q4 8 7.5 20t6 25t3.5 25t0 19q0 21 -14.5 36.5
t-48.5 15.5h-72l-37 -183h93zM294 126q29 0 53.5 15t34.5 45q2 8 5 20.5t6 26.5t5 27t2 21q2 23 -10.5 36t-34.5 13h-93l-41 -204h73z" />
    <glyph glyph-name="C" unicode="C" 
d="M541 193q-21 -108 -94.5 -155.5t-183.5 -47.5q-55 0 -96.5 11.5t-67.5 36.5t-34.5 63t1.5 92l73 365q22 107 95 154.5t183 47.5q55 0 97 -11.5t67.5 -36t34.5 -62.5t-2 -92l-22 -110h-165l24 120q6 27 -8 46.5t-51 19.5q-36 0 -58 -19.5t-28 -46.5l-77 -385
q-5 -28 9 -47.5t51 -19.5q36 0 58 20t27 47l24 120h165z" />
    <glyph glyph-name="D" unicode="D" horiz-adv-x="534" 
d="M181 750h237q55 0 97 -11.5t67.5 -36t34.5 -62.5t-2 -92q-3 -17 -8.5 -44t-12 -59.5l-13.5 -67.5l-13.5 -67.5t-12 -60.5t-9.5 -46q-21 -108 -94.5 -155.5t-183.5 -47.5h-237zM294 126q36 0 58 20t27 47l73 365q6 27 -8 46.5t-51 19.5h-72l-100 -498h73z" />
    <glyph glyph-name="E" unicode="E" horiz-adv-x="452" 
d="M181 750h397l-25 -126h-232l-38 -190h207l-24 -118h-207l-38 -190h233l-26 -126h-397z" />
    <glyph glyph-name="F" unicode="F" horiz-adv-x="451" 
d="M181 750h397l-25 -126h-232l-38 -190h207l-24 -118h-207l-63 -316h-165z" />
    <glyph glyph-name="G" unicode="G" horiz-adv-x="532" 
d="M139 558q22 107 95 154.5t183 47.5q55 0 97 -11.5t67.5 -36t34.5 -62.5t-2 -92l-14 -73h-165l16 83q6 27 -8 46.5t-51 19.5q-36 0 -58 -19.5t-28 -46.5l-77 -385q-5 -28 9 -47.5t51 -19.5q36 0 58 20t27 47l11 53h-58l24 119h223l-33 -162q-21 -108 -94.5 -155.5
t-183.5 -47.5q-55 0 -96.5 11.5t-67.5 36.5t-34.5 63t1.5 92z" />
    <glyph glyph-name="H" unicode="H" horiz-adv-x="537" 
d="M181 750h165l-63 -316h145l63 316h165l-150 -750h-165l63 316h-145l-63 -316h-165z" />
    <glyph glyph-name="I" unicode="I" horiz-adv-x="232" 
d="M183 750h165l-150 -750h-165z" />
    <glyph glyph-name="J" unicode="J" horiz-adv-x="318" 
d="M439 750q-5 -28 -14 -71.5t-19 -95t-21.5 -107t-22 -107t-19 -95t-14.5 -71.5q-12 -63 -36 -102.5t-57 -62t-75 -30.5t-91 -8h-49l25 126q17 0 35.5 2t35 8t28.5 18t16 33l113 563h165z" />
    <glyph glyph-name="K" unicode="K" horiz-adv-x="523" 
d="M181 750h165l-63 -315h26l185 315h166l-217 -375l66 -375h-166l-58 316h-26l-63 -316h-165z" />
    <glyph glyph-name="L" unicode="L" horiz-adv-x="450" 
d="M181 750h165l-125 -624h233l-26 -126h-397z" />
    <glyph glyph-name="M" unicode="M" horiz-adv-x="741" 
d="M409 750l-14 -620h3l234 620h228l-150 -750h-165l93 466l-188 -466h-160l-1 466l-93 -466h-165l150 750h228z" />
    <glyph glyph-name="N" unicode="N" horiz-adv-x="537" 
d="M181 750h165l48 -481l97 481h165l-150 -750h-165l-49 482l-96 -482h-165z" />
    <glyph glyph-name="O" unicode="O" 
d="M139 558q22 107 95 154.5t183 47.5q55 0 97 -11.5t67.5 -36t34.5 -62.5t-2 -92l-73 -365q-21 -108 -94.5 -155.5t-183.5 -47.5q-55 0 -96.5 11.5t-67.5 36.5t-34.5 63t1.5 92zM229 183q-5 -28 9 -47.5t51 -19.5q36 0 58 20t27 47l77 385q6 27 -8 46.5t-51 19.5
q-36 0 -58 -19.5t-28 -46.5z" />
    <glyph glyph-name="P" unicode="P" horiz-adv-x="535" 
d="M420 750q125 0 173 -54.5t24 -175.5q-24 -123 -94 -179.5t-200 -56.5h-71l-56 -284h-165l150 750h239zM321 624l-43 -214h70q35 0 58.5 17t31.5 43q3 8 6 20.5t5.5 26t4.5 26.5t3 21q2 26 -13.5 43t-50.5 17h-72z" />
    <glyph glyph-name="Q" unicode="Q" horiz-adv-x="536" 
d="M139 558q22 107 95 154.5t183 47.5q55 0 97 -11.5t67.5 -36t34.5 -62.5t-2 -92q-3 -17 -9 -46.5t-13 -65t-15 -74t-15 -73.5t-12.5 -63t-8.5 -43q-11 -55 -35.5 -93.5t-60.5 -63.5l74 -69q-12 -8 -33.5 -23t-45 -30.5t-43.5 -29t-29 -19.5q-4 6 -15 24.5t-24 40t-24 40
t-14 23.5q-13 -3 -28 -3q-55 0 -96.5 11.5t-67.5 36.5t-34.5 63t1.5 92q3 16 9 44t13 63t14.5 73t14.5 73.5t13 65t9 46.5zM392 634q-36 0 -58 -19.5t-28 -46.5l-77 -385q-5 -28 9 -47.5t51 -19.5q36 0 58 20t27 47l77 385q6 27 -8 46.5t-51 19.5z" />
    <glyph glyph-name="R" unicode="R" horiz-adv-x="529" 
d="M181 750h239q125 0 173 -54.5t24 -175.5q-17 -85 -54 -138t-102 -76l44 -306h-157l-41 284h-15h-40l-56 -284h-165zM348 410q35 0 58.5 17t31.5 43q7 23 12 47t7 47t-11 40t-44 19q-2 1 -9 1h-72l-43 -214h70z" />
    <glyph glyph-name="S" unicode="S" horiz-adv-x="536" 
d="M132 537q12 59 37.5 101.5t62.5 69.5t84.5 39.5t103.5 12.5q59 0 101.5 -11.5t67.5 -38t32 -69t-5 -104.5l-4 -16l-4 -16h-165q2 4 3.5 13.5t2.5 14.5q4 20 4.5 38t-4.5 32t-18 22.5t-36 8.5q-34 0 -60 -19.5t-33 -54.5q-7 -38 12 -61t51.5 -40.5t70.5 -34.5t68.5 -43
t46.5 -65.5t3 -102.5q-12 -59 -37.5 -101.5t-62.5 -69.5t-84.5 -39.5t-103.5 -12.5q-59 0 -101.5 11.5t-67.5 38t-32 69t5 104.5q2 8 3.5 16t3.5 16h165q-1 -4 -2.5 -13.5t-2.5 -14.5q-4 -19 -5 -37.5t4.5 -32.5t18.5 -22.5t36 -8.5q37 0 62 22t33 59q6 28 -4 47.5t-30 34
t-46.5 26t-54 24.5t-53.5 29.5t-43.5 40.5t-25 57.5t2.5 80.5z" />
    <glyph glyph-name="T" unicode="T" horiz-adv-x="529" 
d="M657 750l-25 -126h-160l-125 -624h-165l125 624h-160l25 126h485z" />
    <glyph glyph-name="U" unicode="U" horiz-adv-x="533" 
d="M179 750h165l-114 -567q-5 -28 9 -47.5t51 -19.5q36 0 58 20t27 47l114 567h165l-112 -557q-21 -108 -94.5 -155.5t-183.5 -47.5q-55 0 -96.5 11.5t-67.5 36.5t-34.5 63t1.5 92z" />
    <glyph glyph-name="V" unicode="V" horiz-adv-x="539" 
d="M169 750h172l-56 -624h19l194 624h172l-262 -750h-277z" />
    <glyph glyph-name="W" unicode="W" horiz-adv-x="822" 
d="M169 750h172l-56 -624h19l178 624h159l-73 -624h19l194 624h172l-262 -750h-231l72 602h-2l-168 -602h-231z" />
    <glyph glyph-name="X" unicode="X" horiz-adv-x="550" 
d="M169 750h166l23 -308h11l146 308h166l-182 -375l31 -375h-166l-22 308h-11l-145 -308h-166l181 375z" />
    <glyph glyph-name="Y" unicode="Y" horiz-adv-x="554" 
d="M341 750l20 -330l151 330h173l-278 -510l-48 -240h-165l48 240l-73 510h172z" />
    <glyph glyph-name="Z" unicode="Z" horiz-adv-x="458" 
d="M221 126h239l-25 -126h-414l24 123l341 501h-240l25 126h415l-24 -123z" />
    <glyph glyph-name="bracketleft" unicode="[" horiz-adv-x="281" 
d="M181 750h227l-23 -115h-100l-104 -520h100l-23 -115h-227z" />
    <glyph glyph-name="backslash" unicode="\" horiz-adv-x="282" 
d="M299 750l-38 -750h-128l38 750h128z" />
    <glyph glyph-name="bracketright" unicode="]" horiz-adv-x="281" 
d="M400 750l-150 -750h-227l23 115h100l104 520h-100l23 115h227z" />
    <glyph glyph-name="asciicircum" unicode="^" horiz-adv-x="338" 
d="M233 750h171l5 -276h-106l8 200h-15l-71 -200h-106z" />
    <glyph glyph-name="underscore" unicode="_" horiz-adv-x="433" 
d="M20 -10h387l-18 -89h-387z" />
    <glyph glyph-name="grave" unicode="`" horiz-adv-x="217" 
d="M168 750h130l23 -142h-96z" />
    <glyph glyph-name="a" unicode="a" horiz-adv-x="518" 
d="M278 750h262l-38 -750h-168l21 211h-107l-64 -211h-168q17 46 38 106.5t44.5 129t48.5 140t48.5 139.5t45 129t37.5 106zM279 330h93l25 294h-26z" />
    <glyph glyph-name="b" unicode="b" horiz-adv-x="534" 
d="M418 750q118 0 170 -53t32 -156q-5 -27 -12.5 -53.5t-19 -48.5t-26.5 -38t-35 -22l-2 -8q19 -7 27.5 -24t10 -39t-1.5 -47.5t-8 -50.5q-22 -109 -95 -159.5t-190 -50.5h-237l150 750h237zM377 441q25 0 40 12.5t22 29.5q4 8 7.5 20t6 25t3.5 25t0 19q0 21 -14.5 36.5
t-48.5 15.5h-72l-37 -183h93zM294 126q29 0 53.5 15t34.5 45q2 8 5 20.5t6 26.5t5 27t2 21q2 23 -10.5 36t-34.5 13h-93l-41 -204h73z" />
    <glyph glyph-name="c" unicode="c" 
d="M541 193q-21 -108 -94.5 -155.5t-183.5 -47.5q-55 0 -96.5 11.5t-67.5 36.5t-34.5 63t1.5 92l73 365q22 107 95 154.5t183 47.5q55 0 97 -11.5t67.5 -36t34.5 -62.5t-2 -92l-22 -110h-165l24 120q6 27 -8 46.5t-51 19.5q-36 0 -58 -19.5t-28 -46.5l-77 -385
q-5 -28 9 -47.5t51 -19.5q36 0 58 20t27 47l24 120h165z" />
    <glyph glyph-name="d" unicode="d" horiz-adv-x="532" 
d="M179 750h237q55 0 97 -11.5t67.5 -36t34.5 -62.5t-2 -92q-3 -17 -8.5 -44t-12 -59.5l-13.5 -67.5l-13.5 -67.5t-12 -60.5t-9.5 -46q-21 -108 -94.5 -155.5t-183.5 -47.5h-237zM292 126q36 0 58 20t27 47l73 365q6 27 -8 46.5t-51 19.5h-72l-100 -498h73z" />
    <glyph glyph-name="e" unicode="e" horiz-adv-x="452" 
d="M181 750h397l-25 -126h-232l-38 -190h207l-24 -118h-207l-38 -190h233l-26 -126h-397z" />
    <glyph glyph-name="f" unicode="f" horiz-adv-x="451" 
d="M181 750h397l-25 -126h-232l-38 -190h207l-24 -118h-207l-63 -316h-165z" />
    <glyph glyph-name="g" unicode="g" horiz-adv-x="532" 
d="M139 558q22 107 95 154.5t183 47.5q55 0 97 -11.5t67.5 -36t34.5 -62.5t-2 -92l-14 -73h-165l16 83q6 27 -8 46.5t-51 19.5q-36 0 -58 -19.5t-28 -46.5l-77 -385q-5 -28 9 -47.5t51 -19.5q36 0 58 20t27 47l11 53h-58l24 119h223l-33 -162q-21 -108 -94.5 -155.5
t-183.5 -47.5q-55 0 -96.5 11.5t-67.5 36.5t-34.5 63t1.5 92z" />
    <glyph glyph-name="h" unicode="h" horiz-adv-x="537" 
d="M181 750h165l-63 -316h145l63 316h165l-150 -750h-165l63 316h-145l-63 -316h-165z" />
    <glyph glyph-name="i" unicode="i" horiz-adv-x="232" 
d="M183 750h165l-150 -750h-165z" />
    <glyph glyph-name="j" unicode="j" horiz-adv-x="318" 
d="M439 750q-5 -28 -14 -71.5t-19 -95t-21.5 -107t-22 -107t-19 -95t-14.5 -71.5q-12 -63 -36 -102.5t-57 -62t-75 -30.5t-91 -8h-49l25 126q17 0 35.5 2t35 8t28.5 18t16 33l113 563h165z" />
    <glyph glyph-name="k" unicode="k" horiz-adv-x="523" 
d="M181 750h165l-63 -315h26l185 315h166l-217 -375l66 -375h-166l-58 316h-26l-63 -316h-165z" />
    <glyph glyph-name="l" unicode="l" horiz-adv-x="450" 
d="M181 750h165l-125 -624h233l-26 -126h-397z" />
    <glyph glyph-name="m" unicode="m" horiz-adv-x="751" 
d="M408 750l-8 -620h2l240 620h228l-150 -750h-165l93 466l-193 -466h-159l-7 466l-93 -466h-165l150 750h227z" />
    <glyph glyph-name="n" unicode="n" horiz-adv-x="537" 
d="M181 750h165l48 -481l97 481h165l-150 -750h-165l-49 482l-96 -482h-165z" />
    <glyph glyph-name="o" unicode="o" 
d="M139 558q22 107 95 154.5t183 47.5q55 0 97 -11.5t67.5 -36t34.5 -62.5t-2 -92l-73 -365q-21 -108 -94.5 -155.5t-183.5 -47.5q-55 0 -96.5 11.5t-67.5 36.5t-34.5 63t1.5 92zM229 183q-5 -28 9 -47.5t51 -19.5q36 0 58 20t27 47l77 385q6 27 -8 46.5t-51 19.5
q-36 0 -58 -19.5t-28 -46.5z" />
    <glyph glyph-name="p" unicode="p" horiz-adv-x="535" 
d="M420 750q125 0 173 -54.5t24 -175.5q-24 -123 -94 -179.5t-200 -56.5h-71l-56 -284h-165l150 750h239zM321 624l-43 -214h70q35 0 58.5 17t31.5 43q3 8 6 20.5t5.5 26t4.5 26.5t3 21q2 26 -13.5 43t-50.5 17h-72z" />
    <glyph glyph-name="q" unicode="q" horiz-adv-x="536" 
d="M139 558q22 107 95 154.5t183 47.5q55 0 97 -11.5t67.5 -36t34.5 -62.5t-2 -92q-3 -17 -9 -46.5t-13 -65t-15 -74t-15 -73.5t-12.5 -63t-8.5 -43q-11 -55 -35.5 -93.5t-60.5 -63.5l74 -69q-12 -8 -33.5 -23t-45 -30.5t-43.5 -29t-29 -19.5q-4 6 -15 24.5t-24 40t-24 40
t-14 23.5q-13 -3 -28 -3q-55 0 -96.5 11.5t-67.5 36.5t-34.5 63t1.5 92q3 16 9 44t13 63t14.5 73t14.5 73.5t13 65t9 46.5zM392 634q-36 0 -58 -19.5t-28 -46.5l-77 -385q-5 -28 9 -47.5t51 -19.5q36 0 58 20t27 47l77 385q6 27 -8 46.5t-51 19.5z" />
    <glyph glyph-name="r" unicode="r" horiz-adv-x="529" 
d="M181 750h239q125 0 173 -54.5t24 -175.5q-17 -85 -54 -138t-102 -76l44 -306h-157l-41 284h-15h-40l-56 -284h-165zM348 410q35 0 58.5 17t31.5 43q7 23 12 47t7 47t-11 40t-44 19q-2 1 -9 1h-72l-43 -214h70z" />
    <glyph glyph-name="s" unicode="s" horiz-adv-x="536" 
d="M132 537q12 59 37.5 101.5t62.5 69.5t84.5 39.5t103.5 12.5q59 0 101.5 -11.5t67.5 -38t32 -69t-5 -104.5l-4 -16l-4 -16h-165q2 4 3.5 13.5t2.5 14.5q4 20 4.5 38t-4.5 32t-18 22.5t-36 8.5q-34 0 -60 -19.5t-33 -54.5q-7 -38 12 -61t51.5 -40.5t70.5 -34.5t68.5 -43
t46.5 -65.5t3 -102.5q-12 -59 -37.5 -101.5t-62.5 -69.5t-84.5 -39.5t-103.5 -12.5q-59 0 -101.5 11.5t-67.5 38t-32 69t5 104.5q2 8 3.5 16t3.5 16h165q-1 -4 -2.5 -13.5t-2.5 -14.5q-4 -19 -5 -37.5t4.5 -32.5t18.5 -22.5t36 -8.5q37 0 62 22t33 59q6 28 -4 47.5t-30 34
t-46.5 26t-54 24.5t-53.5 29.5t-43.5 40.5t-25 57.5t2.5 80.5z" />
    <glyph glyph-name="t" unicode="t" horiz-adv-x="529" 
d="M657 750l-25 -126h-160l-125 -624h-165l125 624h-160l25 126h485z" />
    <glyph glyph-name="u" unicode="u" horiz-adv-x="533" 
d="M179 750h165l-114 -567q-5 -28 9 -47.5t51 -19.5q36 0 58 20t27 47l114 567h165l-112 -557q-21 -108 -94.5 -155.5t-183.5 -47.5q-55 0 -96.5 11.5t-67.5 36.5t-34.5 63t1.5 92z" />
    <glyph glyph-name="v" unicode="v" horiz-adv-x="539" 
d="M169 750h172l-56 -624h19l194 624h172l-262 -750h-277z" />
    <glyph glyph-name="w" unicode="w" horiz-adv-x="822" 
d="M169 750h172l-56 -624h19l178 624h159l-73 -624h19l194 624h172l-262 -750h-231l72 602h-2l-168 -602h-231z" />
    <glyph glyph-name="x" unicode="x" horiz-adv-x="550" 
d="M169 750h166l23 -308h11l146 308h166l-182 -375l31 -375h-166l-22 308h-11l-145 -308h-166l181 375z" />
    <glyph glyph-name="y" unicode="y" horiz-adv-x="554" 
d="M341 750l20 -330l151 330h173l-278 -510l-48 -240h-165l48 240l-73 510h172z" />
    <glyph glyph-name="z" unicode="z" horiz-adv-x="458" 
d="M221 126h239l-25 -126h-414l24 123l341 501h-240l25 126h415l-24 -123z" />
    <glyph glyph-name="braceleft" unicode="{" horiz-adv-x="283" 
d="M98 388q29 17 45 41.5t25 52.5t13 57.5t9 55.5q9 47 29.5 77.5t49 47.5t65 23.5t77.5 6.5l-23 -114q-24 0 -45.5 -13t-26.5 -39q-4 -21 -8.5 -52.5t-13.5 -62.5t-25 -56t-42 -34l-1 -8q22 -9 27.5 -34t2 -56t-11.5 -62.5t-12 -52.5q-5 -26 11.5 -39t40.5 -13l-23 -114
q-41 0 -74.5 6.5t-55.5 24t-30 47.5t1 77q5 26 13 55.5t10.5 58t-3.5 53t-29 41.5z" />
    <glyph glyph-name="bar" unicode="|" horiz-adv-x="195" 
d="M190 780h127l-162 -810h-127z" />
    <glyph glyph-name="braceright" unicode="}" horiz-adv-x="283" 
d="M335 363q-29 -17 -45 -41.5t-24.5 -53t-12.5 -58t-9 -55.5q-9 -47 -29.5 -77t-49 -47.5t-65 -24t-77.5 -6.5l23 114q23 0 44.5 13t26.5 39q4 21 9 52.5t14 62.5t24.5 56t41.5 34l2 8q-22 9 -27.5 34t-2.5 56t11 62.5t12 52.5q5 26 -11.5 39t-39.5 13l23 114
q41 0 74.5 -6.5t55 -23.5t29.5 -47.5t-1 -77.5q-5 -26 -12.5 -55.5t-10 -57.5t3.5 -52.5t28 -41.5z" />
    <glyph glyph-name="asciitilde" unicode="~" horiz-adv-x="504" 
d="M75 245q9 47 26.5 78.5t40 50.5t48 27t51.5 8q42 0 82 -9t70 -9q20 0 34 13.5t19 34.5h120q-10 -48 -27.5 -80t-40.5 -51.5t-49 -27.5t-52 -8q-42 0 -82 9t-69 9q-20 0 -33.5 -12.5t-17.5 -32.5h-120z" />
    <glyph glyph-name="exclamdown" unicode="&#xa1;" horiz-adv-x="206" 
d="M307 700l-25 -128h-129l26 128h128zM18 -50l165 593h58l-73 -593h-150z" />
    <glyph glyph-name="cent" unicode="&#xa2;" horiz-adv-x="528" 
d="M124 488q19 91 74 139t140 59l15 74h127l-15 -74q81 -11 117 -59t17 -139l-12 -61h-165l14 71q6 27 -8 46.5t-51 19.5q-36 0 -58 -19.5t-28 -46.5l-49 -245q-5 -27 9 -46.5t51 -19.5q36 0 58 19.5t27 46.5l15 72h165l-13 -62q-18 -92 -73 -139.5t-140 -58.5l-15 -75h-127
l14 75q-80 11 -116 58.5t-18 139.5z" />
    <glyph glyph-name="sterling" unicode="&#xa3;" horiz-adv-x="573" 
d="M491 393l-23 -118h-173l-29 -149h290l-26 -126h-455l55 275h-52l23 118h53l33 165q11 54 35 92t59.5 62.5t82 36t101.5 11.5t96.5 -11.5t67.5 -36t35 -62.5t-2 -92l-12 -58h-165l14 68q5 27 -8.5 46.5t-50.5 19.5t-59 -19.5t-27 -46.5l-35 -175h172z" />
    <glyph glyph-name="currency" unicode="&#xa4;" horiz-adv-x="555" 
d="M129 369q7 35 24 67t41 58l-54 66l107 90l62 -75q45 20 92 20q23 0 43 -5t38 -13l88 76l68 -83l-75 -65q16 -28 22 -62.5t-2 -73.5q-8 -40 -29 -75.5t-50 -64.5l52 -68l-101 -83l-61 81q-40 -17 -84 -17t-80 19l-97 -80l-70 91l82 68q-14 27 -19 59.5t3 69.5zM327 224
q30 0 58.5 11.5t52 31t40.5 46t23 56.5t-0.5 56.5t-22 46t-39.5 30.5t-54 11t-58.5 -11t-52.5 -30.5t-40.5 -46t-22.5 -56.5t0 -56.5t22 -46t40 -31t54 -11.5z" />
    <glyph glyph-name="yen" unicode="&#xa5;" horiz-adv-x="556" 
d="M342 750l26 -300l145 300h173l-211 -372h77l-16 -81h-106l-13 -21l-9 -42h115l-16 -81h-116l-31 -153h-165l31 153h-117l17 81h114l8 42l-4 21h-106l17 81h76l-61 372h172z" />
    <glyph glyph-name="brokenbar" unicode="&#xa6;" horiz-adv-x="191" 
d="M123 454l65 326h127l-65 -326h-127zM28 -20l65 326h127l-65 -326h-127z" />
    <glyph glyph-name="section" unicode="&#xa7;" horiz-adv-x="549" 
d="M139 538q12 59 37.5 101t63 69t85 39.5t102.5 12.5q59 0 101 -12t67.5 -38.5t32.5 -69t-5 -103.5l-4 -16l-4 -16h-165q2 5 3.5 14t2.5 14q4 19 4.5 37t-4.5 32.5t-18 23t-36 8.5q-32 0 -59 -20t-34 -54q-5 -26 3.5 -44t26.5 -32.5t41.5 -27t48.5 -26t48.5 -30.5t40.5 -40
q-1 0 -1 -2l-1 -5q-16 3 -44 9t-62.5 13t-72 15t-72.5 15.5t-64 13.5t-46 10q-13 20 -18.5 46t2.5 63zM561 213q-12 -58 -37.5 -100.5t-63 -69.5t-85 -40t-102.5 -13q-58 0 -101 12t-68 38.5t-32 69t5 103.5q2 8 3.5 16t3.5 16h165q-1 -4 -3 -13.5t-3 -14.5q-4 -19 -4.5 -37
t5 -32.5t18.5 -23t36 -8.5q35 0 60.5 22.5t33.5 58.5q5 26 -4 44t-26.5 32t-41.5 25.5t-48.5 24.5t-47.5 29.5t-39 39.5l2 9q11 -2 39 -8.5t64.5 -14.5t77.5 -16.5t77 -16.5l63 -14t37 -8q13 -20 18.5 -47t-2.5 -63z" />
    <glyph glyph-name="dieresis" unicode="&#xa8;" horiz-adv-x="306" 
d="M415 632h-118l23 118h118zM262 632h-118l24 118h118z" />
    <glyph glyph-name="copyright" unicode="&#xa9;" horiz-adv-x="818" 
d="M106 373q16 82 58.5 151t103 119.5t135.5 79t156 28.5q82 0 145.5 -28.5t104 -79t55 -119.5t-1.5 -151t-58.5 -151t-103 -119.5t-135.5 -79t-157 -28.5t-145.5 28.5t-104 79t-54.5 119.5t2 151zM165 373q-14 -69 -2 -127.5t46 -101t88 -66.5t123 -24t132.5 24t114.5 66.5
t86.5 101t49.5 127.5t1.5 127.5t-47 101t-88 66.5t-122.5 24t-132 -24t-114 -66.5t-86.5 -101t-49.5 -127.5zM646 320l-16 -81q-16 -78 -69 -113t-134 -35t-120 35t-24 113l55 272q16 78 68.5 113t133.5 35t120.5 -35t23.5 -113l-16 -81h-118l18 88q4 21 -6 36t-39 15
q-28 0 -44.5 -15t-21.5 -36l-57 -286q-5 -21 6 -36t39 -15t44.5 15t21.5 36l17 88h118z" />
    <glyph glyph-name="ordfeminine" unicode="&#xaa;" horiz-adv-x="268" 
d="M224 750h120l-18 -339h-76l10 95h-50l-29 -95h-75zM223 560h42l13 133h-13z" />
    <glyph glyph-name="guillemotleft" unicode="&#xab;" horiz-adv-x="462" 
d="M338 346l-1 -4l140 -163l-22 -109l-204 235l16 80l298 232l-22 -109zM168 346l-1 -4l140 -163l-22 -109l-204 235l16 80l298 232l-22 -109z" />
    <glyph glyph-name="logicalnot" unicode="&#xac;" horiz-adv-x="494" 
d="M94 313h432l-59 -292h-89l41 203h-343z" />
    <glyph glyph-name="registered" unicode="&#xae;" horiz-adv-x="804" 
d="M552 751q82 0 145.5 -28.5t104 -79t55 -119.5t-1.5 -151t-58.5 -151t-103 -119.5t-135.5 -79t-157 -28.5t-145.5 28.5t-104 79t-54.5 119.5t2 151t58.5 151t103 119.5t135.5 79t156 28.5zM158 373q-14 -69 -2 -127.5t46 -101t88 -66.5t123 -24t132.5 24t114.5 66.5
t86.5 101t49.5 127.5t1.5 127.5t-47 101t-88 66.5t-122.5 24t-132 -24t-114 -66.5t-86.5 -101t-49.5 -127.5zM383 631h158q84 0 115.5 -37t15.5 -117q-12 -57 -37 -92.5t-70 -51.5l31 -206h-102l-27 192h-10h-30l-39 -192h-106zM491 400q20 0 37.5 9t25.5 28q2 6 3 10
q9 28 11 56q1 4 1 10q0 15 -9.5 24t-24.5 12h-9h-54l-29 -149h48z" />
    <glyph glyph-name="macron" unicode="&#xaf;" horiz-adv-x="369" 
d="M154 688h337l-23 -118h-338z" />
    <glyph glyph-name="degree" unicode="&#xb0;" horiz-adv-x="296" 
d="M138 573q6 27 19.5 50t33.5 39.5t44.5 25.5t51.5 9q54 0 82 -35t17 -89q-5 -27 -19 -49.5t-33.5 -39t-44 -26t-51.5 -9.5q-54 0 -82 35t-18 89zM211 573q-5 -23 6.5 -37t34.5 -14t39.5 14t21.5 37t-6.5 37t-34.5 14t-39.5 -14t-21.5 -37z" />
    <glyph glyph-name="plusminus" unicode="&#xb1;" horiz-adv-x="380" 
d="M112 434h102l22 111h126l-22 -111h102l-24 -118h-102l-22 -111h-126l22 111h-102zM60 173h330l-24 -119h-330z" />
    <glyph glyph-name="twosuperior" unicode="&#xb2;" horiz-adv-x="265" 
d="M272 700q-12 0 -20.5 -8t-10.5 -20q0 -1 -1 -6.5t-2.5 -11.5t-2.5 -11t-1 -6h-76q1 3 2.5 13t2.5 12q6 28 16.5 46t25.5 29t35 15.5t44 4.5q54 0 73.5 -21.5t8.5 -81.5q-8 -41 -33 -68.5t-52.5 -47t-50 -35.5t-26.5 -34h117q0 -1 -2 -9.5t-4 -18t-3.5 -18.5t-2.5 -11
h-191q1 4 2.5 11.5t3 15.5l3 16t2.5 12q8 38 30.5 62t48 42t48 34t29.5 38q3 6 5.5 16.5t1.5 16.5q0 9 -4 16.5t-16 7.5z" />
    <glyph glyph-name="threesuperior" unicode="&#xb3;" horiz-adv-x="262" 
d="M159 640l4 23q11 55 41 75t77 20q56 0 74 -23.5t7 -82.5q-3 -17 -12 -37.5t-28 -27.5l-1 -5q8 -3 12 -10t5 -16t0 -19t-3 -19q-6 -30 -15.5 -50t-24 -32t-34.5 -17.5t-48 -5.5q-24 0 -41.5 4.5t-28 15t-14 28.5t2.5 46l5 24h74l-6 -32q-6 -30 19 -30q19 0 26.5 15.5
t11.5 35.5q4 19 0 28t-30 10l11 54q26 0 33.5 9.5t11.5 28.5q2 9 3 18t-0.5 16.5t-6 12t-14.5 4.5q-11 0 -20 -8t-11 -22l-6 -31h-74z" />
    <glyph glyph-name="acute" unicode="&#xb4;" horiz-adv-x="217" 
d="M219 750h130l-113 -142h-96z" />
    <glyph glyph-name="paragraph" unicode="&#xb6;" horiz-adv-x="427" 
d="M308 371q-52 0 -87.5 15.5t-55 42t-24.5 60.5t2 72q8 38 27 72.5t49 60.5t71.5 41t93.5 15h68l-156 -780h-68zM479 750h68l-156 -780h-68z" />
    <glyph glyph-name="periodcentered" unicode="&#xb7;" horiz-adv-x="178" 
d="M277 622h-128l26 128h128z" />
    <glyph glyph-name="cedilla" unicode="&#xb8;" horiz-adv-x="202" 
d="M10 -83q32 -3 48.5 10t19.5 30q4 14 -2 27t-19 15l63 17q32 -14 43.5 -39t5.5 -52q-4 -21 -16.5 -41t-32.5 -36t-45.5 -25.5t-54.5 -9.5q-17 0 -39 5z" />
    <glyph glyph-name="onesuperior" unicode="&#xb9;" horiz-adv-x="170" 
d="M165 672l12 57l42 21h70l-68 -339h-74l55 270z" />
    <glyph glyph-name="ordmasculine" unicode="&#xba;" horiz-adv-x="242" 
d="M157 667q10 47 41.5 69t74.5 22t65.5 -22t13.5 -69l-33 -165q-9 -46 -41 -68.5t-75 -22.5t-65.5 22t-13.5 69zM261 701q-11 0 -18.5 -6.5t-9.5 -17.5l-37 -184q-2 -11 3 -18t16 -7q12 0 20 7t10 18l37 184q2 11 -3.5 17.5t-17.5 6.5z" />
    <glyph glyph-name="guillemotright" unicode="&#xbb;" horiz-adv-x="462" 
d="M263 346l-141 162l22 109l206 -232l-17 -80l-299 -235l23 109l205 163zM433 346l-141 162l22 109l206 -232l-17 -80l-299 -235l23 109l205 163z" />
    <glyph glyph-name="onequarter" unicode="&#xbc;" horiz-adv-x="449" 
d="M406 750h66l-316 -750h-67zM155 672l12 57l42 21h70l-68 -339h-74l55 270zM434 96l-19 -96h-74l19 96h-101l10 54l124 190h90l-38 -190h12l-10 -54h-13zM370 150l27 131l-84 -131h57z" />
    <glyph glyph-name="onehalf" unicode="&#xbd;" horiz-adv-x="497" 
d="M167 729l42 21h70l-68 -339h-74l55 270l-37 -9zM480 750l-317 -750h-66l317 750h66zM432 288q-12 0 -20.5 -8t-10.5 -20q-1 -1 -2 -6.5t-2 -11.5t-2 -11t-1 -6h-76q0 3 2 13t2 12q12 56 42.5 75.5t78.5 19.5q53 0 73 -21.5t8 -80.5q-8 -42 -33 -69t-52 -46.5t-49.5 -35.5
t-26.5 -34h117q0 -2 -2 -10.5t-4 -18t-4 -18.5t-2 -11h-191q1 4 2.5 11.5t3 15.5l3 16t2.5 12q8 38 30.5 62t48 42t48 34t29.5 38q3 6 5.5 16.5t1.5 16.5q0 10 -3.5 17t-15.5 7z" />
    <glyph glyph-name="threequarters" unicode="&#xbe;" horiz-adv-x="496" 
d="M149 640l4 23q11 55 41 75t77 20q56 0 74 -23.5t7 -82.5q-3 -17 -12 -37.5t-28 -27.5l-1 -5q8 -3 12 -10t5 -16t0 -19t-3 -19q-6 -30 -15.5 -50t-24 -32t-34.5 -17.5t-48 -5.5q-24 0 -41.5 4.5t-28 15t-14 28.5t2.5 46l5 24h74l-6 -32q-6 -30 19 -30q19 0 26.5 15.5
t11.5 35.5q4 19 0 28t-30 10l11 54q26 0 33.5 9.5t11.5 28.5q2 9 3 18t-0.5 16.5t-6 12t-14.5 4.5q-11 0 -20 -8t-11 -22l-6 -31h-74zM466 750h66l-316 -750h-67zM482 96l-19 -96h-75l20 96h-102l11 54l123 190h91l-39 -190h13l-10 -54h-13zM418 150l27 131l-84 -131h57z
" />
    <glyph glyph-name="questiondown" unicode="&#xbf;" horiz-adv-x="459" 
d="M402 710h128l-26 -128h-128zM391 553h87q-11 -55 -33 -95t-49 -70t-56 -53.5t-54 -46t-44 -46.5t-25 -55q-9 -48 -3 -69t40 -21q52 0 64 57l10 51h150l-10 -48q-13 -64 -34.5 -104.5t-52 -63t-70 -31t-88.5 -8.5t-86 8.5t-59.5 33t-28.5 68.5t8 115q12 58 39 98.5t62 71
t73 53.5t71.5 45.5t57.5 48.5t31 61z" />
    <glyph glyph-name="Agrave" unicode="&#xc0;" horiz-adv-x="518" 
d="M323 924h130l23 -142h-97zM278 750h262l-38 -750h-168l21 211h-107l-64 -211h-168zM279 330h93l25 294h-26z" />
    <glyph glyph-name="Aacute" unicode="&#xc1;" horiz-adv-x="518" 
d="M439 924h130l-114 -142h-97zM278 750h262l-38 -750h-168l21 211h-107l-64 -211h-168zM279 330h93l25 294h-26z" />
    <glyph glyph-name="Acircumflex" unicode="&#xc2;" horiz-adv-x="518" 
d="M386 924h117l83 -142h-107l-49 63h-3l-75 -63h-108zM278 750h262l-38 -750h-168l21 211h-107l-64 -211h-168zM279 330h93l25 294h-26z" />
    <glyph glyph-name="Atilde" unicode="&#xc3;" horiz-adv-x="518" 
d="M348 782h-79q7 31 18.5 51.5t26 33t31 17.5t33.5 5q27 0 53 -7t45 -7q11 0 19.5 8t10.5 19h79q-13 -61 -43.5 -84.5t-64.5 -23.5q-27 0 -53 7t-45 7q-11 0 -19.5 -7.5t-11.5 -18.5zM278 750h262l-38 -750h-168l21 211h-107l-64 -211h-168zM279 330h93l25 294h-26z" />
    <glyph glyph-name="Adieresis" unicode="&#xc4;" horiz-adv-x="518" 
d="M549 773h-118l24 118h117zM396 773h-117l23 118h118zM278 750h262l-38 -750h-168l21 211h-107l-64 -211h-168zM279 330h93l25 294h-26z" />
    <glyph glyph-name="Aring" unicode="&#xc5;" horiz-adv-x="518" 
d="M337 876q8 43 41 70t76 27q42 0 63.5 -27t13.5 -70q-8 -42 -41 -69.5t-75 -27.5q-43 0 -64.5 27.5t-13.5 69.5zM379 876q-5 -24 7.5 -39t36.5 -15t42 15t23 39t-7 39.5t-36 15.5t-42.5 -15.5t-23.5 -39.5zM278 750h262l-38 -750h-168l21 211h-107l-64 -211h-168zM279 330
h93l25 294h-26z" />
    <glyph glyph-name="AE" unicode="&#xc6;" horiz-adv-x="694" 
d="M278 750h542l-25 -126h-233l-38 -190h208l-24 -118h-208l-37 -190h232l-25 -126h-398l43 211h-67l-64 -211h-168zM279 330h59l59 294h-26z" />
    <glyph glyph-name="Ccedilla" unicode="&#xc7;" 
d="M139 558q22 107 95 154.5t183 47.5q55 0 97 -11.5t67.5 -36t34.5 -62.5t-2 -92l-22 -110h-165l24 120q6 27 -8 46.5t-51 19.5q-36 0 -58 -19.5t-28 -46.5l-77 -385q-5 -28 9 -47.5t51 -19.5q36 0 58 20t27 47l24 120h165l-22 -110q-19 -96 -78 -143.5t-150 -57.5
q24 -29 16 -67q-4 -21 -17 -41t-32.5 -36t-45 -25.5t-54.5 -9.5q-17 0 -39 5l28 99q33 -3 49.5 10t19.5 30q5 21 -8 34q-94 7 -138.5 55t-25.5 147z" />
    <glyph glyph-name="Egrave" unicode="&#xc8;" horiz-adv-x="452" 
d="M295 924h130l23 -142h-97zM181 750h397l-25 -126h-232l-38 -190h207l-24 -118h-207l-38 -190h233l-26 -126h-397z" />
    <glyph glyph-name="Eacute" unicode="&#xc9;" horiz-adv-x="452" 
d="M402 924h130l-114 -142h-96zM181 750h397l-25 -126h-232l-38 -190h207l-24 -118h-207l-38 -190h233l-26 -126h-397z" />
    <glyph glyph-name="Ecircumflex" unicode="&#xca;" horiz-adv-x="452" 
d="M356 924h117l84 -142h-108l-48 63h-4l-75 -63h-107zM181 750h397l-25 -126h-232l-38 -190h207l-24 -118h-207l-38 -190h233l-26 -126h-397z" />
    <glyph glyph-name="Edieresis" unicode="&#xcb;" horiz-adv-x="452" 
d="M521 782h-118l24 118h118zM368 782h-117l24 118h118zM181 750h397l-25 -126h-232l-38 -190h207l-24 -118h-207l-38 -190h233l-26 -126h-397z" />
    <glyph glyph-name="Igrave" unicode="&#xcc;" horiz-adv-x="227" 
d="M169 924h130l23 -142h-97zM181 750h165l-150 -750h-165z" />
    <glyph glyph-name="Iacute" unicode="&#xcd;" horiz-adv-x="227" 
d="M305 924h130l-114 -142h-97zM181 750h165l-150 -750h-165z" />
    <glyph glyph-name="Icircumflex" unicode="&#xce;" horiz-adv-x="227" 
d="M241 924h117l83 -142h-107l-49 63h-3l-75 -63h-108zM181 750h165l-150 -750h-165z" />
    <glyph glyph-name="Idieresis" unicode="&#xcf;" horiz-adv-x="227" 
d="M404 782h-117l24 118h118zM252 782h-118l25 118h117zM181 750h165l-150 -750h-165z" />
    <glyph glyph-name="Eth" unicode="&#xd0;" horiz-adv-x="564" 
d="M211 750h237q111 0 165 -47.5t33 -154.5l-69 -345q-22 -108 -95 -155.5t-184 -47.5h-237l64 323h-49l24 118h49zM290 323l-39 -197h73q37 0 58.5 20t27.5 47l73 365q5 27 -9 46.5t-51 19.5h-72l-37 -183h70l-24 -118h-70z" />
    <glyph glyph-name="Ntilde" unicode="&#xd1;" horiz-adv-x="537" 
d="M367 782h-78q6 31 17.5 51.5t26 33t31.5 17.5t33 5q27 0 53 -7t45 -7q11 0 19.5 8t11.5 19h78q-13 -61 -43.5 -84.5t-64.5 -23.5q-27 0 -53 7t-44 7q-11 0 -19.5 -7.5t-12.5 -18.5zM181 750h165l48 -481l97 481h165l-150 -750h-165l-49 482l-96 -482h-165z" />
    <glyph glyph-name="Ograve" unicode="&#xd2;" 
d="M455 924l22 -142h-96l-56 142h130zM139 558q22 107 95 154.5t183 47.5q55 0 97 -11.5t67.5 -36t34.5 -62.5t-2 -92l-73 -365q-21 -108 -94.5 -155.5t-183.5 -47.5q-55 0 -96.5 11.5t-67.5 36.5t-34.5 63t1.5 92zM229 183q-5 -28 9 -47.5t51 -19.5q36 0 58 20t27 47
l77 385q6 27 -8 46.5t-51 19.5q-36 0 -58 -19.5t-28 -46.5z" />
    <glyph glyph-name="Oacute" unicode="&#xd3;" 
d="M582 924l-114 -142h-97l81 142h130zM139 558q22 107 95 154.5t183 47.5q55 0 97 -11.5t67.5 -36t34.5 -62.5t-2 -92l-73 -365q-21 -108 -94.5 -155.5t-183.5 -47.5q-55 0 -96.5 11.5t-67.5 36.5t-34.5 63t1.5 92zM229 183q-5 -28 9 -47.5t51 -19.5q36 0 58 20t27 47
l77 385q6 27 -8 46.5t-51 19.5q-36 0 -58 -19.5t-28 -46.5z" />
    <glyph glyph-name="Ocircumflex" unicode="&#xd4;" 
d="M509 924l83 -142h-107l-49 63h-3l-75 -63h-108l142 142h117zM139 558q22 107 95 154.5t183 47.5q55 0 97 -11.5t67.5 -36t34.5 -62.5t-2 -92l-73 -365q-21 -108 -94.5 -155.5t-183.5 -47.5q-55 0 -96.5 11.5t-67.5 36.5t-34.5 63t1.5 92zM229 183q-5 -28 9 -47.5
t51 -19.5q36 0 58 20t27 47l77 385q6 27 -8 46.5t-51 19.5q-36 0 -58 -19.5t-28 -46.5z" />
    <glyph glyph-name="Otilde" unicode="&#xd5;" 
d="M276 782q6 31 17.5 51.5t26 33t31.5 17.5t33 5q27 0 53 -7t45 -7q11 0 19.5 8t11.5 19h78q-13 -61 -43.5 -84.5t-64.5 -23.5q-27 0 -53 7t-44 7q-11 0 -19.5 -7.5t-12.5 -18.5h-78zM139 558q22 107 95 154.5t183 47.5q55 0 97 -11.5t67.5 -36t34.5 -62.5t-2 -92l-73 -365
q-21 -108 -94.5 -155.5t-183.5 -47.5q-55 0 -96.5 11.5t-67.5 36.5t-34.5 63t1.5 92zM229 183q-5 -28 9 -47.5t51 -19.5q36 0 58 20t27 47l77 385q6 27 -8 46.5t-51 19.5q-36 0 -58 -19.5t-28 -46.5z" />
    <glyph glyph-name="Odieresis" unicode="&#xd6;" 
d="M439 782l24 118h118l-25 -118h-117zM286 782l25 118h117l-24 -118h-118zM139 558q22 107 95 154.5t183 47.5q55 0 97 -11.5t67.5 -36t34.5 -62.5t-2 -92l-73 -365q-21 -108 -94.5 -155.5t-183.5 -47.5q-55 0 -96.5 11.5t-67.5 36.5t-34.5 63t1.5 92zM229 183
q-5 -28 9 -47.5t51 -19.5q36 0 58 20t27 47l77 385q6 27 -8 46.5t-51 19.5q-36 0 -58 -19.5t-28 -46.5z" />
    <glyph glyph-name="multiply" unicode="&#xd7;" horiz-adv-x="497" 
d="M340 457l165 144l71 -81l-171 -149l111 -150l-103 -80l-107 143l-166 -143l-71 80l171 150l-111 149l103 81z" />
    <glyph glyph-name="Oslash" unicode="&#xd8;" horiz-adv-x="533" 
d="M140 558q11 54 35 92t59.5 62.5t82 36t101.5 11.5t96.5 -11.5t67.5 -36t35 -62.5t-2 -92l-73 -365q-22 -108 -95 -155.5t-183 -47.5q-55 0 -97 11.5t-67.5 36.5t-34.5 63t2 92zM230 183q-5 -28 9 -47.5t50 -19.5q37 0 59 20t27 47l77 385q5 27 -8.5 46.5t-50.5 19.5
t-59 -19.5t-27 -46.5zM611 760l-471 -770h-68l471 770h68z" />
    <glyph glyph-name="Ugrave" unicode="&#xd9;" horiz-adv-x="533" 
d="M324 924h130l22 -142h-96zM179 750h165l-114 -567q-5 -28 9 -47.5t51 -19.5q36 0 58 20t27 47l114 567h165l-112 -557q-21 -108 -94.5 -155.5t-183.5 -47.5q-55 0 -96.5 11.5t-67.5 36.5t-34.5 63t1.5 92z" />
    <glyph glyph-name="Uacute" unicode="&#xda;" horiz-adv-x="533" 
d="M448 924h130l-114 -142h-97zM179 750h165l-114 -567q-5 -28 9 -47.5t51 -19.5q36 0 58 20t27 47l114 567h165l-112 -557q-21 -108 -94.5 -155.5t-183.5 -47.5q-55 0 -96.5 11.5t-67.5 36.5t-34.5 63t1.5 92z" />
    <glyph glyph-name="Ucircumflex" unicode="&#xdb;" horiz-adv-x="533" 
d="M393 924h117l84 -142h-108l-48 63h-4l-75 -63h-107zM179 750h165l-114 -567q-5 -28 9 -47.5t51 -19.5q36 0 58 20t27 47l114 567h165l-112 -557q-21 -108 -94.5 -155.5t-183.5 -47.5q-55 0 -96.5 11.5t-67.5 36.5t-34.5 63t1.5 92z" />
    <glyph glyph-name="Udieresis" unicode="&#xdc;" horiz-adv-x="533" 
d="M556 782h-118l25 118h117zM404 782h-117l24 118h118zM179 750h165l-114 -567q-5 -28 9 -47.5t51 -19.5q36 0 58 20t27 47l114 567h165l-112 -557q-21 -108 -94.5 -155.5t-183.5 -47.5q-55 0 -96.5 11.5t-67.5 36.5t-34.5 63t1.5 92z" />
    <glyph glyph-name="Yacute" unicode="&#xdd;" horiz-adv-x="554" 
d="M593 924l-114 -142h-97l81 142h130zM341 750l20 -330l151 330h173l-278 -510l-48 -240h-165l48 240l-73 510h172z" />
    <glyph glyph-name="Thorn" unicode="&#xde;" horiz-adv-x="535" 
d="M346 750l-26 -131h74q125 0 173 -54.5t24 -175.5q-25 -123 -94.5 -179.5t-199.5 -56.5h-71l-30 -153h-165l150 750h165zM295 493l-43 -214h70q35 0 58.5 17t31.5 43q3 8 6 20.5t5.5 26t4.5 26.5t3 21q2 26 -13.5 43t-50.5 17h-72z" />
    <glyph glyph-name="germandbls" unicode="&#xdf;" horiz-adv-x="1048" 
d="M644 537q12 59 37.5 101.5t62.5 69.5t84.5 39.5t103.5 12.5q59 0 101.5 -11.5t67.5 -38t32 -69t-5 -104.5q-2 -8 -3.5 -16t-3.5 -16h-165q1 4 2.5 13.5t3.5 14.5q4 20 4.5 38t-5 32t-18.5 22.5t-36 8.5q-33 0 -59 -19.5t-34 -54.5q-7 -38 12 -61t51.5 -40.5t70.5 -34.5
t69 -43t46.5 -65.5t3.5 -102.5q-24 -118 -100 -170.5t-189 -52.5q-59 0 -101.5 11.5t-67.5 38t-31.5 69t5.5 104.5q2 8 3.5 16t3.5 16h165q-2 -4 -3.5 -13.5t-2.5 -14.5q-4 -19 -5 -37.5t4.5 -32.5t18.5 -22.5t37 -8.5q37 0 61.5 22t32.5 59q6 28 -4 47.5t-30 34t-46.5 26
t-54 24.5t-53 29.5t-43.5 40.5t-25 57.5t2 80.5zM132 537q12 59 37.5 101.5t62.5 69.5t84.5 39.5t103.5 12.5q59 0 101.5 -11.5t67.5 -38t32 -69t-5 -104.5l-4 -16l-4 -16h-165q2 4 3.5 13.5t2.5 14.5q4 20 4.5 38t-4.5 32t-18 22.5t-36 8.5q-34 0 -60 -19.5t-33 -54.5
q-7 -38 12 -61t51.5 -40.5t70.5 -34.5t68.5 -43t46.5 -65.5t3 -102.5q-12 -59 -37.5 -101.5t-62.5 -69.5t-84.5 -39.5t-103.5 -12.5q-59 0 -101.5 11.5t-67.5 38t-32 69t5 104.5q2 8 3.5 16t3.5 16h165q-1 -4 -2.5 -13.5t-2.5 -14.5q-4 -19 -5 -37.5t4.5 -32.5t18.5 -22.5
t36 -8.5q37 0 62 22t33 59q6 28 -4 47.5t-30 34t-46.5 26t-54 24.5t-53.5 29.5t-43.5 40.5t-25 57.5t2.5 80.5z" />
    <glyph glyph-name="agrave" unicode="&#xe0;" horiz-adv-x="518" 
d="M323 924h130l23 -142h-97zM278 750h262l-38 -750h-168l21 211h-107l-64 -211h-168zM279 330h93l25 294h-26z" />
    <glyph glyph-name="aacute" unicode="&#xe1;" horiz-adv-x="518" 
d="M439 924h130l-114 -142h-97zM278 750h262l-38 -750h-168l21 211h-107l-64 -211h-168zM279 330h93l25 294h-26z" />
    <glyph glyph-name="acircumflex" unicode="&#xe2;" horiz-adv-x="518" 
d="M386 924h117l83 -142h-107l-49 63h-3l-75 -63h-108zM278 750h262l-38 -750h-168l21 211h-107l-64 -211h-168zM279 330h93l25 294h-26z" />
    <glyph glyph-name="atilde" unicode="&#xe3;" horiz-adv-x="518" 
d="M348 782h-79q7 31 18.5 51.5t26 33t31 17.5t33.5 5q27 0 53 -7t45 -7q11 0 19.5 8t10.5 19h79q-13 -61 -43.5 -84.5t-64.5 -23.5q-27 0 -53 7t-45 7q-11 0 -19.5 -7.5t-11.5 -18.5zM278 750h262l-38 -750h-168l21 211h-107l-64 -211h-168zM279 330h93l25 294h-26z" />
    <glyph glyph-name="adieresis" unicode="&#xe4;" horiz-adv-x="518" 
d="M549 773h-118l24 118h117zM396 773h-117l23 118h118zM278 750h262l-38 -750h-168l21 211h-107l-64 -211h-168zM279 330h93l25 294h-26z" />
    <glyph glyph-name="aring" unicode="&#xe5;" horiz-adv-x="518" 
d="M337 876q8 43 41 70t76 27q42 0 63.5 -27t13.5 -70q-8 -42 -41 -69.5t-75 -27.5q-43 0 -64.5 27.5t-13.5 69.5zM379 876q-5 -24 7.5 -39t36.5 -15t42 15t23 39t-7 39.5t-36 15.5t-42.5 -15.5t-23.5 -39.5zM278 750h262l-38 -750h-168l21 211h-107l-64 -211h-168zM279 330
h93l25 294h-26z" />
    <glyph glyph-name="ae" unicode="&#xe6;" horiz-adv-x="694" 
d="M278 750h542l-25 -126h-233l-38 -190h208l-24 -118h-208l-37 -190h232l-25 -126h-398l43 211h-67l-64 -211h-168zM279 330h59l59 294h-26z" />
    <glyph glyph-name="ccedilla" unicode="&#xe7;" horiz-adv-x="527" 
d="M137 558q22 107 95 154.5t183 47.5q55 0 97 -11.5t67.5 -36t34.5 -62.5t-2 -92l-22 -110h-165l24 120q6 27 -8 46.5t-51 19.5q-36 0 -58 -19.5t-28 -46.5l-77 -385q-5 -28 9 -47.5t51 -19.5q36 0 58 20t27 47l24 120h165l-22 -110q-19 -96 -78 -143.5t-150 -57.5
q24 -29 16 -67q-4 -21 -17 -41t-32.5 -36t-45 -25.5t-54.5 -9.5q-17 0 -39 5l28 99q33 -3 49.5 10t19.5 30q5 21 -8 34q-94 7 -138.5 55t-25.5 147z" />
    <glyph glyph-name="egrave" unicode="&#xe8;" horiz-adv-x="452" 
d="M295 924h130l23 -142h-97zM181 750h397l-25 -126h-232l-38 -190h207l-24 -118h-207l-38 -190h233l-26 -126h-397z" />
    <glyph glyph-name="eacute" unicode="&#xe9;" horiz-adv-x="452" 
d="M402 924h130l-114 -142h-96zM181 750h397l-25 -126h-232l-38 -190h207l-24 -118h-207l-38 -190h233l-26 -126h-397z" />
    <glyph glyph-name="ecircumflex" unicode="&#xea;" horiz-adv-x="452" 
d="M356 924h117l84 -142h-108l-48 63h-4l-75 -63h-107zM181 750h397l-25 -126h-232l-38 -190h207l-24 -118h-207l-38 -190h233l-26 -126h-397z" />
    <glyph glyph-name="edieresis" unicode="&#xeb;" horiz-adv-x="452" 
d="M521 782h-118l24 118h118zM368 782h-117l24 118h118zM181 750h397l-25 -126h-232l-38 -190h207l-24 -118h-207l-38 -190h233l-26 -126h-397z" />
    <glyph glyph-name="igrave" unicode="&#xec;" horiz-adv-x="227" 
d="M168 924h130l23 -142h-97zM181 750h165l-150 -750h-165z" />
    <glyph glyph-name="iacute" unicode="&#xed;" horiz-adv-x="227" 
d="M302 924h130l-114 -142h-96zM181 750h165l-150 -750h-165z" />
    <glyph glyph-name="icircumflex" unicode="&#xee;" horiz-adv-x="227" 
d="M240 924h117l83 -142h-107l-49 63h-3l-75 -63h-108zM181 750h165l-150 -750h-165z" />
    <glyph glyph-name="idieresis" unicode="&#xef;" horiz-adv-x="227" 
d="M404 782h-117l24 118h118zM252 782h-118l25 118h117zM181 750h165l-150 -750h-165z" />
    <glyph glyph-name="eth" unicode="&#xf0;" horiz-adv-x="532" 
d="M234 -10q-81 0 -126 44t-47 120q-1 19 1 38t6 40q3 15 7 29t8 27q29 81 91 122.5t143 46.5q30 0 47 -13q2 56 -13 105l-133 -34l-4 78l116 30q-12 29 -28 51t-36 36l78 48q40 -12 72 -38.5t56 -62.5l151 38l4 -78l-118 -31q28 -71 31 -150.5t-13 -157.5
q-11 -59 -33 -111.5t-57.5 -91.5t-85.5 -62t-117 -23zM313 337q-22 0 -37 -10.5t-24.5 -27t-14 -36t-7.5 -37.5q-5 -20 -6 -35q-7 -42 5.5 -58.5t39.5 -16.5q24 0 43 16.5t29 52.5q3 12 6 25.5t6 27.5l5 26q5 31 -4 52t-41 21z" />
    <glyph glyph-name="ntilde" unicode="&#xf1;" horiz-adv-x="537" 
d="M367 782h-78q6 31 17.5 51.5t26 33t31.5 17.5t33 5q27 0 53 -7t45 -7q11 0 19.5 8t11.5 19h78q-13 -61 -43.5 -84.5t-64.5 -23.5q-27 0 -53 7t-44 7q-11 0 -19.5 -7.5t-12.5 -18.5zM181 750h165l48 -481l97 481h165l-150 -750h-165l-49 482l-96 -482h-165z" />
    <glyph glyph-name="ograve" unicode="&#xf2;" 
d="M455 924l22 -142h-96l-56 142h130zM139 558q22 107 95 154.5t183 47.5q55 0 97 -11.5t67.5 -36t34.5 -62.5t-2 -92l-73 -365q-21 -108 -94.5 -155.5t-183.5 -47.5q-55 0 -96.5 11.5t-67.5 36.5t-34.5 63t1.5 92zM229 183q-5 -28 9 -47.5t51 -19.5q36 0 58 20t27 47
l77 385q6 27 -8 46.5t-51 19.5q-36 0 -58 -19.5t-28 -46.5z" />
    <glyph glyph-name="oacute" unicode="&#xf3;" 
d="M582 924l-114 -142h-97l81 142h130zM139 558q22 107 95 154.5t183 47.5q55 0 97 -11.5t67.5 -36t34.5 -62.5t-2 -92l-73 -365q-21 -108 -94.5 -155.5t-183.5 -47.5q-55 0 -96.5 11.5t-67.5 36.5t-34.5 63t1.5 92zM229 183q-5 -28 9 -47.5t51 -19.5q36 0 58 20t27 47
l77 385q6 27 -8 46.5t-51 19.5q-36 0 -58 -19.5t-28 -46.5z" />
    <glyph glyph-name="ocircumflex" unicode="&#xf4;" 
d="M509 924l83 -142h-107l-49 63h-3l-75 -63h-108l142 142h117zM139 558q22 107 95 154.5t183 47.5q55 0 97 -11.5t67.5 -36t34.5 -62.5t-2 -92l-73 -365q-21 -108 -94.5 -155.5t-183.5 -47.5q-55 0 -96.5 11.5t-67.5 36.5t-34.5 63t1.5 92zM229 183q-5 -28 9 -47.5
t51 -19.5q36 0 58 20t27 47l77 385q6 27 -8 46.5t-51 19.5q-36 0 -58 -19.5t-28 -46.5z" />
    <glyph glyph-name="otilde" unicode="&#xf5;" 
d="M276 782q6 31 17.5 51.5t26 33t31.5 17.5t33 5q27 0 53 -7t45 -7q11 0 19.5 8t11.5 19h78q-13 -61 -43.5 -84.5t-64.5 -23.5q-27 0 -53 7t-44 7q-11 0 -19.5 -7.5t-12.5 -18.5h-78zM139 558q22 107 95 154.5t183 47.5q55 0 97 -11.5t67.5 -36t34.5 -62.5t-2 -92l-73 -365
q-21 -108 -94.5 -155.5t-183.5 -47.5q-55 0 -96.5 11.5t-67.5 36.5t-34.5 63t1.5 92zM229 183q-5 -28 9 -47.5t51 -19.5q36 0 58 20t27 47l77 385q6 27 -8 46.5t-51 19.5q-36 0 -58 -19.5t-28 -46.5z" />
    <glyph glyph-name="odieresis" unicode="&#xf6;" 
d="M439 782l24 118h118l-25 -118h-117zM286 782l25 118h117l-24 -118h-118zM139 558q22 107 95 154.5t183 47.5q55 0 97 -11.5t67.5 -36t34.5 -62.5t-2 -92l-73 -365q-21 -108 -94.5 -155.5t-183.5 -47.5q-55 0 -96.5 11.5t-67.5 36.5t-34.5 63t1.5 92zM229 183
q-5 -28 9 -47.5t51 -19.5q36 0 58 20t27 47l77 385q6 27 -8 46.5t-51 19.5q-36 0 -58 -19.5t-28 -46.5z" />
    <glyph glyph-name="divide" unicode="&#xf7;" horiz-adv-x="391" 
d="M224 462l26 128h128l-26 -128h-128zM86 294l24 118h337l-24 -118h-337zM309 244l-26 -128h-128l25 128h129z" />
    <glyph glyph-name="oslash" unicode="&#xf8;" horiz-adv-x="533" 
d="M140 558q11 54 35 92t59.5 62.5t82 36t101.5 11.5t96.5 -11.5t67.5 -36t35 -62.5t-2 -92l-73 -365q-22 -108 -95 -155.5t-183 -47.5q-55 0 -97 11.5t-67.5 36.5t-34.5 63t2 92zM230 183q-5 -28 9 -47.5t50 -19.5q37 0 59 20t27 47l77 385q5 27 -8.5 46.5t-50.5 19.5
t-59 -19.5t-27 -46.5zM611 760l-471 -770h-68l471 770h68z" />
    <glyph glyph-name="ugrave" unicode="&#xf9;" horiz-adv-x="533" 
d="M324 924h130l22 -142h-96zM179 750h165l-114 -567q-5 -28 9 -47.5t51 -19.5q36 0 58 20t27 47l114 567h165l-112 -557q-21 -108 -94.5 -155.5t-183.5 -47.5q-55 0 -96.5 11.5t-67.5 36.5t-34.5 63t1.5 92z" />
    <glyph glyph-name="uacute" unicode="&#xfa;" horiz-adv-x="533" 
d="M448 924h130l-114 -142h-97zM179 750h165l-114 -567q-5 -28 9 -47.5t51 -19.5q36 0 58 20t27 47l114 567h165l-112 -557q-21 -108 -94.5 -155.5t-183.5 -47.5q-55 0 -96.5 11.5t-67.5 36.5t-34.5 63t1.5 92z" />
    <glyph glyph-name="ucircumflex" unicode="&#xfb;" horiz-adv-x="533" 
d="M393 924h117l84 -142h-108l-48 63h-4l-75 -63h-107zM179 750h165l-114 -567q-5 -28 9 -47.5t51 -19.5q36 0 58 20t27 47l114 567h165l-112 -557q-21 -108 -94.5 -155.5t-183.5 -47.5q-55 0 -96.5 11.5t-67.5 36.5t-34.5 63t1.5 92z" />
    <glyph glyph-name="udieresis" unicode="&#xfc;" horiz-adv-x="533" 
d="M556 782h-118l25 118h117zM404 782h-117l24 118h118zM179 750h165l-114 -567q-5 -28 9 -47.5t51 -19.5q36 0 58 20t27 47l114 567h165l-112 -557q-21 -108 -94.5 -155.5t-183.5 -47.5q-55 0 -96.5 11.5t-67.5 36.5t-34.5 63t1.5 92z" />
    <glyph glyph-name="yacute" unicode="&#xfd;" horiz-adv-x="554" 
d="M593 924l-114 -142h-97l81 142h130zM341 750l20 -330l151 330h173l-278 -510l-48 -240h-165l48 240l-73 510h172z" />
    <glyph glyph-name="thorn" unicode="&#xfe;" horiz-adv-x="535" 
d="M346 750l-26 -131h74q125 0 173 -54.5t24 -175.5q-25 -123 -94.5 -179.5t-199.5 -56.5h-71l-30 -153h-165l150 750h165zM295 493l-43 -214h70q35 0 58.5 17t31.5 43q3 8 6 20.5t5.5 26t4.5 26.5t3 21q2 26 -13.5 43t-50.5 17h-72z" />
    <glyph glyph-name="ydieresis" unicode="&#xff;" horiz-adv-x="554" 
d="M452 782l24 118h118l-24 -118h-118zM299 782l24 118h118l-24 -118h-118zM341 750l20 -330l151 330h173l-278 -510l-48 -240h-165l48 240l-73 510h172z" />
    <glyph glyph-name="Dcroat" unicode="&#x110;" horiz-adv-x="550" 
d="M197 750h237q55 0 97 -11.5t67.5 -36t34.5 -62.5t-2 -92l-69 -345q-21 -108 -94.5 -155.5t-183.5 -47.5h-237l64 323h-49l24 118h49zM276 323l-39 -197h73q36 0 58 20t27 47l73 365q6 27 -8 46.5t-51 19.5h-72l-37 -183h70l-24 -118h-70z" />
    <glyph glyph-name="dcroat" unicode="&#x111;" horiz-adv-x="550" 
d="M197 750h237q55 0 97 -11.5t67.5 -36t34.5 -62.5t-2 -92l-69 -345q-21 -108 -94.5 -155.5t-183.5 -47.5h-237l65 325h-49l23 118h50zM277 325l-40 -199h73q36 0 58 20t27 47l73 365q6 27 -8 46.5t-51 19.5h-72l-36 -181h77l-24 -118h-77z" />
    <glyph glyph-name="dotlessi" unicode="&#x131;" horiz-adv-x="227" 
d="M181 750h165l-150 -750h-165z" />
    <glyph glyph-name="Lslash" unicode="&#x141;" horiz-adv-x="509" 
d="M240 750h165l-61 -305l106 19l-23 -118l-107 -19l-40 -201h233l-26 -126h-397l60 298l-73 -12l24 118l72 13z" />
    <glyph glyph-name="lslash" unicode="&#x142;" horiz-adv-x="509" 
d="M240 750h165l-61 -305l106 19l-23 -118l-107 -19l-40 -201h233l-26 -126h-397l60 298l-73 -12l24 118l72 13z" />
    <glyph glyph-name="OE" unicode="&#x152;" horiz-adv-x="759" 
d="M139 558q11 55 37 93.5t63.5 62.5t86 35t103.5 11q26 0 50.5 -2.5t46.5 -7.5h359l-25 -126h-232l-38 -190h207l-24 -118h-207l-38 -190h233l-26 -126h-359q-23 -5 -49 -7.5t-52 -2.5q-55 0 -99 11t-72 35.5t-38.5 63t0.5 93.5zM229 183q-6 -33 15.5 -49.5t56.5 -16.5
q29 0 47 10.5t20 23.5l90 448q2 13 -11.5 24t-42.5 11q-35 0 -63 -17t-35 -49z" />
    <glyph glyph-name="oe" unicode="&#x153;" horiz-adv-x="759" 
d="M139 558q11 55 37 93.5t63.5 62.5t86 35t103.5 11q26 0 50.5 -2.5t46.5 -7.5h359l-25 -126h-232l-38 -190h207l-24 -118h-207l-38 -190h233l-26 -126h-359q-23 -5 -49 -7.5t-52 -2.5q-55 0 -99 11t-72 35.5t-38.5 63t0.5 93.5zM229 183q-6 -33 15.5 -49.5t56.5 -16.5
q29 0 47 10.5t20 23.5l90 448q2 13 -11.5 24t-42.5 11q-35 0 -63 -17t-35 -49z" />
    <glyph glyph-name="Scaron" unicode="&#x160;" horiz-adv-x="536" 
d="M280 928h108l50 -67h4l78 67h107l-145 -146h-117zM132 537q12 59 37.5 101.5t62.5 69.5t84.5 39.5t103.5 12.5q59 0 101.5 -11.5t67.5 -38t32 -69t-5 -104.5l-4 -16l-4 -16h-165q2 4 3.5 13.5t2.5 14.5q4 20 4.5 38t-4.5 32t-18 22.5t-36 8.5q-34 0 -60 -19.5t-33 -54.5
q-7 -38 12 -61t51.5 -40.5t70.5 -34.5t68.5 -43t46.5 -65.5t3 -102.5q-12 -59 -37.5 -101.5t-62.5 -69.5t-84.5 -39.5t-103.5 -12.5q-59 0 -101.5 11.5t-67.5 38t-32 69t5 104.5q2 8 3.5 16t3.5 16h165q-1 -4 -2.5 -13.5t-2.5 -14.5q-4 -19 -5 -37.5t4.5 -32.5t18.5 -22.5
t36 -8.5q37 0 62 22t33 59q6 28 -4 47.5t-30 34t-46.5 26t-54 24.5t-53.5 29.5t-43.5 40.5t-25 57.5t2.5 80.5z" />
    <glyph glyph-name="scaron" unicode="&#x161;" horiz-adv-x="536" 
d="M280 928h108l50 -67h4l78 67h107l-145 -146h-117zM132 537q12 59 37.5 101.5t62.5 69.5t84.5 39.5t103.5 12.5q59 0 101.5 -11.5t67.5 -38t32 -69t-5 -104.5l-4 -16l-4 -16h-165q2 4 3.5 13.5t2.5 14.5q4 20 4.5 38t-4.5 32t-18 22.5t-36 8.5q-34 0 -60 -19.5t-33 -54.5
q-7 -38 12 -61t51.5 -40.5t70.5 -34.5t68.5 -43t46.5 -65.5t3 -102.5q-12 -59 -37.5 -101.5t-62.5 -69.5t-84.5 -39.5t-103.5 -12.5q-59 0 -101.5 11.5t-67.5 38t-32 69t5 104.5q2 8 3.5 16t3.5 16h165q-1 -4 -2.5 -13.5t-2.5 -14.5q-4 -19 -5 -37.5t4.5 -32.5t18.5 -22.5
t36 -8.5q37 0 62 22t33 59q6 28 -4 47.5t-30 34t-46.5 26t-54 24.5t-53.5 29.5t-43.5 40.5t-25 57.5t2.5 80.5z" />
    <glyph glyph-name="Ydieresis" unicode="&#x178;" horiz-adv-x="554" 
d="M454 782l25 118h117l-24 -118h-118zM302 782l24 118h118l-25 -118h-117zM341 750l20 -330l151 330h173l-278 -510l-48 -240h-165l48 240l-73 510h172z" />
    <glyph glyph-name="Zcaron" unicode="&#x17d;" horiz-adv-x="458" 
d="M349 928l51 -67h3l78 67h108l-145 -146h-117l-85 146h107zM221 126h240l-25 -126h-414l24 123l341 501h-240l25 126h415l-25 -123z" />
    <glyph glyph-name="zcaron" unicode="&#x17e;" horiz-adv-x="458" 
d="M349 928l51 -67h3l78 67h108l-145 -146h-117l-85 146h107zM221 126h240l-25 -126h-414l24 123l341 501h-240l25 126h415l-25 -123z" />
    <glyph glyph-name="florin" unicode="&#x192;" horiz-adv-x="384" 
d="M112 434h83l25 124q22 107 95 154.5t183 47.5l-25 -126q-37 0 -59 -19.5t-27 -46.5l-27 -134h89l-23 -118h-89l-25 -123q-21 -107 -94.5 -155t-183.5 -48l25 126q37 0 59 19.5t27 47.5l27 133h-84z" />
    <glyph glyph-name="circumflex" unicode="&#x2c6;" horiz-adv-x="378" 
d="M397 750l85 -142h-108l-49 63h-4l-74 -63h-107l140 142h117z" />
    <glyph glyph-name="caron" unicode="&#x2c7;" horiz-adv-x="383" 
d="M275 750l51 -67h4l77 67h108l-144 -146h-117l-86 146h107z" />
    <glyph glyph-name="breve" unicode="&#x2d8;" horiz-adv-x="351" 
d="M241 750q-3 -13 -1.5 -28t9 -27.5t22 -21t38.5 -8.5t41.5 8.5t30 21t19.5 27.5t10 28h73q-6 -31 -22.5 -59.5t-41 -50t-56 -34.5t-69.5 -13q-37 0 -64 13t-43 34.5t-20.5 50t1.5 59.5h73z" />
    <glyph glyph-name="dotaccent" unicode="&#x2d9;" horiz-adv-x="153" 
d="M262 632h-118l24 118h118z" />
    <glyph glyph-name="ring" unicode="&#x2da;" horiz-adv-x="230" 
d="M152 671q9 42 41.5 69.5t74.5 27.5q43 0 65 -27.5t13 -69.5q-8 -43 -41 -70t-76 -27q-42 0 -63.5 27t-13.5 70zM195 671q-5 -24 7 -39.5t36 -15.5t42.5 15.5t23.5 39.5t-7.5 39t-36.5 15t-42 -15t-23 -39z" />
    <glyph glyph-name="ogonek" unicode="&#x2db;" horiz-adv-x="173" 
d="M139 1q-21 0 -36.5 -15t-19.5 -32q-3 -18 8.5 -32.5t44.5 -14.5l-22 -110q-35 0 -58.5 11.5t-36.5 30t-16.5 42.5t1.5 49q5 24 17.5 47.5t31.5 42t44 30t56 11.5z" />
    <glyph glyph-name="tilde" unicode="&#x2dc;" horiz-adv-x="323" 
d="M221 631h-79q14 61 44.5 84t63.5 23q27 0 53 -7t45 -7q11 0 19.5 7.5t11.5 18.5h79q-14 -61 -45 -84t-64 -23q-27 0 -53 7t-45 7q-11 0 -19.5 -7.5t-10.5 -18.5z" />
    <glyph glyph-name="hungarumlaut" unicode="&#x2dd;" horiz-adv-x="384" 
d="M283 507l100 193h123l-146 -193h-77zM119 507l100 193h124l-147 -193h-77z" />
    <glyph glyph-name="endash" unicode="&#x2013;" horiz-adv-x="387" 
d="M112 434h337l-23 -118h-338z" />
    <glyph glyph-name="emdash" unicode="&#x2014;" horiz-adv-x="475" 
d="M112 434h425l-24 -118h-425z" />
    <glyph glyph-name="quoteleft" unicode="&#x2018;" horiz-adv-x="179" 
d="M227 750h76l-69 -90h51l-25 -128h-128l24 127z" />
    <glyph glyph-name="quoteright" unicode="&#x2019;" horiz-adv-x="179" 
d="M209 532h-76l69 90h-52l26 128h128l-26 -127z" />
    <glyph glyph-name="quotesinglbase" unicode="&#x201a;" horiz-adv-x="182" 
d="M84 -90h-76l69 90h-51l26 128h128l-26 -126z" />
    <glyph glyph-name="quotedblleft" unicode="&#x201c;" horiz-adv-x="348" 
d="M227 750h76l-69 -90h51l-25 -128h-128l24 127zM396 750h77l-70 -90h52l-26 -128h-128l25 127z" />
    <glyph glyph-name="quotedblright" unicode="&#x201d;" horiz-adv-x="348" 
d="M378 532h-76l69 90h-51l25 128h129l-26 -127zM209 532h-76l69 90h-52l26 128h128l-26 -127z" />
    <glyph glyph-name="quotedblbase" unicode="&#x201e;" horiz-adv-x="351" 
d="M254 -90h-76l69 90h-52l26 128h128l-25 -126zM84 -90h-76l69 90h-51l26 128h128l-26 -126z" />
    <glyph glyph-name="dagger" unicode="&#x2020;" horiz-adv-x="352" 
d="M139 565h86l43 215h128l-43 -215h86l-24 -118h-86l-95 -477h-128l95 477h-86z" />
    <glyph glyph-name="daggerdbl" unicode="&#x2021;" horiz-adv-x="389" 
d="M197 328l25 128h-105l24 118h105l41 206h127l-41 -206h105l-23 -118h-105l-26 -128h105l-23 -118h-105l-49 -240h-127l48 240h-105l24 118h105z" />
    <glyph glyph-name="bullet" unicode="&#x2022;" horiz-adv-x="250" 
d="M101 375q4 21 15.5 39t28 31.5t36 21.5t39.5 8q41 0 64 -29t15 -71q-4 -20 -15.5 -38.5t-27.5 -32t-35.5 -21.5t-39.5 -8q-42 0 -65 29.5t-15 70.5z" />
    <glyph glyph-name="ellipsis" unicode="&#x2026;" horiz-adv-x="556" 
d="M156 0h-128l26 128h128zM342 0h-128l26 128h128zM528 0h-128l26 128h128z" />
    <glyph glyph-name="perthousand" unicode="&#x2030;" horiz-adv-x="774" 
d="M157 667q10 47 41.5 69t74.5 22t65.5 -22t13.5 -69l-33 -165q-9 -46 -41 -68.5t-75 -22.5t-65.5 22t-13.5 69zM532 750l-317 -750h-66l316 750h67zM261 701q-11 0 -18.5 -6.5t-9.5 -17.5l-37 -184q-2 -11 3 -18t16 -7q12 0 20 7t10 18l37 184q2 11 -3.5 17.5t-17.5 6.5z
M364 256q9 47 40.5 69t74.5 22t66 -22t13 -69l-33 -165q-8 -46 -40 -68.5t-75 -22.5t-65.5 22t-13.5 69zM606 256q10 47 41 69t75 22q43 0 66 -22t13 -69l-33 -165q-9 -46 -40.5 -68.5t-74.5 -22.5q-44 0 -66 22t-14 69zM468 290q-11 0 -18.5 -6.5t-10.5 -17.5l-36 -184
q-2 -11 2.5 -18t15.5 -7q12 0 20 7t10 18l37 184q2 11 -3 17.5t-17 6.5zM711 290q-11 0 -19 -6.5t-10 -17.5l-36 -184q-2 -11 2.5 -18t15.5 -7t19.5 7t10.5 18l36 184q3 11 -2.5 17.5t-16.5 6.5z" />
    <glyph glyph-name="guilsinglleft" unicode="&#x2039;" horiz-adv-x="292" 
d="M168 346l-1 -4l140 -163l-22 -109l-204 235l16 80l298 232l-22 -109z" />
    <glyph glyph-name="guilsinglright" unicode="&#x203a;" horiz-adv-x="292" 
d="M263 346l-141 162l22 109l206 -232l-17 -80l-299 -235l23 109l205 163z" />
    <glyph glyph-name="fraction" unicode="&#x2044;" horiz-adv-x="356" 
d="M348 750h131l-320 -750h-131z" />
    <glyph glyph-name="Euro" unicode="&#x20ac;" horiz-adv-x="454" 
d="M71 249l16 81h55l18 89h-55l16 81h55l18 88q10 49 28.5 81t45.5 50.5t60.5 26t73.5 7.5t71 -7.5t50 -26t25 -50.5t-4 -81l-4 -21h-128l5 23q5 23 -5.5 36t-31.5 13q-22 0 -37.5 -13t-20.5 -36l-18 -90h127l-16 -81h-127l-18 -89h127l-16 -81h-127l-18 -89q-5 -23 6 -36
t33 -13q21 0 36 13t20 36l5 23h128l-5 -20q-10 -49 -28.5 -81.5t-45.5 -51t-60.5 -26t-73.5 -7.5t-71 7.5t-50 26.5t-25 51t4 81l17 86h-55z" />
    <glyph glyph-name="trademark" unicode="&#x2122;" horiz-adv-x="471" 
d="M332 750l-9 -42h-54l-41 -208h-55l41 208h-53l9 42h162zM434 750l12 -147h2l70 147h79l-50 -250h-55l31 155l-75 -155h-44l-12 155l-31 -155h-55l50 250h78z" />
    <glyph glyph-name="minus" unicode="&#x2212;" horiz-adv-x="400" 
d="M112 434h350l-24 -118h-350z" />
    </font>
</defs>
</svg>
