<?xml version="1.0" standalone="no"?>
<!DOCTYPE svg PUBLIC "-//W3C//DTD SVG 1.1//EN" "http://www.w3.org/Graphics/SVG/1.1/DTD/svg11.dtd" >
<svg xmlns="http://www.w3.org/2000/svg" xmlns:xlink="http://www.w3.org/1999/xlink" version="1.1">
<metadata>
Created by FontForge 20201107 at Thu Jul 28 03:54:53 2022
 By 
Copyright (c) 2021 by Megatype. All rights reserved.
</metadata>
<defs>
<font id="ChandlerMountain-Bold" horiz-adv-x="531" >
  <font-face 
    font-family="Chandler Mountain Bold"
    font-weight="700"
    font-stretch="normal"
    units-per-em="1000"
    panose-1="0 0 0 0 0 0 0 0 0 0"
    ascent="800"
    descent="-200"
    x-height="750"
    cap-height="750"
    bbox="-58 -203 1024 973"
    underline-thickness="50"
    underline-position="-125"
    unicode-range="U+000D-FB02"
  />
<missing-glyph horiz-adv-x="376" 
 />
    <glyph glyph-name="fi" unicode="fi" horiz-adv-x="683" 
d="M31 750h397v-126h-232v-190h207v-118h-207v-316h-165v750zM484 750h165v-750h-165v750z" />
    <glyph glyph-name="fl" unicode="fl" horiz-adv-x="901" 
d="M31 750h397v-126h-232v-190h207v-118h-207v-316h-165v750zM482 750h165v-624h232v-126h-397v750z" />
    <glyph glyph-name=".notdef" horiz-adv-x="376" 
 />
    <glyph glyph-name=".null" horiz-adv-x="0" 
 />
    <glyph glyph-name=".null" horiz-adv-x="0" 
 />
    <glyph glyph-name="uni000D" unicode="&#xd;" horiz-adv-x="250" 
 />
    <glyph glyph-name="space" unicode=" " horiz-adv-x="239" 
 />
    <glyph glyph-name="exclam" unicode="!" horiz-adv-x="206" 
d="M28 750h150l-46 -593h-57zM167 0h-128v128h128v-128z" />
    <glyph glyph-name="quotedbl" unicode="&#x22;" horiz-adv-x="355" 
d="M331 750l-32 -237h-63l-32 237h127zM151 750l-32 -237h-63l-32 237h127z" />
    <glyph glyph-name="numbersign" unicode="#" horiz-adv-x="614" 
d="M93 535h84l37 164h114l-37 -164h105l37 164h114l-37 -164h82l-23 -104h-83l-25 -109h83l-23 -103h-83l-38 -168h-114l38 168h-105l-38 -168h-114l38 168h-83l23 103h83l25 109h-83zM267 431l-25 -109h105l25 109h-105z" />
    <glyph glyph-name="dollar" unicode="$" horiz-adv-x="427" 
d="M158 706v47h128v-50q55 -11 85.5 -51.5t30.5 -119.5v-19.5t-1 -19.5h-139v39q0 23 -12 38t-35 15q-30 0 -41 -18.5t-11 -44.5q0 -18 7 -30.5t19 -22.5t28 -18.5t34 -17.5q42 -21 71.5 -40.5t47.5 -44t26 -56.5t8 -77q0 -79 -32 -118t-86 -50v-50h-128v47q-63 8 -98 48.5
t-35 125.5q0 6 0.5 19.5t0.5 19.5h140q0 -6 -0.5 -19.5t-0.5 -18.5q0 -24 12.5 -39t35.5 -15q31 0 41.5 20.5t10.5 48.5q0 18 -8.5 30.5t-22 22.5t-31.5 19l-38 19q-40 20 -67 39.5t-43.5 43t-24 54.5t-7.5 73q0 85 37 124t98 47z" />
    <glyph glyph-name="percent" unicode="%" horiz-adv-x="567" 
d="M26 663q0 48 27.5 70.5t72.5 22.5q44 0 71.5 -22.5t27.5 -70.5v-172q0 -48 -27.5 -70.5t-71.5 -22.5q-45 0 -72.5 22.5t-27.5 70.5v172zM403 756l-167 -750h-71l167 750h71zM102 482q0 -10 6.5 -16.5t17.5 -6.5q10 0 15.5 6.5t5.5 16.5v190q0 10 -5.5 17t-15.5 7
q-11 0 -17.5 -6.5t-6.5 -17.5v-190zM343 266q0 47 27 69.5t72 22.5t72.5 -22.5t27.5 -69.5v-172q0 -48 -27.5 -71t-72.5 -23t-72 23t-27 71v172zM419 84q0 -10 6 -16.5t17 -6.5t16.5 6.5t5.5 16.5v190q0 10 -5.5 17t-16.5 7t-17 -6.5t-6 -17.5v-190z" />
    <glyph glyph-name="ampersand" unicode="&#x26;" horiz-adv-x="527" 
d="M51 550q0 57 11.5 97t36.5 64.5t65 35.5t97 11t97 -11t64.5 -35.5t36 -64.5t11.5 -97q0 -60 -16.5 -98t-58.5 -58q44 -21 74 -60.5t33 -102.5q2 -18 2.5 -53t0.5 -72v-69.5v-46.5h-165v22t-1 20q-31 -29 -91 -31q-6 -1 -11.5 -1h-11.5q-47 1 -84 11.5t-63 34.5
t-39.5 63.5t-13.5 98.5q0 23 4 50.5t13.5 54t26 47.5t41.5 31v8q-22 10 -34.5 26.5t-17.5 37t-6 43.5t-1 44zM261 615q-35 0 -42.5 -20t-7.5 -49v-29q0 -8 0.5 -15t0.5 -14q6 -40 49 -40q18 0 28 5.5t14.5 15.5t5.5 22.5t1 25.5v29q0 14 -1 26.5t-6 22t-14.5 15t-27.5 5.5z
M262 140q28 0 46.5 12t23.5 32q2 8 3.5 22.5t1.5 24.5q0 26 -16.5 50t-47.5 32q-10 4 -25 8t-28 9q-8 -4 -14 -14.5t-9.5 -24t-5 -29.5t-1.5 -30q0 -19 2.5 -36t10 -29.5t21.5 -19.5t38 -7z" />
    <glyph glyph-name="quotesingle" unicode="'" horiz-adv-x="175" 
d="M151 750l-32 -237h-63l-32 237h127z" />
    <glyph glyph-name="parenleft" unicode="(" horiz-adv-x="241" 
d="M29 595q0 48 15 78.5t40.5 47.5t60 23t74.5 6v-114q-32 0 -47 -15t-15 -37v-418q0 -22 15 -37t47 -15v-114q-40 0 -74.5 6t-60 23.5t-40.5 47.5t-15 78v440z" />
    <glyph glyph-name="parenright" unicode=")" horiz-adv-x="241" 
d="M213 595v-440q0 -48 -15 -78t-40.5 -47.5t-60.5 -23.5t-74 -6v114q32 0 46.5 15t14.5 37v418q0 22 -14.5 37t-46.5 15v114q39 0 74 -6t60.5 -23t40.5 -47.5t15 -78.5z" />
    <glyph glyph-name="asterisk" unicode="*" horiz-adv-x="330" 
d="M125 750h80l1 -75l75 28l25 -65l-79 -37l56 -61l-63 -52l-55 68l-57 -68l-62 52l58 62l-80 36l25 65l75 -27z" />
    <glyph glyph-name="plus" unicode="+" horiz-adv-x="380" 
d="M25 434h102v111h126v-111h102v-118h-102v-111h-126v111h-102v118z" />
    <glyph glyph-name="comma" unicode="," horiz-adv-x="182" 
d="M102 -90h-76l51 90h-51v128h128v-126z" />
    <glyph glyph-name="hyphen" unicode="-" horiz-adv-x="350" 
d="M25 434h300v-118h-300v118z" />
    <glyph glyph-name="period" unicode="." horiz-adv-x="184" 
d="M156 0h-128v128h128v-128z" />
    <glyph glyph-name="slash" unicode="/" horiz-adv-x="282" 
d="M133 750h128l-112 -750h-128z" />
    <glyph glyph-name="zero" unicode="0" horiz-adv-x="491" 
d="M28 560q0 50 16 87.5t45 62.5t68.5 37.5t87.5 12.5t88 -12.5t69 -37.5t45 -62.5t16 -87.5v-370q0 -50 -16 -87.5t-45 -62.5t-69 -37.5t-88 -12.5t-87.5 12.5t-68.5 37.5t-45 62.5t-16 87.5v370zM245 634q-25 0 -38.5 -16t-13.5 -40v-405q0 -25 13.5 -41t38.5 -16
q26 0 39.5 16t13.5 41v405q0 24 -13.5 40t-39.5 16z" />
    <glyph glyph-name="one" unicode="1" horiz-adv-x="293" 
d="M22 578v125l83 47h157v-750h-165v597z" />
    <glyph glyph-name="two" unicode="2" horiz-adv-x="498" 
d="M249 635q-28 0 -42.5 -17.5t-14.5 -43.5v-76h-165v52q0 61 15 101.5t43.5 64.5t69.5 34t94 10q58 0 100 -11t69.5 -37t40.5 -69t13 -108q0 -61 -20 -107t-50.5 -82.5t-65.5 -65t-65.5 -54t-50.5 -49.5t-20 -51h255v-126h-420v121q0 55 18.5 96.5t47 73.5t62 57.5t63 50.5
t51 50.5t25.5 58.5q4 14 4.5 37t-4.5 37q-4 21 -15.5 37t-37.5 16z" />
    <glyph glyph-name="three" unicode="3" horiz-adv-x="495" 
d="M23 498v52q0 61 15 101.5t43.5 64.5t69.5 34t94 10q61 0 104 -12t70 -40t39.5 -73t12.5 -110q0 -19 -2 -41.5t-9 -43.5t-18.5 -37t-31.5 -24v-8q20 -7 31.5 -23.5t18.5 -37t9 -43t2 -42.5q0 -65 -12.5 -110t-39.5 -72.5t-70 -40t-104 -12.5q-53 0 -94 10t-69.5 34
t-43.5 64.5t-15 101.5v53h165v-69q0 -32 14.5 -50t42.5 -18q21 0 33 9.5t18 25.5t7.5 36.5t1.5 42.5q0 23 -2 39t-10 26.5t-25 15.5t-47 5v118q30 0 47 5t25 15.5t10 27t2 38.5q0 20 -1.5 40t-7.5 37t-18 27.5t-33 10.5q-28 0 -42.5 -18.5t-14.5 -50.5v-68h-165z" />
    <glyph glyph-name="four" unicode="4" horiz-adv-x="479" 
d="M419 212v-212h-165v212h-233v120l199 418h199v-419h39v-119h-39zM254 331v291l-134 -291h134z" />
    <glyph glyph-name="five" unicode="5" horiz-adv-x="503" 
d="M456 750v-126h-262v-148q28 17 67 17q61 0 102 -14t66.5 -43.5t36.5 -75.5t11 -110q0 -66 -8.5 -114.5t-33 -81t-69 -48.5t-115.5 -16q-55 0 -96.5 10.5t-69.5 35.5t-42 65t-14 99v53h165v-76q0 -27 14.5 -44t42.5 -17q19 0 30.5 7t18 19t9 27t2.5 31v93q0 15 -2.5 30
t-9 26.5t-18 18.5t-30.5 7q-26 0 -42 -12.5t-15 -35.5h-165v423h427z" />
    <glyph glyph-name="six" unicode="6" horiz-adv-x="502" 
d="M28 558q0 51 16 89t45.5 63t70.5 37.5t91 12.5q103 0 163.5 -50.5t60.5 -149.5v-53h-165v68q0 26 -15 42.5t-45 16.5q-29 0 -43 -17t-14 -42v-127q20 16 58 16q116 0 171 -58.5t55 -173.5q0 -119 -53 -180.5t-173 -61.5q-50 0 -91 12.5t-70.5 37.5t-45.5 63.5t-16 89.5
v365zM250 338q-29 0 -43 -17t-14 -42v-104q0 -25 14 -42t43 -17q17 0 28.5 6t18.5 16t10 23t3 27v79q0 14 -3 26.5t-10 22.5t-18.5 16t-28.5 6z" />
    <glyph glyph-name="seven" unicode="7" horiz-adv-x="405" 
d="M63 0l150 624h-190v126h361v-123l-149 -627h-172z" />
    <glyph glyph-name="eight" unicode="8" horiz-adv-x="507" 
d="M25 216q0 20 2 43.5t9 45.5t20 40t34 26v9q-22 9 -34.5 27.5t-18.5 41t-7.5 46.5t-1.5 44q0 61 12 103t38.5 68.5t69 38t103.5 11.5q62 0 105.5 -11t71 -36.5t40 -68t12.5 -105.5q0 -20 -1.5 -44t-8 -46.5t-19 -41t-34.5 -27.5v-9q21 -8 34 -26t20 -40t9 -45.5t2 -43.5
q0 -63 -11.5 -106t-38 -70t-69 -38.5t-105.5 -11.5t-107.5 10.5t-72.5 36.5t-40.5 69.5t-12.5 109.5zM253 634q-27 0 -41.5 -14t-16.5 -37q-1 -9 -1.5 -24.5t0 -32.5t1.5 -32t4 -24q4 -16 14 -25.5t29 -9.5h23q19 0 28.5 9.5t13.5 25.5q3 9 4 24t1.5 32t0 32.5t-1.5 24.5
q-3 23 -17 37t-41 14zM196 278q-3 -10 -4.5 -26.5t-1.5 -34.5t1.5 -34.5t4.5 -26.5q5 -20 20.5 -30t36.5 -10t36 10t20 30q4 10 5.5 26.5t1.5 34.5t-2 34.5t-5 26.5q-3 15 -12.5 26.5t-29.5 11.5h-27q-20 0 -30.5 -11t-13.5 -27z" />
    <glyph glyph-name="nine" unicode="9" horiz-adv-x="502" 
d="M26 518q0 119 53 180.5t173 61.5q50 0 91 -12.5t70 -37.5t45.5 -63t16.5 -89v-365q0 -52 -16.5 -90t-45.5 -63t-70 -37.5t-91 -12.5q-103 0 -164 51t-61 149v53h165v-68q0 -26 15 -42.5t45 -16.5q29 0 43.5 17t14.5 42v128q-21 -17 -58 -17q-117 0 -171.5 58.5
t-54.5 173.5zM252 634q-34 0 -47 -22t-13 -49v-79q0 -28 13 -50t47 -22q29 0 43.5 17t14.5 42v104q0 25 -14.5 42t-43.5 17z" />
    <glyph glyph-name="colon" unicode=":" horiz-adv-x="184" 
d="M28 448h128v-128h-128v128zM28 128h128v-128h-128v128z" />
    <glyph glyph-name="semicolon" unicode=";" horiz-adv-x="182" 
d="M26 448h128v-128h-128v128zM26 128h128v-126l-52 -92h-76l51 90h-51v128z" />
    <glyph glyph-name="less" unicode="&#x3c;" horiz-adv-x="305" 
d="M25 432l255 107v-106l-179 -80v-17l179 -83v-106l-255 112v173z" />
    <glyph glyph-name="equal" unicode="=" horiz-adv-x="387" 
d="M25 484h337v-118h-337v118zM25 238h337v-118h-337v118z" />
    <glyph glyph-name="greater" unicode="&#x3e;" horiz-adv-x="305" 
d="M280 432v-173l-255 -112v106l179 83v17l-179 80v106z" />
    <glyph glyph-name="question" unicode="?" horiz-adv-x="459" 
d="M22 505v49q0 64 13.5 104t39.5 62.5t64 31t87 8.5t88 -8.5t66.5 -33t42 -68.5t14.5 -115q0 -58 -19 -98.5t-48 -71t-62 -53.5t-62 -45.5t-48 -48.5t-19 -61h-88q0 55 14 95t35 70t45 53.5t45 46t35 46.5t14 55q0 48 -10.5 69t-43.5 21q-25 0 -39 -14t-14 -43v-51h-150z
M199 0h-128v128h128v-128z" />
    <glyph glyph-name="at" unicode="@" horiz-adv-x="697" 
d="M28 370q0 90 18 160.5t58.5 119.5t106.5 74.5t161 25.5q81 0 138 -19t92 -57t51 -96.5t16 -137.5q0 -55 -6 -105.5t-26 -89.5t-58.5 -62t-103.5 -23h-132q-34 0 -58 4.5t-40 17.5t-23.5 36t-7.5 59v196q0 36 9 58.5t26 35t42.5 17t58.5 4.5h119v-315q0 -18 9 -28.5
t29 -10.5q34 0 53 20t28.5 49t11.5 61t2 57q0 66 -9 115.5t-34 82t-70 48.5t-117 16q-82 0 -135.5 -20.5t-85 -60.5t-44 -98.5t-12.5 -133.5q0 -64 13 -120.5t43 -97.5t79 -65t121 -24q35 0 70 5.5t68 16.5l20 -65q-38 -12 -78 -18.5t-80 -6.5q-87 0 -148 29t-100 79
t-57 119t-18 148zM315 272q0 -11 7 -16t18 -5h28v246h-22q-14 0 -22.5 -5.5t-8.5 -20.5v-199z" />
    <glyph glyph-name="A" unicode="A" horiz-adv-x="518" 
d="M128 750h262l112 -750h-168l-21 211h-108l-21 -211h-168zM213 330h93l-34 294h-26z" />
    <glyph glyph-name="B" unicode="B" horiz-adv-x="534" 
d="M268 750q118 0 181 -53t63 -156q0 -27 -2.5 -53.5t-9 -48.5t-18.5 -38t-31 -22v-8q20 -7 32 -24t18 -39t8 -47.5t2 -50.5q0 -109 -63 -159.5t-180 -50.5h-237v750h237zM288 441q26 0 38.5 12.5t15.5 29.5q2 8 3.5 20t1.5 25t-1.5 25t-3.5 19q-5 21 -22 36.5t-52 15.5h-72
v-183h92zM268 126q29 0 51 15t25 45q1 8 1.5 20.5t0.5 26.5t-0.5 27t-1.5 21q-2 23 -17.5 36t-38.5 13h-92v-204h72z" />
    <glyph glyph-name="C" unicode="C" 
d="M503 193q0 -54 -16.5 -92.5t-47.5 -63t-75 -36t-99 -11.5t-99 11.5t-74.5 36.5t-47 63t-16.5 92v365q0 54 16.5 92t47 62.5t74.5 36t99 11.5t99 -11.5t75 -36t47.5 -62.5t16.5 -92v-110h-165v120q0 27 -18 46.5t-55 19.5q-36 0 -54 -19.5t-18 -46.5v-385q0 -28 18 -47.5
t54 -19.5q37 0 55 20t18 47v120h165v-110z" />
    <glyph glyph-name="D" unicode="D" horiz-adv-x="534" 
d="M31 750h237q55 0 99 -11.5t75 -36t47.5 -62.5t16.5 -92v-345q0 -54 -16.5 -92.5t-47.5 -63t-75 -36t-99 -11.5h-237v750zM268 126q37 0 55 20t18 47v365q0 27 -18 46.5t-55 19.5h-72v-498h72z" />
    <glyph glyph-name="E" unicode="E" horiz-adv-x="452" 
d="M31 750h397v-126h-232v-190h207v-118h-207v-190h232v-126h-397v750z" />
    <glyph glyph-name="F" unicode="F" horiz-adv-x="451" 
d="M31 750h397v-126h-232v-190h207v-118h-207v-316h-165v750z" />
    <glyph glyph-name="G" unicode="G" horiz-adv-x="532" 
d="M28 558q0 54 16.5 92t47 62.5t74.5 36t99 11.5t99 -11.5t75 -36t47.5 -62.5t16.5 -92v-73h-165v83q0 27 -18 46.5t-55 19.5q-36 0 -54 -19.5t-18 -46.5v-385q0 -28 18 -47.5t54 -19.5q37 0 55 20t18 47v53h-58v119h223v-162q0 -54 -16.5 -92.5t-47.5 -63t-75 -36
t-99 -11.5t-99 11.5t-74.5 36.5t-47 63t-16.5 92v365z" />
    <glyph glyph-name="H" unicode="H" horiz-adv-x="537" 
d="M31 750h165v-316h145v316h165v-750h-165v316h-145v-316h-165v750z" />
    <glyph glyph-name="I" unicode="I" horiz-adv-x="232" 
d="M33 750h165v-750h-165v750z" />
    <glyph glyph-name="J" unicode="J" horiz-adv-x="318" 
d="M289 750v-547q0 -63 -16 -102.5t-44.5 -62t-69 -30.5t-89.5 -8h-49v126q16 0 34 1.5t33.5 7.5t25.5 18.5t10 33.5v563h165z" />
    <glyph glyph-name="K" unicode="K" horiz-adv-x="523" 
d="M31 750h165v-315h26l122 315h166l-142 -375l141 -375h-166l-121 316h-26v-316h-165v750z" />
    <glyph glyph-name="L" unicode="L" horiz-adv-x="450" 
d="M31 750h165v-624h232v-126h-397v750z" />
    <glyph glyph-name="M" unicode="M" horiz-adv-x="741" 
d="M259 750l110 -620h3l110 620h228v-750h-165v466l-95 -466h-160l-94 466v-466h-165v750h228z" />
    <glyph glyph-name="N" unicode="N" horiz-adv-x="537" 
d="M31 750h165l145 -481v481h165v-750h-165l-145 482v-482h-165v750z" />
    <glyph glyph-name="O" unicode="O" 
d="M28 558q0 54 16.5 92t47 62.5t74.5 36t99 11.5t99 -11.5t75 -36t47.5 -62.5t16.5 -92v-365q0 -54 -16.5 -92.5t-47.5 -63t-75 -36t-99 -11.5t-99 11.5t-74.5 36.5t-47 63t-16.5 92v365zM193 183q0 -28 18 -47.5t54 -19.5q37 0 55 20t18 47v385q0 27 -18 46.5t-55 19.5
q-36 0 -54 -19.5t-18 -46.5v-385z" />
    <glyph glyph-name="P" unicode="P" horiz-adv-x="535" 
d="M270 750q125 0 184 -54.5t59 -175.5q0 -123 -58 -179.5t-189 -56.5h-70v-284h-165v750h239zM196 624v-214h70q35 0 55 17t23 43q1 8 1.5 20.5t0.5 26t-0.5 26.5t-1.5 21q-3 26 -22 43t-54 17h-72z" />
    <glyph glyph-name="Q" unicode="Q" horiz-adv-x="536" 
d="M28 558q0 54 16.5 92t47 62.5t74.5 36t99 11.5t99 -11.5t75 -36t47.5 -62.5t16.5 -92v-365q0 -55 -17 -93.5t-49 -63.5l89 -69q-10 -8 -29 -23t-39 -30.5t-37.5 -29t-25.5 -19.5q-4 6 -19 24.5t-32 40t-32 40t-20 23.5q-12 -3 -27 -3q-55 0 -99 11.5t-74.5 36.5t-47 63
t-16.5 92v365zM265 634q-36 0 -54 -19.5t-18 -46.5v-385q0 -28 18 -47.5t54 -19.5q37 0 55 20t18 47v385q0 27 -18 46.5t-55 19.5z" />
    <glyph glyph-name="R" unicode="R" horiz-adv-x="529" 
d="M31 750h239q125 0 184 -54.5t59 -175.5q0 -85 -26.5 -138t-86.5 -76l105 -306h-157l-98 284h-14h-40v-284h-165v750zM266 410q35 0 55 17t23 43q5 47 0 94q-2 23 -18.5 40t-47.5 19q-3 1 -10 1h-72v-214h70z" />
    <glyph glyph-name="S" unicode="S" horiz-adv-x="536" 
d="M24 537q0 59 17 101.5t49 69.5t77 39.5t101 12.5q59 0 104 -11.5t75.5 -38t46 -69t15.5 -104.5q0 -8 -0.5 -16t-1.5 -16h-165q1 4 1 13.5v14.5q0 20 -3 38t-11 32t-23 22.5t-38 8.5q-34 0 -56 -19.5t-22 -54.5q0 -38 24 -61t59.5 -40.5t77.5 -34.5t77.5 -43t59.5 -65.5
t24 -102.5q0 -59 -17 -101.5t-49 -69.5t-77 -39.5t-101 -12.5q-59 0 -104 11.5t-75.5 38t-46 69t-15.5 104.5v16t1 16h165v-28q0 -19 3 -37.5t11 -32.5t22.5 -22.5t38.5 -8.5q37 0 57.5 22t20.5 59q0 38 -24 60t-59.5 39t-77.5 33t-77.5 41.5t-59.5 64.5t-24 102z" />
    <glyph glyph-name="T" unicode="T" horiz-adv-x="529" 
d="M507 750v-126h-160v-624h-165v624h-160v126h485z" />
    <glyph glyph-name="U" unicode="U" horiz-adv-x="533" 
d="M29 750h165v-567q0 -28 18 -47.5t54 -19.5q37 0 55 20t18 47v567h165v-557q0 -54 -16.5 -92.5t-47.5 -63t-75 -36t-99 -11.5t-99 11.5t-74.5 36.5t-47 63t-16.5 92v557z" />
    <glyph glyph-name="V" unicode="V" horiz-adv-x="539" 
d="M19 750h172l69 -624h19l69 624h172l-112 -750h-277z" />
    <glyph glyph-name="W" unicode="W" horiz-adv-x="822" 
d="M19 750h172l69 -624h19l53 624h159l52 -624h19l69 624h172l-112 -750h-231l-48 602h-2l-48 -602h-231z" />
    <glyph glyph-name="X" unicode="X" horiz-adv-x="550" 
d="M19 750h166l85 -308h11l84 308h166l-107 -375l106 -375h-166l-83 308h-11l-84 -308h-166l106 375z" />
    <glyph glyph-name="Y" unicode="Y" horiz-adv-x="554" 
d="M191 750l86 -330l85 330h173l-176 -510v-240h-165v240l-175 510h172z" />
    <glyph glyph-name="Z" unicode="Z" horiz-adv-x="458" 
d="M196 126h239v-126h-414v123l240 501h-240v126h415v-123z" />
    <glyph glyph-name="bracketleft" unicode="[" horiz-adv-x="281" 
d="M31 750h227v-115h-100v-520h100v-115h-227v750z" />
    <glyph glyph-name="backslash" unicode="\" horiz-adv-x="282" 
d="M149 750l112 -750h-128l-112 750h128z" />
    <glyph glyph-name="bracketright" unicode="]" horiz-adv-x="281" 
d="M250 750v-750h-227v115h100v520h-100v115h227z" />
    <glyph glyph-name="asciicircum" unicode="^" horiz-adv-x="338" 
d="M83 750h171l60 -276h-106l-32 200h-14l-32 -200h-106z" />
    <glyph glyph-name="underscore" unicode="_" horiz-adv-x="433" 
d="M22 -10h387v-89h-387v89z" />
    <glyph glyph-name="grave" unicode="`" horiz-adv-x="217" 
d="M18 750h130l51 -142h-96z" />
    <glyph glyph-name="a" unicode="a" horiz-adv-x="518" 
d="M128 750h262l112 -750h-168l-21 211h-108l-21 -211h-168q6 32 14.5 91t19 132t22 152t22 152t19.5 132t15 91zM213 330h93l-34 294h-26z" />
    <glyph glyph-name="b" unicode="b" horiz-adv-x="534" 
d="M268 750q118 0 181 -53t63 -156q0 -27 -2.5 -53.5t-9 -48.5t-18.5 -38t-31 -22v-8q20 -7 32 -24t18 -39t8 -47.5t2 -50.5q0 -109 -63 -159.5t-180 -50.5h-237v750h237zM288 441q26 0 38.5 12.5t15.5 29.5q2 8 3.5 20t1.5 25t-1.5 25t-3.5 19q-5 21 -22 36.5t-52 15.5h-72
v-183h92zM268 126q29 0 51 15t25 45q1 8 1.5 20.5t0.5 26.5t-0.5 27t-1.5 21q-2 23 -17.5 36t-38.5 13h-92v-204h72z" />
    <glyph glyph-name="c" unicode="c" 
d="M503 193q0 -54 -16.5 -92.5t-47.5 -63t-75 -36t-99 -11.5t-99 11.5t-74.5 36.5t-47 63t-16.5 92v365q0 54 16.5 92t47 62.5t74.5 36t99 11.5t99 -11.5t75 -36t47.5 -62.5t16.5 -92v-110h-165v120q0 27 -18 46.5t-55 19.5q-36 0 -54 -19.5t-18 -46.5v-385q0 -28 18 -47.5
t54 -19.5q37 0 55 20t18 47v120h165v-110z" />
    <glyph glyph-name="d" unicode="d" horiz-adv-x="532" 
d="M29 750h237q55 0 99 -11.5t75 -36t47.5 -62.5t16.5 -92v-345q0 -54 -16.5 -92.5t-47.5 -63t-75 -36t-99 -11.5h-237v750zM266 126q37 0 55 20t18 47v365q0 27 -18 46.5t-55 19.5h-72v-498h72z" />
    <glyph glyph-name="e" unicode="e" horiz-adv-x="452" 
d="M31 750h397v-126h-232v-190h207v-118h-207v-190h232v-126h-397v750z" />
    <glyph glyph-name="f" unicode="f" horiz-adv-x="451" 
d="M31 750h397v-126h-232v-190h207v-118h-207v-316h-165v750z" />
    <glyph glyph-name="g" unicode="g" horiz-adv-x="532" 
d="M28 558q0 54 16.5 92t47 62.5t74.5 36t99 11.5t99 -11.5t75 -36t47.5 -62.5t16.5 -92v-73h-165v83q0 27 -18 46.5t-55 19.5q-36 0 -54 -19.5t-18 -46.5v-385q0 -28 18 -47.5t54 -19.5q37 0 55 20t18 47v53h-58v119h223v-162q0 -54 -16.5 -92.5t-47.5 -63t-75 -36
t-99 -11.5t-99 11.5t-74.5 36.5t-47 63t-16.5 92v365z" />
    <glyph glyph-name="h" unicode="h" horiz-adv-x="537" 
d="M31 750h165v-316h145v316h165v-750h-165v316h-145v-316h-165v750z" />
    <glyph glyph-name="i" unicode="i" horiz-adv-x="232" 
d="M33 750h165v-750h-165v750z" />
    <glyph glyph-name="j" unicode="j" horiz-adv-x="318" 
d="M289 750v-547q0 -63 -16 -102.5t-44.5 -62t-69 -30.5t-89.5 -8h-49v126q16 0 34 1.5t33.5 7.5t25.5 18.5t10 33.5v563h165z" />
    <glyph glyph-name="k" unicode="k" horiz-adv-x="523" 
d="M31 750h165v-315h26l122 315h166l-142 -375l141 -375h-166l-121 316h-26v-316h-165v750z" />
    <glyph glyph-name="l" unicode="l" horiz-adv-x="450" 
d="M31 750h165v-624h232v-126h-397v750z" />
    <glyph glyph-name="m" unicode="m" horiz-adv-x="751" 
d="M258 750l116 -620h2l116 620h228v-750h-165v466l-100 -466h-159l-100 466v-466h-165v750h227z" />
    <glyph glyph-name="n" unicode="n" horiz-adv-x="537" 
d="M31 750h165l145 -481v481h165v-750h-165l-145 482v-482h-165v750z" />
    <glyph glyph-name="o" unicode="o" 
d="M28 558q0 54 16.5 92t47 62.5t74.5 36t99 11.5t99 -11.5t75 -36t47.5 -62.5t16.5 -92v-365q0 -54 -16.5 -92.5t-47.5 -63t-75 -36t-99 -11.5t-99 11.5t-74.5 36.5t-47 63t-16.5 92v365zM193 183q0 -28 18 -47.5t54 -19.5q37 0 55 20t18 47v385q0 27 -18 46.5t-55 19.5
q-36 0 -54 -19.5t-18 -46.5v-385z" />
    <glyph glyph-name="p" unicode="p" horiz-adv-x="535" 
d="M270 750q125 0 184 -54.5t59 -175.5q0 -123 -58 -179.5t-189 -56.5h-70v-284h-165v750h239zM196 624v-214h70q35 0 55 17t23 43q1 8 1.5 20.5t0.5 26t-0.5 26.5t-1.5 21q-3 26 -22 43t-54 17h-72z" />
    <glyph glyph-name="q" unicode="q" horiz-adv-x="536" 
d="M28 558q0 54 16.5 92t47 62.5t74.5 36t99 11.5t99 -11.5t75 -36t47.5 -62.5t16.5 -92v-365q0 -55 -17 -93.5t-49 -63.5l89 -69q-10 -8 -29 -23t-39 -30.5t-37.5 -29t-25.5 -19.5q-4 6 -19 24.5t-32 40t-32 40t-20 23.5q-12 -3 -27 -3q-55 0 -99 11.5t-74.5 36.5t-47 63
t-16.5 92v365zM265 634q-36 0 -54 -19.5t-18 -46.5v-385q0 -28 18 -47.5t54 -19.5q37 0 55 20t18 47v385q0 27 -18 46.5t-55 19.5z" />
    <glyph glyph-name="r" unicode="r" horiz-adv-x="529" 
d="M31 750h239q125 0 184 -54.5t59 -175.5q0 -85 -26.5 -138t-86.5 -76l105 -306h-157l-98 284h-14h-40v-284h-165v750zM266 410q35 0 55 17t23 43q5 47 0 94q-2 23 -18.5 40t-47.5 19q-3 1 -10 1h-72v-214h70z" />
    <glyph glyph-name="s" unicode="s" horiz-adv-x="536" 
d="M24 537q0 59 17 101.5t49 69.5t77 39.5t101 12.5q59 0 104 -11.5t75.5 -38t46 -69t15.5 -104.5q0 -8 -0.5 -16t-1.5 -16h-165q1 4 1 13.5v14.5q0 20 -3 38t-11 32t-23 22.5t-38 8.5q-34 0 -56 -19.5t-22 -54.5q0 -38 24 -61t59.5 -40.5t77.5 -34.5t77.5 -43t59.5 -65.5
t24 -102.5q0 -59 -17 -101.5t-49 -69.5t-77 -39.5t-101 -12.5q-59 0 -104 11.5t-75.5 38t-46 69t-15.5 104.5v16t1 16h165v-28q0 -19 3 -37.5t11 -32.5t22.5 -22.5t38.5 -8.5q37 0 57.5 22t20.5 59q0 38 -24 60t-59.5 39t-77.5 33t-77.5 41.5t-59.5 64.5t-24 102z" />
    <glyph glyph-name="t" unicode="t" horiz-adv-x="529" 
d="M507 750v-126h-160v-624h-165v624h-160v126h485z" />
    <glyph glyph-name="u" unicode="u" horiz-adv-x="533" 
d="M29 750h165v-567q0 -28 18 -47.5t54 -19.5q37 0 55 20t18 47v567h165v-557q0 -54 -16.5 -92.5t-47.5 -63t-75 -36t-99 -11.5t-99 11.5t-74.5 36.5t-47 63t-16.5 92v557z" />
    <glyph glyph-name="v" unicode="v" horiz-adv-x="539" 
d="M19 750h172l69 -624h19l69 624h172l-112 -750h-277z" />
    <glyph glyph-name="w" unicode="w" horiz-adv-x="822" 
d="M19 750h172l69 -624h19l53 624h159l52 -624h19l69 624h172l-112 -750h-231l-48 602h-2l-48 -602h-231z" />
    <glyph glyph-name="x" unicode="x" horiz-adv-x="550" 
d="M19 750h166l85 -308h11l84 308h166l-107 -375l106 -375h-166l-83 308h-11l-84 -308h-166l106 375z" />
    <glyph glyph-name="y" unicode="y" horiz-adv-x="554" 
d="M191 750l86 -330l85 330h173l-176 -510v-240h-165v240l-175 510h172z" />
    <glyph glyph-name="z" unicode="z" horiz-adv-x="458" 
d="M196 126h239v-126h-414v123l240 501h-240v126h415v-123z" />
    <glyph glyph-name="braceleft" unicode="{" horiz-adv-x="283" 
d="M21 388q26 17 37 41.5t14 52.5t1 57.5t-2 55.5q0 47 14 77.5t39.5 47.5t60.5 23.5t76 6.5v-114q-24 0 -43 -13t-19 -39q0 -21 1.5 -52.5t-1 -62.5t-13 -56t-34.5 -34v-8q24 -9 34.5 -34t13 -56t1 -62.5t-1.5 -52.5q0 -26 19 -39t43 -13v-114q-41 0 -76 6.5t-60.5 24
t-39.5 47.5t-14 77q0 26 2 55.5t-1 58t-14 53t-37 41.5v25z" />
    <glyph glyph-name="bar" unicode="|" horiz-adv-x="195" 
d="M34 780h127v-810h-127v810z" />
    <glyph glyph-name="braceright" unicode="}" horiz-adv-x="283" 
d="M263 363q-26 -17 -37 -41.5t-14 -53t-1 -58t2 -55.5q0 -47 -14 -77t-39.5 -47.5t-60.5 -24t-76 -6.5v114q23 0 42 13t19 39q0 21 -1.5 52.5t1.5 62.5t13.5 56t34.5 34v8q-24 9 -34.5 34t-13.5 56t-1.5 62.5t1.5 52.5q0 26 -19 39t-42 13v114q41 0 76 -6.5t60.5 -23.5
t39.5 -47.5t14 -77.5q0 -26 -2 -55.5t1 -57.5t14 -52.5t37 -41.5v-25z" />
    <glyph glyph-name="asciitilde" unicode="~" horiz-adv-x="504" 
d="M26 245q0 47 11 78.5t29.5 50.5t42.5 27t50 8q21 0 42 -3t41.5 -6t38.5 -6t33 -3q20 0 32 13.5t12 34.5h120q0 -48 -11 -80t-30 -51.5t-43.5 -27.5t-50.5 -8q-21 0 -42.5 3t-41.5 6t-38.5 6t-32.5 3q-20 0 -31 -12.5t-11 -32.5h-120z" />
    <glyph glyph-name="exclamdown" unicode="&#xa1;" horiz-adv-x="206" 
d="M167 700v-128h-128v128h128zM28 -50l47 593h57l46 -593h-150z" />
    <glyph glyph-name="cent" unicode="&#xa2;" horiz-adv-x="528" 
d="M27 488q0 91 45.5 139t128.5 59v74h127v-74q83 -11 128.5 -59t45.5 -139v-61h-165v71q0 27 -18 46.5t-55 19.5q-36 0 -54 -19.5t-18 -46.5v-245q0 -27 18 -46.5t54 -19.5q37 0 55 19.5t18 46.5v72h165v-62q0 -92 -45.5 -139.5t-128.5 -58.5v-75h-127v75
q-83 11 -128.5 58.5t-45.5 139.5v225z" />
    <glyph glyph-name="sterling" unicode="&#xa3;" horiz-adv-x="573" 
d="M413 393v-118h-173v-149h290v-126h-455v275h-52v118h52v165q0 54 16.5 92t47.5 62.5t75 36t99 11.5t99 -11.5t74.5 -36t47 -62.5t16.5 -92v-58h-165v68q0 27 -17.5 46.5t-54.5 19.5t-55 -19.5t-18 -46.5v-175h173z" />
    <glyph glyph-name="currency" unicode="&#xa4;" horiz-adv-x="555" 
d="M55 369q0 35 10.5 67t29.5 58l-66 66l88 90l77 -75q40 20 88 20q23 0 44 -5t41 -13l72 76l85 -83l-62 -65q22 -28 34.5 -62.5t12.5 -73.5q0 -40 -13.5 -75.5t-36.5 -64.5l65 -68l-85 -83l-76 81q-39 -17 -81 -17q-44 0 -84 19l-81 -80l-88 91l68 68q-20 27 -31 59.5
t-11 69.5zM282 224q30 0 56.5 11.5t46 31t31 46t11.5 56.5t-11.5 56.5t-31 46t-46 30.5t-56.5 11t-56.5 -11t-46 -30.5t-31 -46t-11.5 -56.5t11.5 -56.5t31 -46t46 -31t56.5 -11.5z" />
    <glyph glyph-name="yen" unicode="&#xa5;" horiz-adv-x="556" 
d="M192 750l86 -300l85 300h173l-136 -372h77v-81h-106l-8 -21l-1 -42h115v-81h-117v-153h-165v153h-116v81h115l-1 42l-8 21h-106v81h77l-136 372h172z" />
    <glyph glyph-name="brokenbar" unicode="&#xa6;" horiz-adv-x="191" 
d="M32 454v326h127v-326h-127zM32 -20v326h127v-326h-127z" />
    <glyph glyph-name="section" unicode="&#xa7;" horiz-adv-x="549" 
d="M31 538q0 59 17.5 101t49.5 69t77 39.5t100 12.5q59 0 103.5 -12t75.5 -38.5t46.5 -69t15.5 -103.5q0 -8 -0.5 -16t-1.5 -16h-165q1 5 1 14v14q0 19 -3 37t-11.5 32.5t-23 23t-37.5 8.5q-32 0 -55 -20t-23 -54q0 -39 27 -62t65.5 -42t81 -40t74.5 -56v-8q-16 3 -45.5 9
t-65 13.5t-75 15.5t-76 15.5t-66.5 13.5t-48 10q-17 20 -27.5 46t-10.5 63zM519 213q0 -58 -17.5 -100.5t-49.5 -69.5t-77 -40t-100 -13q-58 0 -103 12t-76 38.5t-46.5 69t-15.5 103.5v16t1 16h165v-28q0 -19 3 -37t11.5 -32.5t23 -23t37.5 -8.5q35 0 56.5 22.5t21.5 58.5
q0 39 -27 61t-65.5 40t-80.5 38.5t-73 55.5v9q6 -1 34.5 -7.5t68.5 -14.5t85 -17.5t84.5 -17.5t67.5 -14t34 -7q17 -20 27.5 -47t10.5 -63z" />
    <glyph glyph-name="dieresis" unicode="&#xa8;" horiz-adv-x="306" 
d="M288 632h-118v118h118v-118zM136 632h-118v118h118v-118z" />
    <glyph glyph-name="copyright" unicode="&#xa9;" horiz-adv-x="818" 
d="M31 373q0 82 28.5 151t79 119.5t119.5 79t151 28.5t151 -28.5t119.5 -79t79 -119.5t28.5 -151t-28.5 -151t-79 -119.5t-119.5 -79t-151 -28.5t-151 28.5t-119.5 79t-79 119.5t-28.5 151zM90 373q0 -69 24 -127.5t66.5 -101t101 -66.5t127.5 -24t127.5 24t101 66.5
t66.5 101t24 127.5t-24 127.5t-66.5 101t-101 66.5t-127.5 24t-127.5 -24t-101 -66.5t-66.5 -101t-24 -127.5zM582 320v-81q0 -78 -46 -113t-127 -35t-127 35t-46 113v272q0 78 46 113t127 35t127 -35t46 -113v-81h-118v88q0 21 -13 36t-42 15q-28 0 -41.5 -15t-13.5 -36
v-286q0 -21 13.5 -36t41.5 -15t41.5 15t13.5 36v88h118z" />
    <glyph glyph-name="ordfeminine" unicode="&#xaa;" horiz-adv-x="268" 
d="M74 750h120l50 -339h-76l-10 95h-50l-9 -95h-75zM112 560h41l-14 133h-13z" />
    <glyph glyph-name="guillemotleft" unicode="&#xab;" horiz-adv-x="462" 
d="M269 346v-4l173 -163v-109l-252 235v80l252 232v-109zM99 346v-4l173 -163v-109l-252 235v80l252 232v-109z" />
    <glyph glyph-name="logicalnot" unicode="&#xac;" horiz-adv-x="494" 
d="M31 313h432v-292h-89v203h-343v89z" />
    <glyph glyph-name="registered" unicode="&#xae;" horiz-adv-x="804" 
d="M402 751q82 0 151 -28.5t119.5 -79t79 -119.5t28.5 -151t-28.5 -151t-79 -119.5t-119.5 -79t-151 -28.5t-151 28.5t-119.5 79t-79 119.5t-28.5 151t28.5 151t79 119.5t119.5 79t151 28.5zM83 373q0 -69 24 -127.5t66.5 -101t101 -66.5t127.5 -24t127.5 24t101 66.5
t66.5 101t24 127.5t-24 127.5t-66.5 101t-101 66.5t-127.5 24t-127.5 -24t-101 -66.5t-66.5 -101t-24 -127.5zM257 631h158q83 0 122 -37t39 -117q0 -57 -18 -92.5t-60 -51.5l73 -206h-102l-66 192h-10h-30v-192h-106v504zM411 400q20 0 35.5 9t19.5 28q1 2 1 4.5t1 5.5
q3 28 0 56q-1 3 -1 5.5t-1 4.5q-2 15 -13.5 24t-26.5 12h-9h-54v-149h48z" />
    <glyph glyph-name="macron" unicode="&#xaf;" horiz-adv-x="369" 
d="M16 688h337v-118h-337v118z" />
    <glyph glyph-name="degree" unicode="&#xb0;" horiz-adv-x="296" 
d="M24 573q0 27 9.5 50t26 39.5t39 25.5t49.5 9t50 -9t39.5 -25.5t25.5 -39.5t9 -50t-9 -49.5t-25.5 -39t-39.5 -26t-50 -9.5t-49.5 9.5t-39 26t-26 39t-9.5 49.5zM97 573q0 -23 14 -37t37 -14t37 14t14 37t-14 37t-37 14t-37 -14t-14 -37z" />
    <glyph glyph-name="plusminus" unicode="&#xb1;" horiz-adv-x="380" 
d="M25 434h102v111h126v-111h102v-118h-102v-111h-126v111h-102v118zM25 173h330v-119h-330v119z" />
    <glyph glyph-name="twosuperior" unicode="&#xb2;" horiz-adv-x="265" 
d="M132 700q-12 0 -18.5 -8t-6.5 -20v-35h-76q0 30 3.5 52.5t14 37.5t30.5 22.5t54 7.5q54 0 78 -21.5t24 -81.5q0 -41 -19.5 -68.5t-43 -47t-43 -35.5t-19.5 -34h117v-57h-191v55q0 38 18 62t39.5 42t40.5 34t22 38q2 6 2.5 16.5t-2.5 16.5q-2 9 -7 16.5t-17 7.5z" />
    <glyph glyph-name="threesuperior" unicode="&#xb3;" horiz-adv-x="262" 
d="M31 640v23q0 55 26 75t73 20q56 0 79 -23.5t23 -82.5q0 -9 -1 -19t-4 -19t-8 -16.5t-14 -10.5v-5q17 -5 22 -25.5t5 -38.5q0 -59 -23 -82t-79 -23q-46 0 -72.5 19.5t-26.5 74.5v24h74v-32q0 -30 25 -30q20 0 24 15.5t4 35.5q0 19 -5.5 28t-31.5 10v54q26 0 31.5 9t5.5 29
q0 9 -0.5 18t-3.5 16.5t-8.5 12t-15.5 4.5q-25 0 -25 -30v-31h-74z" />
    <glyph glyph-name="acute" unicode="&#xb4;" horiz-adv-x="217" 
d="M69 750h130l-85 -142h-96z" />
    <glyph glyph-name="paragraph" unicode="&#xb6;" horiz-adv-x="427" 
d="M234 371q-52 0 -90.5 15.5t-63.5 42t-37 60.5t-12 72t12 72.5t37 60.5t63.5 41t90.5 15h68v-780h-68v401zM329 750h68v-780h-68v780z" />
    <glyph glyph-name="periodcentered" unicode="&#xb7;" horiz-adv-x="178" 
d="M153 622h-128v128h128v-128z" />
    <glyph glyph-name="cedilla" unicode="&#xb8;" horiz-adv-x="202" 
d="M26 -83q33 -3 47 10t14 30q0 14 -8 27t-22 15l60 17q35 -14 51.5 -39t16.5 -52q0 -21 -9 -41t-25.5 -36t-40 -25.5t-52.5 -9.5q-17 0 -40 5z" />
    <glyph glyph-name="onesuperior" unicode="&#xb9;" horiz-adv-x="170" 
d="M31 672v57l38 21h70v-339h-74v270z" />
    <glyph glyph-name="ordmasculine" unicode="&#xba;" horiz-adv-x="242" 
d="M24 667q0 47 27 69t70 22t70.5 -22t27.5 -69v-165q0 -46 -27.5 -68.5t-70.5 -22.5t-70 22t-27 69v165zM121 701q-11 0 -17 -6.5t-6 -17.5v-184q0 -11 6 -18t17 -7q12 0 18.5 7t6.5 18v184q0 11 -6.5 17.5t-18.5 6.5z" />
    <glyph glyph-name="guillemotright" unicode="&#xbb;" horiz-adv-x="462" 
d="M194 346l-173 162v109l252 -232v-80l-252 -235v109l173 163v4zM364 346l-173 162v109l252 -232v-80l-252 -235v109l173 163v4z" />
    <glyph glyph-name="onequarter" unicode="&#xbc;" horiz-adv-x="449" 
d="M256 750h66l-166 -750h-67zM21 672v57l38 21h70v-339h-74v270zM415 96v-96h-74v96h-102v54l86 190h90v-190h13v-54h-13zM341 150v131l-57 -131h57z" />
    <glyph glyph-name="onehalf" unicode="&#xbd;" horiz-adv-x="497" 
d="M21 729l38 21h70v-339h-74v270l-34 -9v57zM330 750l-167 -750h-66l167 750h66zM374 288q-12 0 -19 -8t-7 -20v-35h-76q0 30 3.5 52.5t14 37.5t30.5 22.5t54 7.5q53 0 77.5 -21.5t24.5 -80.5q0 -42 -19.5 -69t-42.5 -46.5t-42.5 -35.5t-19.5 -34h116v-58h-191v55
q0 38 18 62t40 42t41 34t22 38q2 6 2 16.5t-2 16.5q-2 10 -7 17t-17 7z" />
    <glyph glyph-name="threequarters" unicode="&#xbe;" horiz-adv-x="496" 
d="M21 640v23q0 55 26 75t73 20q56 0 79 -23.5t23 -82.5q0 -9 -1 -19t-4 -19t-8 -16.5t-14 -10.5v-5q17 -5 22 -25.5t5 -38.5q0 -59 -23 -82t-79 -23q-46 0 -72.5 19.5t-26.5 74.5v24h74v-32q0 -30 25 -30q20 0 24 15.5t4 35.5q0 19 -5.5 28t-31.5 10v54q26 0 31.5 9t5.5 29
q0 9 -0.5 18t-3.5 16.5t-8.5 12t-15.5 4.5q-25 0 -25 -30v-31h-74zM316 750h66l-166 -750h-67zM463 96v-96h-75v96h-101v54l85 190h91v-190h13v-54h-13zM388 150v131l-57 -131h57z" />
    <glyph glyph-name="questiondown" unicode="&#xbf;" horiz-adv-x="459" 
d="M260 710h128v-128h-128v128zM280 553h88q0 -55 -14 -95t-35 -70t-45.5 -53.5t-45.5 -46t-35 -46.5t-14 -55q0 -48 10.5 -69t44.5 -21q25 0 39 14t14 43v51h150v-48q0 -64 -13.5 -104.5t-39.5 -63t-64 -31t-87 -8.5t-88 8.5t-66.5 33t-42 68.5t-14.5 115q0 58 19 98.5
t48 71t62 53.5t62 45.5t48 48.5t19 61z" />
    <glyph glyph-name="Agrave" unicode="&#xc0;" horiz-adv-x="518" 
d="M138 924h130l52 -142h-97zM128 750h262l112 -750h-168l-21 211h-108l-21 -211h-168zM213 330h93l-34 294h-26z" />
    <glyph glyph-name="Aacute" unicode="&#xc1;" horiz-adv-x="518" 
d="M254 924h130l-85 -142h-97zM128 750h262l112 -750h-168l-21 211h-108l-21 -211h-168zM213 330h93l-34 294h-26z" />
    <glyph glyph-name="Acircumflex" unicode="&#xc2;" horiz-adv-x="518" 
d="M201 924h117l112 -142h-107l-62 63h-4l-61 -63h-108zM128 750h262l112 -750h-168l-21 211h-108l-21 -211h-168zM213 330h93l-34 294h-26z" />
    <glyph glyph-name="Atilde" unicode="&#xc3;" horiz-adv-x="518" 
d="M192 782h-79q1 31 8.5 51.5t19.5 33t27.5 17.5t31.5 5q27 0 54.5 -7t46.5 -7q11 0 17.5 8t7.5 19h79q0 -31 -7.5 -51.5t-19.5 -33t-27.5 -18t-32.5 -5.5q-27 0 -54.5 7t-46.5 7q-11 0 -17.5 -7.5t-7.5 -18.5zM128 750h262l112 -750h-168l-21 211h-108l-21 -211h-168z
M213 330h93l-34 294h-26z" />
    <glyph glyph-name="Adieresis" unicode="&#xc4;" horiz-adv-x="518" 
d="M394 773h-117v118h117v-118zM242 773h-118v118h118v-118zM128 750h262l112 -750h-168l-21 211h-108l-21 -211h-168zM213 330h93l-34 294h-26z" />
    <glyph glyph-name="Aring" unicode="&#xc5;" horiz-adv-x="518" 
d="M162 876q0 43 27 70t70 27q42 0 69.5 -27t27.5 -70q0 -42 -27.5 -69.5t-69.5 -27.5q-43 0 -70 27.5t-27 69.5zM204 876q0 -24 15.5 -39t39.5 -15t39 15t15 39t-15 39.5t-39 15.5t-39.5 -15.5t-15.5 -39.5zM128 750h262l112 -750h-168l-21 211h-108l-21 -211h-168z
M213 330h93l-34 294h-26z" />
    <glyph glyph-name="AE" unicode="&#xc6;" horiz-adv-x="694" 
d="M128 750h542v-126h-233v-190h208v-118h-208v-190h233v-126h-398v211h-67l-21 -211h-168zM213 330h59v294h-26z" />
    <glyph glyph-name="Ccedilla" unicode="&#xc7;" 
d="M28 558q0 54 16.5 92t47 62.5t74.5 36t99 11.5t99 -11.5t75 -36t47.5 -62.5t16.5 -92v-110h-165v120q0 27 -18 46.5t-55 19.5q-36 0 -54 -19.5t-18 -46.5v-385q0 -28 18 -47.5t54 -19.5q37 0 55 20t18 47v120h165v-110q0 -96 -49.5 -143.5t-138.5 -57.5q29 -29 29 -67
q0 -21 -9 -41t-25.5 -36t-40 -25.5t-52.5 -9.5q-17 0 -40 5l9 99q33 -3 47 10t14 30q0 21 -15 34q-95 7 -149.5 55t-54.5 147v365z" />
    <glyph glyph-name="Egrave" unicode="&#xc8;" horiz-adv-x="452" 
d="M110 924h130l52 -142h-97zM31 750h397v-126h-232v-190h207v-118h-207v-190h232v-126h-397v750z" />
    <glyph glyph-name="Eacute" unicode="&#xc9;" horiz-adv-x="452" 
d="M217 924h130l-85 -142h-96zM31 750h397v-126h-232v-190h207v-118h-207v-190h232v-126h-397v750z" />
    <glyph glyph-name="Ecircumflex" unicode="&#xca;" horiz-adv-x="452" 
d="M171 924h117l113 -142h-108l-62 63h-3l-62 -63h-107zM31 750h397v-126h-232v-190h207v-118h-207v-190h232v-126h-397v750z" />
    <glyph glyph-name="Edieresis" unicode="&#xcb;" horiz-adv-x="452" 
d="M365 782h-118v118h118v-118zM212 782h-117v118h117v-118zM31 750h397v-126h-232v-190h207v-118h-207v-190h232v-126h-397v750z" />
    <glyph glyph-name="Igrave" unicode="&#xcc;" horiz-adv-x="227" 
d="M-16 924h130l52 -142h-97zM31 750h165v-750h-165v750z" />
    <glyph glyph-name="Iacute" unicode="&#xcd;" horiz-adv-x="227" 
d="M120 924h130l-85 -142h-97zM31 750h165v-750h-165v750z" />
    <glyph glyph-name="Icircumflex" unicode="&#xce;" horiz-adv-x="227" 
d="M56 924h117l112 -142h-107l-62 63h-4l-61 -63h-108zM31 750h165v-750h-165v750z" />
    <glyph glyph-name="Idieresis" unicode="&#xcf;" horiz-adv-x="227" 
d="M248 782h-117v118h117v-118zM96 782h-118v118h118v-118zM31 750h165v-750h-165v750z" />
    <glyph glyph-name="Eth" unicode="&#xd0;" horiz-adv-x="564" 
d="M61 750h237q111 0 174.5 -47.5t63.5 -154.5v-345q0 -108 -63.5 -155.5t-174.5 -47.5h-237v323h-49v118h49v309zM226 323v-197h73q36 0 54 20t18 47v365q0 27 -18 46.5t-54 19.5h-73v-183h70v-118h-70z" />
    <glyph glyph-name="Ntilde" unicode="&#xd1;" horiz-adv-x="537" 
d="M211 782h-78q0 31 7.5 51.5t19.5 33t27.5 17.5t31.5 5q27 0 54.5 -7t46.5 -7q11 0 18 8t8 19h78q0 -31 -7.5 -51.5t-19.5 -33t-27.5 -18t-32.5 -5.5q-27 0 -54.5 7t-45.5 7q-11 0 -18 -7.5t-8 -18.5zM31 750h165l145 -481v481h165v-750h-165l-145 482v-482h-165v750z" />
    <glyph glyph-name="Ograve" unicode="&#xd2;" 
d="M270 924l51 -142h-96l-85 142h130zM28 558q0 54 16.5 92t47 62.5t74.5 36t99 11.5t99 -11.5t75 -36t47.5 -62.5t16.5 -92v-365q0 -54 -16.5 -92.5t-47.5 -63t-75 -36t-99 -11.5t-99 11.5t-74.5 36.5t-47 63t-16.5 92v365zM193 183q0 -28 18 -47.5t54 -19.5q37 0 55 20
t18 47v385q0 27 -18 46.5t-55 19.5q-36 0 -54 -19.5t-18 -46.5v-385z" />
    <glyph glyph-name="Oacute" unicode="&#xd3;" 
d="M397 924l-85 -142h-97l52 142h130zM28 558q0 54 16.5 92t47 62.5t74.5 36t99 11.5t99 -11.5t75 -36t47.5 -62.5t16.5 -92v-365q0 -54 -16.5 -92.5t-47.5 -63t-75 -36t-99 -11.5t-99 11.5t-74.5 36.5t-47 63t-16.5 92v365zM193 183q0 -28 18 -47.5t54 -19.5q37 0 55 20
t18 47v385q0 27 -18 46.5t-55 19.5q-36 0 -54 -19.5t-18 -46.5v-385z" />
    <glyph glyph-name="Ocircumflex" unicode="&#xd4;" 
d="M324 924l112 -142h-107l-62 63h-3l-62 -63h-108l113 142h117zM28 558q0 54 16.5 92t47 62.5t74.5 36t99 11.5t99 -11.5t75 -36t47.5 -62.5t16.5 -92v-365q0 -54 -16.5 -92.5t-47.5 -63t-75 -36t-99 -11.5t-99 11.5t-74.5 36.5t-47 63t-16.5 92v365zM193 183
q0 -28 18 -47.5t54 -19.5q37 0 55 20t18 47v385q0 27 -18 46.5t-55 19.5q-36 0 -54 -19.5t-18 -46.5v-385z" />
    <glyph glyph-name="Otilde" unicode="&#xd5;" 
d="M120 782q0 31 7.5 51.5t19.5 33t27.5 17.5t31.5 5q27 0 54.5 -7t46.5 -7q11 0 18 8t8 19h78q0 -31 -7.5 -51.5t-19.5 -33t-27.5 -18t-32.5 -5.5q-27 0 -54.5 7t-45.5 7q-11 0 -18 -7.5t-8 -18.5h-78zM28 558q0 54 16.5 92t47 62.5t74.5 36t99 11.5t99 -11.5t75 -36
t47.5 -62.5t16.5 -92v-365q0 -54 -16.5 -92.5t-47.5 -63t-75 -36t-99 -11.5t-99 11.5t-74.5 36.5t-47 63t-16.5 92v365zM193 183q0 -28 18 -47.5t54 -19.5q37 0 55 20t18 47v385q0 27 -18 46.5t-55 19.5q-36 0 -54 -19.5t-18 -46.5v-385z" />
    <glyph glyph-name="Odieresis" unicode="&#xd6;" 
d="M283 782v118h117v-118h-117zM130 782v118h118v-118h-118zM28 558q0 54 16.5 92t47 62.5t74.5 36t99 11.5t99 -11.5t75 -36t47.5 -62.5t16.5 -92v-365q0 -54 -16.5 -92.5t-47.5 -63t-75 -36t-99 -11.5t-99 11.5t-74.5 36.5t-47 63t-16.5 92v365zM193 183q0 -28 18 -47.5
t54 -19.5q37 0 55 20t18 47v385q0 27 -18 46.5t-55 19.5q-36 0 -54 -19.5t-18 -46.5v-385z" />
    <glyph glyph-name="multiply" unicode="&#xd7;" horiz-adv-x="497" 
d="M248 457l137 144l87 -81l-141 -149l141 -150l-87 -80l-136 143l-137 -143l-87 80l141 150l-141 149l87 81z" />
    <glyph glyph-name="Oslash" unicode="&#xd8;" horiz-adv-x="533" 
d="M28 558q0 54 16.5 92t47.5 62.5t75 36t99 11.5q66 0 117 -17l8 17h68l-20 -47q64 -50 64 -155v-365q0 -54 -16.5 -92.5t-47 -63t-74.5 -36t-99 -11.5q-70 0 -117 17l-7 -17h-68l19 47q-32 25 -48.5 63t-16.5 93v365zM327 606q-8 13 -23.5 20.5t-37.5 7.5q-37 0 -55 -19.5
t-18 -46.5v-287zM205 143q9 -12 24 -19.5t37 -7.5q37 0 54.5 20t17.5 47v284z" />
    <glyph glyph-name="Ugrave" unicode="&#xd9;" horiz-adv-x="533" 
d="M139 924h130l51 -142h-96zM29 750h165v-567q0 -28 18 -47.5t54 -19.5q37 0 55 20t18 47v567h165v-557q0 -54 -16.5 -92.5t-47.5 -63t-75 -36t-99 -11.5t-99 11.5t-74.5 36.5t-47 63t-16.5 92v557z" />
    <glyph glyph-name="Uacute" unicode="&#xda;" horiz-adv-x="533" 
d="M263 924h130l-85 -142h-97zM29 750h165v-567q0 -28 18 -47.5t54 -19.5q37 0 55 20t18 47v567h165v-557q0 -54 -16.5 -92.5t-47.5 -63t-75 -36t-99 -11.5t-99 11.5t-74.5 36.5t-47 63t-16.5 92v557z" />
    <glyph glyph-name="Ucircumflex" unicode="&#xdb;" horiz-adv-x="533" 
d="M208 924h117l113 -142h-108l-61 63h-4l-62 -63h-107zM29 750h165v-567q0 -28 18 -47.5t54 -19.5q37 0 55 20t18 47v567h165v-557q0 -54 -16.5 -92.5t-47.5 -63t-75 -36t-99 -11.5t-99 11.5t-74.5 36.5t-47 63t-16.5 92v557z" />
    <glyph glyph-name="Udieresis" unicode="&#xdc;" horiz-adv-x="533" 
d="M400 782h-118v118h118v-118zM248 782h-117v118h117v-118zM29 750h165v-567q0 -28 18 -47.5t54 -19.5q37 0 55 20t18 47v567h165v-557q0 -54 -16.5 -92.5t-47.5 -63t-75 -36t-99 -11.5t-99 11.5t-74.5 36.5t-47 63t-16.5 92v557z" />
    <glyph glyph-name="Yacute" unicode="&#xdd;" horiz-adv-x="554" 
d="M408 924l-85 -142h-97l52 142h130zM191 750l86 -330l85 330h173l-176 -510v-240h-165v240l-175 510h172z" />
    <glyph glyph-name="Thorn" unicode="&#xde;" horiz-adv-x="535" 
d="M196 750v-131h74q125 0 184 -54.5t59 -175.5q0 -123 -58 -179.5t-189 -56.5h-70v-153h-165v750h165zM196 493v-214h70q35 0 55 17t23 43q1 8 1.5 20.5t0.5 26t-0.5 26.5t-1.5 21q-3 26 -22 43t-54 17h-72z" />
    <glyph glyph-name="germandbls" unicode="&#xdf;" horiz-adv-x="1048" 
d="M536 537q0 59 17 101.5t49 69.5t77 39.5t101 12.5q59 0 104 -11.5t75.5 -38t46 -69t15.5 -104.5v-16t-1 -16h-165v28q0 20 -3 38t-11 32t-23 22.5t-38 8.5q-33 0 -55.5 -19.5t-22.5 -54.5q0 -38 24 -61t59.5 -40.5t77.5 -34.5t77.5 -43t59.5 -65.5t24 -102.5
q0 -118 -65.5 -170.5t-178.5 -52.5q-59 0 -104 11.5t-75 38t-45.5 69t-15.5 104.5v16t1 16h165q0 -4 -0.5 -13.5t-0.5 -14.5q0 -19 3 -37.5t11.5 -32.5t23 -22.5t37.5 -8.5q37 0 58 22t21 59q0 38 -24 60t-60 39t-77.5 33t-77.5 41.5t-60 64.5t-24 102zM24 537
q0 59 17 101.5t49 69.5t77 39.5t101 12.5q59 0 104 -11.5t75.5 -38t46 -69t15.5 -104.5q0 -8 -0.5 -16t-1.5 -16h-165q1 4 1 13.5v14.5q0 20 -3 38t-11 32t-23 22.5t-38 8.5q-34 0 -56 -19.5t-22 -54.5q0 -38 24 -61t59.5 -40.5t77.5 -34.5t77.5 -43t59.5 -65.5t24 -102.5
q0 -59 -17 -101.5t-49 -69.5t-77 -39.5t-101 -12.5q-59 0 -104 11.5t-75.5 38t-46 69t-15.5 104.5v16t1 16h165v-28q0 -19 3 -37.5t11 -32.5t22.5 -22.5t38.5 -8.5q37 0 57.5 22t20.5 59q0 38 -24 60t-59.5 39t-77.5 33t-77.5 41.5t-59.5 64.5t-24 102z" />
    <glyph glyph-name="agrave" unicode="&#xe0;" horiz-adv-x="518" 
d="M138 924h130l52 -142h-97zM128 750h262l112 -750h-168l-21 211h-108l-21 -211h-168zM213 330h93l-34 294h-26z" />
    <glyph glyph-name="aacute" unicode="&#xe1;" horiz-adv-x="518" 
d="M254 924h130l-85 -142h-97zM128 750h262l112 -750h-168l-21 211h-108l-21 -211h-168zM213 330h93l-34 294h-26z" />
    <glyph glyph-name="acircumflex" unicode="&#xe2;" horiz-adv-x="518" 
d="M201 924h117l112 -142h-107l-62 63h-4l-61 -63h-108zM128 750h262l112 -750h-168l-21 211h-108l-21 -211h-168zM213 330h93l-34 294h-26z" />
    <glyph glyph-name="atilde" unicode="&#xe3;" horiz-adv-x="518" 
d="M192 782h-79q1 31 8.5 51.5t19.5 33t27.5 17.5t31.5 5q27 0 54.5 -7t46.5 -7q11 0 17.5 8t7.5 19h79q0 -31 -7.5 -51.5t-19.5 -33t-27.5 -18t-32.5 -5.5q-27 0 -54.5 7t-46.5 7q-11 0 -17.5 -7.5t-7.5 -18.5zM128 750h262l112 -750h-168l-21 211h-108l-21 -211h-168z
M213 330h93l-34 294h-26z" />
    <glyph glyph-name="adieresis" unicode="&#xe4;" horiz-adv-x="518" 
d="M394 773h-117v118h117v-118zM242 773h-118v118h118v-118zM128 750h262l112 -750h-168l-21 211h-108l-21 -211h-168zM213 330h93l-34 294h-26z" />
    <glyph glyph-name="aring" unicode="&#xe5;" horiz-adv-x="518" 
d="M162 876q0 43 27 70t70 27q42 0 69.5 -27t27.5 -70q0 -42 -27.5 -69.5t-69.5 -27.5q-43 0 -70 27.5t-27 69.5zM204 876q0 -24 15.5 -39t39.5 -15t39 15t15 39t-15 39.5t-39 15.5t-39.5 -15.5t-15.5 -39.5zM128 750h262l112 -750h-168l-21 211h-108l-21 -211h-168z
M213 330h93l-34 294h-26z" />
    <glyph glyph-name="ae" unicode="&#xe6;" horiz-adv-x="694" 
d="M128 750h542v-126h-233v-190h208v-118h-208v-190h233v-126h-398v211h-67l-21 -211h-168zM213 330h59v294h-26z" />
    <glyph glyph-name="ccedilla" unicode="&#xe7;" horiz-adv-x="527" 
d="M26 558q0 54 16.5 92t47 62.5t74.5 36t99 11.5t99 -11.5t75 -36t47.5 -62.5t16.5 -92v-110h-165v120q0 27 -18 46.5t-55 19.5q-36 0 -54 -19.5t-18 -46.5v-385q0 -28 18 -47.5t54 -19.5q37 0 55 20t18 47v120h165v-110q0 -96 -49.5 -143.5t-138.5 -57.5q29 -29 29 -67
q0 -21 -9 -41t-25.5 -36t-40 -25.5t-52.5 -9.5q-17 0 -40 5l9 99q33 -3 47 10t14 30q0 21 -15 34q-95 7 -149.5 55t-54.5 147v365z" />
    <glyph glyph-name="egrave" unicode="&#xe8;" horiz-adv-x="452" 
d="M110 924h130l52 -142h-97zM31 750h397v-126h-232v-190h207v-118h-207v-190h232v-126h-397v750z" />
    <glyph glyph-name="eacute" unicode="&#xe9;" horiz-adv-x="452" 
d="M217 924h130l-85 -142h-96zM31 750h397v-126h-232v-190h207v-118h-207v-190h232v-126h-397v750z" />
    <glyph glyph-name="ecircumflex" unicode="&#xea;" horiz-adv-x="452" 
d="M171 924h117l113 -142h-108l-62 63h-3l-62 -63h-107zM31 750h397v-126h-232v-190h207v-118h-207v-190h232v-126h-397v750z" />
    <glyph glyph-name="edieresis" unicode="&#xeb;" horiz-adv-x="452" 
d="M365 782h-118v118h118v-118zM212 782h-117v118h117v-118zM31 750h397v-126h-232v-190h207v-118h-207v-190h232v-126h-397v750z" />
    <glyph glyph-name="igrave" unicode="&#xec;" horiz-adv-x="227" 
d="M-17 924h130l52 -142h-97zM31 750h165v-750h-165v750z" />
    <glyph glyph-name="iacute" unicode="&#xed;" horiz-adv-x="227" 
d="M117 924h130l-85 -142h-96zM31 750h165v-750h-165v750z" />
    <glyph glyph-name="icircumflex" unicode="&#xee;" horiz-adv-x="227" 
d="M55 924h117l112 -142h-107l-62 63h-3l-62 -63h-108zM31 750h165v-750h-165v750z" />
    <glyph glyph-name="idieresis" unicode="&#xef;" horiz-adv-x="227" 
d="M248 782h-117v118h117v-118zM96 782h-118v118h118v-118zM31 750h165v-750h-165v750z" />
    <glyph glyph-name="eth" unicode="&#xf0;" horiz-adv-x="532" 
d="M236 -10q-55 0 -95.5 19.5t-67 52.5t-39 77t-12.5 93q0 98 49 158.5t154 66.5q30 0 50 -13q-9 55 -34 105l-126 -34l-20 78l110 30q-18 29 -37.5 51t-42.5 36l67 48q43 -12 80 -38.5t69 -62.5l143 38l20 -78l-113 -31q43 -71 62 -150.5t19 -157.5q0 -58 -11 -110.5
t-38 -92t-72.5 -62.5t-114.5 -23zM245 337q-30 0 -44 -20.5t-16 -51.5v-39v-35q2 -42 17.5 -58.5t42.5 -16.5q25 0 40.5 16.5t18.5 52.5q1 12 1 25.5v27.5v26q-1 31 -14.5 52t-45.5 21z" />
    <glyph glyph-name="ntilde" unicode="&#xf1;" horiz-adv-x="537" 
d="M211 782h-78q0 31 7.5 51.5t19.5 33t27.5 17.5t31.5 5q27 0 54.5 -7t46.5 -7q11 0 18 8t8 19h78q0 -31 -7.5 -51.5t-19.5 -33t-27.5 -18t-32.5 -5.5q-27 0 -54.5 7t-45.5 7q-11 0 -18 -7.5t-8 -18.5zM31 750h165l145 -481v481h165v-750h-165l-145 482v-482h-165v750z" />
    <glyph glyph-name="ograve" unicode="&#xf2;" 
d="M270 924l51 -142h-96l-85 142h130zM28 558q0 54 16.5 92t47 62.5t74.5 36t99 11.5t99 -11.5t75 -36t47.5 -62.5t16.5 -92v-365q0 -54 -16.5 -92.5t-47.5 -63t-75 -36t-99 -11.5t-99 11.5t-74.5 36.5t-47 63t-16.5 92v365zM193 183q0 -28 18 -47.5t54 -19.5q37 0 55 20
t18 47v385q0 27 -18 46.5t-55 19.5q-36 0 -54 -19.5t-18 -46.5v-385z" />
    <glyph glyph-name="oacute" unicode="&#xf3;" 
d="M397 924l-85 -142h-97l52 142h130zM28 558q0 54 16.5 92t47 62.5t74.5 36t99 11.5t99 -11.5t75 -36t47.5 -62.5t16.5 -92v-365q0 -54 -16.5 -92.5t-47.5 -63t-75 -36t-99 -11.5t-99 11.5t-74.5 36.5t-47 63t-16.5 92v365zM193 183q0 -28 18 -47.5t54 -19.5q37 0 55 20
t18 47v385q0 27 -18 46.5t-55 19.5q-36 0 -54 -19.5t-18 -46.5v-385z" />
    <glyph glyph-name="ocircumflex" unicode="&#xf4;" 
d="M324 924l112 -142h-107l-62 63h-3l-62 -63h-108l113 142h117zM28 558q0 54 16.5 92t47 62.5t74.5 36t99 11.5t99 -11.5t75 -36t47.5 -62.5t16.5 -92v-365q0 -54 -16.5 -92.5t-47.5 -63t-75 -36t-99 -11.5t-99 11.5t-74.5 36.5t-47 63t-16.5 92v365zM193 183
q0 -28 18 -47.5t54 -19.5q37 0 55 20t18 47v385q0 27 -18 46.5t-55 19.5q-36 0 -54 -19.5t-18 -46.5v-385z" />
    <glyph glyph-name="otilde" unicode="&#xf5;" 
d="M120 782q0 31 7.5 51.5t19.5 33t27.5 17.5t31.5 5q27 0 54.5 -7t46.5 -7q11 0 18 8t8 19h78q0 -31 -7.5 -51.5t-19.5 -33t-27.5 -18t-32.5 -5.5q-27 0 -54.5 7t-45.5 7q-11 0 -18 -7.5t-8 -18.5h-78zM28 558q0 54 16.5 92t47 62.5t74.5 36t99 11.5t99 -11.5t75 -36
t47.5 -62.5t16.5 -92v-365q0 -54 -16.5 -92.5t-47.5 -63t-75 -36t-99 -11.5t-99 11.5t-74.5 36.5t-47 63t-16.5 92v365zM193 183q0 -28 18 -47.5t54 -19.5q37 0 55 20t18 47v385q0 27 -18 46.5t-55 19.5q-36 0 -54 -19.5t-18 -46.5v-385z" />
    <glyph glyph-name="odieresis" unicode="&#xf6;" 
d="M283 782v118h117v-118h-117zM130 782v118h118v-118h-118zM28 558q0 54 16.5 92t47 62.5t74.5 36t99 11.5t99 -11.5t75 -36t47.5 -62.5t16.5 -92v-365q0 -54 -16.5 -92.5t-47.5 -63t-75 -36t-99 -11.5t-99 11.5t-74.5 36.5t-47 63t-16.5 92v365zM193 183q0 -28 18 -47.5
t54 -19.5q37 0 55 20t18 47v385q0 27 -18 46.5t-55 19.5q-36 0 -54 -19.5t-18 -46.5v-385z" />
    <glyph glyph-name="divide" unicode="&#xf7;" horiz-adv-x="391" 
d="M132 462v128h128v-128h-128zM27 294v118h337v-118h-337zM260 244v-128h-128v128h128z" />
    <glyph glyph-name="oslash" unicode="&#xf8;" horiz-adv-x="533" 
d="M28 558q0 54 16.5 92t47.5 62.5t75 36t99 11.5q66 0 117 -17l8 17h68l-20 -47q64 -50 64 -155v-365q0 -54 -16.5 -92.5t-47 -63t-74.5 -36t-99 -11.5q-70 0 -117 17l-7 -17h-68l19 47q-32 25 -48.5 63t-16.5 93v365zM327 606q-8 13 -23.5 20.5t-37.5 7.5q-37 0 -55 -19.5
t-18 -46.5v-287zM205 143q9 -12 24 -19.5t37 -7.5q37 0 54.5 20t17.5 47v284z" />
    <glyph glyph-name="ugrave" unicode="&#xf9;" horiz-adv-x="533" 
d="M139 924h130l51 -142h-96zM29 750h165v-567q0 -28 18 -47.5t54 -19.5q37 0 55 20t18 47v567h165v-557q0 -54 -16.5 -92.5t-47.5 -63t-75 -36t-99 -11.5t-99 11.5t-74.5 36.5t-47 63t-16.5 92v557z" />
    <glyph glyph-name="uacute" unicode="&#xfa;" horiz-adv-x="533" 
d="M263 924h130l-85 -142h-97zM29 750h165v-567q0 -28 18 -47.5t54 -19.5q37 0 55 20t18 47v567h165v-557q0 -54 -16.5 -92.5t-47.5 -63t-75 -36t-99 -11.5t-99 11.5t-74.5 36.5t-47 63t-16.5 92v557z" />
    <glyph glyph-name="ucircumflex" unicode="&#xfb;" horiz-adv-x="533" 
d="M208 924h117l113 -142h-108l-61 63h-4l-62 -63h-107zM29 750h165v-567q0 -28 18 -47.5t54 -19.5q37 0 55 20t18 47v567h165v-557q0 -54 -16.5 -92.5t-47.5 -63t-75 -36t-99 -11.5t-99 11.5t-74.5 36.5t-47 63t-16.5 92v557z" />
    <glyph glyph-name="udieresis" unicode="&#xfc;" horiz-adv-x="533" 
d="M400 782h-118v118h118v-118zM248 782h-117v118h117v-118zM29 750h165v-567q0 -28 18 -47.5t54 -19.5q37 0 55 20t18 47v567h165v-557q0 -54 -16.5 -92.5t-47.5 -63t-75 -36t-99 -11.5t-99 11.5t-74.5 36.5t-47 63t-16.5 92v557z" />
    <glyph glyph-name="yacute" unicode="&#xfd;" horiz-adv-x="554" 
d="M408 924l-85 -142h-97l52 142h130zM191 750l86 -330l85 330h173l-176 -510v-240h-165v240l-175 510h172z" />
    <glyph glyph-name="thorn" unicode="&#xfe;" horiz-adv-x="535" 
d="M196 750v-131h74q125 0 184 -54.5t59 -175.5q0 -123 -58 -179.5t-189 -56.5h-70v-153h-165v750h165zM196 493v-214h70q35 0 55 17t23 43q1 8 1.5 20.5t0.5 26t-0.5 26.5t-1.5 21q-3 26 -22 43t-54 17h-72z" />
    <glyph glyph-name="ydieresis" unicode="&#xff;" horiz-adv-x="554" 
d="M296 782v118h118v-118h-118zM143 782v118h118v-118h-118zM191 750l86 -330l85 330h173l-176 -510v-240h-165v240l-175 510h172z" />
    <glyph glyph-name="Dcroat" unicode="&#x110;" horiz-adv-x="550" 
d="M47 750h237q55 0 99 -11.5t75 -36t47.5 -62.5t16.5 -92v-345q0 -54 -16.5 -92.5t-47.5 -63t-75 -36t-99 -11.5h-237v323h-50v118h50v309zM212 323v-197h72q37 0 55 20t18 47v365q0 27 -18 46.5t-55 19.5h-72v-183h70v-118h-70z" />
    <glyph glyph-name="dcroat" unicode="&#x111;" horiz-adv-x="550" 
d="M47 750h237q55 0 99 -11.5t75 -36t47.5 -62.5t16.5 -92v-345q0 -54 -16.5 -92.5t-47.5 -63t-75 -36t-99 -11.5h-237v325h-50v118h50v307zM212 325v-199h72q37 0 55 20t18 47v365q0 27 -18 46.5t-55 19.5h-72v-181h77v-118h-77z" />
    <glyph glyph-name="dotlessi" unicode="&#x131;" horiz-adv-x="227" 
d="M31 750h165v-750h-165v750z" />
    <glyph glyph-name="Lslash" unicode="&#x141;" horiz-adv-x="509" 
d="M90 750h165v-305l102 19v-118l-102 -19v-201h232v-126h-397v298l-70 -12v118l70 13v333z" />
    <glyph glyph-name="lslash" unicode="&#x142;" horiz-adv-x="509" 
d="M90 750h165v-305l102 19v-118l-102 -19v-201h232v-126h-397v298l-70 -12v118l70 13v333z" />
    <glyph glyph-name="OE" unicode="&#x152;" horiz-adv-x="759" 
d="M28 558q0 55 18 93.5t51 62.5t79 35t101 11q26 0 51 -2.5t48 -7.5h359v-126h-232v-190h207v-118h-207v-190h232v-126h-359q-23 -5 -48 -7.5t-51 -2.5q-55 0 -101 11t-79 35.5t-51 63t-18 93.5v365zM193 183q0 -33 25 -49.5t60 -16.5q29 0 44.5 10.5t15.5 23.5v448
q0 13 -15.5 24t-44.5 11q-35 0 -60 -17t-25 -49v-385z" />
    <glyph glyph-name="oe" unicode="&#x153;" horiz-adv-x="759" 
d="M28 558q0 55 18 93.5t51 62.5t79 35t101 11q26 0 51 -2.5t48 -7.5h359v-126h-232v-190h207v-118h-207v-190h232v-126h-359q-23 -5 -48 -7.5t-51 -2.5q-55 0 -101 11t-79 35.5t-51 63t-18 93.5v365zM193 183q0 -33 25 -49.5t60 -16.5q29 0 44.5 10.5t15.5 23.5v448
q0 13 -15.5 24t-44.5 11q-35 0 -60 -17t-25 -49v-385z" />
    <glyph glyph-name="Scaron" unicode="&#x160;" horiz-adv-x="536" 
d="M94 928h108l64 -67h4l64 67h107l-115 -146h-117zM24 537q0 59 17 101.5t49 69.5t77 39.5t101 12.5q59 0 104 -11.5t75.5 -38t46 -69t15.5 -104.5q0 -8 -0.5 -16t-1.5 -16h-165q1 4 1 13.5v14.5q0 20 -3 38t-11 32t-23 22.5t-38 8.5q-34 0 -56 -19.5t-22 -54.5
q0 -38 24 -61t59.5 -40.5t77.5 -34.5t77.5 -43t59.5 -65.5t24 -102.5q0 -59 -17 -101.5t-49 -69.5t-77 -39.5t-101 -12.5q-59 0 -104 11.5t-75.5 38t-46 69t-15.5 104.5v16t1 16h165v-28q0 -19 3 -37.5t11 -32.5t22.5 -22.5t38.5 -8.5q37 0 57.5 22t20.5 59q0 38 -24 60
t-59.5 39t-77.5 33t-77.5 41.5t-59.5 64.5t-24 102z" />
    <glyph glyph-name="scaron" unicode="&#x161;" horiz-adv-x="536" 
d="M94 928h108l64 -67h4l64 67h107l-115 -146h-117zM24 537q0 59 17 101.5t49 69.5t77 39.5t101 12.5q59 0 104 -11.5t75.5 -38t46 -69t15.5 -104.5q0 -8 -0.5 -16t-1.5 -16h-165q1 4 1 13.5v14.5q0 20 -3 38t-11 32t-23 22.5t-38 8.5q-34 0 -56 -19.5t-22 -54.5
q0 -38 24 -61t59.5 -40.5t77.5 -34.5t77.5 -43t59.5 -65.5t24 -102.5q0 -59 -17 -101.5t-49 -69.5t-77 -39.5t-101 -12.5q-59 0 -104 11.5t-75.5 38t-46 69t-15.5 104.5v16t1 16h165v-28q0 -19 3 -37.5t11 -32.5t22.5 -22.5t38.5 -8.5q37 0 57.5 22t20.5 59q0 38 -24 60
t-59.5 39t-77.5 33t-77.5 41.5t-59.5 64.5t-24 102z" />
    <glyph glyph-name="Ydieresis" unicode="&#x178;" horiz-adv-x="554" 
d="M298 782v118h118v-118h-118zM146 782v118h117v-118h-117zM191 750l86 -330l85 330h173l-176 -510v-240h-165v240l-175 510h172z" />
    <glyph glyph-name="Zcaron" unicode="&#x17d;" horiz-adv-x="458" 
d="M163 928l65 -67h3l64 67h108l-115 -146h-117l-115 146h107zM196 126h240v-126h-414v123l240 501h-240v126h415v-123z" />
    <glyph glyph-name="zcaron" unicode="&#x17e;" horiz-adv-x="458" 
d="M163 928l65 -67h3l64 67h108l-115 -146h-117l-115 146h107zM196 126h240v-126h-414v123l240 501h-240v126h415v-123z" />
    <glyph glyph-name="florin" unicode="&#x192;" horiz-adv-x="384" 
d="M25 434h84v124q0 54 16.5 92t47 62.5t74.5 36t99 11.5v-126q-36 0 -54 -19.5t-18 -46.5v-134h88v-118h-88v-123q0 -54 -16.5 -92t-47.5 -63t-75 -36.5t-99 -11.5v126q37 0 55 19.5t18 47.5v133h-84v118z" />
    <glyph glyph-name="circumflex" unicode="&#x2c6;" horiz-adv-x="378" 
d="M247 750l113 -142h-108l-61 63h-4l-62 -63h-107l112 142h117z" />
    <glyph glyph-name="caron" unicode="&#x2c7;" horiz-adv-x="383" 
d="M125 750l65 -67h3l64 67h108l-115 -146h-117l-115 146h107z" />
    <glyph glyph-name="breve" unicode="&#x2d8;" horiz-adv-x="351" 
d="M91 750q0 -13 4.5 -28t14.5 -27.5t26 -21t40 -8.5t40 8.5t25.5 21t14 27.5t4.5 28h73q0 -31 -10.5 -59.5t-31 -50t-49.5 -34.5t-66 -13t-66.5 13t-50 34.5t-31 50t-10.5 59.5h73z" />
    <glyph glyph-name="dotaccent" unicode="&#x2d9;" horiz-adv-x="153" 
d="M136 632h-118v118h118v-118z" />
    <glyph glyph-name="ring" unicode="&#x2da;" horiz-adv-x="230" 
d="M18 671q0 42 27 69.5t70 27.5q42 0 69.5 -27.5t27.5 -69.5q0 -43 -27.5 -70t-69.5 -27q-43 0 -70 27t-27 70zM60 671q0 -24 15.5 -39.5t39.5 -15.5t39 15.5t15 39.5t-15 39t-39 15t-39.5 -15t-15.5 -39z" />
    <glyph glyph-name="ogonek" unicode="&#x2db;" horiz-adv-x="173" 
d="M139 1q-21 0 -34 -15t-13 -32q0 -18 15 -32.5t47 -14.5l1 -110q-35 0 -60.5 11.5t-42.5 30t-25.5 42.5t-8.5 49q0 24 7.5 47.5t23 42t38.5 30t53 11.5z" />
    <glyph glyph-name="tilde" unicode="&#x2dc;" horiz-adv-x="323" 
d="M95 631h-79q0 30 7.5 50.5t19.5 33t27.5 18t31.5 5.5q27 0 54.5 -7t46.5 -7q11 0 18 7.5t8 18.5h79q-2 -61 -28 -84t-60 -23q-27 0 -54.5 7t-45.5 7q-11 0 -18 -7.5t-7 -18.5z" />
    <glyph glyph-name="hungarumlaut" unicode="&#x2dd;" horiz-adv-x="384" 
d="M181 507l62 193h123l-108 -193h-77zM18 507l61 193h124l-108 -193h-77z" />
    <glyph glyph-name="endash" unicode="&#x2013;" horiz-adv-x="387" 
d="M25 434h337v-118h-337v118z" />
    <glyph glyph-name="emdash" unicode="&#x2014;" horiz-adv-x="475" 
d="M25 434h425v-118h-425v118z" />
    <glyph glyph-name="quoteleft" unicode="&#x2018;" horiz-adv-x="179" 
d="M77 750h76l-51 -90h51v-128h-128v127z" />
    <glyph glyph-name="quoteright" unicode="&#x2019;" horiz-adv-x="179" 
d="M102 532h-76l51 90h-51v128h128v-127z" />
    <glyph glyph-name="quotesinglbase" unicode="&#x201a;" horiz-adv-x="182" 
d="M102 -90h-76l51 90h-51v128h128v-126z" />
    <glyph glyph-name="quotedblleft" unicode="&#x201c;" horiz-adv-x="348" 
d="M77 750h76l-51 -90h51v-128h-128v127zM246 750h77l-52 -90h52v-128h-129v127z" />
    <glyph glyph-name="quotedblright" unicode="&#x201d;" horiz-adv-x="348" 
d="M272 532h-77l52 90h-52v128h129v-127zM102 532h-76l51 90h-51v128h128v-127z" />
    <glyph glyph-name="quotedblbase" unicode="&#x201e;" horiz-adv-x="351" 
d="M272 -90h-77l52 90h-52v128h129v-126zM102 -90h-76l51 90h-51v128h128v-126z" />
    <glyph glyph-name="dagger" unicode="&#x2020;" horiz-adv-x="352" 
d="M26 565h86v215h128v-215h86v-118h-86v-477h-128v477h-86v118z" />
    <glyph glyph-name="daggerdbl" unicode="&#x2021;" horiz-adv-x="389" 
d="M131 328v128h-105v118h105v206h127v-206h105v-118h-105v-128h105v-118h-105v-240h-127v240h-105v118h105z" />
    <glyph glyph-name="bullet" unicode="&#x2022;" horiz-adv-x="250" 
d="M26 375q0 42 29 71t71 29q20 0 37.5 -8t31 -21.5t21.5 -31.5t8 -39q0 -20 -8 -38.5t-21.5 -32t-31 -21.5t-37.5 -8q-21 0 -39 8t-31.5 21.5t-21.5 32t-8 38.5z" />
    <glyph glyph-name="ellipsis" unicode="&#x2026;" horiz-adv-x="556" 
d="M156 0h-128v128h128v-128zM342 0h-128v128h128v-128zM528 0h-128v128h128v-128z" />
    <glyph glyph-name="perthousand" unicode="&#x2030;" horiz-adv-x="774" 
d="M24 667q0 47 27 69t70 22t70.5 -22t27.5 -69v-165q0 -46 -27.5 -68.5t-70.5 -22.5t-70 22t-27 69v165zM382 750l-167 -750h-66l166 750h67zM121 701q-11 0 -17 -6.5t-6 -17.5v-184q0 -11 6 -18t17 -7q12 0 18.5 7t6.5 18v184q0 11 -6.5 17.5t-18.5 6.5zM313 256
q0 47 27 69t70 22t70 -22t27 -69v-165q0 -46 -27 -68.5t-70 -22.5t-70 22t-27 69v165zM555 256q0 47 27 69t71 22q43 0 70 -22t27 -69v-165q0 -46 -27 -68.5t-70 -22.5q-44 0 -71 22t-27 69v165zM410 290q-11 0 -17 -6.5t-6 -17.5v-184q0 -11 6 -18t17 -7q12 0 18.5 7
t6.5 18v184q0 11 -6.5 17.5t-18.5 6.5zM653 290q-11 0 -17.5 -6.5t-6.5 -17.5v-184q0 -11 6.5 -18t17.5 -7t18 7t7 18v184q0 11 -7 17.5t-18 6.5z" />
    <glyph glyph-name="guilsinglleft" unicode="&#x2039;" horiz-adv-x="292" 
d="M99 346v-4l173 -163v-109l-252 235v80l252 232v-109z" />
    <glyph glyph-name="guilsinglright" unicode="&#x203a;" horiz-adv-x="292" 
d="M194 346l-173 162v109l252 -232v-80l-252 -235v109l173 163v4z" />
    <glyph glyph-name="fraction" unicode="&#x2044;" horiz-adv-x="356" 
d="M198 750h131l-170 -750h-131z" />
    <glyph glyph-name="Euro" unicode="&#x20ac;" horiz-adv-x="454" 
d="M21 249v81h55v89h-55v81h55v88q0 49 12.5 81t35.5 50.5t55.5 26t71.5 7.5q40 0 72.5 -7.5t55.5 -26t35.5 -50.5t12.5 -81v-21h-128v23q0 23 -13 36t-34 13q-22 0 -35 -13t-13 -36v-90h127v-81h-127v-89h127v-81h-127v-89q0 -23 13 -36t35 -13q21 0 34 13t13 36v23h128
v-20q0 -49 -12.5 -81.5t-35.5 -51t-55.5 -26t-72.5 -7.5q-39 0 -71.5 7.5t-55.5 26.5t-35.5 51t-12.5 81v86h-55z" />
    <glyph glyph-name="trademark" unicode="&#x2122;" horiz-adv-x="471" 
d="M182 750v-42h-54v-208h-55v208h-53v42h162zM284 750l41 -147h2l41 147h79v-250h-55v155l-44 -155h-44l-43 155v-155h-55v250h78z" />
    <glyph glyph-name="minus" unicode="&#x2212;" horiz-adv-x="400" 
d="M25 434h350v-118h-350v118z" />
    </font>
</defs>
</svg>
