<?xml version="1.0" standalone="no"?>
<!DOCTYPE svg PUBLIC "-//W3C//DTD SVG 1.1//EN" "http://www.w3.org/Graphics/SVG/1.1/DTD/svg11.dtd" >
<svg xmlns="http://www.w3.org/2000/svg" xmlns:xlink="http://www.w3.org/1999/xlink" version="1.1">
<metadata>
Created by FontForge 20201107 at Thu Jul 28 03:54:55 2022
 By 
Copyright (c) 2021 by Megatype. All rights reserved.
</metadata>
<defs>
<font id="ChandlerMountain-Black" horiz-adv-x="544" >
  <font-face 
    font-family="Chandler Mountain Black"
    font-weight="900"
    font-stretch="normal"
    units-per-em="1000"
    panose-1="0 0 0 0 0 0 0 0 0 0"
    ascent="800"
    descent="-200"
    x-height="750"
    cap-height="750"
    bbox="-76 -208 1079 1003"
    underline-thickness="50"
    underline-position="-125"
    unicode-range="U+000D-FB02"
  />
<missing-glyph horiz-adv-x="376" 
 />
    <glyph glyph-name="fi" unicode="fi" horiz-adv-x="682" 
d="M15 750h420v-160h-210v-140h185v-150h-185v-300h-210v750zM457 750h210v-750h-210v750z" />
    <glyph glyph-name="fl" unicode="fl" horiz-adv-x="883" 
d="M15 750h420v-160h-210v-140h185v-150h-185v-300h-210v750zM457 750h210v-590h210v-160h-420v750z" />
    <glyph glyph-name=".notdef" horiz-adv-x="376" 
 />
    <glyph glyph-name=".null" horiz-adv-x="0" 
 />
    <glyph glyph-name=".null" horiz-adv-x="0" 
 />
    <glyph glyph-name="uni000D" unicode="&#xd;" horiz-adv-x="250" 
 />
    <glyph glyph-name="space" unicode=" " horiz-adv-x="251" 
 />
    <glyph glyph-name="exclam" unicode="!" horiz-adv-x="214" 
d="M12 750h190l-60 -570h-70zM187 0h-160v160h160v-160z" />
    <glyph glyph-name="quotedbl" unicode="&#x22;" horiz-adv-x="376" 
d="M368 750l-40 -250h-80l-40 250h160zM168 750l-40 -250h-80l-40 250h160z" />
    <glyph glyph-name="numbersign" unicode="#" horiz-adv-x="588" 
d="M83 547h70l34 152h142l-34 -152h77l34 152h142l-34 -152h68l-29 -130h-69l-19 -83h69l-29 -129h-69l-35 -154h-142l35 154h-77l-35 -154h-142l35 154h-69l29 129h69l19 83h-69zM265 417l-19 -83h77l19 83h-77z" />
    <glyph glyph-name="dollar" unicode="$" horiz-adv-x="414" 
d="M135 697v53h160v-56q42 -9 65 -30t33.5 -49.5t12 -62.5t1.5 -70h-178v42q0 11 -6.5 15t-14.5 4q-19 0 -21 -9.5t-2 -25.5q0 -22 21.5 -34t50.5 -26q47 -22 76 -43t45.5 -45.5t22.5 -56.5t6 -77q0 -42 -8 -71.5t-22.5 -49.5t-35 -31.5t-46.5 -17.5v-56h-160v53
q-47 7 -73 26.5t-38 48t-14.5 64.5t-2.5 76h178v-42q0 -11 6.5 -15t14.5 -4q20 0 21.5 12.5t1.5 29.5q0 11 -7 19t-18 14.5t-26 13.5t-32 15q-43 22 -70.5 42t-42.5 44t-20.5 54.5t-5.5 72.5q0 45 9 76t25.5 51t40.5 31t53 15z" />
    <glyph glyph-name="percent" unicode="%" horiz-adv-x="555" 
d="M10 663q0 51 30.5 73t76.5 22t76.5 -22t30.5 -73v-156q0 -51 -30.5 -73.5t-76.5 -22.5t-76.5 22.5t-30.5 73.5v156zM405 758l-170 -750h-84l170 750h84zM102 496q0 -12 15 -12q13 0 13 12v177q0 13 -13 13q-15 0 -15 -13v-177zM331 252q0 51 30.5 73t76.5 22t76.5 -22
t30.5 -73v-156q0 -51 -30.5 -73.5t-76.5 -22.5t-76.5 22.5t-30.5 73.5v156zM423 85q0 -12 15 -12q13 0 13 12v177q0 13 -13 13q-15 0 -15 -13v-177z" />
    <glyph glyph-name="ampersand" unicode="&#x26;" horiz-adv-x="523" 
d="M31 545q0 64 13.5 105t41.5 65t71.5 33.5t103.5 9.5t103 -9.5t71 -33.5t41 -65t13 -105q0 -62 -18 -97.5t-61 -54.5q21 -11 40.5 -25.5t34.5 -34t23.5 -45t8.5 -57.5v-241h-210v20q-28 -7 -64 -9q-6 -1 -11.5 -1h-11.5q-48 0 -87 9t-66.5 32.5t-42.5 64.5t-15 104
q0 21 3.5 48.5t12.5 53.5t24.5 47.5t39.5 30.5v9q-22 8 -33.5 24.5t-17 37t-6.5 43t-1 41.5zM260 576q-12 0 -19 -3.5t-7 -17.5v-66q0 -12 6 -19.5t20 -7.5t20 7.5t6 19.5v66q0 14 -7 17.5t-19 3.5zM261 178q20 0 33 9t13 23v33q0 17 -11.5 28t-31.5 22q-10 5 -21.5 10.5
t-23.5 11.5v-105q0 -14 11.5 -23t30.5 -9z" />
    <glyph glyph-name="quotesingle" unicode="'" horiz-adv-x="176" 
d="M168 750l-40 -250h-80l-40 250h160z" />
    <glyph glyph-name="parenleft" unicode="(" horiz-adv-x="226" 
d="M13 597q0 52 17.5 82.5t46 46t65.5 20t77 4.5v-144q-23 0 -34 -8t-11 -19v-408q0 -11 11 -19t34 -8v-144q-40 0 -77 4.5t-65.5 20t-46 46t-17.5 82.5v444z" />
    <glyph glyph-name="parenright" unicode=")" horiz-adv-x="226" 
d="M213 597v-444q0 -52 -17.5 -82.5t-46 -46t-65.5 -20t-77 -4.5v144q23 0 34 8t11 19v408q0 11 -11 19t-34 8v144q40 0 77 -4.5t65.5 -20t46 -46t17.5 -82.5z" />
    <glyph glyph-name="asterisk" unicode="*" horiz-adv-x="304" 
d="M102 750h98l1 -63l64 23l31 -79l-69 -34l50 -51l-77 -64l-49 60l-49 -60l-77 64l51 52l-68 33l31 79l62 -22z" />
    <glyph glyph-name="plus" unicode="+" horiz-adv-x="358" 
d="M9 450h90v95h160v-95h90v-150h-90v-95h-160v95h-90v150z" />
    <glyph glyph-name="comma" unicode="," horiz-adv-x="182" 
d="M105 -112h-95l64 112h-64v160h160v-158z" />
    <glyph glyph-name="hyphen" unicode="-" horiz-adv-x="318" 
d="M9 450h300v-150h-300v150z" />
    <glyph glyph-name="period" unicode="." horiz-adv-x="184" 
d="M172 0h-160v160h160v-160z" />
    <glyph glyph-name="slash" unicode="/" horiz-adv-x="268" 
d="M102 750h161l-97 -750h-161z" />
    <glyph glyph-name="zero" unicode="0" horiz-adv-x="504" 
d="M12 550q0 55 18.5 94.5t51 65t76 38t94.5 12.5t94.5 -12.5t76 -38t51 -65t18.5 -94.5v-350q0 -55 -18.5 -94.5t-51 -65t-76 -38t-94.5 -12.5t-94.5 12.5t-76 38t-51 65t-18.5 94.5v350zM252 600q-30 0 -30 -30v-390q0 -30 30 -30t30 30v390q0 30 -30 30z" />
    <glyph glyph-name="one" unicode="1" horiz-adv-x="316" 
d="M6 540v160l95 50h200v-750h-210v560z" />
    <glyph glyph-name="two" unicode="2" horiz-adv-x="501" 
d="M250 601q-14 0 -21.5 -9.5t-7.5 -23.5v-78h-210v50q0 66 16 108.5t47 67.5t75 34.5t101 9.5q64 0 109.5 -11t75 -38t43 -73.5t13.5 -117.5q0 -61 -19.5 -106t-48 -79t-62.5 -58.5t-62.5 -44.5t-48 -37t-19.5 -35h241v-160h-451v156q0 56 19.5 96.5t48 70.5t62.5 52.5
t62.5 43.5t48 43t19.5 51v41q0 17 -5 32t-26 15z" />
    <glyph glyph-name="three" unicode="3" horiz-adv-x="496" 
d="M7 490v50q0 66 16 108.5t47 67.5t75 34.5t101 9.5q64 0 109.5 -11t75 -38t43 -73.5t13.5 -117.5q0 -19 -2 -41t-8 -41.5t-18 -35t-32 -22.5v-10q20 -7 32 -22t18 -34.5t8 -41.5t2 -42q0 -71 -13.5 -117.5t-43 -73.5t-75 -38t-109.5 -11q-57 0 -101 9.5t-75 34.5t-47 67.5
t-16 108.5v50h210v-68q0 -43 29 -43q14 0 20.5 7.5t8.5 19.5t2 28v33q0 22 -1.5 34.5t-9.5 19t-25 8t-47 1.5v150q30 0 47 1.5t25 8t9.5 19t1.5 34.5q0 14 0.5 29t-2 28.5t-9 22t-20.5 8.5q-29 0 -29 -43v-68h-210z" />
    <glyph glyph-name="four" unicode="4" horiz-adv-x="487" 
d="M441 197v-197h-210v197h-226v150l184 403h252v-403h40v-150h-40zM231 347v246l-103 -246h103z" />
    <glyph glyph-name="five" unicode="5" horiz-adv-x="504" 
d="M473 750v-160h-250v-100q11 1 21.5 1h20.5q60 0 103 -12t71 -39.5t41 -73.5t13 -115q0 -71 -10 -121t-36.5 -81t-73.5 -45t-121 -14q-60 0 -104.5 10.5t-74.5 36t-45 68t-15 105.5v50h210v-78q0 -14 7.5 -23.5t21.5 -9.5q21 0 26 15t5 32v99q0 17 -5 32t-26 15
q-11 0 -20.5 -4.5t-8.5 -17.5h-210v430h460z" />
    <glyph glyph-name="six" unicode="6" horiz-adv-x="504" 
d="M12 550q0 54 18 93.5t49.5 65.5t76 38.5t96.5 12.5q53 0 97 -12.5t75.5 -38.5t49.5 -65.5t18 -93.5v-50h-210v70q0 12 -6.5 21t-23.5 9t-23.5 -9t-6.5 -21v-111q8 1 15 1h15q118 0 180 -54.5t62 -178.5q0 -125 -61 -181t-181 -56q-52 0 -96.5 13t-76 39t-49.5 65.5
t-18 92.5v350zM252 300q-17 0 -23.5 -9t-6.5 -21v-90q0 -12 6.5 -21t23.5 -9t23.5 9t6.5 21v90q0 12 -6.5 21t-23.5 9z" />
    <glyph glyph-name="seven" unicode="7" horiz-adv-x="391" 
d="M47 0l121 590h-161v160h378v-156l-120 -594h-218z" />
    <glyph glyph-name="eight" unicode="8" horiz-adv-x="500" 
d="M9 224q0 19 1 41.5t7 43t18 37.5t34 24v10q-22 8 -34.5 26t-18 40t-6.5 46t-1 43q0 66 13 109.5t41.5 69t73.5 36t109 10.5q66 0 112.5 -9t76 -34t43 -69t13.5 -113q0 -19 -1 -43t-6.5 -46t-17.5 -40t-35 -26v-10q22 -7 34 -24t18 -37.5t7 -43t1 -41.5q0 -67 -11.5 -112
t-38.5 -72t-72 -38.5t-113 -11.5q-69 0 -116 10t-76 36t-42 71.5t-13 116.5zM249 600q-30 0 -30 -30v-91q0 -28 26 -28h10q14 0 19 7.5t5 20.5v91q0 30 -30 30zM219 271v-91q0 -30 30 -30t30 30v91q0 11 -5.5 20.5t-18.5 9.5h-10q-13 0 -19.5 -9t-6.5 -21z" />
    <glyph glyph-name="nine" unicode="9" horiz-adv-x="504" 
d="M10 523q0 125 61 181t181 56q53 0 97 -13t75.5 -39t49.5 -65.5t18 -92.5v-350q0 -54 -18 -93.5t-49.5 -65.5t-75.5 -38.5t-97 -12.5q-52 0 -96.5 12.5t-76 38.5t-49.5 65.5t-18 93.5v50h210v-70q0 -12 6.5 -21t23.5 -9t23.5 9t6.5 21v111q-8 -1 -15 -1h-15
q-118 0 -180 54.5t-62 178.5zM252 600q-17 0 -23.5 -9t-6.5 -21v-90q0 -12 6.5 -21t23.5 -9t23.5 9t6.5 21v90q0 12 -6.5 21t-23.5 9z" />
    <glyph glyph-name="colon" unicode=":" horiz-adv-x="184" 
d="M12 480h160v-160h-160v160zM12 160h160v-160h-160v160z" />
    <glyph glyph-name="semicolon" unicode=";" horiz-adv-x="182" 
d="M10 480h160v-160h-160v160zM10 160h160v-158l-65 -114h-95l64 112h-64v160z" />
    <glyph glyph-name="less" unicode="&#x3c;" horiz-adv-x="273" 
d="M9 444l255 105v-132l-160 -71v-4l160 -73v-132l-255 109v198z" />
    <glyph glyph-name="equal" unicode="=" horiz-adv-x="368" 
d="M9 500h350v-150h-350v150zM9 254h350v-150h-350v150z" />
    <glyph glyph-name="greater" unicode="&#x3e;" horiz-adv-x="273" 
d="M264 444v-198l-255 -109v132l160 73v4l-160 71v132z" />
    <glyph glyph-name="question" unicode="?" horiz-adv-x="452" 
d="M6 500v50q0 68 14 109.5t41.5 64t67.5 29.5t92 7t93.5 -7.5t71 -33t45 -72.5t15.5 -127q0 -61 -19 -101t-47.5 -67t-62 -45.5t-62 -36t-47.5 -38.5t-19 -52h-110q0 56 12.5 94.5t31 65.5t40 46t40 36t31 35.5t12.5 44.5v34.5t-2 21.5t-7.5 11t-16.5 3t-17.5 -4t-6.5 -18
v-50h-190zM214 0h-160v160h160v-160z" />
    <glyph glyph-name="at" unicode="@" horiz-adv-x="678" 
d="M12 370q0 92 18 163t59.5 119t108 73t163.5 25q84 0 142 -17.5t94 -55t52.5 -96t16.5 -141.5q0 -55 -5.5 -107t-25.5 -92t-58.5 -64.5t-103.5 -24.5h-140q-36 0 -62.5 5t-43.5 18.5t-25.5 38t-8.5 63.5v196q0 39 8.5 63.5t25.5 38t43.5 18.5t62.5 5h140v-309
q0 -20 7 -33.5t31 -13.5q29 0 44 21t22 49.5t8 59.5t1 50q0 67 -8.5 114t-32.5 77t-68 43.5t-116 13.5q-81 0 -133.5 -18.5t-82.5 -56t-41.5 -93.5t-11.5 -132q0 -64 12 -118t41 -93.5t76.5 -61.5t118.5 -22t137 21l24 -76q-39 -12 -79.5 -18.5t-81.5 -6.5q-88 0 -150.5 28
t-102 78t-57.5 119t-18 150zM318 277q0 -13 14 -13h16v222h-16q-14 0 -14 -13v-196z" />
    <glyph glyph-name="A" unicode="A" horiz-adv-x="518" 
d="M97 750h324l97 -750h-214l-11 195h-68l-11 -195h-214zM233 345h52l-14 245h-24z" />
    <glyph glyph-name="B" unicode="B" horiz-adv-x="541" 
d="M275 750q60 0 108 -11.5t82 -37t52 -65t18 -96.5q0 -25 -1.5 -50.5t-7.5 -47.5t-18 -38t-33 -24v-10q21 -7 33 -23t18 -37.5t7.5 -47t1.5 -52.5q0 -57 -18 -96.5t-52 -65t-82 -37t-108 -11.5h-260v750h260zM275 459q26 0 38 12.5t12 27.5v51q0 15 -12 27.5t-38 12.5h-50
v-131h50zM275 160q19 0 34.5 9.5t15.5 30.5v79q0 21 -15.5 30.5t-34.5 9.5h-50v-159h50z" />
    <glyph glyph-name="C" unicode="C" 
d="M532 200q0 -57 -18 -96.5t-52 -65t-82 -37t-108 -11.5t-108 11.5t-82 37t-52 65t-18 96.5v350q0 57 18 96.5t52 65t82 37t108 11.5t108 -11.5t82 -37t52 -65t18 -96.5v-120h-210v130q0 15 -12 27.5t-38 12.5t-38 -12.5t-12 -27.5v-370q0 -15 12 -27.5t38 -12.5t38 12.5
t12 27.5v130h210v-120z" />
    <glyph glyph-name="D" unicode="D" horiz-adv-x="547" 
d="M15 750h260q60 0 108 -11.5t82 -37t52 -65t18 -96.5v-330q0 -57 -18 -96.5t-52 -65t-82 -37t-108 -11.5h-260v750zM275 160q26 0 38 12.5t12 27.5v350q0 15 -12 27.5t-38 12.5h-50v-430h50z" />
    <glyph glyph-name="E" unicode="E" horiz-adv-x="443" 
d="M15 750h420v-160h-210v-140h185v-150h-185v-140h210v-160h-420v750z" />
    <glyph glyph-name="F" unicode="F" horiz-adv-x="442" 
d="M15 750h420v-160h-210v-140h185v-150h-185v-300h-210v750z" />
    <glyph glyph-name="G" unicode="G" horiz-adv-x="545" 
d="M12 550q0 57 18 96.5t52 65t82 37t108 11.5t108 -11.5t82 -37t52 -65t18 -96.5v-70h-210v80q0 15 -12 27.5t-38 12.5t-38 -12.5t-12 -27.5v-370q0 -15 12 -27.5t38 -12.5t38 12.5t12 27.5v46h-45v150h255v-186q0 -57 -18 -96.5t-52 -65t-82 -37t-108 -11.5t-108 11.5
t-82 37t-52 65t-18 96.5v350z" />
    <glyph glyph-name="H" unicode="H" horiz-adv-x="550" 
d="M15 750h210v-300h100v300h210v-750h-210v300h-100v-300h-210v750z" />
    <glyph glyph-name="I" unicode="I" horiz-adv-x="240" 
d="M15 750h210v-750h-210v750z" />
    <glyph glyph-name="J" unicode="J" horiz-adv-x="310" 
d="M297 750v-540q0 -68 -17.5 -109.5t-48.5 -64t-74 -29.5t-95 -7h-57v160h17q11 0 22 1t21 4t16 9.5t6 17.5v558h210z" />
    <glyph glyph-name="K" unicode="K" horiz-adv-x="532" 
d="M15 750h210v-300h5l95 300h210l-120 -375l120 -375h-210l-95 300h-5v-300h-210v750z" />
    <glyph glyph-name="L" unicode="L" horiz-adv-x="441" 
d="M15 750h210v-590h210v-160h-420v750z" />
    <glyph glyph-name="M" unicode="M" horiz-adv-x="752" 
d="M305 750l70 -590h2l70 590h290v-750h-210v387l-50 -387h-202l-50 387v-387h-210v750h290z" />
    <glyph glyph-name="N" unicode="N" horiz-adv-x="550" 
d="M15 750h210l100 -414v414h210v-750h-210l-100 414v-414h-210v750z" />
    <glyph glyph-name="O" unicode="O" 
d="M12 550q0 57 18 96.5t52 65t82 37t108 11.5t108 -11.5t82 -37t52 -65t18 -96.5v-350q0 -57 -18 -96.5t-52 -65t-82 -37t-108 -11.5t-108 11.5t-82 37t-52 65t-18 96.5v350zM222 190q0 -15 12 -27.5t38 -12.5t38 12.5t12 27.5v370q0 15 -12 27.5t-38 12.5t-38 -12.5
t-12 -27.5v-370z" />
    <glyph glyph-name="P" unicode="P" 
d="M277 750q65 0 114 -12.5t81.5 -40.5t49 -72.5t16.5 -109.5q0 -66 -15 -112.5t-47 -76t-81.5 -42.5t-118.5 -13h-51v-271h-210v750h262zM225 590v-159h50q26 0 38 12.5t12 27.5v79q0 15 -12 27.5t-38 12.5h-50z" />
    <glyph glyph-name="Q" unicode="Q" horiz-adv-x="550" 
d="M12 550q0 57 18 96.5t52 65t82 37t108 11.5t108 -11.5t82 -37t52 -65t18 -96.5v-350q0 -54 -16.5 -92.5t-47.5 -64.5l88 -67q-13 -11 -37 -29.5t-49.5 -38.5t-48 -37t-31.5 -24q-4 6 -20 27t-34 45t-34 45t-20 26q-55 0 -104 9t-86 32.5t-58.5 64t-21.5 104.5v350z
M272 600q-26 0 -38 -12.5t-12 -27.5v-370q0 -15 12 -27.5t38 -12.5t38 12.5t12 27.5v370q0 15 -12 27.5t-38 12.5z" />
    <glyph glyph-name="R" unicode="R" horiz-adv-x="538" 
d="M15 750h262q65 0 114 -12.5t81.5 -40.5t49 -72.5t16.5 -109.5q0 -85 -25 -137.5t-79 -78.5l96 -299h-199l-86 271h-20v-271h-210v750zM275 431q26 0 38 12.5t12 27.5v79q0 15 -12 27.5t-38 12.5h-50v-159h50z" />
    <glyph glyph-name="S" unicode="S" horiz-adv-x="538" 
d="M8 528q0 64 18.5 108.5t52.5 72t82 39.5t108 12q63 0 111.5 -10.5t81.5 -36t50.5 -69.5t17.5 -112v-16t-1 -16h-210v27q0 14 -1.5 27t-6.5 23t-15 16.5t-27 6.5q-19 0 -34.5 -9.5t-15.5 -30.5q0 -33 23 -53t57.5 -36.5t75 -33.5t75 -44t57.5 -67.5t23 -103.5
q0 -64 -18.5 -108.5t-52.5 -72t-82 -39.5t-108 -12q-63 0 -111.5 10.5t-81.5 36t-50.5 70t-17.5 111.5v16t1 16h210v-27q0 -14 1 -27t6 -23.5t15 -16.5t28 -6q23 0 36.5 12.5t13.5 36.5q0 33 -23 52.5t-57.5 34.5t-75 31t-75 42t-57.5 65.5t-23 103.5z" />
    <glyph glyph-name="T" unicode="T" horiz-adv-x="522" 
d="M516 750v-160h-150v-590h-210v590h-150v160h510z" />
    <glyph glyph-name="U" unicode="U" horiz-adv-x="546" 
d="M13 750h210v-560q0 -15 12 -27.5t38 -12.5t38 12.5t12 27.5v560h210v-550q0 -57 -18 -96.5t-52 -65t-82 -37t-108 -11.5t-108 11.5t-82 37t-52 65t-18 96.5v550z" />
    <glyph glyph-name="V" unicode="V" 
d="M3 750h220l42 -590h14l42 590h220l-97 -750h-344z" />
    <glyph glyph-name="W" unicode="W" horiz-adv-x="816" 
d="M3 750h220l42 -590h14l28 590h202l28 -590h14l42 590h220l-97 -750h-282l-25 580h-2l-25 -580h-282z" />
    <glyph glyph-name="X" unicode="X" horiz-adv-x="556" 
d="M3 750h210l62 -290h6l62 290h210l-90 -375l90 -375h-210l-62 290h-6l-62 -290h-210l90 375z" />
    <glyph glyph-name="Y" unicode="Y" horiz-adv-x="570" 
d="M223 750l62 -299l62 299h220l-177 -525v-225h-210v225l-177 525h220z" />
    <glyph glyph-name="Z" unicode="Z" horiz-adv-x="442" 
d="M228 160h208v-160h-430v156l208 434h-208v160h430v-156z" />
    <glyph glyph-name="bracketleft" unicode="[" horiz-adv-x="272" 
d="M15 750h250v-145h-90v-460h90v-145h-250v750z" />
    <glyph glyph-name="backslash" unicode="\" horiz-adv-x="268" 
d="M166 750l97 -750h-161l-97 750h161z" />
    <glyph glyph-name="bracketright" unicode="]" horiz-adv-x="272" 
d="M257 750v-750h-250v145h90v460h-90v145h250z" />
    <glyph glyph-name="asciicircum" unicode="^" horiz-adv-x="328" 
d="M65 750h198l57 -276h-132l-22 181h-4l-22 -181h-132z" />
    <glyph glyph-name="underscore" unicode="_" horiz-adv-x="418" 
d="M9 -10h400v-110h-400v110z" />
    <glyph glyph-name="grave" unicode="`" horiz-adv-x="220" 
d="M2 750h160l56 -156h-122z" />
    <glyph glyph-name="a" unicode="a" horiz-adv-x="518" 
d="M97 750h324l97 -750h-214l-11 195h-68l-11 -195h-214q2 14 6.5 50.5t11.5 87.5t15 112.5t16 124.5t16 124.5t14.5 112.5t11 87.5t6.5 50.5zM233 345h52l-14 245h-24z" />
    <glyph glyph-name="b" unicode="b" horiz-adv-x="541" 
d="M275 750q60 0 108 -11.5t82 -37t52 -65t18 -96.5q0 -25 -1.5 -50.5t-7.5 -47.5t-18 -38t-33 -24v-10q21 -7 33 -23t18 -37.5t7.5 -47t1.5 -52.5q0 -57 -18 -96.5t-52 -65t-82 -37t-108 -11.5h-260v750h260zM275 459q26 0 38 12.5t12 27.5v51q0 15 -12 27.5t-38 12.5h-50
v-131h50zM275 160q19 0 34.5 9.5t15.5 30.5v79q0 21 -15.5 30.5t-34.5 9.5h-50v-159h50z" />
    <glyph glyph-name="c" unicode="c" 
d="M532 200q0 -57 -18 -96.5t-52 -65t-82 -37t-108 -11.5t-108 11.5t-82 37t-52 65t-18 96.5v350q0 57 18 96.5t52 65t82 37t108 11.5t108 -11.5t82 -37t52 -65t18 -96.5v-120h-210v130q0 15 -12 27.5t-38 12.5t-38 -12.5t-12 -27.5v-370q0 -15 12 -27.5t38 -12.5t38 12.5
t12 27.5v130h210v-120z" />
    <glyph glyph-name="d" unicode="d" horiz-adv-x="545" 
d="M13 750h260q60 0 108 -11.5t82 -37t52 -65t18 -96.5v-330q0 -57 -18 -96.5t-52 -65t-82 -37t-108 -11.5h-260v750zM273 160q26 0 38 12.5t12 27.5v350q0 15 -12 27.5t-38 12.5h-50v-430h50z" />
    <glyph glyph-name="e" unicode="e" horiz-adv-x="443" 
d="M15 750h420v-160h-210v-140h185v-150h-185v-140h210v-160h-420v750z" />
    <glyph glyph-name="f" unicode="f" horiz-adv-x="442" 
d="M15 750h420v-160h-210v-140h185v-150h-185v-300h-210v750z" />
    <glyph glyph-name="g" unicode="g" horiz-adv-x="545" 
d="M12 550q0 57 18 96.5t52 65t82 37t108 11.5t108 -11.5t82 -37t52 -65t18 -96.5v-70h-210v80q0 15 -12 27.5t-38 12.5t-38 -12.5t-12 -27.5v-370q0 -15 12 -27.5t38 -12.5t38 12.5t12 27.5v46h-45v150h255v-186q0 -57 -18 -96.5t-52 -65t-82 -37t-108 -11.5t-108 11.5
t-82 37t-52 65t-18 96.5v350z" />
    <glyph glyph-name="h" unicode="h" horiz-adv-x="550" 
d="M15 750h210v-300h100v300h210v-750h-210v300h-100v-300h-210v750z" />
    <glyph glyph-name="i" unicode="i" horiz-adv-x="240" 
d="M15 750h210v-750h-210v750z" />
    <glyph glyph-name="j" unicode="j" horiz-adv-x="310" 
d="M297 750v-540q0 -68 -17.5 -109.5t-48.5 -64t-74 -29.5t-95 -7h-57v160h17q11 0 22 1t21 4t16 9.5t6 17.5v558h210z" />
    <glyph glyph-name="k" unicode="k" horiz-adv-x="532" 
d="M15 750h210v-300h5l95 300h210l-120 -375l120 -375h-210l-95 300h-5v-300h-210v750z" />
    <glyph glyph-name="l" unicode="l" horiz-adv-x="441" 
d="M15 750h210v-590h210v-160h-420v750z" />
    <glyph glyph-name="m" unicode="m" horiz-adv-x="752" 
d="M305 750l70 -590h2l70 590h290v-750h-210v387l-50 -387h-202l-50 387v-387h-210v750h290z" />
    <glyph glyph-name="n" unicode="n" horiz-adv-x="550" 
d="M15 750h210l100 -414v414h210v-750h-210l-100 414v-414h-210v750z" />
    <glyph glyph-name="o" unicode="o" 
d="M12 550q0 57 18 96.5t52 65t82 37t108 11.5t108 -11.5t82 -37t52 -65t18 -96.5v-350q0 -57 -18 -96.5t-52 -65t-82 -37t-108 -11.5t-108 11.5t-82 37t-52 65t-18 96.5v350zM222 190q0 -15 12 -27.5t38 -12.5t38 12.5t12 27.5v370q0 15 -12 27.5t-38 12.5t-38 -12.5
t-12 -27.5v-370z" />
    <glyph glyph-name="p" unicode="p" 
d="M277 750q65 0 114 -12.5t81.5 -40.5t49 -72.5t16.5 -109.5q0 -66 -15 -112.5t-47 -76t-81.5 -42.5t-118.5 -13h-51v-271h-210v750h262zM225 590v-159h50q26 0 38 12.5t12 27.5v79q0 15 -12 27.5t-38 12.5h-50z" />
    <glyph glyph-name="q" unicode="q" horiz-adv-x="550" 
d="M12 550q0 57 18 96.5t52 65t82 37t108 11.5t108 -11.5t82 -37t52 -65t18 -96.5v-350q0 -54 -16.5 -92.5t-47.5 -64.5l88 -67q-13 -11 -37 -29.5t-49.5 -38.5t-48 -37t-31.5 -24q-4 6 -20 27t-34 45t-34 45t-20 26q-55 0 -104 9t-86 32.5t-58.5 64t-21.5 104.5v350z
M272 600q-26 0 -38 -12.5t-12 -27.5v-370q0 -15 12 -27.5t38 -12.5t38 12.5t12 27.5v370q0 15 -12 27.5t-38 12.5z" />
    <glyph glyph-name="r" unicode="r" horiz-adv-x="538" 
d="M15 750h262q65 0 114 -12.5t81.5 -40.5t49 -72.5t16.5 -109.5q0 -85 -25 -137.5t-79 -78.5l96 -299h-199l-86 271h-20v-271h-210v750zM275 431q26 0 38 12.5t12 27.5v79q0 15 -12 27.5t-38 12.5h-50v-159h50z" />
    <glyph glyph-name="s" unicode="s" horiz-adv-x="538" 
d="M8 528q0 64 18.5 108.5t52.5 72t82 39.5t108 12q63 0 111.5 -10.5t81.5 -36t50.5 -69.5t17.5 -112v-16t-1 -16h-210v27q0 14 -1.5 27t-6.5 23t-15 16.5t-27 6.5q-19 0 -34.5 -9.5t-15.5 -30.5q0 -33 23 -53t57.5 -36.5t75 -33.5t75 -44t57.5 -67.5t23 -103.5
q0 -64 -18.5 -108.5t-52.5 -72t-82 -39.5t-108 -12q-63 0 -111.5 10.5t-81.5 36t-50.5 70t-17.5 111.5v16t1 16h210v-27q0 -14 1 -27t6 -23.5t15 -16.5t28 -6q23 0 36.5 12.5t13.5 36.5q0 33 -23 52.5t-57.5 34.5t-75 31t-75 42t-57.5 65.5t-23 103.5z" />
    <glyph glyph-name="t" unicode="t" horiz-adv-x="522" 
d="M516 750v-160h-150v-590h-210v590h-150v160h510z" />
    <glyph glyph-name="u" unicode="u" horiz-adv-x="546" 
d="M13 750h210v-560q0 -15 12 -27.5t38 -12.5t38 12.5t12 27.5v560h210v-550q0 -57 -18 -96.5t-52 -65t-82 -37t-108 -11.5t-108 11.5t-82 37t-52 65t-18 96.5v550z" />
    <glyph glyph-name="v" unicode="v" 
d="M3 750h220l42 -590h14l42 590h220l-97 -750h-344z" />
    <glyph glyph-name="w" unicode="w" horiz-adv-x="816" 
d="M3 750h220l42 -590h14l28 590h202l28 -590h14l42 590h220l-97 -750h-282l-25 580h-2l-25 -580h-282z" />
    <glyph glyph-name="x" unicode="x" horiz-adv-x="556" 
d="M3 750h210l62 -290h6l62 290h210l-90 -375l90 -375h-210l-62 290h-6l-62 -290h-210l90 375z" />
    <glyph glyph-name="y" unicode="y" horiz-adv-x="570" 
d="M223 750l62 -299l62 299h220l-177 -525v-225h-210v225l-177 525h220z" />
    <glyph glyph-name="z" unicode="z" horiz-adv-x="442" 
d="M228 160h208v-160h-430v156l208 434h-208v160h430v-156z" />
    <glyph glyph-name="braceleft" unicode="{" horiz-adv-x="268" 
d="M5 390q26 18 37 42.5t14 52t1 56.5t-2 56q0 51 16.5 81t44.5 46t65.5 21t79.5 5v-144q-12 0 -28.5 -5.5t-16.5 -21.5q0 -21 1.5 -51.5t-1.5 -60.5t-14 -54t-36 -33v-10q25 -9 36 -33t14 -54t1.5 -60.5t-1.5 -51.5q0 -16 16.5 -21.5t28.5 -5.5v-144q-42 0 -79.5 5
t-65.5 21t-44.5 46t-16.5 81q0 27 2 56t-1 56.5t-14 52t-37 42.5v30z" />
    <glyph glyph-name="bar" unicode="|" horiz-adv-x="196" 
d="M18 780h160v-810h-160v810z" />
    <glyph glyph-name="braceright" unicode="}" horiz-adv-x="268" 
d="M263 360q-26 -18 -37 -42.5t-14 -52t-1 -56.5t2 -56q0 -51 -16.5 -81t-44.5 -46t-65.5 -21t-79.5 -5v144q12 0 28.5 5.5t16.5 21.5q0 21 -1.5 51.5t1.5 60.5t14 54t36 33v10q-25 9 -36 33t-14 54t-1.5 60.5t1.5 51.5q0 16 -16.5 21.5t-28.5 5.5v144q42 0 79.5 -5
t65.5 -21t44.5 -46t16.5 -81q0 -27 -2 -56t1 -56.5t14 -52t37 -42.5v-30z" />
    <glyph glyph-name="asciitilde" unicode="~" horiz-adv-x="506" 
d="M9 235q0 54 13 90.5t34 58t48 31t56 9.5q41 0 81.5 -7.5t66.5 -7.5q17 0 26.5 13t9.5 27h153q0 -54 -13 -90.5t-34 -58t-48 -31t-56 -9.5q-41 0 -81.5 7.5t-66.5 7.5q-17 0 -26.5 -13t-9.5 -27h-153z" />
    <glyph glyph-name="exclamdown" unicode="&#xa1;" horiz-adv-x="214" 
d="M187 700v-160h-160v160h160zM12 -50l60 570h70l60 -570h-190z" />
    <glyph glyph-name="cent" unicode="&#xa2;" horiz-adv-x="541" 
d="M11 480q0 94 47.5 142t132.5 62v76h160v-76q85 -14 132.5 -62t47.5 -142v-54h-210v64q0 15 -12 27.5t-38 12.5t-38 -12.5t-12 -27.5v-230q0 -15 12 -27.5t38 -12.5t38 12.5t12 27.5v66h210v-56q0 -94 -47.5 -142t-132.5 -62v-76h-160v76q-85 14 -132.5 62t-47.5 142v210z
" />
    <glyph glyph-name="sterling" unicode="&#xa3;" horiz-adv-x="584" 
d="M417 407v-150h-150v-97h290v-160h-500v257h-50v150h50v143q0 57 18 96.5t52 65t82 37t108 11.5t108 -11.5t82 -37t52 -65t18 -96.5v-60h-210v70q0 15 -12 27.5t-38 12.5t-38 -12.5t-12 -27.5v-153h150z" />
    <glyph glyph-name="currency" unicode="&#xa4;" horiz-adv-x="540" 
d="M49 369q0 31 8 59t22 53l-69 66l112 115l82 -79q35 12 72 12q35 0 70 -11l77 79l107 -104l-64 -66q17 -27 27 -58t10 -66q0 -36 -10.5 -68.5t-29.5 -59.5l67 -69l-107 -104l-81 84q-30 -10 -66 -10q-17 0 -34 2.5t-33 7.5l-87 -83l-112 115l71 68q-15 26 -23.5 55.5
t-8.5 61.5zM276 242q26 0 49.5 10t40.5 27t27 40t10 50q0 26 -10 49t-27 40t-40.5 27t-49.5 10t-49 -10t-40.5 -27t-27.5 -40t-10 -49q0 -27 10 -50t27.5 -40t40.5 -27t49 -10z" />
    <glyph glyph-name="yen" unicode="&#xa5;" horiz-adv-x="572" 
d="M224 750l62 -259l62 259h220l-129 -354h62v-100h-98l-9 -24l-1 -21h108v-100h-110v-151h-210v151h-110v100h108l-1 21l-9 24h-98v100h62l-129 354h220z" />
    <glyph glyph-name="brokenbar" unicode="&#xa6;" horiz-adv-x="192" 
d="M16 454v326h160v-326h-160zM16 -20v326h160v-326h-160z" />
    <glyph glyph-name="section" unicode="&#xa7;" horiz-adv-x="552" 
d="M15 528q0 64 18.5 108.5t52.5 72t82 39.5t108 12q63 0 111.5 -10.5t81.5 -36t50.5 -69.5t17.5 -112v-16t-1 -16h-210v27q0 14 -1.5 27t-6.5 23t-15 16.5t-27 6.5q-19 0 -34.5 -9.5t-15.5 -30.5q0 -25 14 -42.5t37.5 -31.5t52.5 -26t59.5 -26.5t58.5 -33.5t49 -47v-11
q-21 4 -57.5 11.5t-80.5 16.5t-92 19t-92.5 19.5t-82 17t-60.5 12.5q-8 19 -12.5 41t-4.5 49zM537 222q0 -64 -18.5 -108.5t-52.5 -72t-82 -39.5t-108 -12q-63 0 -111.5 10.5t-81.5 36t-50.5 70t-17.5 111.5v16t1 16h210v-27q0 -14 1 -27t6 -23.5t15 -16.5t28 -6
q23 0 36.5 12.5t13.5 36.5q0 26 -14.5 43t-38 30t-53 24.5t-60 25.5t-59 33t-48.5 47v11q7 -1 42 -8.5t84.5 -17.5t106.5 -22t106.5 -22t84.5 -17.5t41 -8.5q9 -20 14 -43t5 -52z" />
    <glyph glyph-name="dieresis" unicode="&#xa8;" horiz-adv-x="330" 
d="M328 604h-146v146h146v-146zM148 604h-146v146h146v-146z" />
    <glyph glyph-name="copyright" unicode="&#xa9;" horiz-adv-x="790" 
d="M15 373q0 82 28.5 151.5t79.5 120.5t120.5 79.5t151.5 28.5t151.5 -28.5t120.5 -79.5t79.5 -120.5t28.5 -151.5t-28.5 -151.5t-79.5 -120.5t-120.5 -79.5t-151.5 -28.5t-151.5 28.5t-120.5 79.5t-79.5 120.5t-28.5 151.5zM86 373q0 -67 23.5 -123.5t64.5 -97.5
t97.5 -64.5t123.5 -23.5t123.5 23.5t98 64.5t64.5 97.5t23 123.5t-23 123.5t-64.5 98t-98 64.5t-123.5 23t-123.5 -23t-97.5 -64.5t-64.5 -98t-23.5 -123.5zM579 336v-85q0 -79 -49.5 -113.5t-134.5 -34.5t-134.5 34.5t-49.5 113.5v248q0 40 13 68t37 46t58 26t76 8t76 -8
t58 -26t37 -46t13 -68v-85h-149v92q0 11 -8 19.5t-27 8.5t-27 -8.5t-8 -19.5v-262q0 -11 8 -19.5t27 -8.5t27 8.5t8 19.5v92h149z" />
    <glyph glyph-name="ordfeminine" unicode="&#xaa;" horiz-adv-x="251" 
d="M51 750h148l44 -339h-97l-5 87h-33l-4 -87h-96zM112 566h23l-5 112h-12z" />
    <glyph glyph-name="guillemotleft" unicode="&#xab;" horiz-adv-x="459" 
d="M294 346v-4l160 -153v-132l-255 239v98l255 235v-132zM99 346v-4l160 -153v-132l-255 239v98l255 235v-132z" />
    <glyph glyph-name="logicalnot" unicode="&#xac;" horiz-adv-x="462" 
d="M15 313h432v-292h-110v182h-322v110z" />
    <glyph glyph-name="registered" unicode="&#xae;" horiz-adv-x="776" 
d="M388 753q82 0 151.5 -28.5t120.5 -79.5t79.5 -120.5t28.5 -151.5t-28.5 -151.5t-79.5 -120.5t-120.5 -79.5t-151.5 -28.5t-151.5 28.5t-120.5 79.5t-79.5 120.5t-28.5 151.5t28.5 151.5t79.5 120.5t120.5 79.5t151.5 28.5zM79 373q0 -67 23.5 -123.5t64.5 -97.5
t97.5 -64.5t123.5 -23.5t123.5 23.5t98 64.5t64.5 97.5t23 123.5t-23 123.5t-64.5 98t-98 64.5t-123.5 23t-123.5 -23t-97.5 -64.5t-64.5 -98t-23.5 -123.5zM232 619h167q84 0 125 -34t41 -116q0 -54 -16 -87.5t-51 -50.5l62 -190h-127l-54 173h-13v-173h-134v478zM397 416
q12 0 22.5 5.5t10.5 19.5v51q0 11 -7.5 17t-18.5 8h-38v-101h31z" />
    <glyph glyph-name="macron" unicode="&#xaf;" horiz-adv-x="350" 
d="M0 688h350v-150h-350v150z" />
    <glyph glyph-name="degree" unicode="&#xb0;" horiz-adv-x="296" 
d="M8 556q0 30 10.5 56t29 44.5t44.5 29t56 10.5t56 -10.5t44.5 -29t29 -44.5t10.5 -56t-10.5 -56t-29 -44.5t-44.5 -29t-56 -10.5t-56 10.5t-44.5 29t-29 44.5t-10.5 56zM97 556q0 -23 14 -37t37 -14t37 14t14 37t-14 37t-37 14t-37 -14t-14 -37z" />
    <glyph glyph-name="plusminus" unicode="&#xb1;" horiz-adv-x="358" 
d="M9 450h90v95h160v-95h90v-150h-90v-95h-160v95h-90v150zM9 174h340v-150h-340v150z" />
    <glyph glyph-name="twosuperior" unicode="&#xb2;" horiz-adv-x="251" 
d="M125 687q-13 0 -13 -16v-36h-97q0 33 4 56.5t15.5 38.5t33 22t57.5 7q30 0 51 -5t34.5 -17t19.5 -33.5t6 -54.5q0 -42 -18.5 -68t-41 -43t-41.5 -28.5t-19 -24.5h111v-73h-206v71q0 39 18.5 62t40.5 39t40.5 29.5t18.5 33.5v18q0 8 -2 15t-12 7z" />
    <glyph glyph-name="threesuperior" unicode="&#xb3;" horiz-adv-x="246" 
d="M15 638v22q0 60 28 80t79 20q29 0 50 -5t34 -17t19 -33t6 -53q0 -18 -4 -37.5t-23 -25.5v-6q9 -3 14.5 -9.5t8.5 -15t3.5 -18.5t0.5 -19q0 -32 -6 -53t-19 -33t-34 -17t-50 -5q-25 0 -45 4t-33.5 15.5t-21 30.5t-7.5 49v23h94v-31q0 -19 13 -19t14 12t1 27
q0 10 -0.5 15.5t-4.5 8.5t-11.5 3.5t-21.5 0.5v68q14 0 21.5 0.5t11.5 3.5t4.5 9t0.5 16v13t-1 12.5t-4 9.5t-10 4q-13 0 -13 -19v-31h-94z" />
    <glyph glyph-name="acute" unicode="&#xb4;" horiz-adv-x="220" 
d="M58 750h160l-94 -156h-122z" />
    <glyph glyph-name="paragraph" unicode="&#xb6;" horiz-adv-x="429" 
d="M234 341q-55 0 -96 16.5t-68.5 44.5t-41 65t-13.5 79t13.5 79t41 65t68.5 44t96 16h80v-780h-80v371zM334 750h80v-780h-80v780z" />
    <glyph glyph-name="periodcentered" unicode="&#xb7;" horiz-adv-x="178" 
d="M169 590h-160v160h160v-160z" />
    <glyph glyph-name="cedilla" unicode="&#xb8;" horiz-adv-x="185" 
d="M12 -75q29 -2 41 10.5t12 26.5q0 13 -7.5 24t-19.5 13l74 20q38 -17 54.5 -43t16.5 -54q0 -23 -10 -45.5t-28.5 -39.5t-44 -27.5t-55.5 -10.5q-11 0 -21.5 1t-21.5 4z" />
    <glyph glyph-name="onesuperior" unicode="&#xb9;" horiz-adv-x="163" 
d="M15 655v73l44 22h89v-339h-94v253z" />
    <glyph glyph-name="ordmasculine" unicode="&#xba;" horiz-adv-x="230" 
d="M8 662q0 51 30.5 73.5t76.5 22.5t76.5 -22.5t30.5 -73.5v-156q0 -51 -30.5 -73t-76.5 -22t-76.5 22t-30.5 73v156zM115 685q-13 0 -13 -12v-177q0 -13 13 -13q15 0 15 13v177q0 12 -15 12z" />
    <glyph glyph-name="guillemotright" unicode="&#xbb;" horiz-adv-x="459" 
d="M165 346l-160 151v132l255 -235v-98l-255 -239v132l160 153v4zM360 346l-160 151v132l255 -235v-98l-255 -239v132l160 153v4z" />
    <glyph glyph-name="onequarter" unicode="&#xbc;" horiz-adv-x="440" 
d="M245 750h84l-170 -750h-84zM5 655v73l44 22h89v-339h-94v253zM422 89v-89h-95v89h-98v68l78 183h115v-183h13v-68h-13zM327 157v111l-43 -111h43z" />
    <glyph glyph-name="onehalf" unicode="&#xbd;" horiz-adv-x="499" 
d="M5 728l44 22h89v-339h-94v253l-39 -9v73zM339 750l-170 -750h-84l170 750h84zM383 275q-13 0 -13 -16v-36h-97q0 33 4 56.5t15.5 38.5t33 22t57.5 7q30 0 51 -5t34.5 -17t19.5 -33.5t6 -54.5q0 -42 -18.5 -68t-41 -43t-41.5 -28.5t-19 -24.5h111v-73h-206v71
q0 39 18.5 62t40.5 39t40.5 29.5t18.5 33.5v18q0 8 -2 15t-12 7z" />
    <glyph glyph-name="threequarters" unicode="&#xbe;" horiz-adv-x="487" 
d="M5 638v22q0 60 28 80t79 20q29 0 50 -5t34 -17t19 -33t6 -53q0 -18 -4 -37.5t-23 -25.5v-6q9 -3 14.5 -9.5t8.5 -15t3.5 -18.5t0.5 -19q0 -32 -6 -53t-19 -33t-34 -17t-50 -5q-25 0 -45 4t-33.5 15.5t-21 30.5t-7.5 49v23h94v-31q0 -19 13 -19t14 12t1 27q0 10 -0.5 15.5
t-4.5 8.5t-11.5 3.5t-21.5 0.5v68q14 0 21.5 0.5t11.5 3.5t4.5 9t0.5 16v13t-1 12.5t-4 9.5t-10 4q-13 0 -13 -19v-31h-94zM305 750h84l-170 -750h-84zM469 89v-89h-95v89h-98v68l78 183h115v-183h13v-68h-13zM374 157v111l-43 -111h43z" />
    <glyph glyph-name="questiondown" unicode="&#xbf;" horiz-adv-x="452" 
d="M238 710h160v-160h-160v160zM263 530h110q0 -56 -12.5 -94.5t-31 -65.5t-40 -46t-40 -36t-31 -35.5t-12.5 -44.5v-34.5t2 -21.5t7.5 -11t16.5 -3t17.5 4t6.5 18v50h190v-50q0 -68 -14 -109.5t-41.5 -64t-67.5 -29.5t-92 -7t-93.5 7.5t-70.5 33t-45 73t-16 126.5
q0 61 19 101t47.5 67t62 45.5t62 36t47.5 38.5t19 52z" />
    <glyph glyph-name="Agrave" unicode="&#xc0;" horiz-adv-x="518" 
d="M121 938h160l56 -156h-122zM97 750h324l97 -750h-214l-11 195h-68l-11 -195h-214zM233 345h52l-14 245h-24z" />
    <glyph glyph-name="Aacute" unicode="&#xc1;" horiz-adv-x="518" 
d="M242 938h160l-94 -156h-122zM97 750h324l97 -750h-214l-11 195h-68l-11 -195h-214zM233 345h52l-14 245h-24z" />
    <glyph glyph-name="Acircumflex" unicode="&#xc2;" horiz-adv-x="518" 
d="M184 938h150l121 -156h-132l-62 61h-4l-62 -61h-132zM97 750h324l97 -750h-214l-11 195h-68l-11 -195h-214zM233 345h52l-14 245h-24z" />
    <glyph glyph-name="Atilde" unicode="&#xc3;" horiz-adv-x="518" 
d="M199 782h-100q0 35 8.5 59t22 38.5t31.5 20.5t37 6q27 0 53.5 -5t43.5 -5q11 0 17.5 8.5t6.5 17.5h100q0 -35 -8.5 -59t-22 -38.5t-31.5 -20.5t-37 -6q-27 0 -53.5 5t-43.5 5q-11 0 -17.5 -8.5t-6.5 -17.5zM97 750h324l97 -750h-214l-11 195h-68l-11 -195h-214zM233 345
h52l-14 245h-24z" />
    <glyph glyph-name="Adieresis" unicode="&#xc4;" horiz-adv-x="518" 
d="M422 770h-146v146h146v-146zM242 770h-146v146h146v-146zM97 750h324l97 -750h-214l-11 195h-68l-11 -195h-214zM233 345h52l-14 245h-24z" />
    <glyph glyph-name="Aring" unicode="&#xc5;" horiz-adv-x="518" 
d="M147 891q0 49 31.5 80.5t80.5 31.5t80.5 -31.5t31.5 -80.5t-31.5 -80.5t-80.5 -31.5t-80.5 31.5t-31.5 80.5zM198 891q0 -27 17 -44t44 -17t44 17t17 44t-17 44t-44 17t-44 -17t-17 -44zM97 750h324l97 -750h-214l-11 195h-68l-11 -195h-214zM233 345h52l-14 245h-24z
" />
    <glyph glyph-name="AE" unicode="&#xc6;" horiz-adv-x="699" 
d="M97 750h594v-160h-210v-140h185v-150h-185v-140h210v-160h-420v195h-46l-11 -195h-214zM233 345h38v245h-24z" />
    <glyph glyph-name="Ccedilla" unicode="&#xc7;" 
d="M12 550q0 57 18 96.5t52 65t82 37t108 11.5t108 -11.5t82 -37t52 -65t18 -96.5v-120h-210v130q0 15 -12 27.5t-38 12.5t-38 -12.5t-12 -27.5v-370q0 -15 12 -27.5t38 -12.5t38 12.5t12 27.5v130h210v-120q0 -99 -53 -147.5t-147 -59.5q31 -31 31 -71q0 -23 -10 -45.5
t-28.5 -39.5t-44 -27.5t-55.5 -10.5q-11 0 -21.5 1t-21.5 4l10 121q29 -2 41 10.5t12 26.5q0 17 -12 29q-103 7 -162 56.5t-59 152.5v350z" />
    <glyph glyph-name="Egrave" unicode="&#xc8;" horiz-adv-x="443" 
d="M87 938h160l56 -156h-122zM15 750h420v-160h-210v-140h185v-150h-185v-140h210v-160h-420v750z" />
    <glyph glyph-name="Eacute" unicode="&#xc9;" horiz-adv-x="443" 
d="M202 938h160l-94 -156h-122zM15 750h420v-160h-210v-140h185v-150h-185v-140h210v-160h-420v750z" />
    <glyph glyph-name="Ecircumflex" unicode="&#xca;" horiz-adv-x="443" 
d="M150 938h150l121 -156h-132l-62 61h-4l-62 -61h-132zM15 750h420v-160h-210v-140h185v-150h-185v-140h210v-160h-420v750z" />
    <glyph glyph-name="Edieresis" unicode="&#xcb;" horiz-adv-x="443" 
d="M388 782h-146v146h146v-146zM208 782h-146v146h146v-146zM15 750h420v-160h-210v-140h185v-150h-185v-140h210v-160h-420v750z" />
    <glyph glyph-name="Igrave" unicode="&#xcc;" horiz-adv-x="240" 
d="M-29 938h160l56 -156h-122zM15 750h210v-750h-210v750z" />
    <glyph glyph-name="Iacute" unicode="&#xcd;" horiz-adv-x="240" 
d="M119 938h160l-94 -156h-122zM15 750h210v-750h-210v750z" />
    <glyph glyph-name="Icircumflex" unicode="&#xce;" horiz-adv-x="240" 
d="M46 938h150l121 -156h-132l-62 61h-4l-62 -61h-132zM15 750h210v-750h-210v750z" />
    <glyph glyph-name="Idieresis" unicode="&#xcf;" horiz-adv-x="240" 
d="M283 782h-146v146h146v-146zM103 782h-146v146h146v-146zM15 750h210v-750h-210v750z" />
    <glyph glyph-name="Eth" unicode="&#xd0;" horiz-adv-x="568" 
d="M36 750h260q60 0 108 -11.5t82 -37t52 -65t18 -96.5v-330q0 -57 -18 -96.5t-52 -65t-82 -37t-108 -11.5h-260v307h-40v150h40v293zM246 307v-147h50q26 0 38 12.5t12 27.5v350q0 15 -12 27.5t-38 12.5h-50v-133h50v-150h-50z" />
    <glyph glyph-name="Ntilde" unicode="&#xd1;" horiz-adv-x="550" 
d="M225 782h-100q0 35 8.5 59t22 38.5t31.5 20.5t37 6q27 0 53.5 -5t43.5 -5q11 0 17.5 8.5t6.5 17.5h100q0 -35 -8.5 -59t-22 -38.5t-31.5 -20.5t-37 -6q-27 0 -53.5 5t-43.5 5q-11 0 -17.5 -8.5t-6.5 -17.5zM15 750h210l100 -414v414h210v-750h-210l-100 414v-414h-210
v750z" />
    <glyph glyph-name="Ograve" unicode="&#xd2;" 
d="M284 938l56 -156h-122l-94 156h160zM12 550q0 57 18 96.5t52 65t82 37t108 11.5t108 -11.5t82 -37t52 -65t18 -96.5v-350q0 -57 -18 -96.5t-52 -65t-82 -37t-108 -11.5t-108 11.5t-82 37t-52 65t-18 96.5v350zM222 190q0 -15 12 -27.5t38 -12.5t38 12.5t12 27.5v370
q0 15 -12 27.5t-38 12.5t-38 -12.5t-12 -27.5v-370z" />
    <glyph glyph-name="Oacute" unicode="&#xd3;" 
d="M426 938l-94 -156h-122l56 156h160zM12 550q0 57 18 96.5t52 65t82 37t108 11.5t108 -11.5t82 -37t52 -65t18 -96.5v-350q0 -57 -18 -96.5t-52 -65t-82 -37t-108 -11.5t-108 11.5t-82 37t-52 65t-18 96.5v350zM222 190q0 -15 12 -27.5t38 -12.5t38 12.5t12 27.5v370
q0 15 -12 27.5t-38 12.5t-38 -12.5t-12 -27.5v-370z" />
    <glyph glyph-name="Ocircumflex" unicode="&#xd4;" 
d="M347 938l121 -156h-132l-62 61h-4l-62 -61h-132l121 156h150zM12 550q0 57 18 96.5t52 65t82 37t108 11.5t108 -11.5t82 -37t52 -65t18 -96.5v-350q0 -57 -18 -96.5t-52 -65t-82 -37t-108 -11.5t-108 11.5t-82 37t-52 65t-18 96.5v350zM222 190q0 -15 12 -27.5t38 -12.5
t38 12.5t12 27.5v370q0 15 -12 27.5t-38 12.5t-38 -12.5t-12 -27.5v-370z" />
    <glyph glyph-name="Otilde" unicode="&#xd5;" 
d="M112 782q0 35 8.5 59t22 38.5t31.5 20.5t37 6q27 0 53.5 -5t43.5 -5q11 0 17.5 8.5t6.5 17.5h100q0 -35 -8.5 -59t-22 -38.5t-31.5 -20.5t-37 -6q-27 0 -53.5 5t-43.5 5q-11 0 -17.5 -8.5t-6.5 -17.5h-100zM12 550q0 57 18 96.5t52 65t82 37t108 11.5t108 -11.5t82 -37
t52 -65t18 -96.5v-350q0 -57 -18 -96.5t-52 -65t-82 -37t-108 -11.5t-108 11.5t-82 37t-52 65t-18 96.5v350zM222 190q0 -15 12 -27.5t38 -12.5t38 12.5t12 27.5v370q0 15 -12 27.5t-38 12.5t-38 -12.5t-12 -27.5v-370z" />
    <glyph glyph-name="Odieresis" unicode="&#xd6;" 
d="M289 782v146h146v-146h-146zM109 782v146h146v-146h-146zM12 550q0 57 18 96.5t52 65t82 37t108 11.5t108 -11.5t82 -37t52 -65t18 -96.5v-350q0 -57 -18 -96.5t-52 -65t-82 -37t-108 -11.5t-108 11.5t-82 37t-52 65t-18 96.5v350zM222 190q0 -15 12 -27.5t38 -12.5
t38 12.5t12 27.5v370q0 15 -12 27.5t-38 12.5t-38 -12.5t-12 -27.5v-370z" />
    <glyph glyph-name="multiply" unicode="&#xd7;" horiz-adv-x="488" 
d="M244 479l126 132l109 -101l-132 -139l132 -139l-109 -101l-126 132l-126 -132l-109 101l132 139l-132 139l109 101z" />
    <glyph glyph-name="Oslash" unicode="&#xd8;" 
d="M12 550q0 57 18 96.5t52 65t82 37t108 11.5q65 0 113 -13l5 13h81l-17 -42q38 -26 58 -67t20 -101v-350q0 -57 -18 -96.5t-52 -65t-82 -37t-108 -11.5q-65 0 -113 13l-5 -13h-81l17 42q-38 26 -58 67t-20 101v350zM316 580q-12 20 -44 20q-26 0 -38 -12.5t-12 -27.5v-208
zM228 170q12 -20 44 -20q26 0 38 12.5t12 27.5v208z" />
    <glyph glyph-name="Ugrave" unicode="&#xd9;" horiz-adv-x="546" 
d="M119 938h160l56 -156h-122zM13 750h210v-560q0 -15 12 -27.5t38 -12.5t38 12.5t12 27.5v560h210v-550q0 -57 -18 -96.5t-52 -65t-82 -37t-108 -11.5t-108 11.5t-82 37t-52 65t-18 96.5v550z" />
    <glyph glyph-name="Uacute" unicode="&#xda;" horiz-adv-x="546" 
d="M263 938h160l-94 -156h-122zM13 750h210v-560q0 -15 12 -27.5t38 -12.5t38 12.5t12 27.5v560h210v-550q0 -57 -18 -96.5t-52 -65t-82 -37t-108 -11.5t-108 11.5t-82 37t-52 65t-18 96.5v550z" />
    <glyph glyph-name="Ucircumflex" unicode="&#xdb;" horiz-adv-x="546" 
d="M198 938h150l121 -156h-132l-62 61h-4l-62 -61h-132zM13 750h210v-560q0 -15 12 -27.5t38 -12.5t38 12.5t12 27.5v560h210v-550q0 -57 -18 -96.5t-52 -65t-82 -37t-108 -11.5t-108 11.5t-82 37t-52 65t-18 96.5v550z" />
    <glyph glyph-name="Udieresis" unicode="&#xdc;" horiz-adv-x="546" 
d="M435 782h-146v146h146v-146zM255 782h-146v146h146v-146zM13 750h210v-560q0 -15 12 -27.5t38 -12.5t38 12.5t12 27.5v560h210v-550q0 -57 -18 -96.5t-52 -65t-82 -37t-108 -11.5t-108 11.5t-82 37t-52 65t-18 96.5v550z" />
    <glyph glyph-name="Yacute" unicode="&#xdd;" horiz-adv-x="570" 
d="M438 938l-94 -156h-122l56 156h160zM223 750l62 -299l62 299h220l-177 -525v-225h-210v225l-177 525h220z" />
    <glyph glyph-name="Thorn" unicode="&#xde;" 
d="M225 750v-121h52q65 0 114 -12.5t81.5 -40.5t49 -72.5t16.5 -109.5q0 -66 -15 -112.5t-47 -76t-81.5 -42.5t-118.5 -13h-51v-150h-210v750h210zM225 469v-159h50q26 0 38 12.5t12 27.5v79q0 15 -12 27.5t-38 12.5h-50z" />
    <glyph glyph-name="germandbls" unicode="&#xdf;" horiz-adv-x="1087" 
d="M557 528q0 64 18.5 108.5t52.5 72t82 39.5t108 12q63 0 111.5 -10.5t81.5 -36t50.5 -69.5t17.5 -112v-16t-1 -16h-210v27q0 14 -1.5 27t-6.5 23t-15 16.5t-27 6.5q-19 0 -34.5 -9.5t-15.5 -30.5q0 -33 23 -53t57.5 -36.5t75 -33.5t75 -44t57.5 -67.5t23 -103.5
q0 -64 -18.5 -108.5t-52.5 -72t-82 -39.5t-108 -12q-63 0 -111.5 10.5t-81.5 36t-50.5 70t-17.5 111.5v16t1 16h210v-27q0 -14 1 -27t6 -23.5t15 -16.5t28 -6q23 0 36.5 12.5t13.5 36.5q0 33 -23 52.5t-57.5 34.5t-75 31t-75 42t-57.5 65.5t-23 103.5zM8 528
q0 64 18.5 108.5t52.5 72t82 39.5t108 12q63 0 111.5 -10.5t81.5 -36t50.5 -69.5t17.5 -112v-16t-1 -16h-210v27q0 14 -1.5 27t-6.5 23t-15 16.5t-27 6.5q-19 0 -34.5 -9.5t-15.5 -30.5q0 -33 23 -53t57.5 -36.5t75 -33.5t75 -44t57.5 -67.5t23 -103.5q0 -64 -18.5 -108.5
t-52.5 -72t-82 -39.5t-108 -12q-63 0 -111.5 10.5t-81.5 36t-50.5 70t-17.5 111.5v16t1 16h210v-27q0 -14 1 -27t6 -23.5t15 -16.5t28 -6q23 0 36.5 12.5t13.5 36.5q0 33 -23 52.5t-57.5 34.5t-75 31t-75 42t-57.5 65.5t-23 103.5z" />
    <glyph glyph-name="agrave" unicode="&#xe0;" horiz-adv-x="518" 
d="M121 938h160l56 -156h-122zM97 750h324l97 -750h-214l-11 195h-68l-11 -195h-214zM233 345h52l-14 245h-24z" />
    <glyph glyph-name="aacute" unicode="&#xe1;" horiz-adv-x="518" 
d="M242 938h160l-94 -156h-122zM97 750h324l97 -750h-214l-11 195h-68l-11 -195h-214zM233 345h52l-14 245h-24z" />
    <glyph glyph-name="acircumflex" unicode="&#xe2;" horiz-adv-x="518" 
d="M184 938h150l121 -156h-132l-62 61h-4l-62 -61h-132zM97 750h324l97 -750h-214l-11 195h-68l-11 -195h-214zM233 345h52l-14 245h-24z" />
    <glyph glyph-name="atilde" unicode="&#xe3;" horiz-adv-x="518" 
d="M199 782h-100q0 35 8.5 59t22 38.5t31.5 20.5t37 6q27 0 53.5 -5t43.5 -5q11 0 17.5 8.5t6.5 17.5h100q0 -35 -8.5 -59t-22 -38.5t-31.5 -20.5t-37 -6q-27 0 -53.5 5t-43.5 5q-11 0 -17.5 -8.5t-6.5 -17.5zM97 750h324l97 -750h-214l-11 195h-68l-11 -195h-214zM233 345
h52l-14 245h-24z" />
    <glyph glyph-name="adieresis" unicode="&#xe4;" horiz-adv-x="518" 
d="M422 770h-146v146h146v-146zM242 770h-146v146h146v-146zM97 750h324l97 -750h-214l-11 195h-68l-11 -195h-214zM233 345h52l-14 245h-24z" />
    <glyph glyph-name="aring" unicode="&#xe5;" horiz-adv-x="518" 
d="M147 891q0 49 31.5 80.5t80.5 31.5t80.5 -31.5t31.5 -80.5t-31.5 -80.5t-80.5 -31.5t-80.5 31.5t-31.5 80.5zM198 891q0 -27 17 -44t44 -17t44 17t17 44t-17 44t-44 17t-44 -17t-17 -44zM97 750h324l97 -750h-214l-11 195h-68l-11 -195h-214zM233 345h52l-14 245h-24z
" />
    <glyph glyph-name="ae" unicode="&#xe6;" horiz-adv-x="699" 
d="M97 750h594v-160h-210v-140h185v-150h-185v-140h210v-160h-420v195h-46l-11 -195h-214zM233 345h38v245h-24z" />
    <glyph glyph-name="ccedilla" unicode="&#xe7;" horiz-adv-x="540" 
d="M10 550q0 57 18 96.5t52 65t82 37t108 11.5t108 -11.5t82 -37t52 -65t18 -96.5v-120h-210v130q0 15 -12 27.5t-38 12.5t-38 -12.5t-12 -27.5v-370q0 -15 12 -27.5t38 -12.5t38 12.5t12 27.5v130h210v-120q0 -99 -53 -147.5t-147 -59.5q31 -31 31 -71q0 -23 -10 -45.5
t-28.5 -39.5t-44 -27.5t-55.5 -10.5q-11 0 -21.5 1t-21.5 4l10 121q29 -2 41 10.5t12 26.5q0 17 -12 29q-103 7 -162 56.5t-59 152.5v350z" />
    <glyph glyph-name="egrave" unicode="&#xe8;" horiz-adv-x="443" 
d="M87 938h160l56 -156h-122zM15 750h420v-160h-210v-140h185v-150h-185v-140h210v-160h-420v750z" />
    <glyph glyph-name="eacute" unicode="&#xe9;" horiz-adv-x="443" 
d="M202 938h160l-94 -156h-122zM15 750h420v-160h-210v-140h185v-150h-185v-140h210v-160h-420v750z" />
    <glyph glyph-name="ecircumflex" unicode="&#xea;" horiz-adv-x="443" 
d="M150 938h150l121 -156h-132l-62 61h-4l-62 -61h-132zM15 750h420v-160h-210v-140h185v-150h-185v-140h210v-160h-420v750z" />
    <glyph glyph-name="edieresis" unicode="&#xeb;" horiz-adv-x="443" 
d="M388 782h-146v146h146v-146zM208 782h-146v146h146v-146zM15 750h420v-160h-210v-140h185v-150h-185v-140h210v-160h-420v750z" />
    <glyph glyph-name="igrave" unicode="&#xec;" horiz-adv-x="240" 
d="M-31 938h160l56 -156h-122zM15 750h210v-750h-210v750z" />
    <glyph glyph-name="iacute" unicode="&#xed;" horiz-adv-x="240" 
d="M116 938h160l-94 -156h-122zM15 750h210v-750h-210v750z" />
    <glyph glyph-name="icircumflex" unicode="&#xee;" horiz-adv-x="240" 
d="M45 938h150l121 -156h-132l-62 61h-4l-62 -61h-132zM15 750h210v-750h-210v750z" />
    <glyph glyph-name="idieresis" unicode="&#xef;" horiz-adv-x="240" 
d="M283 782h-146v146h146v-146zM103 782h-146v146h146v-146zM15 750h210v-750h-210v750z" />
    <glyph glyph-name="eth" unicode="&#xf0;" horiz-adv-x="546" 
d="M242 -10q-54 0 -98 18.5t-74.5 51t-47 76.5t-16.5 96q0 57 17.5 100t50 71.5t78.5 42.5t103 14q-5 16 -10.5 31.5t-10.5 30.5l-129 -31l-24 97l109 26q-18 29 -37 50.5t-40 32.5l82 64q48 -9 90 -36.5t78 -68.5l147 35l24 -97l-109 -26q38 -67 59.5 -143.5t21.5 -149.5
q0 -62 -16 -114t-48.5 -90t-82 -59.5t-117.5 -21.5zM254 308q-22 0 -30 -14.5t-10 -36.5q-1 -6 -1 -12.5v-13.5v-14.5t1 -12.5q2 -35 12.5 -45t27.5 -10q14 0 24 9.5t14 38.5q2 14 2 28.5v28.5q-2 23 -9 38.5t-31 15.5z" />
    <glyph glyph-name="ntilde" unicode="&#xf1;" horiz-adv-x="550" 
d="M225 782h-100q0 35 8.5 59t22 38.5t31.5 20.5t37 6q27 0 53.5 -5t43.5 -5q11 0 17.5 8.5t6.5 17.5h100q0 -35 -8.5 -59t-22 -38.5t-31.5 -20.5t-37 -6q-27 0 -53.5 5t-43.5 5q-11 0 -17.5 -8.5t-6.5 -17.5zM15 750h210l100 -414v414h210v-750h-210l-100 414v-414h-210
v750z" />
    <glyph glyph-name="ograve" unicode="&#xf2;" 
d="M284 938l56 -156h-122l-94 156h160zM12 550q0 57 18 96.5t52 65t82 37t108 11.5t108 -11.5t82 -37t52 -65t18 -96.5v-350q0 -57 -18 -96.5t-52 -65t-82 -37t-108 -11.5t-108 11.5t-82 37t-52 65t-18 96.5v350zM222 190q0 -15 12 -27.5t38 -12.5t38 12.5t12 27.5v370
q0 15 -12 27.5t-38 12.5t-38 -12.5t-12 -27.5v-370z" />
    <glyph glyph-name="oacute" unicode="&#xf3;" 
d="M426 938l-94 -156h-122l56 156h160zM12 550q0 57 18 96.5t52 65t82 37t108 11.5t108 -11.5t82 -37t52 -65t18 -96.5v-350q0 -57 -18 -96.5t-52 -65t-82 -37t-108 -11.5t-108 11.5t-82 37t-52 65t-18 96.5v350zM222 190q0 -15 12 -27.5t38 -12.5t38 12.5t12 27.5v370
q0 15 -12 27.5t-38 12.5t-38 -12.5t-12 -27.5v-370z" />
    <glyph glyph-name="ocircumflex" unicode="&#xf4;" 
d="M347 938l121 -156h-132l-62 61h-4l-62 -61h-132l121 156h150zM12 550q0 57 18 96.5t52 65t82 37t108 11.5t108 -11.5t82 -37t52 -65t18 -96.5v-350q0 -57 -18 -96.5t-52 -65t-82 -37t-108 -11.5t-108 11.5t-82 37t-52 65t-18 96.5v350zM222 190q0 -15 12 -27.5t38 -12.5
t38 12.5t12 27.5v370q0 15 -12 27.5t-38 12.5t-38 -12.5t-12 -27.5v-370z" />
    <glyph glyph-name="otilde" unicode="&#xf5;" 
d="M112 782q0 35 8.5 59t22 38.5t31.5 20.5t37 6q27 0 53.5 -5t43.5 -5q11 0 17.5 8.5t6.5 17.5h100q0 -35 -8.5 -59t-22 -38.5t-31.5 -20.5t-37 -6q-27 0 -53.5 5t-43.5 5q-11 0 -17.5 -8.5t-6.5 -17.5h-100zM12 550q0 57 18 96.5t52 65t82 37t108 11.5t108 -11.5t82 -37
t52 -65t18 -96.5v-350q0 -57 -18 -96.5t-52 -65t-82 -37t-108 -11.5t-108 11.5t-82 37t-52 65t-18 96.5v350zM222 190q0 -15 12 -27.5t38 -12.5t38 12.5t12 27.5v370q0 15 -12 27.5t-38 12.5t-38 -12.5t-12 -27.5v-370z" />
    <glyph glyph-name="odieresis" unicode="&#xf6;" 
d="M289 782v146h146v-146h-146zM109 782v146h146v-146h-146zM12 550q0 57 18 96.5t52 65t82 37t108 11.5t108 -11.5t82 -37t52 -65t18 -96.5v-350q0 -57 -18 -96.5t-52 -65t-82 -37t-108 -11.5t-108 11.5t-82 37t-52 65t-18 96.5v350zM222 190q0 -15 12 -27.5t38 -12.5
t38 12.5t12 27.5v370q0 15 -12 27.5t-38 12.5t-38 -12.5t-12 -27.5v-370z" />
    <glyph glyph-name="divide" unicode="&#xf7;" horiz-adv-x="372" 
d="M106 456v160h160v-160h-160zM11 278v150h350v-150h-350zM266 250v-160h-160v160h160z" />
    <glyph glyph-name="oslash" unicode="&#xf8;" 
d="M12 550q0 57 18 96.5t52 65t82 37t108 11.5q65 0 113 -13l5 13h81l-17 -42q38 -26 58 -67t20 -101v-350q0 -57 -18 -96.5t-52 -65t-82 -37t-108 -11.5q-65 0 -113 13l-5 -13h-81l17 42q-38 26 -58 67t-20 101v350zM316 580q-12 20 -44 20q-26 0 -38 -12.5t-12 -27.5v-208
zM228 170q12 -20 44 -20q26 0 38 12.5t12 27.5v208z" />
    <glyph glyph-name="ugrave" unicode="&#xf9;" horiz-adv-x="546" 
d="M119 938h160l56 -156h-122zM13 750h210v-560q0 -15 12 -27.5t38 -12.5t38 12.5t12 27.5v560h210v-550q0 -57 -18 -96.5t-52 -65t-82 -37t-108 -11.5t-108 11.5t-82 37t-52 65t-18 96.5v550z" />
    <glyph glyph-name="uacute" unicode="&#xfa;" horiz-adv-x="546" 
d="M263 938h160l-94 -156h-122zM13 750h210v-560q0 -15 12 -27.5t38 -12.5t38 12.5t12 27.5v560h210v-550q0 -57 -18 -96.5t-52 -65t-82 -37t-108 -11.5t-108 11.5t-82 37t-52 65t-18 96.5v550z" />
    <glyph glyph-name="ucircumflex" unicode="&#xfb;" horiz-adv-x="546" 
d="M198 938h150l121 -156h-132l-62 61h-4l-62 -61h-132zM13 750h210v-560q0 -15 12 -27.5t38 -12.5t38 12.5t12 27.5v560h210v-550q0 -57 -18 -96.5t-52 -65t-82 -37t-108 -11.5t-108 11.5t-82 37t-52 65t-18 96.5v550z" />
    <glyph glyph-name="udieresis" unicode="&#xfc;" horiz-adv-x="546" 
d="M435 782h-146v146h146v-146zM255 782h-146v146h146v-146zM13 750h210v-560q0 -15 12 -27.5t38 -12.5t38 12.5t12 27.5v560h210v-550q0 -57 -18 -96.5t-52 -65t-82 -37t-108 -11.5t-108 11.5t-82 37t-52 65t-18 96.5v550z" />
    <glyph glyph-name="yacute" unicode="&#xfd;" horiz-adv-x="570" 
d="M438 938l-94 -156h-122l56 156h160zM223 750l62 -299l62 299h220l-177 -525v-225h-210v225l-177 525h220z" />
    <glyph glyph-name="thorn" unicode="&#xfe;" 
d="M225 750v-121h52q65 0 114 -12.5t81.5 -40.5t49 -72.5t16.5 -109.5q0 -66 -15 -112.5t-47 -76t-81.5 -42.5t-118.5 -13h-51v-150h-210v750h210zM225 469v-159h50q26 0 38 12.5t12 27.5v79q0 15 -12 27.5t-38 12.5h-50z" />
    <glyph glyph-name="ydieresis" unicode="&#xff;" horiz-adv-x="570" 
d="M302 782v146h146v-146h-146zM122 782v146h146v-146h-146zM223 750l62 -299l62 299h220l-177 -525v-225h-210v225l-177 525h220z" />
    <glyph glyph-name="Dcroat" unicode="&#x110;" horiz-adv-x="568" 
d="M36 750h260q60 0 108 -11.5t82 -37t52 -65t18 -96.5v-330q0 -57 -18 -96.5t-52 -65t-82 -37t-108 -11.5h-260v307h-40v150h40v293zM246 307v-147h50q26 0 38 12.5t12 27.5v350q0 15 -12 27.5t-38 12.5h-50v-133h50v-150h-50z" />
    <glyph glyph-name="dcroat" unicode="&#x111;" horiz-adv-x="568" 
d="M36 750h260q60 0 108 -11.5t82 -37t52 -65t18 -96.5v-330q0 -57 -18 -96.5t-52 -65t-82 -37t-108 -11.5h-260v310h-40v150h40v290zM246 310v-150h50q26 0 38 12.5t12 27.5v350q0 15 -12 27.5t-38 12.5h-50v-130h60v-150h-60z" />
    <glyph glyph-name="dotlessi" unicode="&#x131;" horiz-adv-x="240" 
d="M15 750h210v-750h-210v750z" />
    <glyph glyph-name="Lslash" unicode="&#x141;" horiz-adv-x="485" 
d="M59 750h210v-285l85 15v-150l-85 -15v-155h210v-160h-420v279l-55 -9v150l55 9v321z" />
    <glyph glyph-name="lslash" unicode="&#x142;" horiz-adv-x="485" 
d="M59 750h210v-285l85 15v-150l-85 -15v-155h210v-160h-420v279l-55 -9v150l55 9v321z" />
    <glyph glyph-name="OE" unicode="&#x152;" horiz-adv-x="750" 
d="M12 550q0 57 18 96.5t52 65t82 37t108 11.5q58 0 101 -10h369v-160h-210v-140h185v-150h-185v-140h210v-160h-369q-43 -10 -101 -10q-60 0 -108 11.5t-82 37t-52 65t-18 96.5v350zM222 190q0 -15 12 -27.5t38 -12.5t38 12.5t12 27.5v370q0 15 -12 27.5t-38 12.5
t-38 -12.5t-12 -27.5v-370z" />
    <glyph glyph-name="oe" unicode="&#x153;" horiz-adv-x="750" 
d="M12 550q0 57 18 96.5t52 65t82 37t108 11.5q58 0 101 -10h369v-160h-210v-140h185v-150h-185v-140h210v-160h-369q-43 -10 -101 -10q-60 0 -108 11.5t-82 37t-52 65t-18 96.5v350zM222 190q0 -15 12 -27.5t38 -12.5t38 12.5t12 27.5v370q0 15 -12 27.5t-38 12.5
t-38 -12.5t-12 -27.5v-370z" />
    <glyph glyph-name="Scaron" unicode="&#x160;" horiz-adv-x="538" 
d="M73 938h132l62 -61h4l62 61h132l-121 -156h-150zM8 528q0 64 18.5 108.5t52.5 72t82 39.5t108 12q63 0 111.5 -10.5t81.5 -36t50.5 -69.5t17.5 -112v-16t-1 -16h-210v27q0 14 -1.5 27t-6.5 23t-15 16.5t-27 6.5q-19 0 -34.5 -9.5t-15.5 -30.5q0 -33 23 -53t57.5 -36.5
t75 -33.5t75 -44t57.5 -67.5t23 -103.5q0 -64 -18.5 -108.5t-52.5 -72t-82 -39.5t-108 -12q-63 0 -111.5 10.5t-81.5 36t-50.5 70t-17.5 111.5v16t1 16h210v-27q0 -14 1 -27t6 -23.5t15 -16.5t28 -6q23 0 36.5 12.5t13.5 36.5q0 33 -23 52.5t-57.5 34.5t-75 31t-75 42
t-57.5 65.5t-23 103.5z" />
    <glyph glyph-name="scaron" unicode="&#x161;" horiz-adv-x="538" 
d="M73 938h132l62 -61h4l62 61h132l-121 -156h-150zM8 528q0 64 18.5 108.5t52.5 72t82 39.5t108 12q63 0 111.5 -10.5t81.5 -36t50.5 -69.5t17.5 -112v-16t-1 -16h-210v27q0 14 -1.5 27t-6.5 23t-15 16.5t-27 6.5q-19 0 -34.5 -9.5t-15.5 -30.5q0 -33 23 -53t57.5 -36.5
t75 -33.5t75 -44t57.5 -67.5t23 -103.5q0 -64 -18.5 -108.5t-52.5 -72t-82 -39.5t-108 -12q-63 0 -111.5 10.5t-81.5 36t-50.5 70t-17.5 111.5v16t1 16h210v-27q0 -14 1 -27t6 -23.5t15 -16.5t28 -6q23 0 36.5 12.5t13.5 36.5q0 33 -23 52.5t-57.5 34.5t-75 31t-75 42
t-57.5 65.5t-23 103.5z" />
    <glyph glyph-name="Ydieresis" unicode="&#x178;" horiz-adv-x="570" 
d="M302 782v146h146v-146h-146zM122 782v146h146v-146h-146zM223 750l62 -299l62 299h220l-177 -525v-225h-210v225l-177 525h220z" />
    <glyph glyph-name="Zcaron" unicode="&#x17d;" horiz-adv-x="442" 
d="M157 938l62 -61h4l62 61h132l-121 -156h-150l-121 156h132zM228 160h208v-160h-430v156l208 434h-208v160h430v-156z" />
    <glyph glyph-name="zcaron" unicode="&#x17e;" horiz-adv-x="442" 
d="M157 938l62 -61h4l62 61h132l-121 -156h-150l-121 156h132zM228 160h208v-160h-430v156l208 434h-208v160h430v-156z" />
    <glyph glyph-name="florin" unicode="&#x192;" horiz-adv-x="362" 
d="M6 450h69v100q0 57 18 96.5t52 65t82 37t108 11.5v-160q-26 0 -38 -12.5t-12 -27.5v-110h71v-150h-71v-100q0 -57 -18 -96.5t-52 -65t-82 -37t-108 -11.5v160q26 0 38 12.5t12 27.5v110h-69v150z" />
    <glyph glyph-name="circumflex" unicode="&#x2c6;" horiz-adv-x="396" 
d="M273 750l121 -156h-132l-62 61h-4l-62 -61h-132l121 156h150z" />
    <glyph glyph-name="caron" unicode="&#x2c7;" horiz-adv-x="396" 
d="M134 750l62 -61h4l62 61h132l-121 -156h-150l-121 156h132z" />
    <glyph glyph-name="breve" unicode="&#x2d8;" horiz-adv-x="344" 
d="M91 750q0 -13 4 -27t14 -26t25.5 -20t37.5 -8q23 0 38.5 8t25 20t13.5 26t4 27h89q0 -35 -12 -65.5t-34 -53.5t-53.5 -36.5t-70.5 -13.5t-70.5 13.5t-53.5 36.5t-34 53.5t-12 65.5h89z" />
    <glyph glyph-name="dotaccent" unicode="&#x2d9;" horiz-adv-x="150" 
d="M148 604h-146v146h146v-146z" />
    <glyph glyph-name="ring" unicode="&#x2da;" horiz-adv-x="228" 
d="M2 658q0 49 31.5 80.5t80.5 31.5t80.5 -31.5t31.5 -80.5t-31.5 -80.5t-80.5 -31.5t-80.5 31.5t-31.5 80.5zM53 658q0 -27 17 -44t44 -17t44 17t17 44t-17 44t-44 17t-44 -17t-17 -44z" />
    <glyph glyph-name="ogonek" unicode="&#x2db;" horiz-adv-x="148" 
d="M130 1q-18 0 -29.5 -12.5t-11.5 -26.5t13 -25.5t43 -11.5l1 -133q-37 0 -64 12t-45 32t-26.5 45.5t-8.5 51.5t8 51.5t24 45t40.5 31.5t56.5 12z" />
    <glyph glyph-name="tilde" unicode="&#x2dc;" horiz-adv-x="320" 
d="M100 610h-100q0 35 8.5 59t22 38.5t31.5 20.5t37 6q27 0 53.5 -5t43.5 -5q11 0 17.5 8.5t6.5 17.5h100q0 -35 -8.5 -59t-22 -38.5t-31.5 -20.5t-37 -6q-27 0 -53.5 5t-43.5 5q-11 0 -17.5 -8.5t-6.5 -17.5z" />
    <glyph glyph-name="hungarumlaut" unicode="&#x2dd;" horiz-adv-x="404" 
d="M189 500l63 200h150l-113 -200h-100zM2 500l63 200h150l-113 -200h-100z" />
    <glyph glyph-name="endash" unicode="&#x2013;" horiz-adv-x="368" 
d="M9 450h350v-150h-350v150z" />
    <glyph glyph-name="emdash" unicode="&#x2014;" horiz-adv-x="468" 
d="M9 450h450v-150h-450v150z" />
    <glyph glyph-name="quoteleft" unicode="&#x2018;" horiz-adv-x="179" 
d="M74 750h95l-64 -112h64v-160h-160v158z" />
    <glyph glyph-name="quoteright" unicode="&#x2019;" horiz-adv-x="179" 
d="M105 478h-95l64 112h-64v160h160v-158z" />
    <glyph glyph-name="quotesinglbase" unicode="&#x201a;" horiz-adv-x="182" 
d="M105 -112h-95l64 112h-64v160h160v-158z" />
    <glyph glyph-name="quotedblleft" unicode="&#x201c;" horiz-adv-x="384" 
d="M74 750h95l-64 -112h64v-160h-160v158zM279 750h95l-64 -112h64v-160h-160v158z" />
    <glyph glyph-name="quotedblright" unicode="&#x201d;" horiz-adv-x="384" 
d="M310 478h-95l64 112h-64v160h160v-158zM105 478h-95l64 112h-64v160h160v-158z" />
    <glyph glyph-name="quotedblbase" unicode="&#x201e;" horiz-adv-x="387" 
d="M310 -112h-95l64 112h-64v160h160v-158zM105 -112h-95l64 112h-64v160h160v-158z" />
    <glyph glyph-name="dagger" unicode="&#x2020;" horiz-adv-x="320" 
d="M10 565h70v215h160v-215h70v-150h-70v-445h-160v445h-70v150z" />
    <glyph glyph-name="daggerdbl" unicode="&#x2021;" horiz-adv-x="370" 
d="M105 328v96h-95v150h95v206h160v-206h95v-150h-95v-96h95v-150h-95v-208h-160v208h-95v150h95z" />
    <glyph glyph-name="bullet" unicode="&#x2022;" horiz-adv-x="253" 
d="M10 375q0 24 9.5 45.5t25 37t37 25t45.5 9.5t45 -9.5t36.5 -25t25 -37t9.5 -45.5t-9.5 -45.5t-25 -37t-36.5 -25t-45 -9.5t-45.5 9.5t-37 25t-25 37t-9.5 45.5z" />
    <glyph glyph-name="ellipsis" unicode="&#x2026;" horiz-adv-x="556" 
d="M172 0h-160v160h160v-160zM358 0h-160v160h160v-160zM544 0h-160v160h160v-160z" />
    <glyph glyph-name="perthousand" unicode="&#x2030;" horiz-adv-x="816" 
d="M8 662q0 51 30.5 73.5t76.5 22.5t76.5 -22.5t30.5 -73.5v-156q0 -51 -30.5 -73t-76.5 -22t-76.5 22t-30.5 73v156zM402 750l-170 -750h-84l170 750h84zM115 685q-13 0 -13 -12v-177q0 -13 13 -13q15 0 15 13v177q0 12 -15 12zM329 251q0 51 30.5 73.5t76.5 22.5
t76.5 -22.5t30.5 -73.5v-156q0 -51 -30.5 -73t-76.5 -22t-76.5 22t-30.5 73v156zM594 251q0 51 30.5 73.5t76.5 22.5t76.5 -22.5t30.5 -73.5v-156q0 -51 -30.5 -73t-76.5 -22t-76.5 22t-30.5 73v156zM436 274q-13 0 -13 -12v-177q0 -13 13 -13q15 0 15 13v177q0 12 -15 12z
M701 274q-13 0 -13 -12v-177q0 -13 13 -13q15 0 15 13v177q0 12 -15 12z" />
    <glyph glyph-name="guilsinglleft" unicode="&#x2039;" horiz-adv-x="264" 
d="M99 346v-4l160 -153v-132l-255 239v98l255 235v-132z" />
    <glyph glyph-name="guilsinglright" unicode="&#x203a;" horiz-adv-x="264" 
d="M165 346l-160 151v132l255 -235v-98l-255 -239v132l160 153v4z" />
    <glyph glyph-name="fraction" unicode="&#x2044;" horiz-adv-x="358" 
d="M182 750h164l-170 -750h-164z" />
    <glyph glyph-name="Euro" unicode="&#x20ac;" horiz-adv-x="427" 
d="M5 240v100h51v70h-51v100h51v80q0 52 13.5 83.5t37.5 48.5t57 22.5t72 5.5t72 -5.5t57 -22.5t37.5 -48.5t13.5 -83.5v-23h-161v23q0 11 -5 14t-13 3q-9 0 -14.5 -3t-5.5 -14v-80h108v-100h-108v-70h108v-100h-108v-80q0 -11 5.5 -14t14.5 -3q8 0 13 3t5 14v23h161v-23
q0 -52 -13.5 -83.5t-37.5 -48.5t-57 -22.5t-72 -5.5t-72 5.5t-57 22.5t-37.5 48.5t-13.5 83.5v80h-51z" />
    <glyph glyph-name="trademark" unicode="&#x2122;" horiz-adv-x="447" 
d="M174 750v-53h-50v-197h-70v197h-50v53h170zM283 750l27 -117h2l27 117h100v-250h-70v129l-30 -129h-56l-30 129v-129h-70v250h100z" />
    <glyph glyph-name="minus" unicode="&#x2212;" horiz-adv-x="368" 
d="M9 450h350v-150h-350v150z" />
    </font>
</defs>
</svg>
