<?xml version="1.0" standalone="no"?>
<!DOCTYPE svg PUBLIC "-//W3C//DTD SVG 1.1//EN" "http://www.w3.org/Graphics/SVG/1.1/DTD/svg11.dtd" >
<svg xmlns="http://www.w3.org/2000/svg" xmlns:xlink="http://www.w3.org/1999/xlink" version="1.1">
<metadata>
Created by FontForge 20201107 at Thu Jul 28 03:54:54 2022
 By 
Copyright (c) 2021 by Megatype. All rights reserved.
</metadata>
<defs>
<font id="ChandlerMountain-ExtBdSlant" horiz-adv-x="537" >
  <font-face 
    font-family="Chandler Mountain ExtBd Slant"
    font-weight="800"
    font-style="italic"
    font-stretch="normal"
    units-per-em="1000"
    panose-1="0 0 0 0 0 0 0 0 0 0"
    ascent="800"
    descent="-200"
    x-height="750"
    cap-height="750"
    bbox="-28 -206 1165.05 988"
    underline-thickness="50"
    underline-position="-125"
    slope="-11.3"
    unicode-range="U+000D-FB02"
  />
<missing-glyph horiz-adv-x="376" 
 />
    <glyph glyph-name="fi" unicode="fi" horiz-adv-x="682" 
d="M173 750h409l-29 -143h-221l-33 -165h196l-27 -134h-196l-62 -308h-187zM621 750h187l-150 -750h-187z" />
    <glyph glyph-name="fl" unicode="fl" horiz-adv-x="892" 
d="M173 750h409l-29 -143h-221l-33 -165h196l-27 -134h-196l-62 -308h-187zM619 750h188l-121 -607h221l-29 -143h-409z" />
    <glyph glyph-name=".notdef" horiz-adv-x="376" 
 />
    <glyph glyph-name=".null" horiz-adv-x="0" 
 />
    <glyph glyph-name=".null" horiz-adv-x="0" 
 />
    <glyph glyph-name="uni000D" unicode="&#xd;" horiz-adv-x="250" 
 />
    <glyph glyph-name="space" unicode=" " horiz-adv-x="245" 
 />
    <glyph glyph-name="exclam" unicode="!" horiz-adv-x="210" 
d="M170 750h170l-169 -581h-64zM177 0h-144l29 144h144z" />
    <glyph glyph-name="quotedbl" unicode="&#x22;" horiz-adv-x="366" 
d="M500 750l-85 -244h-72l13 244h144zM310 750l-85 -244h-72l13 244h144z" />
    <glyph glyph-name="numbersign" unicode="#" horiz-adv-x="601" 
d="M196 541h77l67 158h129l-68 -158h91l67 158h128l-67 -158h75l-50 -117h-76l-40 -96h76l-50 -116h-76l-69 -161h-128l69 161h-91l-68 -161h-129l69 161h-76l50 116h76l40 96h-76zM351 424l-41 -96h91l40 96h-90z" />
    <glyph glyph-name="dollar" unicode="$" horiz-adv-x="421" 
d="M286 701l11 50h144l-11 -52q51 -11 74 -50.5t6 -120.5q-2 -5 -4.5 -20t-4.5 -20h-159q2 5 4.5 20t4.5 20q4 17 -3.5 26.5t-23.5 9.5q-24 0 -33 -14t-14 -35q-3 -15 1.5 -25t14 -18.5t22.5 -15.5t28 -15q40 -21 65 -41.5t37.5 -45t13 -56.5t-8.5 -77q-17 -82 -56 -120
t-94 -49l-10 -53h-144l11 50q-59 8 -86.5 47t-10.5 126q2 5 4.5 20t4.5 20h159q-2 -5 -4.5 -19.5t-4.5 -20.5q-6 -36 27 -36q26 0 35 16t14 39q3 14 -2.5 24.5t-16.5 19t-26 16.5t-31 17q-37 21 -60 41t-34.5 43.5t-12 54t8.5 72.5q9 44 24.5 75t36.5 51t47.5 31t56.5 15z
" />
    <glyph glyph-name="percent" unicode="%" horiz-adv-x="561" 
d="M151 663q9 49 43 71.5t79 22.5t69.5 -22.5t14.5 -71.5l-33 -164q-10 -49 -43.5 -72t-78.5 -23t-69.5 23t-15.5 72zM556 757l-319 -750h-77l318 750h78zM200 489q-3 -18 16 -18q17 0 20 18l37 184q2 8 -2 13t-12 5q-9 0 -14.5 -5t-7.5 -13zM388 259q11 48 44 71t78 23
t70 -23t15 -71l-33 -164q-10 -50 -43.5 -72.5t-78.5 -22.5t-69.5 22.5t-14.5 72.5zM438 85q-2 -8 2.5 -13t13.5 -5q17 0 20 18l37 183q3 19 -14 19q-18 0 -23 -19z" />
    <glyph glyph-name="ampersand" unicode="&#x26;" horiz-adv-x="525" 
d="M151 548q12 60 32.5 100.5t52 65t75.5 34.5t102 10q59 0 98 -10t60.5 -34.5t25.5 -65t-8 -100.5q-12 -62 -36.5 -98.5t-70.5 -56.5q19 -10 35 -25t26.5 -34.5t14 -45t-2.5 -57.5q-2 -16 -8.5 -51t-14 -73t-14 -71.5t-9.5 -45.5h-188q2 6 3.5 16t2.5 15q-34 -18 -81 -20
q-6 -1 -12 -1h-12q-47 0 -83 10t-58 34t-28 64t6 101q4 22 13 49.5t23.5 54t35 48t47.5 30.5l1 8q-20 9 -28.5 25.5t-10 37t2.5 43t8 43.5zM379 596q-14 0 -22.5 -5t-14 -13t-8 -18.5t-4.5 -21.5l-5 -25q-2 -7 -2.5 -12.5t-1.5 -11.5q-2 -17 5 -25.5t25 -8.5q36 0 44 34
q2 6 3 11.5t3 12.5l5 25q1 8 2 15t2 15q2 17 -6.5 22.5t-24.5 5.5zM294 159q24 0 41.5 10.5t23.5 27.5q2 6 5.5 19.5t5.5 20.5q4 22 -6.5 39.5t-34.5 26.5q-8 5 -21 9.5t-24 9.5q-7 -5 -13.5 -21.5t-12 -36t-9 -38.5t-3.5 -29q-2 -17 11.5 -27.5t36.5 -10.5z" />
    <glyph glyph-name="quotesingle" unicode="'" horiz-adv-x="176" 
d="M310 750l-85 -244h-72l13 244h144z" />
    <glyph glyph-name="parenleft" unicode="(" horiz-adv-x="234" 
d="M140 596q10 50 32 80.5t52.5 47t67.5 21.5t77 5l-26 -129q-27 0 -42.5 -11.5t-18.5 -27.5l-83 -414q-3 -16 8 -27.5t38 -11.5l-26 -129q-40 0 -74.5 5t-58.5 21.5t-34 47t0 80.5z" />
    <glyph glyph-name="parenright" unicode=")" horiz-adv-x="234" 
d="M332 596l-88 -442q-10 -50 -32 -80.5t-52.5 -47t-67.5 -21.5t-77 -5l26 129q27 0 42 11.5t19 27.5l83 414q3 16 -8 27.5t-38 11.5l26 129q40 0 74.5 -5t58.5 -21.5t34 -47t0 -80.5z" />
    <glyph glyph-name="asterisk" unicode="*" horiz-adv-x="317" 
d="M264 750h88l-13 -69l75 26l14 -72l-82 -36l42 -56l-81 -58l-40 64l-65 -64l-58 58l66 57l-67 35l42 72l64 -25z" />
    <glyph glyph-name="plus" unicode="+" horiz-adv-x="369" 
d="M105 442h96l21 103h143l-21 -103h96l-26 -134h-96l-21 -103h-143l21 103h-96z" />
    <glyph glyph-name="comma" unicode="," horiz-adv-x="182" 
d="M84 -101h-86l78 101h-58l29 144h144l-29 -142z" />
    <glyph glyph-name="hyphen" unicode="-" horiz-adv-x="334" 
d="M105 442h300l-26 -134h-300z" />
    <glyph glyph-name="period" unicode="." horiz-adv-x="184" 
d="M164 0h-144l29 144h144z" />
    <glyph glyph-name="slash" unicode="/" horiz-adv-x="275" 
d="M267 750h145l-254 -750h-145z" />
    <glyph glyph-name="zero" unicode="0" horiz-adv-x="497" 
d="M131 555q11 53 36 91.5t60.5 63.5t80 37.5t93.5 12.5t88.5 -12.5t65 -37.5t35 -63.5t-1.5 -91.5l-72 -360q-10 -52 -35 -91t-60.5 -64t-80 -37.5t-93.5 -12.5t-88.5 12.5t-65 37.5t-35 64t0.5 91zM372 617q-20 0 -33 -12t-17 -31l-79 -398q-5 -19 3.5 -31t28.5 -12t33 12
t17 31l80 398q4 19 -4.5 31t-28.5 12z" />
    <glyph glyph-name="one" unicode="1" horiz-adv-x="304" 
d="M126 559l28 142l99 49h178l-150 -750h-187l116 579z" />
    <glyph glyph-name="two" unicode="2" horiz-adv-x="499" 
d="M373 618q-20 0 -34 -13.5t-18 -33.5q-1 -4 -3.5 -16t-5 -25t-5 -24t-2.5 -12h-187q1 3 2.5 10t3 15t2.5 15.5t2 10.5q13 63 36.5 104.5t58 66t79.5 34.5t99 10q61 0 103 -11t65 -37.5t27.5 -71t-9.5 -112.5q-12 -61 -41 -106.5t-65.5 -81t-76 -62t-74 -49t-58 -43
t-28.5 -43.5h248q-1 -4 -5 -25t-9 -45.5t-9 -45.5t-5 -27h-436q2 10 5.5 28.5t8 39.5t8 40t5.5 30q11 56 38.5 97t62 72t73.5 55.5t72.5 47t59 46.5t33.5 55q2 4 4 12t3.5 16.5t2.5 16.5t1 12q2 19 -3.5 34.5t-28.5 15.5z" />
    <glyph glyph-name="three" unicode="3" horiz-adv-x="496" 
d="M114 494l10 51q13 63 36.5 104.5t58 66t79.5 34.5t99 10q63 0 105 -11.5t64.5 -39t26.5 -73t-10 -114.5q-4 -19 -10 -41t-16.5 -42t-25.5 -36t-36 -23l-2 -9q18 -7 27 -23t11 -36t-0.5 -42t-6.5 -42q-13 -69 -35 -114.5t-56 -73t-80.5 -39t-109.5 -11.5q-54 0 -95 10
t-65.5 34.5t-32 66t5.5 104.5l10 51h188l-14 -68q-11 -56 32 -56q17 0 28 8.5t18 22.5t11 32.5t8 38.5q5 22 6 36.5t-5 22.5t-22.5 11.5t-46.5 3.5l27 134q30 0 48 3.5t27.5 11.5t14.5 22.5t9 36.5q3 17 6 35t1.5 33t-8.5 24.5t-25 9.5q-43 0 -54 -56l-14 -68h-187z" />
    <glyph glyph-name="four" unicode="4" horiz-adv-x="483" 
d="M471 204l-41 -204h-187l40 204h-230l27 135l275 411h225l-83 -411h40l-27 -135h-39zM310 339l54 268l-173 -268h119z" />
    <glyph glyph-name="five" unicode="5" horiz-adv-x="504" 
d="M615 750l-29 -143h-256l-25 -124q27 9 56 9q60 0 100 -13t61 -41.5t24 -74.5t-11 -112q-14 -69 -33 -118t-51 -81t-80.5 -47t-121.5 -15q-57 0 -98 10.5t-65 35.5t-30 66.5t6 102.5l10 51h188l-16 -77q-4 -20 5 -33.5t29 -13.5q29 0 41.5 21t16.5 45l20 96q5 24 0.5 44
t-33.5 20q-18 0 -32.5 -8.5t-17.5 -26.5h-187l85 427h444z" />
    <glyph glyph-name="six" unicode="6" horiz-adv-x="503" 
d="M131 554q11 53 35.5 91.5t60 64t80.5 38t96 12.5q52 0 92.5 -13t66 -38.5t34.5 -64t-1 -89.5l-11 -52h-187l14 69q3 20 -5 32.5t-31 12.5t-36 -13t-17 -31l-24 -120q21 9 46 9q118 0 164.5 -56.5t22.5 -175.5q-24 -123 -92.5 -181.5t-189.5 -58.5q-51 0 -91 12.5
t-65.5 38t-34.5 64.5t1 91zM315 319q-23 0 -36 -13t-17 -31l-19 -97q-4 -19 4 -32t31 -13q26 0 38.5 15.5t16.5 35.5l17 84q4 20 -2.5 35.5t-32.5 15.5z" />
    <glyph glyph-name="seven" unicode="7" horiz-adv-x="398" 
d="M55 0l257 607h-176l29 143h369l-27 -139l-257 -611h-195z" />
    <glyph glyph-name="eight" unicode="8" horiz-adv-x="504" 
d="M61 220q4 20 10 43t17 44.5t27 38.5t39 25l2 9q-21 8 -29.5 26.5t-10 41t2 46.5t7.5 43q12 64 33 106.5t54 68.5t79 37t108 11q64 0 107 -10t66.5 -35t28 -68.5t-8.5 -109.5q-4 -19 -10 -43t-16.5 -46.5t-26.5 -41t-40 -26.5l-2 -9q20 -8 29 -25t11.5 -38.5t-0.5 -44.5
t-7 -43q-13 -65 -33.5 -109t-52.5 -71t-78.5 -38.5t-111.5 -11.5q-66 0 -109.5 10t-67 36t-27 70.5t9.5 113.5zM374 617q-20 0 -33.5 -11t-18.5 -29q-2 -7 -5 -21.5t-5.5 -30t-5 -29.5t-2.5 -21q-2 -14 4.5 -23t23.5 -9h17q16 0 25 9t14 23q3 7 6.5 21t6.5 29.5t5.5 30
t3.5 21.5q2 18 -6.5 29t-29.5 11zM262 275q-3 -8 -6.5 -22.5t-7 -31t-5.5 -31t-2 -22.5q-1 -17 9 -26t28 -9q36 0 50 35q3 8 7 22.5t7 31t5 31t2 22.5q1 13 -4 23.5t-22 10.5h-19q-17 0 -27 -10t-15 -24z" />
    <glyph glyph-name="nine" unicode="9" horiz-adv-x="503" 
d="M122 520q25 123 93 181.5t189 58.5q51 0 91 -12.5t65.5 -38t35 -64.5t-1.5 -91l-71 -358q-11 -52 -36 -91t-60.5 -64.5t-80.5 -38t-96 -12.5q-52 0 -92.5 13t-66 38.5t-34 64t1.5 89.5l10 52h188l-14 -69q-4 -20 4.5 -32.5t31.5 -12.5t36 13t16 32l24 119q-19 -9 -45 -9
q-118 0 -164.5 56.5t-23.5 175.5zM375 617q-26 0 -38 -15.5t-17 -35.5l-16 -84q-5 -20 1.5 -35.5t32.5 -15.5q23 0 36 13t17 32l19 97q4 18 -4 31t-31 13z" />
    <glyph glyph-name="colon" unicode=":" horiz-adv-x="184" 
d="M113 464h144l-29 -144h-144zM49 144h144l-29 -144h-144z" />
    <glyph glyph-name="semicolon" unicode=";" horiz-adv-x="182" 
d="M111 464h144l-29 -144h-144zM47 144h144l-29 -142l-78 -103h-86l78 101h-58z" />
    <glyph glyph-name="less" unicode="&#x3c;" horiz-adv-x="289" 
d="M105 438l276 106l-24 -119l-185 -76l-2 -10l154 -78l-24 -119l-233 110z" />
    <glyph glyph-name="equal" unicode="=" horiz-adv-x="378" 
d="M115 492h344l-27 -134h-343zM66 246h344l-27 -134h-344z" />
    <glyph glyph-name="greater" unicode="&#x3e;" horiz-adv-x="289" 
d="M360 438l-38 -186l-277 -110l24 119l185 78l2 10l-154 76l24 119z" />
    <glyph glyph-name="question" unicode="?" horiz-adv-x="455" 
d="M114 503l10 49q13 66 35 107t53.5 63.5t72 30t90.5 7.5q51 0 89.5 -8t62 -33t29.5 -70.5t-9 -120.5q-12 -59 -39 -99.5t-61.5 -69.5t-72 -50t-70 -41t-56.5 -43t-30 -56h-99q11 56 32 95t46.5 67.5t52.5 49.5t50.5 40.5t41 41t23.5 50.5q9 44 6 61.5t-30 17.5
q-18 0 -29.5 -8.5t-16.5 -30.5l-11 -50h-170zM206 0h-144l29 144h144z" />
    <glyph glyph-name="at" unicode="@" horiz-adv-x="688" 
d="M94 370q18 91 50 162t83 119.5t122 73.5t167 25q83 0 137 -18t82 -56t32.5 -96.5t-11.5 -139.5q-11 -55 -27 -106.5t-44 -91t-71.5 -63t-108.5 -23.5h-136q-35 0 -59.5 5t-38 18t-17 37t3.5 61l40 196q8 38 21 61t33 36.5t47 18t61 4.5h130l-62 -312q-5 -20 0.5 -31.5
t27.5 -11.5q31 0 52.5 20.5t35.5 49t22 60.5t12 54q14 66 15 114t-17.5 79t-60 46t-113.5 15q-82 0 -138.5 -19.5t-95 -58t-62 -95.5t-38.5 -133q-13 -64 -11.5 -119t22.5 -95.5t65 -63.5t115 -23q72 0 142 21l8 -70q-41 -12 -82.5 -18.5t-81.5 -6.5q-88 0 -144 28.5
t-85.5 78.5t-33.5 118.5t12 149.5zM371 275q-3 -17 17 -17h22l46 233h-19q-10 0 -17 -4t-9 -15z" />
    <glyph glyph-name="A" unicode="A" horiz-adv-x="518" 
d="M262 750h294l-46 -750h-191l25 203h-88l-57 -203h-191zM290 337h73l30 270h-25z" />
    <glyph glyph-name="B" unicode="B" 
d="M422 750q119 0 175 -51t35 -159q-6 -26 -13 -51.5t-17.5 -47.5t-25.5 -38t-37 -23l-2 -9q20 -8 28.5 -24.5t10 -38t-2 -47t-8.5 -51.5q-22 -111 -98.5 -160.5t-194.5 -49.5h-249l150 750h249zM372 450q26 0 40.5 12.5t19.5 28.5q2 5 4.5 15t4.5 20.5t3.5 20t1.5 14.5
q2 18 -10.5 32t-42.5 14h-61l-31 -157h71zM300 143q24 0 45 12t28 38q2 6 4.5 18t5.5 25t5 25.5t3 18.5q3 22 -10.5 33.5t-33.5 11.5h-71l-37 -182h61z" />
    <glyph glyph-name="C" unicode="C" 
d="M557 196q-11 -55 -36.5 -94t-62.5 -64t-85.5 -36.5t-105.5 -11.5q-58 0 -101.5 11.5t-71 36.5t-37 64t1.5 94l72 358q11 55 36 94t62 64t85.5 36.5t106.5 11.5q57 0 101 -11.5t71 -36.5t36.5 -64t-1.5 -94l-23 -115h-187l25 125q4 21 -7.5 37t-43.5 16t-49.5 -16
t-22.5 -37l-75 -378q-5 -21 7 -37t43 -16q32 0 50 16t22 37l25 125h188z" />
    <glyph glyph-name="D" unicode="D" horiz-adv-x="540" 
d="M173 750h249q57 0 101 -11.5t71 -36.5t36.5 -64t-1.5 -94q-5 -25 -14 -70.5t-19 -96t-19.5 -97.5t-14.5 -74q-11 -55 -36.5 -94t-62.5 -64t-85.5 -36.5t-105.5 -11.5h-249zM300 143q32 0 50 16t22 37l72 358q4 21 -7.5 37t-43.5 16h-61l-93 -464h61z" />
    <glyph glyph-name="E" unicode="E" horiz-adv-x="448" 
d="M173 750h409l-29 -143h-221l-33 -165h196l-27 -134h-196l-33 -165h221l-28 -143h-409z" />
    <glyph glyph-name="F" unicode="F" horiz-adv-x="447" 
d="M173 750h409l-29 -143h-221l-33 -165h196l-27 -134h-196l-62 -308h-187z" />
    <glyph glyph-name="G" unicode="G" horiz-adv-x="538" 
d="M131 554q11 55 36 94t62 64t85.5 36.5t106.5 11.5q57 0 101 -11.5t71 -36.5t36.5 -64t-1.5 -94l-14 -71h-188l17 81q4 21 -7.5 37t-43.5 16t-49.5 -16t-22.5 -37l-75 -378q-5 -21 7 -37t43 -16q32 0 50 16t22 37l10 50h-51l27 135h238l-34 -175q-11 -55 -36.5 -94
t-62.5 -64t-85.5 -36.5t-105.5 -11.5q-58 0 -101.5 11.5t-71 36.5t-37 64t1.5 94z" />
    <glyph glyph-name="H" unicode="H" horiz-adv-x="543" 
d="M173 750h187l-61 -308h122l62 308h187l-150 -750h-187l62 308h-123l-62 -308h-187z" />
    <glyph glyph-name="I" unicode="I" horiz-adv-x="236" 
d="M174 750h188l-150 -750h-188z" />
    <glyph glyph-name="J" unicode="J" horiz-adv-x="314" 
d="M443 750q-5 -27 -13.5 -70t-19 -94t-21.5 -106.5t-21.5 -107t-19.5 -95.5t-14 -71q-13 -65 -37.5 -105.5t-59 -63t-78 -30t-93.5 -7.5h-53l29 143q14 0 30 1t30.5 5.5t26 13.5t14.5 26l112 561h188z" />
    <glyph glyph-name="K" unicode="K" horiz-adv-x="527" 
d="M173 750h187l-61 -308h16l170 308h188l-207 -375l56 -375h-188l-46 308h-16l-62 -308h-187z" />
    <glyph glyph-name="L" unicode="L" horiz-adv-x="446" 
d="M173 750h187l-121 -607h221l-28 -143h-409z" />
    <glyph glyph-name="M" unicode="M" horiz-adv-x="746" 
d="M432 750l-31 -605h2l212 605h258l-150 -750h-187l85 426l-157 -426h-181l12 426l-85 -426h-187l150 750h259z" />
    <glyph glyph-name="N" unicode="N" horiz-adv-x="543" 
d="M173 750h187l33 -448l90 448h187l-150 -750h-187l-33 448l-90 -448h-187z" />
    <glyph glyph-name="O" unicode="O" 
d="M131 554q11 55 36 94t62 64t85.5 36.5t106.5 11.5q57 0 101 -11.5t71 -36.5t36.5 -64t-1.5 -94l-71 -358q-11 -55 -36.5 -94t-62.5 -64t-85.5 -36.5t-105.5 -11.5q-58 0 -101.5 11.5t-71 36.5t-37 64t1.5 94zM245 186q-5 -21 7 -37t43 -16q32 0 50 16t22 37l76 378
q4 21 -7.5 37t-43.5 16t-49.5 -16t-22.5 -37z" />
    <glyph glyph-name="P" unicode="P" horiz-adv-x="540" 
d="M423 750q64 0 108.5 -13t70.5 -41t32.5 -72t-5.5 -106q-13 -64 -36.5 -109.5t-60.5 -75t-88 -43t-118 -13.5h-60l-56 -277h-187l150 750h250zM332 607l-38 -186h60q31 0 50 14.5t25 34.5q2 6 4.5 18t5 25.5t4.5 25.5l3 18q2 20 -10 35t-43 15h-61z" />
    <glyph glyph-name="Q" unicode="Q" horiz-adv-x="543" 
d="M131 554q11 55 36 94t62 64t85.5 36.5t106.5 11.5q57 0 101 -11.5t71 -36.5t36.5 -64t-1.5 -94q-3 -17 -9 -46t-13 -63.5t-14.5 -71.5t-14 -71t-12 -62t-8.5 -44q-11 -54 -36 -92.5t-60 -63.5l74 -69q-13 -9 -38 -26t-51.5 -34.5t-49.5 -33t-32 -21.5q-3 6 -14.5 25.5
t-24.5 42.5t-24.5 42.5t-14.5 25.5q-5 -1 -9.5 -1.5t-9.5 -0.5q-58 0 -101.5 11.5t-71 36.5t-37 64t1.5 94l8.5 42.5t12.5 61.5t14.5 71.5l14.5 72.5t13 64t9 46zM392 617q-32 0 -49.5 -16t-22.5 -37l-75 -378q-5 -21 7 -37t43 -16q32 0 50 16t22 37l76 378q4 21 -7.5 37
t-43.5 16z" />
    <glyph glyph-name="R" unicode="R" horiz-adv-x="534" 
d="M173 750h250q64 0 108.5 -13t70.5 -41t32.5 -72t-5.5 -106q-17 -85 -53 -138t-98 -77l40 -303h-179l-36 278q-3 -1 -6.5 -1h-5.5h-25l-56 -277h-187zM354 421q31 0 50 14.5t25 34.5q5 22 9.5 44t7.5 43q2 20 -8.5 34t-39.5 16h-5h-61l-38 -186h60z" />
    <glyph glyph-name="S" unicode="S" 
d="M123 533q12 62 38.5 105t64.5 70t87 39.5t107 12.5q61 0 105.5 -11t71 -37t34.5 -69t-5 -108q-2 -8 -3.5 -16.5t-3.5 -16.5h-188q1 4 2.5 13.5t3.5 14.5q3 17 4 32.5t-3 27.5t-15 19.5t-31 7.5q-26 0 -48 -14.5t-28 -42.5q-7 -35 12 -56.5t51 -38.5t69.5 -34.5
t67.5 -43.5t45.5 -66.5t2.5 -103.5q-12 -61 -38.5 -104.5t-64.5 -70.5t-87.5 -39.5t-107.5 -12.5q-61 0 -105.5 11t-70.5 37t-34 69.5t5 108.5q2 8 3.5 16t3.5 16h188q-2 -4 -3.5 -13.5t-2.5 -14.5q-3 -17 -4.5 -32.5t3 -27.5t15 -19.5t31.5 -7.5q30 0 50.5 17t26.5 48
q5 26 -5 44.5t-29.5 32t-45.5 25t-53 24t-52 29.5t-42.5 41t-24.5 58t3 81z" />
    <glyph glyph-name="T" unicode="T" horiz-adv-x="525" 
d="M661 750l-28 -143h-155l-122 -607h-187l121 607h-155l29 143h497z" />
    <glyph glyph-name="U" unicode="U" horiz-adv-x="539" 
d="M171 750h187l-112 -564q-5 -21 7 -37t43 -16q32 0 50 16t22 37l113 564h187l-110 -554q-11 -55 -36.5 -94t-62.5 -64t-85.5 -36.5t-105.5 -11.5q-58 0 -101.5 11.5t-71 36.5t-37 64t1.5 94z" />
    <glyph glyph-name="V" unicode="V" horiz-adv-x="542" 
d="M161 750h196l-66 -607h17l176 607h197l-255 -750h-311z" />
    <glyph glyph-name="W" unicode="W" horiz-adv-x="819" 
d="M161 750h196l-66 -607h17l161 607h181l-81 -607h16l177 607h196l-254 -750h-257l82 591h-2l-155 -591h-257z" />
    <glyph glyph-name="X" unicode="X" horiz-adv-x="553" 
d="M161 750h188l14 -299h8l133 299h188l-174 -375l24 -375h-188l-13 299h-9l-133 -299h-188l174 375z" />
    <glyph glyph-name="Y" unicode="Y" horiz-adv-x="562" 
d="M357 750l11 -315l137 315h196l-280 -517l-46 -233h-188l47 233l-73 517h196z" />
    <glyph glyph-name="Z" unicode="Z" horiz-adv-x="450" 
d="M240 143h224l-28 -143h-423l28 140l318 467h-224l29 143h422l-28 -139z" />
    <glyph glyph-name="bracketleft" unicode="[" horiz-adv-x="277" 
d="M173 750h239l-26 -130h-95l-98 -490h95l-26 -130h-239z" />
    <glyph glyph-name="backslash" unicode="\" horiz-adv-x="275" 
d="M308 750l-46 -750h-145l46 750h145z" />
    <glyph glyph-name="bracketright" unicode="]" horiz-adv-x="277" 
d="M404 750l-150 -750h-239l26 130h95l98 490h-95l26 130h239z" />
    <glyph glyph-name="asciicircum" unicode="^" horiz-adv-x="333" 
d="M224 750h185l3 -276h-119l11 190h-9l-65 -190h-119z" />
    <glyph glyph-name="underscore" unicode="_" horiz-adv-x="426" 
d="M13 -10h394l-20 -99h-394z" />
    <glyph glyph-name="grave" unicode="`" horiz-adv-x="219" 
d="M160 750h145l24 -149h-109z" />
    <glyph glyph-name="a" unicode="a" horiz-adv-x="518" 
d="M262 750h294l-46 -750h-191l25 203h-88l-57 -203h-191q14 41 34.5 101.5t44 130t48.5 144t48.5 144t44 129.5t34.5 101zM290 337h73l30 270h-25z" />
    <glyph glyph-name="b" unicode="b" 
d="M422 750q119 0 175 -51t35 -159q-6 -26 -13 -51.5t-17.5 -47.5t-25.5 -38t-37 -23l-2 -9q20 -8 28.5 -24.5t10 -38t-2 -47t-8.5 -51.5q-22 -111 -98.5 -160.5t-194.5 -49.5h-249l150 750h249zM372 450q26 0 40.5 12.5t19.5 28.5q2 5 4.5 15t4.5 20.5t3.5 20t1.5 14.5
q2 18 -10.5 32t-42.5 14h-61l-31 -157h71zM300 143q24 0 45 12t28 38q2 6 4.5 18t5.5 25t5 25.5t3 18.5q3 22 -10.5 33.5t-33.5 11.5h-71l-37 -182h61z" />
    <glyph glyph-name="c" unicode="c" 
d="M557 196q-11 -55 -36.5 -94t-62.5 -64t-85.5 -36.5t-105.5 -11.5q-58 0 -101.5 11.5t-71 36.5t-37 64t1.5 94l72 358q11 55 36 94t62 64t85.5 36.5t106.5 11.5q57 0 101 -11.5t71 -36.5t36.5 -64t-1.5 -94l-23 -115h-187l25 125q4 21 -7.5 37t-43.5 16t-49.5 -16
t-22.5 -37l-75 -378q-5 -21 7 -37t43 -16q32 0 50 16t22 37l25 125h188z" />
    <glyph glyph-name="d" unicode="d" horiz-adv-x="538" 
d="M171 750h249q57 0 101 -11.5t71 -36.5t36.5 -64t-1.5 -94q-5 -25 -14 -70.5t-19 -96t-19.5 -97.5t-14.5 -74q-11 -55 -36.5 -94t-62.5 -64t-85.5 -36.5t-105.5 -11.5h-249zM298 143q32 0 50 16t22 37l72 358q4 21 -7.5 37t-43.5 16h-61l-93 -464h61z" />
    <glyph glyph-name="e" unicode="e" horiz-adv-x="448" 
d="M173 750h409l-29 -143h-221l-33 -165h196l-27 -134h-196l-33 -165h221l-28 -143h-409z" />
    <glyph glyph-name="f" unicode="f" horiz-adv-x="447" 
d="M173 750h409l-29 -143h-221l-33 -165h196l-27 -134h-196l-62 -308h-187z" />
    <glyph glyph-name="g" unicode="g" horiz-adv-x="538" 
d="M131 554q11 55 36 94t62 64t85.5 36.5t106.5 11.5q57 0 101 -11.5t71 -36.5t36.5 -64t-1.5 -94l-14 -71h-188l17 81q4 21 -7.5 37t-43.5 16t-49.5 -16t-22.5 -37l-75 -378q-5 -21 7 -37t43 -16q32 0 50 16t22 37l10 50h-51l27 135h238l-34 -175q-11 -55 -36.5 -94
t-62.5 -64t-85.5 -36.5t-105.5 -11.5q-58 0 -101.5 11.5t-71 36.5t-37 64t1.5 94z" />
    <glyph glyph-name="h" unicode="h" horiz-adv-x="543" 
d="M173 750h187l-61 -308h122l62 308h187l-150 -750h-187l62 308h-123l-62 -308h-187z" />
    <glyph glyph-name="i" unicode="i" horiz-adv-x="236" 
d="M174 750h188l-150 -750h-188z" />
    <glyph glyph-name="j" unicode="j" horiz-adv-x="314" 
d="M443 750q-5 -27 -13.5 -70t-19 -94t-21.5 -106.5t-21.5 -107t-19.5 -95.5t-14 -71q-13 -65 -37.5 -105.5t-59 -63t-78 -30t-93.5 -7.5h-53l29 143q14 0 30 1t30.5 5.5t26 13.5t14.5 26l112 561h188z" />
    <glyph glyph-name="k" unicode="k" horiz-adv-x="527" 
d="M173 750h187l-61 -308h16l170 308h188l-207 -375l56 -375h-188l-46 308h-16l-62 -308h-187z" />
    <glyph glyph-name="l" unicode="l" horiz-adv-x="446" 
d="M173 750h187l-121 -607h221l-28 -143h-409z" />
    <glyph glyph-name="m" unicode="m" horiz-adv-x="751" 
d="M432 750l-28 -605h2l214 605h258l-150 -750h-187l85 426l-160 -426h-180l9 426l-85 -426h-187l150 750h259z" />
    <glyph glyph-name="n" unicode="n" horiz-adv-x="543" 
d="M173 750h187l33 -448l90 448h187l-150 -750h-187l-33 448l-90 -448h-187z" />
    <glyph glyph-name="o" unicode="o" 
d="M131 554q11 55 36 94t62 64t85.5 36.5t106.5 11.5q57 0 101 -11.5t71 -36.5t36.5 -64t-1.5 -94l-71 -358q-11 -55 -36.5 -94t-62.5 -64t-85.5 -36.5t-105.5 -11.5q-58 0 -101.5 11.5t-71 36.5t-37 64t1.5 94zM245 186q-5 -21 7 -37t43 -16q32 0 50 16t22 37l76 378
q4 21 -7.5 37t-43.5 16t-49.5 -16t-22.5 -37z" />
    <glyph glyph-name="p" unicode="p" horiz-adv-x="540" 
d="M423 750q64 0 108.5 -13t70.5 -41t32.5 -72t-5.5 -106q-13 -64 -36.5 -109.5t-60.5 -75t-88 -43t-118 -13.5h-60l-56 -277h-187l150 750h250zM332 607l-38 -186h60q31 0 50 14.5t25 34.5q2 6 4.5 18t5 25.5t4.5 25.5l3 18q2 20 -10 35t-43 15h-61z" />
    <glyph glyph-name="q" unicode="q" horiz-adv-x="543" 
d="M131 554q11 55 36 94t62 64t85.5 36.5t106.5 11.5q57 0 101 -11.5t71 -36.5t36.5 -64t-1.5 -94q-3 -17 -9 -46t-13 -63.5t-14.5 -71.5t-14 -71t-12 -62t-8.5 -44q-11 -54 -36 -92.5t-60 -63.5l74 -69q-13 -9 -38 -26t-51.5 -34.5t-49.5 -33t-32 -21.5q-3 6 -14.5 25.5
t-24.5 42.5t-24.5 42.5t-14.5 25.5q-5 -1 -9.5 -1.5t-9.5 -0.5q-58 0 -101.5 11.5t-71 36.5t-37 64t1.5 94l8.5 42.5t12.5 61.5t14.5 71.5l14.5 72.5t13 64t9 46zM392 617q-32 0 -49.5 -16t-22.5 -37l-75 -378q-5 -21 7 -37t43 -16q32 0 50 16t22 37l76 378q4 21 -7.5 37
t-43.5 16z" />
    <glyph glyph-name="r" unicode="r" horiz-adv-x="534" 
d="M173 750h250q64 0 108.5 -13t70.5 -41t32.5 -72t-5.5 -106q-17 -85 -53 -138t-98 -77l40 -303h-179l-36 278q-3 -1 -6.5 -1h-5.5h-25l-56 -277h-187zM354 421q31 0 50 14.5t25 34.5q5 22 9.5 44t7.5 43q2 20 -8.5 34t-39.5 16h-5h-61l-38 -186h60z" />
    <glyph glyph-name="s" unicode="s" 
d="M123 533q12 62 38.5 105t64.5 70t87 39.5t107 12.5q61 0 105.5 -11t71 -37t34.5 -69t-5 -108q-2 -8 -3.5 -16.5t-3.5 -16.5h-188q1 4 2.5 13.5t3.5 14.5q3 17 4 32.5t-3 27.5t-15 19.5t-31 7.5q-26 0 -48 -14.5t-28 -42.5q-7 -35 12 -56.5t51 -38.5t69.5 -34.5
t67.5 -43.5t45.5 -66.5t2.5 -103.5q-12 -61 -38.5 -104.5t-64.5 -70.5t-87.5 -39.5t-107.5 -12.5q-61 0 -105.5 11t-70.5 37t-34 69.5t5 108.5q2 8 3.5 16t3.5 16h188q-2 -4 -3.5 -13.5t-2.5 -14.5q-3 -17 -4.5 -32.5t3 -27.5t15 -19.5t31.5 -7.5q30 0 50.5 17t26.5 48
q5 26 -5 44.5t-29.5 32t-45.5 25t-53 24t-52 29.5t-42.5 41t-24.5 58t3 81z" />
    <glyph glyph-name="t" unicode="t" horiz-adv-x="525" 
d="M661 750l-28 -143h-155l-122 -607h-187l121 607h-155l29 143h497z" />
    <glyph glyph-name="u" unicode="u" horiz-adv-x="539" 
d="M171 750h187l-112 -564q-5 -21 7 -37t43 -16q32 0 50 16t22 37l113 564h187l-110 -554q-11 -55 -36.5 -94t-62.5 -64t-85.5 -36.5t-105.5 -11.5q-58 0 -101.5 11.5t-71 36.5t-37 64t1.5 94z" />
    <glyph glyph-name="v" unicode="v" horiz-adv-x="542" 
d="M161 750h196l-66 -607h17l176 607h197l-255 -750h-311z" />
    <glyph glyph-name="w" unicode="w" horiz-adv-x="819" 
d="M161 750h196l-66 -607h17l161 607h181l-81 -607h16l177 607h196l-254 -750h-257l82 591h-2l-155 -591h-257z" />
    <glyph glyph-name="x" unicode="x" horiz-adv-x="553" 
d="M161 750h188l14 -299h8l133 299h188l-174 -375l24 -375h-188l-13 299h-9l-133 -299h-188l174 375z" />
    <glyph glyph-name="y" unicode="y" horiz-adv-x="562" 
d="M357 750l11 -315l137 315h196l-280 -517l-46 -233h-188l47 233l-73 517h196z" />
    <glyph glyph-name="z" unicode="z" horiz-adv-x="450" 
d="M240 143h224l-28 -143h-423l28 140l318 467h-224l29 143h422l-28 -139z" />
    <glyph glyph-name="braceleft" unicode="{" horiz-adv-x="276" 
d="M91 389q29 17 45 41.5t24.5 52.5t12.5 57t9 56q10 49 31.5 79t51.5 46.5t67 22.5t79 6l-26 -129q-18 0 -37.5 -9.5t-23.5 -29.5q-4 -21 -8.5 -52t-13.5 -61.5t-25 -55t-42 -33.5l-2 -9q23 -9 28.5 -33.5t2.5 -55.5t-11 -62t-12 -52q-4 -20 12 -29.5t34 -9.5l-26 -129
q-42 0 -77 6t-58 22.5t-32.5 46.5t0.5 79q5 27 12.5 56.5t10 57t-3.5 52t-28 41.5z" />
    <glyph glyph-name="bar" unicode="|" horiz-adv-x="196" 
d="M182 780h144l-162 -810h-144z" />
    <glyph glyph-name="braceright" unicode="}" horiz-adv-x="276" 
d="M335 361q-29 -17 -45 -41.5t-24.5 -52t-12.5 -57t-9 -56.5q-10 -49 -31.5 -79t-51.5 -46.5t-67 -22.5t-79 -6l26 129q18 0 37 9.5t24 29.5q4 21 8.5 52t13.5 62t24.5 55.5t42.5 33.5l2 9q-23 9 -28.5 33.5t-2.5 55t11 61.5t12 52q4 20 -12 29.5t-34 9.5l26 129
q42 0 77 -6t58 -22.5t32.5 -46.5t-0.5 -79q-5 -27 -13 -56t-10.5 -57t4 -52.5t28.5 -41.5z" />
    <glyph glyph-name="asciitilde" unicode="~" horiz-adv-x="505" 
d="M66 240q10 51 28.5 85t42.5 54.5t51.5 29t54.5 8.5q42 0 81 -8.5t67 -8.5q19 0 32 13t17 31h136q-10 -51 -29 -85t-43 -55t-51.5 -29.5t-54.5 -8.5q-42 0 -81.5 8t-67.5 8q-18 0 -30.5 -12.5t-16.5 -29.5h-136z" />
    <glyph glyph-name="exclamdown" unicode="&#xa1;" horiz-adv-x="210" 
d="M317 700l-29 -144h-144l29 144h144zM10 -50l170 581h63l-63 -581h-170z" />
    <glyph glyph-name="cent" unicode="&#xa2;" horiz-adv-x="534" 
d="M116 484q18 93 74 140.5t143 60.5l15 75h144l-15 -75q80 -13 117.5 -61t18.5 -140l-11 -57h-188l14 67q4 21 -7.5 37t-43.5 16t-49.5 -16t-22.5 -37l-47 -238q-5 -21 7 -37t43 -16q32 0 50 16t22 37l14 69h187l-11 -59q-19 -92 -75 -140t-143 -61l-14 -75h-144l15 75
q-81 13 -118.5 61t-18.5 140z" />
    <glyph glyph-name="sterling" unicode="&#xa3;" horiz-adv-x="579" 
d="M495 400l-27 -134h-161l-25 -123h290l-28 -143h-478l53 266h-51l27 134h51l31 154q11 55 36 94t62 64t85.5 36.5t106.5 11.5q57 0 101 -11.5t71 -36.5t36.5 -64t-1.5 -94l-11 -59h-188l14 69q5 21 -7 37t-44 16q-31 0 -49 -16t-23 -37l-33 -164h162z" />
    <glyph glyph-name="currency" unicode="&#xa4;" horiz-adv-x="548" 
d="M126 369q7 33 22 62.5t36 55.5l-54 66l120 103l65 -77q20 8 41 12t42 4q39 0 75 -14l90 77l77 -93l-76 -66q14 -28 19 -60.5t-3 -69.5q-8 -38 -27 -72t-45 -62l52 -69l-114 -93l-63 82q-35 -13 -76 -13q-20 0 -38 4t-35 10l-99 -81l-80 103l83 68q-25 55 -12 123z
M325 233q28 0 55 10.5t49.5 29t38 43.5t21.5 53t0 52.5t-21 43t-37.5 29t-50.5 10.5t-55 -10.5t-49 -29t-37.5 -43t-21.5 -52.5t0 -53t20.5 -43.5t37 -29t50.5 -10.5z" />
    <glyph glyph-name="yen" unicode="&#xa5;" horiz-adv-x="564" 
d="M358 750l18 -280l130 280h196l-205 -363h69l-18 -90h-102l-13 -23l-7 -32h111l-18 -90h-113l-30 -152h-188l30 152h-113l18 90h112l5 32l-4 23h-102l18 90h70l-60 363h196z" />
    <glyph glyph-name="brokenbar" unicode="&#xa6;" horiz-adv-x="192" 
d="M115 454l65 326h144l-65 -326h-144zM20 -20l65 326h144l-65 -326h-144z" />
    <glyph glyph-name="section" unicode="&#xa7;" horiz-adv-x="551" 
d="M130 533q12 61 38.5 104t64.5 70.5t87.5 40t106.5 12.5q61 0 105.5 -11t71 -37.5t34.5 -69.5t-5 -107q-2 -8 -3.5 -16t-3.5 -16h-188q1 4 2.5 13t3.5 14q3 16 4 31.5t-3.5 28t-15 20t-30.5 7.5q-26 0 -48 -15t-28 -42q-5 -25 5 -43t29 -32.5t44.5 -26.5t51.5 -26t50 -32
t40 -43q-1 -2 -1.5 -5t-1.5 -5q-18 4 -49 10.5t-69.5 15t-80.5 17.5t-80.5 17.5t-71 15.5t-51.5 11q-9 20 -12 43.5t4 55.5zM571 217q-12 -61 -39 -104t-65 -70.5t-87.5 -40t-106.5 -12.5q-60 0 -104.5 11t-71 37.5t-34.5 69.5t5 107q2 8 3.5 16.5t3.5 16.5h188
q-2 -4 -4 -14t-2 -14q-3 -16 -4 -32t3 -28t15 -19.5t31 -7.5q29 0 50 17.5t27 47.5q5 26 -5 43.5t-29.5 31t-45 25t-51.5 25t-50 31t-39 43.5l3 10q12 -2 43 -9t72.5 -16t87 -19t86 -18.5t71.5 -15.5t41 -9q9 -20 12 -45t-4 -58z" />
    <glyph glyph-name="dieresis" unicode="&#xa8;" horiz-adv-x="318" 
d="M432 618h-132l26 132h132zM266 618h-132l26 132h132z" />
    <glyph glyph-name="copyright" unicode="&#xa9;" horiz-adv-x="804" 
d="M98 373q16 82 58.5 151.5t103 120t136 79t157.5 28.5t145.5 -28.5t104 -79t55 -120t-1.5 -151.5t-58.5 -151.5t-103.5 -120t-136 -79t-157 -28.5t-145.5 28.5t-104 79t-55 120t1.5 151.5zM163 373q-14 -68 -2 -125.5t45.5 -99.5t86.5 -65.5t121 -23.5t130 23.5
t112.5 65.5t85.5 99.5t49 125.5t1.5 125.5t-46 99.5t-86.5 65.5t-121 23.5t-130 -23.5t-112.5 -65.5t-85.5 -99.5t-48 -125.5zM646 328l-17 -83q-15 -79 -69.5 -113.5t-137.5 -34.5q-41 0 -72.5 8.5t-51.5 26.5t-27 46t1 67l52 260q16 79 70.5 113.5t137.5 34.5
q41 0 72.5 -8.5t51.5 -26.5t27 -46t-1 -67l-17 -83h-133l17 90q4 16 -4.5 28t-32.5 12q-23 0 -36.5 -12t-16.5 -28l-54 -274q-4 -16 4.5 -27.5t31.5 -11.5q24 0 37 11.5t17 27.5l17 90h134z" />
    <glyph glyph-name="ordfeminine" unicode="&#xaa;" horiz-adv-x="259" 
d="M212 750h134l-20 -339h-87l11 91h-41l-25 -91h-86zM224 563h33l15 123h-12z" />
    <glyph glyph-name="guillemotleft" unicode="&#xab;" horiz-adv-x="461" 
d="M350 346v-4l135 -158l-25 -121l-206 237l19 90l300 233l-25 -121zM168 346l-1 -4l135 -158l-24 -121l-206 237l18 90l300 233l-25 -121z" />
    <glyph glyph-name="logicalnot" unicode="&#xac;" horiz-adv-x="478" 
d="M86 313h432l-59 -292h-99l39 193h-333z" />
    <glyph glyph-name="registered" unicode="&#xae;" horiz-adv-x="790" 
d="M546 752q82 0 145.5 -28.5t104 -79t55 -120t-1.5 -151.5t-58.5 -151.5t-103.5 -120t-136 -79t-157 -28.5t-145.5 28.5t-104 79t-55 120t1.5 151.5t58.5 151.5t103 120t136 79t157.5 28.5zM156 373q-14 -68 -2 -125.5t45.5 -99.5t86.5 -65.5t121 -23.5t130 23.5
t112.5 65.5t85.5 99.5t49 125.5t1.5 125.5t-46 99.5t-86.5 65.5t-121 23.5t-130 -23.5t-112.5 -65.5t-85.5 -99.5t-48 -125.5zM369 625h163q84 0 117 -35.5t16 -116.5q-11 -56 -35 -90.5t-66 -50.5l28 -198h-114l-23 183h-8h-19l-37 -183h-120zM486 408q16 0 34 10t18 29
q3 11 5.5 23.5t4.5 24.5v7q2 14 -6 21.5t-21 9.5h-8h-42l-25 -125h40z" />
    <glyph glyph-name="macron" unicode="&#xaf;" horiz-adv-x="360" 
d="M146 688h344l-27 -134h-344z" />
    <glyph glyph-name="degree" unicode="&#xb0;" horiz-adv-x="296" 
d="M129 565q6 29 20.5 53t35.5 41.5t47.5 27.5t54.5 10q29 0 51 -10t36 -27.5t19.5 -41.5t-0.5 -53t-20.5 -53t-35.5 -41.5t-47.5 -27.5t-55.5 -10q-28 0 -50.5 10t-36.5 27.5t-19 41.5t1 53zM210 565q-5 -23 6.5 -37t34.5 -14t39.5 14t21.5 37t-6.5 37t-34.5 14t-39.5 -14
t-21.5 -37z" />
    <glyph glyph-name="plusminus" unicode="&#xb1;" horiz-adv-x="369" 
d="M105 442h96l21 103h143l-21 -103h96l-26 -134h-96l-21 -103h-143l21 103h-96zM52 173h335l-27 -134h-335z" />
    <glyph glyph-name="twosuperior" unicode="&#xb2;" horiz-adv-x="258" 
d="M267 694q-9 0 -15 -6.5t-8 -16.5q0 -1 -1.5 -6.5t-2.5 -11.5t-2 -11t-1 -6h-87q1 3 2.5 12.5t2.5 11.5q6 29 17 48t27 30t36.5 15.5t45.5 4.5q56 0 76.5 -22t8.5 -84q-8 -42 -32.5 -68.5t-51.5 -45t-49 -32t-25 -29.5h114q0 -2 -2 -11.5t-4 -20.5t-4 -21t-3 -12h-199
q1 4 3 12.5t4 18t4 18.5t3 14q7 38 29.5 61.5t48 40.5t47.5 32t27 36q2 4 4 12.5t2 13.5q1 8 -1.5 15.5t-13.5 7.5z" />
    <glyph glyph-name="threesuperior" unicode="&#xb3;" horiz-adv-x="254" 
d="M151 639l4 22q12 58 43 78t80 20q57 0 76.5 -22.5t6.5 -84.5q-3 -18 -11 -38t-28 -26l-1 -5q17 -6 17.5 -26t-3.5 -38q-12 -61 -40.5 -83.5t-85.5 -22.5q-49 0 -72.5 19.5t-12.5 76.5l5 24h84l-6 -31q-5 -25 14 -25q17 0 22 14t9 31q4 19 -0.5 26t-30.5 7l12 61
q27 0 33.5 7t10.5 27q2 7 3 15t0.5 14.5t-4 10.5t-11.5 4q-19 0 -24 -24l-6 -31h-84z" />
    <glyph glyph-name="acute" unicode="&#xb4;" horiz-adv-x="219" 
d="M214 750h145l-119 -149h-110z" />
    <glyph glyph-name="paragraph" unicode="&#xb6;" horiz-adv-x="428" 
d="M305 356q-54 0 -90.5 16t-57 43t-26.5 63t2 76t28.5 75.5t52 62.5t74 42.5t96.5 15.5h74l-156 -780h-74zM482 750h73l-156 -780h-73z" />
    <glyph glyph-name="periodcentered" unicode="&#xb7;" horiz-adv-x="178" 
d="M282 606h-144l29 144h144z" />
    <glyph glyph-name="cedilla" unicode="&#xb8;" horiz-adv-x="194" 
d="M3 -79q31 -2 46.5 10.5t18.5 27.5q3 14 -3 26t-18 14l71 18q33 -15 44.5 -40.5t5.5 -52.5q-4 -22 -17.5 -43.5t-34.5 -38t-47 -26.5t-56 -10q-10 0 -20 1t-21 4z" />
    <glyph glyph-name="onesuperior" unicode="&#xb9;" horiz-adv-x="166" 
d="M156 664l13 65l45 21h80l-68 -339h-84l52 261z" />
    <glyph glyph-name="ordmasculine" unicode="&#xba;" horiz-adv-x="236" 
d="M148 665q11 48 44 70.5t78 22.5t69 -22.5t14 -70.5l-32 -161q-10 -48 -43 -70.5t-78 -22.5t-69 22.5t-14 70.5zM257 693q-19 0 -22 -18l-36 -181q-3 -19 14 -19q21 0 24 19l36 181q3 18 -16 18z" />
    <glyph glyph-name="guillemotright" unicode="&#xbb;" horiz-adv-x="461" 
d="M248 346l-135 156l25 121l206 -233l-18 -90l-301 -237l25 121l197 158zM431 346l-135 156l24 121l207 -233l-18 -90l-301 -237l24 121l198 158z" />
    <glyph glyph-name="onequarter" unicode="&#xbc;" horiz-adv-x="444" 
d="M401 750h75l-319 -750h-75zM146 664l13 65l45 21h80l-68 -339h-84l52 261zM437 92l-18 -92h-85l18 92h-99l12 62l119 186h103l-38 -187h13l-12 -61h-13zM364 153l25 122l-75 -122h50z" />
    <glyph glyph-name="onehalf" unicode="&#xbd;" horiz-adv-x="498" 
d="M159 729l45 21h80l-68 -339h-84l52 261l-38 -8zM484 750l-318 -750h-75l318 750h75zM435 282q-9 0 -15.5 -6.5t-8.5 -15.5q0 -1 -1.5 -7t-2.5 -12t-2 -11t-1 -6h-86q0 3 2 13t2 12q12 58 43.5 77.5t81.5 19.5q56 0 77.5 -22t8.5 -84q-8 -42 -32.5 -68.5t-51 -45
t-48.5 -32t-25 -29.5h114q-1 -2 -3 -11.5t-4 -20.5t-4 -20.5t-2 -12.5h-199q1 4 3 12.5t3.5 18t3 18.5t2.5 14q8 38 31 61.5t48.5 40.5t47 32t27.5 36q2 4 4 12.5t2 13.5q1 8 -1.5 15.5t-13.5 7.5z" />
    <glyph glyph-name="threequarters" unicode="&#xbe;" horiz-adv-x="492" 
d="M141 639l4 22q12 58 43 78t80 20q57 0 76.5 -22.5t6.5 -84.5q-3 -18 -11 -38t-28 -26l-1 -5q17 -6 17.5 -26t-3.5 -38q-12 -61 -40.5 -83.5t-85.5 -22.5q-49 0 -72.5 19.5t-12.5 76.5l5 24h84l-6 -31q-5 -25 14 -25q17 0 22 14t9 31q4 19 -0.5 26t-30.5 7l12 61
q27 0 33.5 7t10.5 27q2 7 3 15t0.5 14.5t-4 10.5t-11.5 4q-19 0 -24 -24l-6 -31h-84zM461 750h75l-319 -750h-75zM485 92l-19 -92h-85l19 92h-100l12 62l119 186h103l-38 -187h13l-12 -61h-12zM411 153l25 122l-75 -122h50z" />
    <glyph glyph-name="questiondown" unicode="&#xbf;" horiz-adv-x="455" 
d="M391 710h144l-29 -144h-144zM380 541h99q-11 -55 -32 -94.5t-46.5 -68t-52.5 -49.5t-51 -40.5t-41 -41t-23 -50.5q-9 -44 -6.5 -61.5t30.5 -17.5q17 0 29 8.5t17 30.5l10 51h170l-10 -50q-13 -66 -35 -106.5t-53.5 -63.5t-72 -30.5t-90.5 -7.5t-89 8t-62 33t-29.5 71
t8.5 121q12 59 39 99.5t61.5 69t72 49.5t70.5 41t56.5 43t30.5 56z" />
    <glyph glyph-name="Agrave" unicode="&#xc0;" horiz-adv-x="518" 
d="M316 931h145l23 -149h-109zM262 750h294l-46 -750h-191l25 203h-88l-57 -203h-191zM290 337h73l30 270h-25z" />
    <glyph glyph-name="Aacute" unicode="&#xc1;" horiz-adv-x="518" 
d="M434 931h145l-120 -149h-109zM262 750h294l-46 -750h-191l25 203h-88l-57 -203h-191zM290 337h73l30 270h-25z" />
    <glyph glyph-name="Acircumflex" unicode="&#xc2;" horiz-adv-x="518" 
d="M379 931h133l87 -149h-120l-49 62h-4l-75 -62h-119zM262 750h294l-46 -750h-191l25 203h-88l-57 -203h-191zM290 337h73l30 270h-25z" />
    <glyph glyph-name="Atilde" unicode="&#xc3;" horiz-adv-x="518" 
d="M352 782h-90q7 33 19.5 55.5t28 36t33 19t35.5 5.5q27 0 53 -6t44 -6q11 0 19.5 8t10.5 18h89q-7 -33 -19 -55t-27.5 -35.5t-33 -19.5t-35.5 -6q-27 0 -53 6t-44 6q-11 0 -19.5 -8t-10.5 -18zM262 750h294l-46 -750h-191l25 203h-88l-57 -203h-191zM290 337h73l30 270
h-25z" />
    <glyph glyph-name="Adieresis" unicode="&#xc4;" horiz-adv-x="518" 
d="M562 772h-131l26 131h132zM396 772h-132l27 131h131zM262 750h294l-46 -750h-191l25 203h-88l-57 -203h-191zM290 337h73l30 270h-25z" />
    <glyph glyph-name="Aring" unicode="&#xc5;" horiz-adv-x="518" 
d="M331 884q9 45 44.5 74.5t81.5 29.5t69 -29.5t14 -74.5q-9 -46 -44 -75.5t-81 -29.5t-69.5 29.5t-14.5 75.5zM378 884q-5 -26 7.5 -42t38.5 -16t45 16t24 42t-7.5 41.5t-38.5 15.5t-45 -15.5t-24 -41.5zM262 750h294l-46 -750h-191l25 203h-88l-57 -203h-191zM290 337h73
l30 270h-25z" />
    <glyph glyph-name="AE" unicode="&#xc6;" horiz-adv-x="696" 
d="M262 750h568l-28 -143h-221l-33 -165h196l-27 -134h-196l-33 -165h221l-29 -143h-408l40 203h-56l-57 -203h-191zM290 337h49l54 270h-25z" />
    <glyph glyph-name="Ccedilla" unicode="&#xc7;" 
d="M131 554q11 55 36 94t62 64t85.5 36.5t106.5 11.5q57 0 101 -11.5t71 -36.5t36.5 -64t-1.5 -94l-23 -115h-187l25 125q4 21 -7.5 37t-43.5 16t-49.5 -16t-22.5 -37l-75 -378q-5 -21 7 -37t43 -16q32 0 50 16t22 37l25 125h188l-23 -115q-20 -97 -80.5 -145t-154.5 -58
q12 -15 16 -33t0 -36q-4 -22 -17.5 -43.5t-34.5 -38t-47 -26.5t-56 -10q-10 0 -20 1t-21 4l31 110q31 -2 46.5 10.5t17.5 27.5q5 18 -6 32q-49 3 -86 16.5t-59.5 38.5t-29.5 62t3 88z" />
    <glyph glyph-name="Egrave" unicode="&#xc8;" horiz-adv-x="448" 
d="M285 931h145l23 -149h-109zM173 750h409l-29 -143h-221l-33 -165h196l-27 -134h-196l-33 -165h221l-28 -143h-409z" />
    <glyph glyph-name="Eacute" unicode="&#xc9;" horiz-adv-x="448" 
d="M396 931h145l-120 -149h-109zM173 750h409l-29 -143h-221l-33 -165h196l-27 -134h-196l-33 -165h221l-28 -143h-409z" />
    <glyph glyph-name="Ecircumflex" unicode="&#xca;" horiz-adv-x="448" 
d="M347 931h134l86 -149h-120l-49 62h-3l-75 -62h-120zM173 750h409l-29 -143h-221l-33 -165h196l-27 -134h-196l-33 -165h221l-28 -143h-409z" />
    <glyph glyph-name="Edieresis" unicode="&#xcb;" horiz-adv-x="448" 
d="M532 782h-131l27 132h132zM366 782h-132l27 132h132zM173 750h409l-29 -143h-221l-33 -165h196l-27 -134h-196l-33 -165h221l-28 -143h-409z" />
    <glyph glyph-name="Igrave" unicode="&#xcc;" horiz-adv-x="233" 
d="M164 931h145l23 -149h-109zM173 750h187l-150 -750h-187z" />
    <glyph glyph-name="Iacute" unicode="&#xcd;" horiz-adv-x="233" 
d="M306 931h145l-120 -149h-109zM173 750h187l-150 -750h-187z" />
    <glyph glyph-name="Icircumflex" unicode="&#xce;" horiz-adv-x="233" 
d="M237 931h134l86 -149h-120l-48 62h-4l-75 -62h-120zM173 750h187l-150 -750h-187z" />
    <glyph glyph-name="Idieresis" unicode="&#xcf;" horiz-adv-x="233" 
d="M422 782h-132l27 132h132zM256 782h-132l27 132h132zM173 750h187l-150 -750h-187z" />
    <glyph glyph-name="Eth" unicode="&#xd0;" horiz-adv-x="566" 
d="M199 750h248q58 0 101.5 -11.5t71 -36.5t37 -64t-1.5 -94l-68 -338q-22 -110 -98 -158t-192 -48h-248l62 315h-44l26 134h45zM299 315l-34 -172h61q32 0 49.5 16t22.5 37l71 358q5 21 -6.5 37t-43.5 16h-62l-31 -158h60l-27 -134h-60z" />
    <glyph glyph-name="Ntilde" unicode="&#xd1;" horiz-adv-x="543" 
d="M374 782h-89q7 33 19 55.5t27.5 36t33.5 19t36 5.5q27 0 53 -6t43 -6q12 0 20 8t10 18h90q-7 -33 -19 -55t-27.5 -35.5t-33.5 -19.5t-36 -6q-27 0 -52.5 6t-43.5 6q-11 0 -19.5 -8t-11.5 -18zM173 750h187l33 -448l90 448h187l-150 -750h-187l-33 448l-90 -448h-187z" />
    <glyph glyph-name="Ograve" unicode="&#xd2;" 
d="M463 931l24 -149h-110l-59 149h145zM131 554q11 55 36 94t62 64t85.5 36.5t106.5 11.5q57 0 101 -11.5t71 -36.5t36.5 -64t-1.5 -94l-71 -358q-11 -55 -36.5 -94t-62.5 -64t-85.5 -36.5t-105.5 -11.5q-58 0 -101.5 11.5t-71 36.5t-37 64t1.5 94zM245 186q-5 -21 7 -37
t43 -16q32 0 50 16t22 37l76 378q4 21 -7.5 37t-43.5 16t-49.5 -16t-22.5 -37z" />
    <glyph glyph-name="Oacute" unicode="&#xd3;" 
d="M598 931l-120 -149h-109l84 149h145zM131 554q11 55 36 94t62 64t85.5 36.5t106.5 11.5q57 0 101 -11.5t71 -36.5t36.5 -64t-1.5 -94l-71 -358q-11 -55 -36.5 -94t-62.5 -64t-85.5 -36.5t-105.5 -11.5q-58 0 -101.5 11.5t-71 36.5t-37 64t1.5 94zM245 186q-5 -21 7 -37
t43 -16q32 0 50 16t22 37l76 378q4 21 -7.5 37t-43.5 16t-49.5 -16t-22.5 -37z" />
    <glyph glyph-name="Ocircumflex" unicode="&#xd4;" 
d="M522 931l86 -149h-120l-48 62h-4l-75 -62h-120l147 149h134zM131 554q11 55 36 94t62 64t85.5 36.5t106.5 11.5q57 0 101 -11.5t71 -36.5t36.5 -64t-1.5 -94l-71 -358q-11 -55 -36.5 -94t-62.5 -64t-85.5 -36.5t-105.5 -11.5q-58 0 -101.5 11.5t-71 36.5t-37 64t1.5 94z
M245 186q-5 -21 7 -37t43 -16q32 0 50 16t22 37l76 378q4 21 -7.5 37t-43.5 16t-49.5 -16t-22.5 -37z" />
    <glyph glyph-name="Otilde" unicode="&#xd5;" 
d="M272 782q7 33 19 55.5t27.5 36t33.5 19t36 5.5q27 0 53 -6t43 -6q12 0 20 8t10 18h90q-7 -33 -19 -55t-27.5 -35.5t-33.5 -19.5t-36 -6q-27 0 -52.5 6t-43.5 6q-11 0 -19.5 -8t-11.5 -18h-89zM131 554q11 55 36 94t62 64t85.5 36.5t106.5 11.5q57 0 101 -11.5t71 -36.5
t36.5 -64t-1.5 -94l-71 -358q-11 -55 -36.5 -94t-62.5 -64t-85.5 -36.5t-105.5 -11.5q-58 0 -101.5 11.5t-71 36.5t-37 64t1.5 94zM245 186q-5 -21 7 -37t43 -16q32 0 50 16t22 37l76 378q4 21 -7.5 37t-43.5 16t-49.5 -16t-22.5 -37z" />
    <glyph glyph-name="Odieresis" unicode="&#xd6;" 
d="M442 782l27 132h132l-27 -132h-132zM276 782l27 132h132l-27 -132h-132zM131 554q11 55 36 94t62 64t85.5 36.5t106.5 11.5q57 0 101 -11.5t71 -36.5t36.5 -64t-1.5 -94l-71 -358q-11 -55 -36.5 -94t-62.5 -64t-85.5 -36.5t-105.5 -11.5q-58 0 -101.5 11.5t-71 36.5
t-37 64t1.5 94zM245 186q-5 -21 7 -37t43 -16q32 0 50 16t22 37l76 378q4 21 -7.5 37t-43.5 16t-49.5 -16t-22.5 -37z" />
    <glyph glyph-name="multiply" unicode="&#xd7;" horiz-adv-x="492" 
d="M340 468l158 138l81 -91l-166 -144l108 -144l-117 -91l-103 138l-159 -138l-80 91l166 144l-108 144l116 91z" />
    <glyph glyph-name="Oslash" unicode="&#xd8;" horiz-adv-x="538" 
d="M131 554q11 55 36 94t62 64t85.5 36.5t106.5 11.5q57 0 101 -11.5t71 -36.5t36.5 -64t-1.5 -94l-71 -358q-22 -110 -98.5 -158t-191.5 -48q-58 0 -101.5 11.5t-71 36.5t-37 64t1.5 94zM245 186q-5 -21 7 -37t44 -16q31 0 49 16t22 37l76 378q5 21 -7 37t-44 16
q-31 0 -49 -16t-23 -37zM617 760l-471 -770h-75l471 770h75z" />
    <glyph glyph-name="Ugrave" unicode="&#xd9;" horiz-adv-x="539" 
d="M315 931h145l24 -149h-110zM171 750h187l-112 -564q-5 -21 7 -37t43 -16q32 0 50 16t22 37l113 564h187l-110 -554q-11 -55 -36.5 -94t-62.5 -64t-85.5 -36.5t-105.5 -11.5q-58 0 -101.5 11.5t-71 36.5t-37 64t1.5 94z" />
    <glyph glyph-name="Uacute" unicode="&#xda;" horiz-adv-x="539" 
d="M449 931h145l-120 -149h-109zM171 750h187l-112 -564q-5 -21 7 -37t43 -16q32 0 50 16t22 37l113 564h187l-110 -554q-11 -55 -36.5 -94t-62.5 -64t-85.5 -36.5t-105.5 -11.5q-58 0 -101.5 11.5t-71 36.5t-37 64t1.5 94z" />
    <glyph glyph-name="Ucircumflex" unicode="&#xdb;" horiz-adv-x="539" 
d="M390 931h133l86 -149h-119l-49 62h-4l-75 -62h-120zM171 750h187l-112 -564q-5 -21 7 -37t43 -16q32 0 50 16t22 37l113 564h187l-110 -554q-11 -55 -36.5 -94t-62.5 -64t-85.5 -36.5t-105.5 -11.5q-58 0 -101.5 11.5t-71 36.5t-37 64t1.5 94z" />
    <glyph glyph-name="Udieresis" unicode="&#xdc;" horiz-adv-x="539" 
d="M574 782h-132l27 132h132zM408 782h-132l27 132h132zM171 750h187l-112 -564q-5 -21 7 -37t43 -16q32 0 50 16t22 37l113 564h187l-110 -554q-11 -55 -36.5 -94t-62.5 -64t-85.5 -36.5t-105.5 -11.5q-58 0 -101.5 11.5t-71 36.5t-37 64t1.5 94z" />
    <glyph glyph-name="Yacute" unicode="&#xdd;" horiz-adv-x="562" 
d="M609 931l-120 -149h-109l84 149h145zM357 750l11 -315l137 315h196l-280 -517l-46 -233h-188l47 233l-73 517h196z" />
    <glyph glyph-name="Thorn" unicode="&#xde;" horiz-adv-x="540" 
d="M360 750l-25 -126h63q64 0 108.5 -13t70.5 -41t32.5 -72t-5.5 -106q-13 -64 -37 -109.5t-60.5 -75t-87.5 -43t-118 -13.5h-60l-31 -151h-187l150 750h187zM307 481l-38 -186h60q31 0 50 14.5t25 34.5q2 6 4.5 18t5 25.5t4.5 25.5l3 18q2 20 -10 35t-43 15h-61z" />
    <glyph glyph-name="germandbls" unicode="&#xdf;" horiz-adv-x="1068" 
d="M654 533q12 62 38.5 105t64.5 70t87 39.5t107 12.5q61 0 105.5 -11t71 -37t34.5 -69t-5 -108q-2 -8 -4 -16.5t-4 -16.5h-187q1 4 2.5 13.5t2.5 14.5q4 17 5 32.5t-3.5 27.5t-15 19.5t-30.5 7.5q-26 0 -48 -14.5t-28 -42.5q-7 -35 12 -56.5t51 -38.5t69.5 -34.5
t67.5 -43.5t45.5 -66.5t2.5 -103.5q-12 -61 -38.5 -104.5t-65 -70.5t-87.5 -39.5t-107 -12.5q-61 0 -105.5 11t-71 37t-34 69.5t5.5 108.5q2 8 3.5 16t3.5 16h187q-1 -4 -2.5 -13.5t-2.5 -14.5q-3 -17 -4.5 -32.5t3 -27.5t15 -19.5t31.5 -7.5q30 0 50 17t27 48q5 26 -5 44.5
t-29.5 32t-45.5 25t-53 24t-52 29.5t-42.5 41t-24.5 58t3 81zM123 533q12 62 38.5 105t64.5 70t87 39.5t107 12.5q61 0 105.5 -11t71 -37t34.5 -69t-5 -108q-2 -8 -3.5 -16.5t-3.5 -16.5h-188q1 4 2.5 13.5t3.5 14.5q3 17 4 32.5t-3 27.5t-15 19.5t-31 7.5q-26 0 -48 -14.5
t-28 -42.5q-7 -35 12 -56.5t51 -38.5t69.5 -34.5t67.5 -43.5t45.5 -66.5t2.5 -103.5q-12 -61 -38.5 -104.5t-64.5 -70.5t-87.5 -39.5t-107.5 -12.5q-61 0 -105.5 11t-70.5 37t-34 69.5t5 108.5q2 8 3.5 16t3.5 16h188q-2 -4 -3.5 -13.5t-2.5 -14.5q-3 -17 -4.5 -32.5
t3 -27.5t15 -19.5t31.5 -7.5q30 0 50.5 17t26.5 48q5 26 -5 44.5t-29.5 32t-45.5 25t-53 24t-52 29.5t-42.5 41t-24.5 58t3 81z" />
    <glyph glyph-name="agrave" unicode="&#xe0;" horiz-adv-x="518" 
d="M316 931h145l23 -149h-109zM262 750h294l-46 -750h-191l25 203h-88l-57 -203h-191zM290 337h73l30 270h-25z" />
    <glyph glyph-name="aacute" unicode="&#xe1;" horiz-adv-x="518" 
d="M434 931h145l-120 -149h-109zM262 750h294l-46 -750h-191l25 203h-88l-57 -203h-191zM290 337h73l30 270h-25z" />
    <glyph glyph-name="acircumflex" unicode="&#xe2;" horiz-adv-x="518" 
d="M379 931h133l87 -149h-120l-49 62h-4l-75 -62h-119zM262 750h294l-46 -750h-191l25 203h-88l-57 -203h-191zM290 337h73l30 270h-25z" />
    <glyph glyph-name="atilde" unicode="&#xe3;" horiz-adv-x="518" 
d="M352 782h-90q7 33 19.5 55.5t28 36t33 19t35.5 5.5q27 0 53 -6t44 -6q11 0 19.5 8t10.5 18h89q-7 -33 -19 -55t-27.5 -35.5t-33 -19.5t-35.5 -6q-27 0 -53 6t-44 6q-11 0 -19.5 -8t-10.5 -18zM262 750h294l-46 -750h-191l25 203h-88l-57 -203h-191zM290 337h73l30 270
h-25z" />
    <glyph glyph-name="adieresis" unicode="&#xe4;" horiz-adv-x="518" 
d="M562 772h-131l26 131h132zM396 772h-132l27 131h131zM262 750h294l-46 -750h-191l25 203h-88l-57 -203h-191zM290 337h73l30 270h-25z" />
    <glyph glyph-name="aring" unicode="&#xe5;" horiz-adv-x="518" 
d="M331 884q9 45 44.5 74.5t81.5 29.5t69 -29.5t14 -74.5q-9 -46 -44 -75.5t-81 -29.5t-69.5 29.5t-14.5 75.5zM378 884q-5 -26 7.5 -42t38.5 -16t45 16t24 42t-7.5 41.5t-38.5 15.5t-45 -15.5t-24 -41.5zM262 750h294l-46 -750h-191l25 203h-88l-57 -203h-191zM290 337h73
l30 270h-25z" />
    <glyph glyph-name="ae" unicode="&#xe6;" horiz-adv-x="696" 
d="M262 750h568l-28 -143h-221l-33 -165h196l-27 -134h-196l-33 -165h221l-29 -143h-408l40 203h-56l-57 -203h-191zM290 337h49l54 270h-25z" />
    <glyph glyph-name="ccedilla" unicode="&#xe7;" horiz-adv-x="533" 
d="M129 554q11 55 36 94t62 64t85.5 36.5t106.5 11.5q57 0 101 -11.5t71 -36.5t36.5 -64t-1.5 -94l-23 -115h-187l25 125q4 21 -7.5 37t-43.5 16t-49.5 -16t-22.5 -37l-75 -378q-5 -21 7 -37t43 -16q32 0 50 16t22 37l25 125h188l-23 -115q-20 -97 -80.5 -145t-154.5 -58
q12 -15 16 -33t0 -36q-4 -22 -17.5 -43.5t-34.5 -38t-47 -26.5t-56 -10q-10 0 -20 1t-21 4l31 110q31 -2 46.5 10.5t17.5 27.5q5 18 -6 32q-49 3 -86 16.5t-59.5 38.5t-29.5 62t3 88z" />
    <glyph glyph-name="egrave" unicode="&#xe8;" horiz-adv-x="448" 
d="M285 931h145l23 -149h-109zM173 750h409l-29 -143h-221l-33 -165h196l-27 -134h-196l-33 -165h221l-28 -143h-409z" />
    <glyph glyph-name="eacute" unicode="&#xe9;" horiz-adv-x="448" 
d="M396 931h145l-120 -149h-109zM173 750h409l-29 -143h-221l-33 -165h196l-27 -134h-196l-33 -165h221l-28 -143h-409z" />
    <glyph glyph-name="ecircumflex" unicode="&#xea;" horiz-adv-x="448" 
d="M347 931h134l86 -149h-120l-49 62h-3l-75 -62h-120zM173 750h409l-29 -143h-221l-33 -165h196l-27 -134h-196l-33 -165h221l-28 -143h-409z" />
    <glyph glyph-name="edieresis" unicode="&#xeb;" horiz-adv-x="448" 
d="M532 782h-131l27 132h132zM366 782h-132l27 132h132zM173 750h409l-29 -143h-221l-33 -165h196l-27 -134h-196l-33 -165h221l-28 -143h-409z" />
    <glyph glyph-name="igrave" unicode="&#xec;" horiz-adv-x="233" 
d="M163 931h145l23 -149h-109zM173 750h187l-150 -750h-187z" />
    <glyph glyph-name="iacute" unicode="&#xed;" horiz-adv-x="233" 
d="M303 931h145l-120 -149h-109zM173 750h187l-150 -750h-187z" />
    <glyph glyph-name="icircumflex" unicode="&#xee;" horiz-adv-x="233" 
d="M236 931h134l86 -149h-120l-48 62h-4l-75 -62h-120zM173 750h187l-150 -750h-187z" />
    <glyph glyph-name="idieresis" unicode="&#xef;" horiz-adv-x="233" 
d="M422 782h-132l27 132h132zM256 782h-132l27 132h132zM173 750h187l-150 -750h-187z" />
    <glyph glyph-name="eth" unicode="&#xf0;" horiz-adv-x="539" 
d="M237 -10q-82 0 -130 44t-53 119q-1 37 6 79q4 15 7.5 29.5t8.5 28.5q31 81 95 122t147 46q11 1 20 -1t17 -5q0 42 -11 83l-133 -32l-4 88l114 28q-12 29 -27 50.5t-35 34.5l86 56q44 -11 78 -38t60 -66l152 37l5 -88l-116 -28q26 -69 30.5 -147t-10.5 -154
q-12 -61 -36 -113t-61.5 -90.5t-89.5 -60.5t-120 -22zM315 323q-26 0 -41.5 -18t-21.5 -44l-4 -16t-4 -17q-2 -8 -3 -15.5t-2 -15.5q-6 -38 4.5 -51.5t32.5 -13.5q20 0 35 13.5t25 45.5q3 11 5.5 22t5.5 24l2 10l2 10l1 2q4 26 -2.5 45t-34.5 19z" />
    <glyph glyph-name="ntilde" unicode="&#xf1;" horiz-adv-x="543" 
d="M374 782h-89q7 33 19 55.5t27.5 36t33.5 19t36 5.5q27 0 53 -6t43 -6q12 0 20 8t10 18h90q-7 -33 -19 -55t-27.5 -35.5t-33.5 -19.5t-36 -6q-27 0 -52.5 6t-43.5 6q-11 0 -19.5 -8t-11.5 -18zM173 750h187l33 -448l90 448h187l-150 -750h-187l-33 448l-90 -448h-187z" />
    <glyph glyph-name="ograve" unicode="&#xf2;" 
d="M463 931l24 -149h-110l-59 149h145zM131 554q11 55 36 94t62 64t85.5 36.5t106.5 11.5q57 0 101 -11.5t71 -36.5t36.5 -64t-1.5 -94l-71 -358q-11 -55 -36.5 -94t-62.5 -64t-85.5 -36.5t-105.5 -11.5q-58 0 -101.5 11.5t-71 36.5t-37 64t1.5 94zM245 186q-5 -21 7 -37
t43 -16q32 0 50 16t22 37l76 378q4 21 -7.5 37t-43.5 16t-49.5 -16t-22.5 -37z" />
    <glyph glyph-name="oacute" unicode="&#xf3;" 
d="M598 931l-120 -149h-109l84 149h145zM131 554q11 55 36 94t62 64t85.5 36.5t106.5 11.5q57 0 101 -11.5t71 -36.5t36.5 -64t-1.5 -94l-71 -358q-11 -55 -36.5 -94t-62.5 -64t-85.5 -36.5t-105.5 -11.5q-58 0 -101.5 11.5t-71 36.5t-37 64t1.5 94zM245 186q-5 -21 7 -37
t43 -16q32 0 50 16t22 37l76 378q4 21 -7.5 37t-43.5 16t-49.5 -16t-22.5 -37z" />
    <glyph glyph-name="ocircumflex" unicode="&#xf4;" 
d="M522 931l86 -149h-120l-48 62h-4l-75 -62h-120l147 149h134zM131 554q11 55 36 94t62 64t85.5 36.5t106.5 11.5q57 0 101 -11.5t71 -36.5t36.5 -64t-1.5 -94l-71 -358q-11 -55 -36.5 -94t-62.5 -64t-85.5 -36.5t-105.5 -11.5q-58 0 -101.5 11.5t-71 36.5t-37 64t1.5 94z
M245 186q-5 -21 7 -37t43 -16q32 0 50 16t22 37l76 378q4 21 -7.5 37t-43.5 16t-49.5 -16t-22.5 -37z" />
    <glyph glyph-name="otilde" unicode="&#xf5;" 
d="M272 782q7 33 19 55.5t27.5 36t33.5 19t36 5.5q27 0 53 -6t43 -6q12 0 20 8t10 18h90q-7 -33 -19 -55t-27.5 -35.5t-33.5 -19.5t-36 -6q-27 0 -52.5 6t-43.5 6q-11 0 -19.5 -8t-11.5 -18h-89zM131 554q11 55 36 94t62 64t85.5 36.5t106.5 11.5q57 0 101 -11.5t71 -36.5
t36.5 -64t-1.5 -94l-71 -358q-11 -55 -36.5 -94t-62.5 -64t-85.5 -36.5t-105.5 -11.5q-58 0 -101.5 11.5t-71 36.5t-37 64t1.5 94zM245 186q-5 -21 7 -37t43 -16q32 0 50 16t22 37l76 378q4 21 -7.5 37t-43.5 16t-49.5 -16t-22.5 -37z" />
    <glyph glyph-name="odieresis" unicode="&#xf6;" 
d="M442 782l27 132h132l-27 -132h-132zM276 782l27 132h132l-27 -132h-132zM131 554q11 55 36 94t62 64t85.5 36.5t106.5 11.5q57 0 101 -11.5t71 -36.5t36.5 -64t-1.5 -94l-71 -358q-11 -55 -36.5 -94t-62.5 -64t-85.5 -36.5t-105.5 -11.5q-58 0 -101.5 11.5t-71 36.5
t-37 64t1.5 94zM245 186q-5 -21 7 -37t43 -16q32 0 50 16t22 37l76 378q4 21 -7.5 37t-43.5 16t-49.5 -16t-22.5 -37z" />
    <glyph glyph-name="divide" unicode="&#xf7;" horiz-adv-x="382" 
d="M210 459l29 144h144l-28 -144h-145zM76 286l27 134h344l-27 -134h-344zM312 247l-28 -144h-145l29 144h144z" />
    <glyph glyph-name="oslash" unicode="&#xf8;" horiz-adv-x="538" 
d="M131 554q11 55 36 94t62 64t85.5 36.5t106.5 11.5q57 0 101 -11.5t71 -36.5t36.5 -64t-1.5 -94l-71 -358q-22 -110 -98.5 -158t-191.5 -48q-58 0 -101.5 11.5t-71 36.5t-37 64t1.5 94zM245 186q-5 -21 7 -37t44 -16q31 0 49 16t22 37l76 378q5 21 -7 37t-44 16
q-31 0 -49 -16t-23 -37zM617 760l-471 -770h-75l471 770h75z" />
    <glyph glyph-name="ugrave" unicode="&#xf9;" horiz-adv-x="539" 
d="M315 931h145l24 -149h-110zM171 750h187l-112 -564q-5 -21 7 -37t43 -16q32 0 50 16t22 37l113 564h187l-110 -554q-11 -55 -36.5 -94t-62.5 -64t-85.5 -36.5t-105.5 -11.5q-58 0 -101.5 11.5t-71 36.5t-37 64t1.5 94z" />
    <glyph glyph-name="uacute" unicode="&#xfa;" horiz-adv-x="539" 
d="M449 931h145l-120 -149h-109zM171 750h187l-112 -564q-5 -21 7 -37t43 -16q32 0 50 16t22 37l113 564h187l-110 -554q-11 -55 -36.5 -94t-62.5 -64t-85.5 -36.5t-105.5 -11.5q-58 0 -101.5 11.5t-71 36.5t-37 64t1.5 94z" />
    <glyph glyph-name="ucircumflex" unicode="&#xfb;" horiz-adv-x="539" 
d="M390 931h133l86 -149h-119l-49 62h-4l-75 -62h-120zM171 750h187l-112 -564q-5 -21 7 -37t43 -16q32 0 50 16t22 37l113 564h187l-110 -554q-11 -55 -36.5 -94t-62.5 -64t-85.5 -36.5t-105.5 -11.5q-58 0 -101.5 11.5t-71 36.5t-37 64t1.5 94z" />
    <glyph glyph-name="udieresis" unicode="&#xfc;" horiz-adv-x="539" 
d="M574 782h-132l27 132h132zM408 782h-132l27 132h132zM171 750h187l-112 -564q-5 -21 7 -37t43 -16q32 0 50 16t22 37l113 564h187l-110 -554q-11 -55 -36.5 -94t-62.5 -64t-85.5 -36.5t-105.5 -11.5q-58 0 -101.5 11.5t-71 36.5t-37 64t1.5 94z" />
    <glyph glyph-name="yacute" unicode="&#xfd;" horiz-adv-x="562" 
d="M609 931l-120 -149h-109l84 149h145zM357 750l11 -315l137 315h196l-280 -517l-46 -233h-188l47 233l-73 517h196z" />
    <glyph glyph-name="thorn" unicode="&#xfe;" horiz-adv-x="540" 
d="M360 750l-25 -126h63q64 0 108.5 -13t70.5 -41t32.5 -72t-5.5 -106q-13 -64 -37 -109.5t-60.5 -75t-87.5 -43t-118 -13.5h-60l-31 -151h-187l150 750h187zM307 481l-38 -186h60q31 0 50 14.5t25 34.5q2 6 4.5 18t5 25.5t4.5 25.5l3 18q2 20 -10 35t-43 15h-61z" />
    <glyph glyph-name="ydieresis" unicode="&#xff;" horiz-adv-x="562" 
d="M455 782l27 132h132l-27 -132h-132zM289 782l27 132h132l-28 -132h-131zM357 750l11 -315l137 315h196l-280 -517l-46 -233h-188l47 233l-73 517h196z" />
    <glyph glyph-name="Dcroat" unicode="&#x110;" horiz-adv-x="559" 
d="M191 750h249q58 0 101.5 -11.5t71 -36.5t37 -64t-1.5 -94l-68 -338q-22 -110 -98 -158t-192 -48h-249l63 315h-45l27 134h45zM292 315l-34 -172h61q32 0 49.5 16t22.5 37l71 358q5 21 -7 37t-43 16h-62l-32 -158h60l-26 -134h-60z" />
    <glyph glyph-name="dcroat" unicode="&#x111;" horiz-adv-x="559" 
d="M191 750h249q58 0 101.5 -11.5t71 -36.5t37 -64t-1.5 -94l-68 -338q-22 -110 -98 -158t-192 -48h-249l64 317h-45l27 135h45zM292 317l-34 -174h61q32 0 49.5 16t22.5 37l71 358q5 21 -7 37t-43 16h-62l-31 -155h69l-27 -135h-69z" />
    <glyph glyph-name="dotlessi" unicode="&#x131;" horiz-adv-x="233" 
d="M173 750h187l-150 -750h-187z" />
    <glyph glyph-name="Lslash" unicode="&#x141;" horiz-adv-x="497" 
d="M224 750h188l-59 -295l97 17l-27 -134l-97 -17l-35 -178h221l-29 -143h-409l58 289l-64 -11l26 134l65 11z" />
    <glyph glyph-name="lslash" unicode="&#x142;" horiz-adv-x="497" 
d="M224 750h188l-59 -295l97 17l-27 -134l-97 -17l-35 -178h221l-29 -143h-409l58 289l-64 -11l26 134l65 11z" />
    <glyph glyph-name="OE" unicode="&#x152;" horiz-adv-x="755" 
d="M131 554q11 56 37 95t64 64t87.5 36t106.5 11q58 0 99 -10h364l-29 -143h-221l-33 -165h196l-27 -134h-196l-33 -165h221l-28 -143h-364q-23 -5 -49 -7.5t-54 -2.5q-57 0 -101.5 11t-73 36t-39 64t0.5 95zM245 186q-5 -24 10.5 -38.5t45.5 -14.5q28 0 44 12t19 26l82 408
q3 14 -8.5 26t-39.5 12q-31 0 -52 -14.5t-26 -38.5z" />
    <glyph glyph-name="oe" unicode="&#x153;" horiz-adv-x="755" 
d="M131 554q11 56 37 95t64 64t87.5 36t106.5 11q58 0 99 -10h364l-29 -143h-221l-33 -165h196l-27 -134h-196l-33 -165h221l-28 -143h-364q-23 -5 -49 -7.5t-54 -2.5q-57 0 -101.5 11t-73 36t-39 64t0.5 95zM245 186q-5 -24 10.5 -38.5t45.5 -14.5q28 0 44 12t19 26l82 408
q3 14 -8.5 26t-39.5 12q-31 0 -52 -14.5t-26 -38.5z" />
    <glyph glyph-name="Scaron" unicode="&#x160;" 
d="M271 933h119l50 -64h4l76 64h120l-149 -151h-133zM123 533q12 62 38.5 105t64.5 70t87 39.5t107 12.5q61 0 105.5 -11t71 -37t34.5 -69t-5 -108q-2 -8 -3.5 -16.5t-3.5 -16.5h-188q1 4 2.5 13.5t3.5 14.5q3 17 4 32.5t-3 27.5t-15 19.5t-31 7.5q-26 0 -48 -14.5
t-28 -42.5q-7 -35 12 -56.5t51 -38.5t69.5 -34.5t67.5 -43.5t45.5 -66.5t2.5 -103.5q-12 -61 -38.5 -104.5t-64.5 -70.5t-87.5 -39.5t-107.5 -12.5q-61 0 -105.5 11t-70.5 37t-34 69.5t5 108.5q2 8 3.5 16t3.5 16h188q-2 -4 -3.5 -13.5t-2.5 -14.5q-3 -17 -4.5 -32.5
t3 -27.5t15 -19.5t31.5 -7.5q30 0 50.5 17t26.5 48q5 26 -5 44.5t-29.5 32t-45.5 25t-53 24t-52 29.5t-42.5 41t-24.5 58t3 81z" />
    <glyph glyph-name="scaron" unicode="&#x161;" 
d="M271 933h119l50 -64h4l76 64h120l-149 -151h-133zM123 533q12 62 38.5 105t64.5 70t87 39.5t107 12.5q61 0 105.5 -11t71 -37t34.5 -69t-5 -108q-2 -8 -3.5 -16.5t-3.5 -16.5h-188q1 4 2.5 13.5t3.5 14.5q3 17 4 32.5t-3 27.5t-15 19.5t-31 7.5q-26 0 -48 -14.5
t-28 -42.5q-7 -35 12 -56.5t51 -38.5t69.5 -34.5t67.5 -43.5t45.5 -66.5t2.5 -103.5q-12 -61 -38.5 -104.5t-64.5 -70.5t-87.5 -39.5t-107.5 -12.5q-61 0 -105.5 11t-70.5 37t-34 69.5t5 108.5q2 8 3.5 16t3.5 16h188q-2 -4 -3.5 -13.5t-2.5 -14.5q-3 -17 -4.5 -32.5
t3 -27.5t15 -19.5t31.5 -7.5q30 0 50.5 17t26.5 48q5 26 -5 44.5t-29.5 32t-45.5 25t-53 24t-52 29.5t-42.5 41t-24.5 58t3 81z" />
    <glyph glyph-name="Ydieresis" unicode="&#x178;" horiz-adv-x="562" 
d="M456 782l27 132h132l-27 -132h-132zM290 782l27 132h132l-27 -132h-132zM357 750l11 -315l137 315h196l-280 -517l-46 -233h-188l47 233l-73 517h196z" />
    <glyph glyph-name="Zcaron" unicode="&#x17d;" horiz-adv-x="450" 
d="M347 933l50 -64h4l76 64h120l-149 -151h-134l-87 151h120zM241 143h224l-29 -143h-422l28 140l318 467h-224l28 143h422l-27 -139z" />
    <glyph glyph-name="zcaron" unicode="&#x17e;" horiz-adv-x="450" 
d="M347 933l50 -64h4l76 64h120l-149 -151h-134l-87 151h120zM241 143h224l-29 -143h-422l28 140l318 467h-224l28 143h422l-27 -139z" />
    <glyph glyph-name="florin" unicode="&#x192;" horiz-adv-x="373" 
d="M104 442h76l23 112q11 55 36 94t62 64t85.5 36.5t106.5 11.5l-29 -143q-32 0 -49.5 -16t-22.5 -37l-24 -122h80l-27 -134h-80l-22 -112q-11 -55 -36.5 -94t-62.5 -64t-85.5 -36.5t-105.5 -11.5l28 143q32 0 49.5 16t22.5 37l24 122h-76z" />
    <glyph glyph-name="circumflex" unicode="&#x2c6;" horiz-adv-x="387" 
d="M410 750l87 -149h-119l-50 62h-4l-74 -62h-120l147 149h133z" />
    <glyph glyph-name="caron" unicode="&#x2c7;" horiz-adv-x="389" 
d="M280 750l50 -64h4l76 64h119l-148 -151h-133l-88 151h120z" />
    <glyph glyph-name="breve" unicode="&#x2d8;" horiz-adv-x="348" 
d="M241 750q-3 -13 -1.5 -27.5t9 -27t21.5 -20.5t37 -8q24 0 41.5 8t29.5 20.5t19 27t10 27.5h81q-7 -33 -24 -62.5t-43 -52t-59 -35.5t-71 -13t-66 13t-44.5 35.5t-22 52t1.5 62.5h81z" />
    <glyph glyph-name="dotaccent" unicode="&#x2d9;" horiz-adv-x="152" 
d="M266 618h-132l26 132h132z" />
    <glyph glyph-name="ring" unicode="&#x2da;" horiz-adv-x="229" 
d="M143 664q9 46 44 75.5t81 29.5t69.5 -29.5t14.5 -75.5q-9 -45 -44.5 -74.5t-81.5 -29.5t-69 29.5t-14 74.5zM190 664q-6 -26 6.5 -41.5t38.5 -15.5t45.5 15.5t24.5 41.5t-7.5 42t-38.5 16t-45 -16t-24 -42z" />
    <glyph glyph-name="ogonek" unicode="&#x2db;" horiz-adv-x="160" 
d="M135 1q-20 0 -35 -13.5t-18 -29.5q-3 -17 8 -29.5t43 -12.5l-24 -122q-36 0 -60 12t-37.5 31t-17 43.5t1.5 50.5q5 25 18 49.5t32.5 44t45.5 31t57 11.5z" />
    <glyph glyph-name="tilde" unicode="&#x2dc;" horiz-adv-x="322" 
d="M221 620h-89q7 33 19 55.5t27.5 36t33.5 19t36 5.5q27 0 53 -6t44 -6q11 0 19 8t10 18h90q-7 -33 -19.5 -55t-28 -35.5t-33.5 -19.5t-36 -6q-27 0 -52.5 6t-43.5 6q-11 0 -19.5 -8t-10.5 -18z" />
    <glyph glyph-name="hungarumlaut" unicode="&#x2dd;" horiz-adv-x="394" 
d="M286 504l101 196h137l-150 -196h-88zM111 504l101 196h137l-150 -196h-88z" />
    <glyph glyph-name="endash" unicode="&#x2013;" horiz-adv-x="378" 
d="M105 442h344l-27 -134h-343z" />
    <glyph glyph-name="emdash" unicode="&#x2014;" horiz-adv-x="471" 
d="M105 442h438l-27 -134h-437z" />
    <glyph glyph-name="quoteleft" unicode="&#x2018;" horiz-adv-x="179" 
d="M225 750h86l-78 -101h58l-29 -144h-144l28 142z" />
    <glyph glyph-name="quoteright" unicode="&#x2019;" horiz-adv-x="179" 
d="M205 505h-86l78 101h-58l29 144h144l-29 -142z" />
    <glyph glyph-name="quotesinglbase" unicode="&#x201a;" horiz-adv-x="182" 
d="M84 -101h-86l78 101h-58l29 144h144l-29 -142z" />
    <glyph glyph-name="quotedblleft" unicode="&#x201c;" horiz-adv-x="366" 
d="M225 750h86l-78 -101h58l-29 -144h-144l28 142zM413 750h85l-77 -101h57l-28 -144h-144l27 142z" />
    <glyph glyph-name="quotedblright" unicode="&#x201d;" horiz-adv-x="366" 
d="M392 505h-85l77 101h-58l29 144h144l-29 -142zM205 505h-86l78 101h-58l29 144h144l-29 -142z" />
    <glyph glyph-name="quotedblbase" unicode="&#x201e;" horiz-adv-x="369" 
d="M271 -101h-86l78 101h-58l29 144h144l-29 -142zM84 -101h-86l78 101h-58l29 144h144l-29 -142z" />
    <glyph glyph-name="dagger" unicode="&#x2020;" horiz-adv-x="336" 
d="M131 565h78l43 215h144l-43 -215h78l-27 -134h-78l-92 -461h-144l92 461h-78z" />
    <glyph glyph-name="daggerdbl" unicode="&#x2021;" horiz-adv-x="380" 
d="M184 328l22 112h-100l27 134h100l41 206h144l-41 -206h100l-27 -134h-100l-22 -112h100l-27 -134h-100l-45 -224h-144l45 224h-100l27 134h100z" />
    <glyph glyph-name="bullet" unicode="&#x2022;" horiz-adv-x="252" 
d="M93 375q5 22 17 41.5t30 34.5t39.5 23.5t43.5 8.5t39.5 -8.5t29.5 -23.5t17 -34.5t0 -41.5q-4 -22 -17 -41.5t-30.5 -34.5t-38.5 -23.5t-43 -8.5t-40 8.5t-30 23.5t-16.5 34.5t-0.5 41.5z" />
    <glyph glyph-name="ellipsis" unicode="&#x2026;" horiz-adv-x="556" 
d="M164 0h-144l29 144h144zM350 0h-144l29 144h144zM536 0h-144l29 144h144z" />
    <glyph glyph-name="perthousand" unicode="&#x2030;" horiz-adv-x="795" 
d="M148 665q11 48 44 70.5t78 22.5t69 -22.5t14 -70.5l-32 -161q-10 -48 -43 -70.5t-78 -22.5t-69 22.5t-14 70.5zM542 750l-319 -750h-75l319 750h75zM257 693q-19 0 -22 -18l-36 -181q-3 -19 14 -19q21 0 24 19l36 181q3 18 -16 18zM371 254q11 48 43.5 70.5t77.5 22.5
t69.5 -22.5t14.5 -70.5l-32 -161q-10 -48 -43 -70.5t-78 -22.5t-69 22.5t-15 70.5zM625 254q11 48 43.5 70.5t77.5 22.5t69.5 -22.5t14.5 -70.5l-32 -161q-10 -48 -43 -70.5t-78 -22.5t-69 22.5t-15 70.5zM479 282q-17 0 -22 -18l-36 -181q-3 -19 14 -19q20 0 25 19l35 181
q5 18 -16 18zM733 282q-17 0 -22 -18l-36 -181q-3 -19 14 -19q21 0 24 19l36 181q5 18 -16 18z" />
    <glyph glyph-name="guilsinglleft" unicode="&#x2039;" horiz-adv-x="278" 
d="M168 346l-1 -4l135 -158l-24 -121l-206 237l18 90l300 233l-25 -121z" />
    <glyph glyph-name="guilsinglright" unicode="&#x203a;" horiz-adv-x="278" 
d="M248 346l-135 156l25 121l206 -233l-18 -90l-301 -237l25 121l197 158z" />
    <glyph glyph-name="fraction" unicode="&#x2044;" horiz-adv-x="357" 
d="M340 750h147l-320 -750h-147z" />
    <glyph glyph-name="Euro" unicode="&#x20ac;" horiz-adv-x="440" 
d="M62 245l18 90h53l16 80h-53l18 90h53l17 84q10 50 29.5 81.5t46.5 49.5t61 24.5t73 6.5t70.5 -6.5t51.5 -24t26.5 -49t-3.5 -82.5l-5 -22h-144l5 23q3 17 -4.5 25t-21.5 8q-34 0 -40 -33l-17 -85h117l-18 -90h-117l-16 -80h117l-18 -90h-117l-17 -85q-4 -17 4 -25t23 -8
q14 0 24.5 8t14.5 25l5 23h144l-4 -22q-10 -51 -29.5 -82.5t-46.5 -49t-61 -24t-74 -6.5q-39 0 -70.5 6.5t-51.5 24.5t-26.5 49.5t3.5 81.5l17 84h-53z" />
    <glyph glyph-name="trademark" unicode="&#x2122;" horiz-adv-x="459" 
d="M328 750l-10 -47h-52l-40 -203h-62l40 203h-52l10 47h166zM433 750l9 -132h1l61 132h89l-50 -250h-63l29 142l-65 -142h-51l-8 142l-28 -142h-63l50 250h89z" />
    <glyph glyph-name="minus" unicode="&#x2212;" horiz-adv-x="384" 
d="M105 442h350l-26 -134h-350z" />
    </font>
</defs>
</svg>
