<?xml version="1.0" standalone="no"?>
<!DOCTYPE svg PUBLIC "-//W3C//DTD SVG 1.1//EN" "http://www.w3.org/Graphics/SVG/1.1/DTD/svg11.dtd" >
<svg xmlns="http://www.w3.org/2000/svg" xmlns:xlink="http://www.w3.org/1999/xlink" version="1.1">
<metadata>
Created by FontForge 20201107 at Thu Jul 28 03:54:50 2022
 By 
Copyright (c) 2021 by Megatype. All rights reserved.
</metadata>
<defs>
<font id="ChandlerMountain-Slanted" horiz-adv-x="510" >
  <font-face 
    font-family="Chandler Mountain Slant"
    font-weight="400"
    font-style="oblique"
    font-stretch="normal"
    units-per-em="1000"
    panose-1="0 0 0 0 0 0 0 0 0 0"
    ascent="800"
    descent="-200"
    x-height="750"
    cap-height="750"
    bbox="9 -196 1050.17 929"
    underline-thickness="50"
    underline-position="-125"
    slope="-11.3"
    unicode-range="U+000D-FB02"
  />
<missing-glyph horiz-adv-x="376" 
 />
    <glyph glyph-name="fi" unicode="fi" horiz-adv-x="683" 
d="M204 750h364l-15 -76h-266l-53 -263h241l-14 -72h-242l-67 -339h-98zM675 750h98l-150 -750h-98z" />
    <glyph glyph-name="fl" unicode="fl" horiz-adv-x="928" 
d="M204 750h364l-15 -76h-266l-53 -263h241l-14 -72h-242l-67 -339h-98zM669 750h97l-134 -674h266l-15 -76h-364z" />
    <glyph glyph-name=".notdef" horiz-adv-x="376" 
 />
    <glyph glyph-name=".null" horiz-adv-x="0" 
 />
    <glyph glyph-name=".null" horiz-adv-x="0" 
 />
    <glyph glyph-name="uni000D" unicode="&#xd;" horiz-adv-x="250" 
 />
    <glyph glyph-name="space" unicode=" " horiz-adv-x="220" 
 />
    <glyph glyph-name="exclam" unicode="!" horiz-adv-x="195" 
d="M203 750h90l-151 -627h-39zM138 0h-81l16 81h81z" />
    <glyph glyph-name="quotedbl" unicode="&#x22;" horiz-adv-x="324" 
d="M426 750l-64 -219h-38l23 219h79zM276 750l-64 -219h-38l23 219h79z" />
    <glyph glyph-name="numbersign" unicode="#" horiz-adv-x="652" 
d="M211 516h104l79 183h73l-79 -183h146l78 183h73l-79 -183h104l-28 -65h-103l-63 -148h104l-28 -64h-104l-80 -188h-73l81 188h-146l-80 -188h-73l80 188h-104l28 64h104l63 148h-105zM361 451l-64 -148h146l63 148h-145z" />
    <glyph glyph-name="dollar" unicode="$" horiz-adv-x="447" 
d="M336 719l8 37h79l-8 -39q60 -10 81 -56t7 -117q-2 -7 -4.5 -17t-4.5 -17h-82q2 6 4 16.5t4 16.5q4 21 2.5 40t-9 33.5t-22 23t-37.5 8.5q-46 0 -77 -31.5t-39 -74.5q-5 -27 0.5 -46.5t18 -34.5t30.5 -26.5t38 -23.5q32 -18 57.5 -36.5t41.5 -42.5t20.5 -56t-4.5 -77
q-14 -71 -58 -113.5t-104 -51.5l-8 -40h-79l8 37q-69 5 -95 51.5t-10 123.5l8 33h83q-2 -6 -4 -15.5t-4 -16.5q-4 -21 -2.5 -40t9 -33.5t22.5 -23t37 -8.5q23 0 42.5 8.5t34.5 23.5t25.5 34.5t14.5 41.5q6 28 -1 47.5t-21 35t-34 27.5t-41 25q-30 18 -54 36t-38.5 41.5
t-19 54.5t4.5 74q16 77 65 120t115 48z" />
    <glyph glyph-name="percent" unicode="%" horiz-adv-x="586" 
d="M182 664q8 42 36.5 65.5t70.5 23.5t60 -23.5t10 -65.5l-40 -196q-8 -42 -35.5 -66t-69.5 -24t-60.5 24t-10.5 66zM550 753l-312 -750h-51l312 750h51zM195 460q-3 -16 3.5 -27.5t24.5 -11.5q17 0 27.5 12t13.5 27l42 211q3 15 -3 27t-23 12t-28.5 -11.5t-14.5 -27.5z
M417 286q8 42 36 65.5t70 23.5t60.5 -23.5t9.5 -65.5l-39 -196q-8 -42 -35.5 -66t-69.5 -24t-61 24t-10 66zM429 83q-3 -17 3.5 -28.5t24.5 -11.5q17 0 28 12t14 28l42 210q3 15 -3 27.5t-23 12.5t-28.5 -12t-15.5 -28z" />
    <glyph glyph-name="ampersand" unicode="&#x26;" horiz-adv-x="532" 
d="M193 558q10 48 26 85.5t42 63t63.5 38.5t89.5 13t83.5 -13t47 -38.5t16.5 -63t-9 -85.5q-11 -59 -33 -100.5t-67 -62.5q42 -18 59.5 -61t12.5 -103q-1 -25 -6 -59t-11.5 -68.5t-12.5 -65t-10 -48.5h-97q4 20 7.5 39t5.5 35q-49 -62 -144 -64h-12.5t-12.5 1
q-87 5 -125 52.5t-16 152.5q5 26 15 54t26 53.5t38.5 46.5t50.5 33l1 5q-21 12 -29.5 29.5t-10 38.5t3 44.5t8.5 47.5zM396 674q-59 0 -88 -52q-5 -11 -10 -23.5t-7 -26.5l-9 -44q-5 -25 -5 -41q0 -33 17.5 -47t51.5 -14q26 0 44.5 7.5t30.5 21t19.5 32t11.5 41.5l9 44
q5 29 2 50q-6 52 -67 52zM280 82q33 0 56.5 10t41 27.5t28.5 41.5t18 52q4 21 2.5 43t-9.5 41t-23.5 31.5t-39.5 14.5q-4 1 -11.5 2t-16.5 2l-18 2t-15 2q-22 -2 -39 -15.5t-30 -33t-21.5 -43t-13.5 -44.5q-8 -41 -2 -68q5 -30 28.5 -47.5t64.5 -17.5z" />
    <glyph glyph-name="quotesingle" unicode="'" horiz-adv-x="174" 
d="M276 750l-64 -219h-38l23 219h79z" />
    <glyph glyph-name="parenleft" unicode="(" horiz-adv-x="264" 
d="M171 593q17 84 68 120.5t129 36.5l-14 -70q-45 0 -70.5 -25t-33.5 -63l-87 -434q-8 -38 8 -63t61 -25l-14 -70q-78 0 -114 36.5t-20 120.5z" />
    <glyph glyph-name="parenright" unicode=")" horiz-adv-x="264" 
d="M330 593l-87 -436q-16 -84 -67 -120.5t-130 -36.5l14 70q45 0 70.5 25t33.5 63l87 434q8 38 -8 63t-61 25l14 70q79 0 115 -36.5t19 -120.5z" />
    <glyph glyph-name="asterisk" unicode="*" horiz-adv-x="369" 
d="M310 750h52l-19 -94l100 37l8 -44l-103 -42l49 -77l-47 -34l-50 82l-83 -82l-34 34l84 78l-90 41l26 44l88 -36z" />
    <glyph glyph-name="plus" unicode="+" horiz-adv-x="412" 
d="M130 411h120l27 134h76l-27 -134h119l-13 -72h-120l-27 -134h-76l28 134h-120z" />
    <glyph glyph-name="comma" unicode="," horiz-adv-x="181" 
d="M86 -57h-48l44 57h-33l17 81h80l-16 -80z" />
    <glyph glyph-name="hyphen" unicode="-" horiz-adv-x="397" 
d="M130 411h300l-13 -72h-300z" />
    <glyph glyph-name="period" unicode="." horiz-adv-x="183" 
d="M132 0h-81l17 81h80z" />
    <glyph glyph-name="slash" unicode="/" horiz-adv-x="303" 
d="M329 750h80l-285 -750h-80z" />
    <glyph glyph-name="zero" unicode="0" horiz-adv-x="470" 
d="M166 575q17 87 75.5 136t145.5 49t125.5 -49.5t21.5 -135.5l-80 -400q-17 -86 -75.5 -135.5t-145.5 -49.5t-125.5 49t-21.5 136zM372 684q-42 0 -69.5 -28t-35.5 -67l-86 -428q-8 -39 8.5 -67t58.5 -28t70 28t36 67l85 428q8 39 -8.5 67t-58.5 28z" />
    <glyph glyph-name="one" unicode="1" horiz-adv-x="257" 
d="M172 635l15 71l73 44h93l-150 -750h-98l131 653z" />
    <glyph glyph-name="two" unicode="2" horiz-adv-x="492" 
d="M383 685q-48 0 -79 -29t-40 -74q-1 -5 -3 -16.5t-4.5 -23.5t-4.5 -21.5t-2 -11.5h-98l2 10l7 36l1.5 6t0.5 4q22 106 82 150.5t154 44.5q99 0 138.5 -46.5t16.5 -155.5q-12 -61 -43 -109t-71 -88.5t-84.5 -75t-83.5 -68t-67.5 -67.5t-36.5 -74h277q0 -3 -2.5 -14
t-5 -23.5t-4.5 -24t-3 -14.5h-375q1 5 2.5 14t4 19t4 19.5t2.5 14.5q11 54 37 97t61 78.5t74.5 66t77 61t68.5 62t49 69.5q7 13 13 29t10 33t4.5 33t-3.5 29q-5 26 -23 43t-53 17z" />
    <glyph glyph-name="three" unicode="3" horiz-adv-x="494" 
d="M148 509l11 56q22 106 82 150.5t154 44.5q57 0 93 -14.5t54 -43t19.5 -71t-9.5 -99.5q-4 -19 -11 -43t-18.5 -46t-26.5 -39.5t-35 -25.5l-1 -5q17 -8 25 -25.5t10 -40t0 -46t-6 -43.5q-11 -57 -30 -99.5t-48.5 -71t-71 -43t-98.5 -14.5q-47 0 -81.5 10.5t-55 34t-26 60.5
t4.5 90l12 56h97l-14 -69q-9 -48 10 -77.5t67 -29.5q33 0 56 13t39 35t25.5 49.5t15.5 57.5q5 23 7 44.5t-3.5 38t-21 26.5t-45.5 10l14 72q30 0 49.5 10t31.5 27t19 38.5t11 43.5q6 28 7.5 56t-5.5 50t-25 35.5t-51 13.5q-48 0 -79 -29.5t-40 -77.5l-14 -69h-98z" />
    <glyph glyph-name="four" unicode="4" horiz-adv-x="468" 
d="M433 234l-47 -234h-97l46 234h-244l15 74l311 442h119l-89 -444h36l-14 -72h-36zM349 306l73 359l-254 -359h181z" />
    <glyph glyph-name="five" unicode="5" horiz-adv-x="502" 
d="M581 750l-15 -76h-281l-44 -219q21 20 49.5 30t61.5 10q62 0 97.5 -17t51 -48.5t14.5 -77.5t-13 -103q-12 -58 -28 -105.5t-44 -81.5t-72 -53t-111 -19q-97 0 -137.5 45.5t-20.5 149.5l12 56h97l-15 -73q-8 -45 11 -74t67 -29q32 0 54.5 12t38.5 31.5t25.5 45t14.5 51.5
l17 85q5 26 5.5 50t-7.5 42.5t-26 29.5t-50 11q-48 0 -78 -24t-38 -62h-97l82 413h379z" />
    <glyph glyph-name="six" unicode="6" horiz-adv-x="500" 
d="M165 569q20 97 82 144t153 47q100 0 141 -50t24 -135l-12 -58h-98l14 65q9 48 -12.5 75t-71.5 27t-80.5 -28.5t-39.5 -72.5l-30 -153q40 40 107 40q57 0 92.5 -17t53 -47.5t19 -73t-8.5 -92.5q-11 -54 -29.5 -100t-48 -79.5t-72 -52t-102.5 -18.5q-90 0 -133.5 47.5
t-24.5 143.5zM326 394q-49 0 -79.5 -28.5t-39.5 -72.5l-25 -125q-8 -45 11.5 -73.5t67.5 -28.5q31 0 53 11t38 30t25.5 43t14.5 49l12 62q5 26 5 49.5t-8 42.5t-26 30t-49 11z" />
    <glyph glyph-name="seven" unicode="7" horiz-adv-x="427" 
d="M88 0l327 674h-234l15 76h335l-14 -73l-328 -677h-101z" />
    <glyph glyph-name="eight" unicode="8" horiz-adv-x="518" 
d="M89 204q4 21 12.5 46.5t22 49.5t32 44t41.5 29l1 6q-19 11 -28 30.5t-11.5 43t-0.5 48t6 45.5q11 53 29.5 93t47.5 67t70.5 40.5t97.5 13.5q113 0 148.5 -53.5t13.5 -160.5q-4 -21 -11.5 -45.5t-19.5 -48t-29 -43t-40 -30.5l-1 -6q20 -9 30 -29t13.5 -44t2 -49.5
t-5.5 -46.5q-22 -112 -81.5 -163.5t-169.5 -51.5q-111 0 -151.5 50t-18.5 165zM395 685q-47 0 -74.5 -23t-41.5 -59q-6 -15 -11 -34.5t-8 -40t-3 -39t4 -32.5q4 -20 18 -33t40 -13h44q32 0 54 20.5t35.5 50.5t19.5 63t7 58q0 35 -18.5 58.5t-65.5 23.5zM220 289
q-11 -17 -19.5 -39t-13.5 -45t-5.5 -45.5t4.5 -39.5q8 -29 31 -42t55 -13q31 0 59 13t48 42q12 17 20.5 39.5t12.5 45.5t4 45t-4 39q-3 20 -15 35t-44 15h-54q-31 0 -49.5 -15t-29.5 -35z" />
    <glyph glyph-name="nine" unicode="9" horiz-adv-x="500" 
d="M151 510q11 54 29.5 100t48.5 79.5t72.5 52t101.5 18.5q45 0 79.5 -12t55.5 -35.5t27.5 -59.5t-3.5 -84l-77 -388q-20 -97 -82.5 -144t-153.5 -47q-99 0 -140 50.5t-24 134.5l12 58h98l-14 -65q-9 -48 12.5 -75t71.5 -27q49 0 80 28.5t39 73.5l30 152q-39 -40 -106 -40
q-57 0 -92.5 17t-53 47.5t-19.5 73t8 92.5zM389 684q-31 0 -53 -11t-38 -30t-25.5 -42.5t-14.5 -49.5l-12 -62q-5 -25 -5.5 -49t8 -43t26 -30t48.5 -11q49 0 80 28.5t39 73.5l25 125q9 44 -10.5 72.5t-67.5 28.5z" />
    <glyph glyph-name="colon" unicode=":" horiz-adv-x="183" 
d="M132 401h80l-16 -81h-81zM68 81h80l-16 -81h-81z" />
    <glyph glyph-name="semicolon" unicode=";" horiz-adv-x="181" 
d="M130 401h80l-16 -81h-81zM66 81h80l-16 -80l-44 -57h-48l44 56h-33z" />
    <glyph glyph-name="less" unicode="&#x3c;" horiz-adv-x="352" 
d="M131 413l277 111l-13 -67l-226 -94l-8 -37l188 -97l-14 -67l-231 115z" />
    <glyph glyph-name="equal" unicode="=" horiz-adv-x="416" 
d="M140 461h319l-14 -72h-318zM91 215h319l-14 -72h-319z" />
    <glyph glyph-name="greater" unicode="&#x3e;" horiz-adv-x="352" 
d="M386 413l-27 -136l-279 -115l14 67l227 97l8 37l-189 94l13 67z" />
    <glyph glyph-name="question" unicode="?" horiz-adv-x="468" 
d="M148 513l9 46q12 57 32 96t48.5 62t65.5 33t82 10t78 -10t52.5 -33.5t25 -62.5t-6.5 -96q-11 -54 -38.5 -95.5t-63 -76t-75.5 -64.5t-74.5 -60.5t-60.5 -64t-34 -74.5h-54q11 53 35.5 95t56 77t66 65t65 60.5t53 63t30.5 71.5q11 56 -5.5 87.5t-67.5 31.5
q-48 0 -77.5 -28t-40.5 -81l-11 -52h-90zM176 0h-81l17 81h80z" />
    <glyph glyph-name="at" unicode="@" horiz-adv-x="726" 
d="M125 370q17 86 49 156.5t82.5 120t120 76.5t161.5 27q78 0 128.5 -21t76.5 -60.5t30 -97.5t-11 -132q-11 -55 -27 -104t-43.5 -85.5t-71 -57.5t-108.5 -21h-120q-30 0 -50.5 4.5t-32 16.5t-13.5 32.5t4 52.5l40 196q6 32 20 52t33.5 31t43.5 14.5t52 3.5q17 0 45 -0.5
t45 -0.5l-65 -325q-4 -14 7 -20.5t24 -6.5q41 0 69.5 18.5t47.5 48t30.5 64.5t17.5 68q13 65 13.5 117t-19 88.5t-62 56t-114.5 19.5q-82 0 -142 -23.5t-102 -67t-68.5 -104.5t-41.5 -136q-13 -66 -10.5 -125t25 -104t68.5 -71t120 -26q35 0 71 6.5t71 17.5l7 -48
q-40 -11 -80 -18t-79 -7q-85 0 -139.5 29.5t-82 80.5t-31.5 119.5t11 145.5zM364 265q-4 -19 7 -26t28 -7h45l57 280q-8 0 -16 0.5t-16 0.5q-23 0 -41 -8.5t-24 -35.5z" />
    <glyph glyph-name="A" unicode="A" horiz-adv-x="518" 
d="M324 750h170l-15 -750h-99l10 235h-167l-85 -235h-99zM243 307h155l11 367h-30z" />
    <glyph glyph-name="B" unicode="B" horiz-adv-x="523" 
d="M408 750q57 0 95.5 -16.5t59.5 -44.5t26.5 -66t-3.5 -81q-6 -29 -15.5 -56.5t-21.5 -49.5t-27 -37.5t-32 -20.5l-1 -5q17 -8 25.5 -26t10.5 -41t-0.5 -48t-7.5 -47q-20 -103 -84 -157t-175 -54h-204l150 750h204zM391 415q23 0 40 12.5t28 32.5q9 14 15.5 32.5t10.5 39
t5 39.5t-2 33q-5 30 -27 50t-68 20h-106l-52 -259h156zM273 76q45 0 80.5 22t52.5 66q5 12 9.5 28t7.5 32.5t5 32t1 27.5q0 24 -12 43.5t-39 19.5h-156l-55 -271h106z" />
    <glyph glyph-name="C" unicode="C" 
d="M495 181q-20 -99 -82.5 -145t-159.5 -46q-96 0 -140.5 46t-24.5 145l77 388q20 99 83 145t159 46t141 -46.5t25 -144.5l-19 -95h-98l21 105q9 45 -11.5 75t-73.5 30q-52 0 -85 -30t-42 -75l-82 -408q-9 -45 12.5 -75t72.5 -30q53 0 86 30t42 75l21 105h97z" />
    <glyph glyph-name="D" unicode="D" horiz-adv-x="513" 
d="M204 750h204q96 0 141 -46.5t25 -144.5q-6 -27 -16 -77l-21 -105t-21 -106t-16 -80q-20 -99 -82.5 -145t-159.5 -46h-204zM273 76q53 0 86 30t42 75l77 388q9 45 -12 75t-73 30h-106l-120 -598h106z" />
    <glyph glyph-name="E" unicode="E" horiz-adv-x="466" 
d="M204 750h364l-15 -76h-266l-53 -263h241l-14 -72h-242l-52 -263h266l-15 -76h-364z" />
    <glyph glyph-name="F" unicode="F" horiz-adv-x="465" 
d="M204 750h364l-15 -76h-266l-53 -263h241l-14 -72h-242l-67 -339h-98z" />
    <glyph glyph-name="G" unicode="G" horiz-adv-x="511" 
d="M165 569q20 99 83 145t159 46t141 -46.5t25 -144.5l-16 -76h-97l17 86q9 45 -11.5 75t-73.5 30q-52 0 -85 -30t-42 -75l-82 -408q-9 -45 12.5 -75t72.5 -30q53 0 86 30t42 75l12 66h-76l15 72h173l-25 -128q-20 -99 -82.5 -145t-159.5 -46q-96 0 -140.5 46t-24.5 145z
" />
    <glyph glyph-name="H" unicode="H" horiz-adv-x="516" 
d="M204 750h98l-68 -339h212l68 339h98l-150 -750h-98l69 339h-213l-68 -339h-98z" />
    <glyph glyph-name="I" unicode="I" horiz-adv-x="219" 
d="M211 750h97l-150 -750h-97z" />
    <glyph glyph-name="J" unicode="J" horiz-adv-x="329" 
d="M426 750q-6 -31 -15 -77t-19.5 -98.5t-22 -108t-21.5 -107.5t-19 -96t-14 -72q-11 -54 -32 -90.5t-51 -59t-68 -32t-83 -9.5h-37l16 76h22q51 0 87 27t45 75l115 572h97z" />
    <glyph glyph-name="K" unicode="K" horiz-adv-x="509" 
d="M204 750h98l-68 -338h59l230 338h100l-252 -374l99 -376h-100l-92 340h-58l-68 -340h-98z" />
    <glyph glyph-name="L" unicode="L" horiz-adv-x="464" 
d="M204 750h98l-135 -674h266l-15 -76h-364z" />
    <glyph glyph-name="M" unicode="M" horiz-adv-x="723" 
d="M339 750l37 -666h4l305 666h134l-150 -750h-98l117 584l-278 -584h-97l-45 584l-116 -584h-98l150 750h135z" />
    <glyph glyph-name="N" unicode="N" horiz-adv-x="516" 
d="M204 750h98l96 -583l116 583h98l-150 -750h-98l-95 583l-117 -583h-98z" />
    <glyph glyph-name="O" unicode="O" 
d="M165 569q20 99 83 145t159 46t141 -46.5t25 -144.5l-78 -388q-20 -99 -82.5 -145t-159.5 -46q-96 0 -140.5 46t-24.5 145zM183 171q-9 -45 12.5 -75t72.5 -30q53 0 86 30t42 75l81 408q9 45 -11.5 75t-73.5 30q-52 0 -85 -30t-42 -75z" />
    <glyph glyph-name="P" unicode="P" horiz-adv-x="522" 
d="M408 750q116 0 156 -56.5t18 -165.5q-22 -110 -86 -167.5t-184 -57.5h-100l-60 -303h-98l150 750h204zM287 674l-60 -295h100q49 0 86 23t54 65q10 25 16.5 59.5t6.5 59.5q0 42 -24.5 65t-72.5 23h-106z" />
    <glyph glyph-name="Q" unicode="Q" horiz-adv-x="514" 
d="M165 569q20 99 83 145t159 46t141 -46.5t25 -144.5q-3 -14 -9 -44.5t-14 -69.5t-16.5 -82t-16.5 -81.5t-14 -68t-8 -42.5q-11 -56 -36 -94t-63 -61l76 -73q-7 -5 -20 -14t-27 -18.5t-26 -18t-17 -11.5q-5 6 -15.5 21.5t-22 33t-22 32.5t-14.5 21q-27 -9 -55 -9
q-96 0 -140.5 46t-24.5 145q4 19 10 49.5t13 67.5t15 77t15.5 76.5t13.5 67.5t10 50zM392 684q-52 0 -85 -30t-42 -75l-82 -408q-9 -45 12.5 -75t72.5 -30q53 0 86 30t42 75l81 408q9 45 -11.5 75t-73.5 30z" />
    <glyph glyph-name="R" unicode="R" horiz-adv-x="516" 
d="M204 750h204q116 0 156 -56.5t18 -165.5q-17 -83 -57.5 -137t-112.5 -74l56 -317h-96l-53 304q-5 -1 -11 -1h-11h-85l-60 -303h-98zM327 379q46 0 77 17.5t49.5 47t27 66.5t9.5 76q0 47 -27.5 67.5t-69.5 20.5h-106l-60 -295h100z" />
    <glyph glyph-name="S" unicode="S" horiz-adv-x="532" 
d="M158 551q21 105 89.5 157t170.5 52q107 0 147.5 -54t19.5 -161q-2 -8 -4 -16.5t-4 -16.5h-97q2 6 3.5 14.5t3.5 14.5q6 29 5.5 54.5t-10 45.5t-28.5 31.5t-51 11.5q-56 0 -95.5 -34.5t-50.5 -89.5q-7 -34 3 -57.5t30.5 -40.5t48.5 -30.5t57 -27t56 -30t46 -40t27 -56
t-1 -79.5q-21 -105 -89.5 -157t-170.5 -52q-107 0 -147.5 54t-19.5 162l4 16l4 16h97q-2 -6 -3.5 -14.5t-3.5 -14.5q-6 -29 -5.5 -55t9.5 -45.5t28.5 -31t51.5 -11.5q57 0 96 35.5t50 91.5q7 34 -3 57.5t-30.5 40.5t-48.5 30t-57 26t-56 29t-46 39.5t-27 56t1 79.5z" />
    <glyph glyph-name="T" unicode="T" horiz-adv-x="538" 
d="M643 750l-15 -76h-175l-135 -674h-98l135 674h-175l15 76h448z" />
    <glyph glyph-name="U" unicode="U" horiz-adv-x="512" 
d="M202 750h98l-116 -579q-9 -45 12.5 -75t72.5 -30q53 0 86 30t42 75l115 579h98l-114 -569q-20 -99 -82.5 -145t-159.5 -46q-96 0 -140.5 46t-24.5 145z" />
    <glyph glyph-name="V" unicode="V" horiz-adv-x="532" 
d="M192 750h102l-26 -674h26l244 674h101l-284 -750h-178z" />
    <glyph glyph-name="W" unicode="W" horiz-adv-x="831" 
d="M192 750h102l-26 -674h26l224 674h95l-46 -674h27l243 674h102l-285 -750h-154l43 634h-2l-210 -634h-154z" />
    <glyph glyph-name="X" unicode="X" horiz-adv-x="541" 
d="M192 750h100l53 -335h18l186 335h100l-209 -375l56 -375h-100l-49 336h-18l-184 -336h-100l206 375z" />
    <glyph glyph-name="Y" unicode="Y" horiz-adv-x="529" 
d="M294 750l45 -377l196 377h101l-270 -487l-53 -263h-97l52 263l-76 487h102z" />
    <glyph glyph-name="Z" unicode="Z" horiz-adv-x="483" 
d="M162 76h287l-15 -76h-392l15 74l409 600h-287l15 76h392l-15 -73z" />
    <glyph glyph-name="bracketleft" unicode="[" horiz-adv-x="295" 
d="M204 750h194l-14 -69h-115l-122 -612h115l-14 -69h-194z" />
    <glyph glyph-name="backslash" unicode="\" horiz-adv-x="303" 
d="M274 750l-15 -750h-80l15 750h80z" />
    <glyph glyph-name="bracketright" unicode="]" horiz-adv-x="295" 
d="M390 750l-150 -750h-194l14 69h115l122 612h-115l14 69h194z" />
    <glyph glyph-name="asciicircum" unicode="^" horiz-adv-x="352" 
d="M261 750h130l8 -276h-66l-2 228h-30l-92 -228h-67z" />
    <glyph glyph-name="underscore" unicode="_" horiz-adv-x="456" 
d="M38 -10h369l-11 -56h-369z" />
    <glyph glyph-name="grave" unicode="`" horiz-adv-x="213" 
d="M191 750h85l21 -120h-58z" />
    <glyph glyph-name="a" unicode="a" horiz-adv-x="518" 
d="M324 750h170l-15 -750h-99l10 235h-167l-85 -235h-99q35 89 71 184t72 191t72 191t70 184zM243 307h155l11 367h-30z" />
    <glyph glyph-name="b" unicode="b" horiz-adv-x="523" 
d="M408 750q57 0 95.5 -16.5t59.5 -44.5t26.5 -66t-3.5 -81q-6 -29 -15.5 -56.5t-21.5 -49.5t-27 -37.5t-32 -20.5l-1 -5q17 -8 25.5 -26t10.5 -41t-0.5 -48t-7.5 -47q-20 -103 -84 -157t-175 -54h-204l150 750h204zM391 415q23 0 40 12.5t28 32.5q9 14 15.5 32.5t10.5 39
t5 39.5t-2 33q-5 30 -27 50t-68 20h-106l-52 -259h156zM273 76q45 0 80.5 22t52.5 66q5 12 9.5 28t7.5 32.5t5 32t1 27.5q0 24 -12 43.5t-39 19.5h-156l-55 -271h106z" />
    <glyph glyph-name="c" unicode="c" 
d="M495 181q-20 -99 -82.5 -145t-159.5 -46q-96 0 -140.5 46t-24.5 145l77 388q20 99 83 145t159 46t141 -46.5t25 -144.5l-19 -95h-98l21 105q9 45 -11.5 75t-73.5 30q-52 0 -85 -30t-42 -75l-82 -408q-9 -45 12.5 -75t72.5 -30q53 0 86 30t42 75l21 105h97z" />
    <glyph glyph-name="d" unicode="d" horiz-adv-x="511" 
d="M202 750h204q96 0 141 -46.5t25 -144.5q-6 -27 -16 -77l-21 -105t-21 -106t-16 -80q-20 -99 -82.5 -145t-159.5 -46h-204zM271 76q53 0 86 30t42 75l77 388q9 45 -12 75t-73 30h-106l-120 -598h106z" />
    <glyph glyph-name="e" unicode="e" horiz-adv-x="466" 
d="M204 750h364l-15 -76h-266l-53 -263h241l-14 -72h-242l-52 -263h266l-15 -76h-364z" />
    <glyph glyph-name="f" unicode="f" horiz-adv-x="465" 
d="M204 750h364l-15 -76h-266l-53 -263h241l-14 -72h-242l-67 -339h-98z" />
    <glyph glyph-name="g" unicode="g" horiz-adv-x="511" 
d="M165 569q20 99 83 145t159 46t141 -46.5t25 -144.5l-16 -76h-97l17 86q9 45 -11.5 75t-73.5 30q-52 0 -85 -30t-42 -75l-82 -408q-9 -45 12.5 -75t72.5 -30q53 0 86 30t42 75l12 66h-76l15 72h173l-25 -128q-20 -99 -82.5 -145t-159.5 -46q-96 0 -140.5 46t-24.5 145z
" />
    <glyph glyph-name="h" unicode="h" horiz-adv-x="516" 
d="M204 750h98l-68 -339h212l68 339h98l-150 -750h-98l69 339h-213l-68 -339h-98z" />
    <glyph glyph-name="i" unicode="i" horiz-adv-x="219" 
d="M211 750h97l-150 -750h-97z" />
    <glyph glyph-name="j" unicode="j" horiz-adv-x="329" 
d="M426 750q-6 -31 -15 -77t-19.5 -98.5t-22 -108t-21.5 -107.5t-19 -96t-14 -72q-11 -54 -32 -90.5t-51 -59t-68 -32t-83 -9.5h-37l16 76h22q51 0 87 27t45 75l115 572h97z" />
    <glyph glyph-name="k" unicode="k" horiz-adv-x="509" 
d="M204 750h98l-68 -338h59l230 338h100l-252 -374l99 -376h-100l-92 340h-58l-68 -340h-98z" />
    <glyph glyph-name="l" unicode="l" horiz-adv-x="464" 
d="M204 750h98l-135 -674h266l-15 -76h-364z" />
    <glyph glyph-name="m" unicode="m" horiz-adv-x="748" 
d="M338 750l52 -666h2l318 666h134l-150 -750h-98l117 584l-292 -584h-93l-60 584l-116 -584h-98l150 750h134z" />
    <glyph glyph-name="n" unicode="n" horiz-adv-x="516" 
d="M204 750h98l96 -583l116 583h98l-150 -750h-98l-95 583l-117 -583h-98z" />
    <glyph glyph-name="o" unicode="o" 
d="M165 569q20 99 83 145t159 46t141 -46.5t25 -144.5l-78 -388q-20 -99 -82.5 -145t-159.5 -46q-96 0 -140.5 46t-24.5 145zM183 171q-9 -45 12.5 -75t72.5 -30q53 0 86 30t42 75l81 408q9 45 -11.5 75t-73.5 30q-52 0 -85 -30t-42 -75z" />
    <glyph glyph-name="p" unicode="p" horiz-adv-x="522" 
d="M408 750q116 0 156 -56.5t18 -165.5q-22 -110 -86 -167.5t-184 -57.5h-100l-60 -303h-98l150 750h204zM287 674l-60 -295h100q49 0 86 23t54 65q10 25 16.5 59.5t6.5 59.5q0 42 -24.5 65t-72.5 23h-106z" />
    <glyph glyph-name="q" unicode="q" horiz-adv-x="514" 
d="M165 569q20 99 83 145t159 46t141 -46.5t25 -144.5q-3 -14 -9 -44.5t-14 -69.5t-16.5 -82t-16.5 -81.5t-14 -68t-8 -42.5q-11 -56 -36 -94t-63 -61l76 -73q-7 -5 -20 -14t-27 -18.5t-26 -18t-17 -11.5q-5 6 -15.5 21.5t-22 33t-22 32.5t-14.5 21q-27 -9 -55 -9
q-96 0 -140.5 46t-24.5 145q4 19 10 49.5t13 67.5t15 77t15.5 76.5t13.5 67.5t10 50zM392 684q-52 0 -85 -30t-42 -75l-82 -408q-9 -45 12.5 -75t72.5 -30q53 0 86 30t42 75l81 408q9 45 -11.5 75t-73.5 30z" />
    <glyph glyph-name="r" unicode="r" horiz-adv-x="516" 
d="M204 750h204q116 0 156 -56.5t18 -165.5q-17 -83 -57.5 -137t-112.5 -74l56 -317h-96l-53 304q-5 -1 -11 -1h-11h-85l-60 -303h-98zM327 379q46 0 77 17.5t49.5 47t27 66.5t9.5 76q0 47 -27.5 67.5t-69.5 20.5h-106l-60 -295h100z" />
    <glyph glyph-name="s" unicode="s" horiz-adv-x="532" 
d="M158 551q21 105 89.5 157t170.5 52q107 0 147.5 -54t19.5 -161q-2 -8 -4 -16.5t-4 -16.5h-97q2 6 3.5 14.5t3.5 14.5q6 29 5.5 54.5t-10 45.5t-28.5 31.5t-51 11.5q-56 0 -95.5 -34.5t-50.5 -89.5q-7 -34 3 -57.5t30.5 -40.5t48.5 -30.5t57 -27t56 -30t46 -40t27 -56
t-1 -79.5q-21 -105 -89.5 -157t-170.5 -52q-107 0 -147.5 54t-19.5 162l4 16l4 16h97q-2 -6 -3.5 -14.5t-3.5 -14.5q-6 -29 -5.5 -55t9.5 -45.5t28.5 -31t51.5 -11.5q57 0 96 35.5t50 91.5q7 34 -3 57.5t-30.5 40.5t-48.5 30t-57 26t-56 29t-46 39.5t-27 56t1 79.5z" />
    <glyph glyph-name="t" unicode="t" horiz-adv-x="538" 
d="M643 750l-15 -76h-175l-135 -674h-98l135 674h-175l15 76h448z" />
    <glyph glyph-name="u" unicode="u" horiz-adv-x="512" 
d="M202 750h98l-116 -579q-9 -45 12.5 -75t72.5 -30q53 0 86 30t42 75l115 579h98l-114 -569q-20 -99 -82.5 -145t-159.5 -46q-96 0 -140.5 46t-24.5 145z" />
    <glyph glyph-name="v" unicode="v" horiz-adv-x="532" 
d="M192 750h102l-26 -674h26l244 674h101l-284 -750h-178z" />
    <glyph glyph-name="w" unicode="w" horiz-adv-x="831" 
d="M192 750h102l-26 -674h26l224 674h95l-46 -674h27l243 674h102l-285 -750h-154l43 634h-2l-210 -634h-154z" />
    <glyph glyph-name="x" unicode="x" horiz-adv-x="541" 
d="M192 750h100l53 -335h18l186 335h100l-209 -375l56 -375h-100l-49 336h-18l-184 -336h-100l206 375z" />
    <glyph glyph-name="y" unicode="y" horiz-adv-x="529" 
d="M294 750l45 -377l196 377h101l-270 -487l-53 -263h-97l52 263l-76 487h102z" />
    <glyph glyph-name="z" unicode="z" horiz-adv-x="483" 
d="M162 76h287l-15 -76h-392l15 74l409 600h-287l15 76h392l-15 -73z" />
    <glyph glyph-name="braceleft" unicode="{" horiz-adv-x="306" 
d="M121 384q29 15 44.5 40t24.5 54t13.5 59.5t9.5 55.5q17 83 66.5 120t130.5 37l-14 -70q-41 0 -68.5 -24t-35.5 -64q-4 -21 -9 -54t-14 -65.5t-24 -59t-40 -35.5l-1 -5q21 -9 25.5 -35.5t0.5 -59.5t-12.5 -66t-12.5 -54q-8 -40 10 -64t59 -24l-14 -70q-81 0 -116 37
t-18 120q5 25 12.5 55.5t10.5 59.5t-3 54t-28 40z" />
    <glyph glyph-name="bar" unicode="|" horiz-adv-x="194" 
d="M213 780h79l-162 -810h-79z" />
    <glyph glyph-name="braceright" unicode="}" horiz-adv-x="306" 
d="M335 366q-28 -15 -44 -40t-25 -54t-13.5 -59.5t-9.5 -55.5q-17 -83 -66.5 -120t-130.5 -37l14 70q42 0 69 24t35 64q4 21 9 54t14 66t24 59.5t40 35.5l1 5q-21 9 -25.5 35.5t-0.5 59t12.5 65.5t12.5 54q8 40 -9.5 64t-59.5 24l14 70q81 0 116 -37t18 -120
q-5 -25 -12.5 -55.5t-10.5 -59.5t3.5 -54t28.5 -40z" />
    <glyph glyph-name="asciitilde" unicode="~" horiz-adv-x="501" 
d="M104 260q7 37 20.5 61.5t31 39t38 20.5t41.5 6q20 0 41.5 -3.5t42.5 -8t40.5 -8t36.5 -3.5q25 0 43.5 14t24.5 46h70q-8 -39 -22 -65t-32.5 -41t-39.5 -21.5t-44 -6.5q-21 0 -42.5 3.5t-42.5 7.5t-40.5 7.5t-36.5 3.5q-23 0 -39 -12.5t-22 -39.5h-69z" />
    <glyph glyph-name="exclamdown" unicode="&#xa1;" horiz-adv-x="195" 
d="M278 700l-17 -81h-80l16 81h81zM43 -50l151 627h38l-99 -627h-90z" />
    <glyph glyph-name="cent" unicode="&#xa2;" horiz-adv-x="507" 
d="M150 499q18 89 70.5 135t131.5 54l15 72h79l-15 -72q77 -8 110.5 -54t16.5 -135l-14 -70h-98l16 80q9 45 -11.5 75.5t-73.5 30.5q-52 0 -85 -30t-42 -76l-54 -267q-9 -46 12.5 -76t72.5 -30q53 0 86 30.5t42 75.5l16 81h97l-14 -71q-18 -89 -70 -135t-132 -54l-14 -73
h-79l14 73q-76 8 -110 54t-16 135z" />
    <glyph glyph-name="sterling" unicode="&#xa3;" horiz-adv-x="557" 
d="M481 373l-14 -72h-206l-46 -225h290l-15 -76h-387l60 301h-56l14 72h56l39 196q20 99 83 145t159 46t141 -46.5t25 -144.5l-11 -54h-97l12 64q10 45 -11 75t-74 30q-51 0 -84.5 -30t-42.5 -75l-42 -206h207z" />
    <glyph glyph-name="currency" unicode="&#xa4;" horiz-adv-x="578" 
d="M138 369q8 42 30 78.5t53 65.5l-49 65l64 55l54 -71q28 16 58 24.5t62 8.5q29 0 54.5 -7.5t46.5 -20.5l80 70l42 -50l-74 -65q23 -29 32.5 -68.5t0.5 -84.5q-9 -47 -35.5 -87.5t-62.5 -69.5l49 -68l-60 -50l-56 75q-25 -13 -52.5 -20t-55.5 -7q-30 0 -56 8.5t-47 22.5
l-87 -75l-42 55l78 68q-20 29 -27.5 67t0.5 81zM330 197q36 0 70 13.5t62 36.5t48 54.5t27 67.5t-0.5 67t-26 54t-47.5 36.5t-64 13.5q-36 0 -70 -13.5t-61.5 -36.5t-47.5 -54t-27 -67t0 -67.5t26 -54.5t47.5 -36.5t63.5 -13.5z" />
    <glyph glyph-name="yen" unicode="&#xa5;" horiz-adv-x="531" 
d="M295 750l48 -362l193 362h101l-226 -398h99l-11 -53h-117l-11 -18l-15 -74h125l-11 -52h-125l-31 -155h-97l30 155h-125l10 52h125l14 74l-3 18h-117l10 53h99l-67 398h102z" />
    <glyph glyph-name="brokenbar" unicode="&#xa6;" horiz-adv-x="190" 
d="M146 454l65 326h79l-65 -326h-79zM51 -20l65 326h79l-65 -326h-79z" />
    <glyph glyph-name="section" unicode="&#xa7;" horiz-adv-x="545" 
d="M165 552q10 50 33.5 89t57.5 65.5t77 40.5t92 14q105 0 146.5 -56t20.5 -160l-4 -16l-4 -16h-97q2 6 3.5 14.5t3.5 14.5q5 27 4.5 52.5t-10 46t-28.5 32.5t-50 12q-26 0 -50 -10t-43.5 -26.5t-33.5 -39t-19 -48.5q-8 -40 8.5 -65.5t44.5 -45t62.5 -37.5t62.5 -42
q-2 -2 -2 -5q-13 3 -45.5 9.5t-69 14.5t-69.5 15.5t-48 10.5q-13 11 -23.5 24.5t-16.5 30t-7 36.5t4 45zM530 198q-10 -50 -33.5 -89t-57.5 -65.5t-77 -40.5t-92 -14q-105 0 -146 56t-21 160q2 8 4 16.5t4 16.5h98q-2 -6 -4 -15t-3 -15q-6 -27 -5 -53t10 -46t28 -32t50 -12
q27 0 51.5 10t44 27.5t32.5 41t19 49.5q8 39 -8 63.5t-43 43t-59.5 36t-59.5 41.5l2 5q12 -3 45 -10t70 -15t69.5 -15t43.5 -9q24 -23 36 -54.5t2 -80.5z" />
    <glyph glyph-name="dieresis" unicode="&#xa8;" horiz-adv-x="269" 
d="M363 675h-76l16 75h75zM252 675h-76l15 75h76z" />
    <glyph glyph-name="copyright" unicode="&#xa9;" horiz-adv-x="859" 
d="M129 373q16 81 58 149.5t102 119t134.5 78.5t155.5 28t144 -28t103 -78.5t54.5 -119t-1.5 -149.5t-58 -149.5t-102 -119t-134.5 -78.5t-155.5 -28t-144 28t-103 78.5t-54.5 119t1.5 149.5zM170 373q-15 -72 -2 -133.5t49 -106t92 -70t128 -25.5t138.5 25.5t120 70t91 106
t52.5 133.5q14 72 1 133.5t-49 106t-92 70t-128 25.5t-138.5 -25.5t-120 -70t-91 -106t-51.5 -133.5zM645 295l-14 -73q-15 -77 -63.5 -113t-123.5 -36q-74 0 -108.5 36t-18.5 113l61 306q15 77 63.5 113t122.5 36q75 0 109.5 -36t18.5 -113l-14 -73h-72l16 81
q8 37 -8.5 61.5t-59.5 24.5q-42 0 -68.5 -24t-34.5 -62l-64 -322q-8 -38 9 -61.5t59 -23.5t68.5 24t34.5 61l16 81h71z" />
    <glyph glyph-name="ordfeminine" unicode="&#xaa;" horiz-adv-x="293" 
d="M257 750h78l-7 -338h-46l6 105h-76l-38 -105h-45zM221 550h70l6 166h-15z" />
    <glyph glyph-name="guillemotleft" unicode="&#xab;" horiz-adv-x="467" 
d="M300 345v-2l155 -180l-15 -75l-201 230l12 54l292 226l-16 -75zM167 345v-2l156 -180l-15 -75l-201 230l11 54l292 226l-15 -75z" />
    <glyph glyph-name="logicalnot" unicode="&#xac;" horiz-adv-x="541" 
d="M117 313h432l-59 -292h-56l47 235h-375z" />
    <glyph glyph-name="registered" unicode="&#xae;" horiz-adv-x="845" 
d="M572 748q81 0 144 -28t103 -78.5t54.5 -119t-1.5 -149.5t-58 -149.5t-102 -119t-134.5 -78.5t-155.5 -28t-144 28t-103 78.5t-54.5 119t1.5 149.5t58 149.5t102 119t134.5 78.5t155.5 28zM163 373q-15 -72 -2 -133.5t49 -106t92 -70t128 -25.5t138.5 25.5t120 70t91 106
t52.5 133.5q14 72 1 133.5t-49 106t-92 70t-128 25.5t-138.5 -25.5t-120 -70t-91 -106t-51.5 -133.5zM423 648h144q83 0 111 -41.5t12 -118.5q-12 -60 -41.5 -99t-82.5 -53l42 -230h-64l-39 221h-16h-66l-44 -221h-65zM508 377q31 0 58 14t41 41q2 3 3.5 6.5t2.5 7.5
q17 40 17 83q0 10 -1 15q-3 22 -16.5 35t-34.5 17q-8 2 -12 2h-89l-44 -221h75z" />
    <glyph glyph-name="macron" unicode="&#xaf;" horiz-adv-x="398" 
d="M177 688h319l-14 -71h-319z" />
    <glyph glyph-name="degree" unicode="&#xb0;" horiz-adv-x="295" 
d="M167 599q9 43 42.5 71.5t77.5 28.5t66.5 -28.5t13.5 -71.5q-8 -44 -42 -72t-78 -28t-66 28t-14 72zM216 599q-5 -23 6.5 -37t34.5 -14t39.5 14t21.5 37t-6.5 37t-34.5 14t-39.5 -14t-21.5 -37z" />
    <glyph glyph-name="plusminus" unicode="&#xb1;" horiz-adv-x="412" 
d="M130 411h120l27 134h76l-27 -134h119l-13 -72h-120l-27 -134h-76l28 134h-120zM83 170h315l-15 -71h-315z" />
    <glyph glyph-name="twosuperior" unicode="&#xb2;" horiz-adv-x="287" 
d="M287 720q-21 0 -35 -13.5t-18 -33.5q-1 -2 -2 -7t-2 -10.5t-2 -10t-1 -5.5h-44q0 2 2 13t3 13q10 48 37 67.5t70 19.5q45 0 62.5 -20.5t7.5 -70.5q-5 -27 -19.5 -49t-32.5 -40t-38 -33.5t-37.5 -30.5t-30.5 -30t-17 -33h125q0 -1 -1 -6t-2 -11t-2 -11t-2 -7h-169
q1 4 3 15t4 16q7 37 29 62.5t48 46.5t50 41t36 45q7 12 11 28t1 28q-2 11 -10 19t-24 8z" />
    <glyph glyph-name="threesuperior" unicode="&#xb3;" horiz-adv-x="287" 
d="M183 642l5 25q10 47 36 67t68 20q51 0 66 -25t5 -76q-4 -18 -13.5 -40t-27.5 -29v-3q8 -3 11.5 -11t4 -17.5t0 -20t-2.5 -19.5q-11 -51 -35.5 -76t-75.5 -25q-42 0 -61 19t-9 67l5 26h43l-6 -32q-4 -21 5 -33.5t29 -12.5q29 0 42.5 20.5t18.5 46.5q2 9 2.5 18.5t-1.5 17
t-8 12.5t-17 5l6 33q23 1 32.5 18t13.5 35q2 12 2.5 24.5t-2.5 22t-10.5 15.5t-22.5 6q-21 0 -35 -13t-19 -34l-6 -31h-43z" />
    <glyph glyph-name="acute" unicode="&#xb4;" horiz-adv-x="213" 
d="M236 750h85l-95 -120h-59z" />
    <glyph glyph-name="paragraph" unicode="&#xb6;" horiz-adv-x="425" 
d="M317 416q-49 0 -80.5 14.5t-48 37.5t-20 53t2.5 63q7 33 22.5 63t41.5 53t63 36.5t86 13.5h49l-156 -780h-49zM472 750h48l-156 -780h-48z" />
    <glyph glyph-name="periodcentered" unicode="&#xb7;" horiz-adv-x="177" 
d="M263 669h-81l16 81h81z" />
    <glyph glyph-name="cedilla" unicode="&#xb8;" horiz-adv-x="228" 
d="M29 -94q38 -6 57.5 8.5t23.5 34.5q4 17 -3 32t-23 19l42 11q30 -10 41 -32.5t6 -48.5q-3 -17 -14 -34t-27.5 -30.5t-38.5 -21.5t-48 -8q-19 0 -36 4z" />
    <glyph glyph-name="onesuperior" unicode="&#xb9;" horiz-adv-x="180" 
d="M194 698l6 33l34 19h42l-68 -339h-44l59 295z" />
    <glyph glyph-name="ordmasculine" unicode="&#xba;" horiz-adv-x="261" 
d="M182 675q8 39 34.5 61t65.5 22t56.5 -22.5t9.5 -60.5l-36 -180q-8 -39 -34.5 -61.5t-65.5 -22.5t-56 22t-9 62zM275 724q-19 0 -31.5 -12.5t-15.5 -29.5l-39 -194q-4 -18 3.5 -31t26.5 -13q20 0 32.5 13t16.5 31l38 194q4 17 -3.5 29.5t-27.5 12.5z" />
    <glyph glyph-name="guillemotright" unicode="&#xbb;" horiz-adv-x="467" 
d="M305 345l-156 178l15 75l202 -226l-11 -54l-293 -230l15 75l228 180v2zM438 345l-156 178l15 75l201 -226l-11 -54l-293 -230l15 75l228 180z" />
    <glyph glyph-name="onequarter" unicode="&#xbc;" horiz-adv-x="461" 
d="M423 750h39l-312 -750h-39zM184 698l6 33l34 19h42l-68 -339h-44l59 295zM426 106l-21 -106h-44l21 106h-106l7 34l136 199h54l-41 -201h12l-6 -32h-12zM388 138l33 163l-111 -163h78z" />
    <glyph glyph-name="onehalf" unicode="&#xbd;" horiz-adv-x="493" 
d="M190 731l34 19h42l-68 -339h-44l59 295l-29 -8zM466 750l-312 -750h-40l312 750h40zM422 308q-21 0 -35.5 -13t-18.5 -33q0 -3 -1 -8t-2.5 -10.5t-2.5 -9.5t-1 -5h-44q0 2 2 13t3 13q10 48 37 67.5t70 19.5q45 0 62.5 -20.5t7.5 -70.5q-8 -41 -34.5 -70t-55.5 -52.5
t-54 -45.5t-30 -49h125q0 -1 -1 -6t-2.5 -10.5t-2.5 -10.5t-1 -7h-169l6 30q8 37 30 62.5t47.5 46.5t50 41.5t36.5 45.5q7 11 11 27.5t1 27.5q-2 12 -10.5 19.5t-23.5 7.5z" />
    <glyph glyph-name="threequarters" unicode="&#xbe;" 
d="M173 642l5 25q10 47 36 67t68 20q51 0 66 -25t5 -76q-4 -18 -13.5 -40t-27.5 -29v-3q8 -3 11.5 -11t4 -17.5t0 -20t-2.5 -19.5q-11 -51 -35.5 -76t-75.5 -25q-42 0 -61 19t-9 67l5 26h43l-6 -32q-4 -21 5 -33.5t29 -12.5q29 0 42.5 20.5t18.5 46.5q2 9 2.5 18.5t-1.5 17
t-8 12.5t-17 5l6 33q23 1 32.5 18t13.5 35q2 12 2.5 24.5t-2.5 22t-10.5 15.5t-22.5 6q-21 0 -35 -13t-19 -34l-6 -31h-43zM483 750h39l-312 -750h-39zM475 106l-22 -106h-43l21 106h-106l6 34l137 199h53l-40 -201h12l-6 -32h-12zM437 138l33 163l-111 -163h78z" />
    <glyph glyph-name="questiondown" unicode="&#xbf;" horiz-adv-x="468" 
d="M434 710h81l-16 -81h-81zM423 587h54q-10 -53 -35 -95t-56.5 -77t-66 -65t-65 -60.5t-53 -63t-30.5 -71.5q-11 -56 5.5 -87.5t67.5 -31.5q47 0 77 28t41 81l10 53h90l-9 -47q-11 -57 -31.5 -96t-49 -62t-65.5 -33t-82 -10q-44 0 -77.5 10t-53 33.5t-25 62.5t6.5 97
q11 54 38.5 95t63.5 75.5t75.5 64.5t74.5 60.5t61 64t34 74.5z" />
    <glyph glyph-name="Agrave" unicode="&#xc0;" horiz-adv-x="518" 
d="M345 902h85l20 -120h-58zM324 750h170l-15 -750h-99l10 235h-167l-85 -235h-99zM243 307h155l11 367h-30z" />
    <glyph glyph-name="Aacute" unicode="&#xc1;" horiz-adv-x="518" 
d="M451 902h85l-96 -120h-58zM324 750h170l-15 -750h-99l10 235h-167l-85 -235h-99zM243 307h155l11 367h-30z" />
    <glyph glyph-name="Acircumflex" unicode="&#xc2;" horiz-adv-x="518" 
d="M406 902h67l76 -120h-71l-48 65h-3l-75 -65h-70zM324 750h170l-15 -750h-99l10 235h-167l-85 -235h-99zM243 307h155l11 367h-30z" />
    <glyph glyph-name="Atilde" unicode="&#xc3;" horiz-adv-x="518" 
d="M338 782h-47q12 47 35.5 64.5t48.5 17.5q27 0 54.5 -10t48.5 -10q24 0 33 27h47q-12 -47 -35.5 -64.5t-49.5 -17.5q-13 0 -27 3t-27.5 7t-25.5 7t-22 3q-24 0 -33 -27zM324 750h170l-15 -750h-99l10 235h-167l-85 -235h-99zM243 307h155l11 367h-30z" />
    <glyph glyph-name="Adieresis" unicode="&#xc4;" horiz-adv-x="518" 
d="M508 778h-75l15 75h75zM397 778h-76l16 75h75zM324 750h170l-15 -750h-99l10 235h-167l-85 -235h-99zM243 307h155l11 367h-30z" />
    <glyph glyph-name="Aring" unicode="&#xc5;" horiz-adv-x="518" 
d="M354 854q8 33 33 54t57 21q33 0 50 -21t9 -54q-6 -33 -31 -53.5t-58 -20.5q-32 0 -49 20.5t-11 53.5zM384 854q-4 -20 6 -32.5t30 -12.5t35 12.5t19 32.5t-6 32.5t-30 12.5t-35 -12.5t-19 -32.5zM324 750h170l-15 -750h-99l10 235h-167l-85 -235h-99zM243 307h155l11 367
h-30z" />
    <glyph glyph-name="AE" unicode="&#xc6;" horiz-adv-x="685" 
d="M324 750h464l-15 -76h-266l-53 -263h241l-15 -72h-241l-52 -263h266l-15 -76h-364l47 235h-98l-85 -235h-99zM243 307h93l73 367h-30z" />
    <glyph glyph-name="Ccedilla" unicode="&#xc7;" 
d="M165 569q20 99 83 145t159 46t141 -46.5t25 -144.5l-19 -95h-98l21 105q9 45 -11.5 75t-73.5 30q-52 0 -85 -30t-42 -75l-82 -408q-9 -45 12.5 -75t72.5 -30q53 0 86 30t42 75l21 105h97l-19 -95q-18 -90 -72 -136t-136 -53q22 -26 14 -62q-3 -17 -13.5 -34t-27 -30.5
t-38.5 -21.5t-48 -8q-19 0 -36 4l20 66q38 -6 57 8.5t23 34.5q6 26 -9 41q-84 6 -122 52.5t-19 138.5z" />
    <glyph glyph-name="Egrave" unicode="&#xc8;" horiz-adv-x="466" 
d="M325 902h85l20 -120h-58zM204 750h364l-15 -76h-266l-53 -263h241l-14 -72h-242l-52 -263h266l-15 -76h-364z" />
    <glyph glyph-name="Eacute" unicode="&#xc9;" horiz-adv-x="466" 
d="M420 902h85l-96 -120h-58zM204 750h364l-15 -76h-266l-53 -263h241l-14 -72h-242l-52 -263h266l-15 -76h-364z" />
    <glyph glyph-name="Ecircumflex" unicode="&#xca;" horiz-adv-x="466" 
d="M383 902h68l75 -120h-71l-48 65h-2l-75 -65h-71zM204 750h364l-15 -76h-266l-53 -263h241l-14 -72h-242l-52 -263h266l-15 -76h-364z" />
    <glyph glyph-name="Edieresis" unicode="&#xcb;" horiz-adv-x="466" 
d="M486 782h-75l15 75h76zM375 782h-76l16 75h75zM204 750h364l-15 -76h-266l-53 -263h241l-14 -72h-242l-52 -263h266l-15 -76h-364z" />
    <glyph glyph-name="Igrave" unicode="&#xcc;" horiz-adv-x="206" 
d="M185 902h85l20 -120h-58zM204 750h98l-150 -750h-98z" />
    <glyph glyph-name="Iacute" unicode="&#xcd;" horiz-adv-x="206" 
d="M301 902h85l-96 -120h-58zM204 750h98l-150 -750h-98z" />
    <glyph glyph-name="Icircumflex" unicode="&#xce;" horiz-adv-x="206" 
d="M250 902h68l75 -120h-71l-47 65h-3l-75 -65h-71zM204 750h98l-150 -750h-98z" />
    <glyph glyph-name="Idieresis" unicode="&#xcf;" horiz-adv-x="206" 
d="M352 782h-75l15 75h76zM242 782h-76l16 75h75zM204 750h98l-150 -750h-98z" />
    <glyph glyph-name="Eth" unicode="&#xd0;" horiz-adv-x="557" 
d="M249 750h203q96 0 141 -46.5t25 -144.5l-74 -368q-20 -99 -82.5 -145t-159.5 -46h-203l69 346h-63l14 71h63zM265 346l-54 -270h106q53 0 86 30t42 75l77 388q9 45 -11.5 75t-73.5 30h-106l-51 -257h100l-15 -71h-100z" />
    <glyph glyph-name="Ntilde" unicode="&#xd1;" horiz-adv-x="516" 
d="M347 782h-47q12 47 35.5 64.5t48.5 17.5q14 0 27.5 -3t27 -7t26 -7t22.5 -3q26 0 33 27h47q-12 -47 -35.5 -64.5t-49.5 -17.5q-27 0 -54.5 10t-47.5 10q-24 0 -33 -27zM204 750h98l96 -583l116 583h98l-150 -750h-98l-95 583l-117 -583h-98z" />
    <glyph glyph-name="Ograve" unicode="&#xd2;" 
d="M428 902l21 -120h-59l-47 120h85zM165 569q20 99 83 145t159 46t141 -46.5t25 -144.5l-78 -388q-20 -99 -82.5 -145t-159.5 -46q-96 0 -140.5 46t-24.5 145zM183 171q-9 -45 12.5 -75t72.5 -30q53 0 86 30t42 75l81 408q9 45 -11.5 75t-73.5 30q-52 0 -85 -30t-42 -75z
" />
    <glyph glyph-name="Oacute" unicode="&#xd3;" 
d="M533 902l-96 -120h-58l69 120h85zM165 569q20 99 83 145t159 46t141 -46.5t25 -144.5l-78 -388q-20 -99 -82.5 -145t-159.5 -46q-96 0 -140.5 46t-24.5 145zM183 171q-9 -45 12.5 -75t72.5 -30q53 0 86 30t42 75l81 408q9 45 -11.5 75t-73.5 30q-52 0 -85 -30t-42 -75z
" />
    <glyph glyph-name="Ocircumflex" unicode="&#xd4;" 
d="M469 902l76 -120h-71l-48 65h-3l-75 -65h-70l124 120h67zM165 569q20 99 83 145t159 46t141 -46.5t25 -144.5l-78 -388q-20 -99 -82.5 -145t-159.5 -46q-96 0 -140.5 46t-24.5 145zM183 171q-9 -45 12.5 -75t72.5 -30q53 0 86 30t42 75l81 408q9 45 -11.5 75t-73.5 30
q-52 0 -85 -30t-42 -75z" />
    <glyph glyph-name="Otilde" unicode="&#xd5;" 
d="M287 782q12 47 35.5 64.5t48.5 17.5q14 0 27.5 -3t27 -7t26 -7t22.5 -3q26 0 33 27h47q-12 -47 -35.5 -64.5t-49.5 -17.5q-27 0 -54.5 10t-47.5 10q-24 0 -33 -27h-47zM165 569q20 99 83 145t159 46t141 -46.5t25 -144.5l-78 -388q-20 -99 -82.5 -145t-159.5 -46
q-96 0 -140.5 46t-24.5 145zM183 171q-9 -45 12.5 -75t72.5 -30q53 0 86 30t42 75l81 408q9 45 -11.5 75t-73.5 30q-52 0 -85 -30t-42 -75z" />
    <glyph glyph-name="Odieresis" unicode="&#xd6;" 
d="M429 782l15 75h76l-16 -75h-75zM318 782l16 75h75l-15 -75h-76zM165 569q20 99 83 145t159 46t141 -46.5t25 -144.5l-78 -388q-20 -99 -82.5 -145t-159.5 -46q-96 0 -140.5 46t-24.5 145zM183 171q-9 -45 12.5 -75t72.5 -30q53 0 86 30t42 75l81 408q9 45 -11.5 75
t-73.5 30q-52 0 -85 -30t-42 -75z" />
    <glyph glyph-name="multiply" unicode="&#xd7;" 
d="M339 425l185 161l45 -50l-189 -166l123 -165l-65 -50l-119 161l-185 -161l-45 50l189 165l-123 166l65 50z" />
    <glyph glyph-name="Oslash" unicode="&#xd8;" horiz-adv-x="515" 
d="M166 569q20 99 83 145t159 46t141 -46.5t25 -144.5l-78 -388q-20 -99 -82.5 -145t-159.5 -46q-95 0 -139.5 46.5t-25.5 144.5zM184 171q-9 -45 12.5 -75t73.5 -30t85 30t42 75l81 408q10 45 -11 75t-74 30q-51 0 -84.5 -30t-42.5 -75zM593 760l-471 -770h-50l471 770h50z
" />
    <glyph glyph-name="Ugrave" unicode="&#xd9;" horiz-adv-x="512" 
d="M348 902h85l21 -120h-59zM202 750h98l-116 -579q-9 -45 12.5 -75t72.5 -30q53 0 86 30t42 75l115 579h98l-114 -569q-20 -99 -82.5 -145t-159.5 -46q-96 0 -140.5 46t-24.5 145z" />
    <glyph glyph-name="Uacute" unicode="&#xda;" horiz-adv-x="512" 
d="M443 902h85l-96 -120h-58zM202 750h98l-116 -579q-9 -45 12.5 -75t72.5 -30q53 0 86 30t42 75l115 579h98l-114 -569q-20 -99 -82.5 -145t-159.5 -46q-96 0 -140.5 46t-24.5 145z" />
    <glyph glyph-name="Ucircumflex" unicode="&#xdb;" horiz-adv-x="512" 
d="M404 902h68l75 -120h-71l-48 65h-2l-75 -65h-71zM202 750h98l-116 -579q-9 -45 12.5 -75t72.5 -30q53 0 86 30t42 75l115 579h98l-114 -569q-20 -99 -82.5 -145t-159.5 -46q-96 0 -140.5 46t-24.5 145z" />
    <glyph glyph-name="Udieresis" unicode="&#xdc;" horiz-adv-x="512" 
d="M504 782h-76l16 75h75zM394 782h-75l15 75h76zM202 750h98l-116 -579q-9 -45 12.5 -75t72.5 -30q53 0 86 30t42 75l115 579h98l-114 -569q-20 -99 -82.5 -145t-159.5 -46q-96 0 -140.5 46t-24.5 145z" />
    <glyph glyph-name="Yacute" unicode="&#xdd;" horiz-adv-x="529" 
d="M542 902l-96 -120h-58l69 120h85zM294 750l45 -377l196 377h101l-270 -487l-53 -263h-97l52 263l-76 487h102z" />
    <glyph glyph-name="Thorn" unicode="&#xde;" horiz-adv-x="522" 
d="M302 750l-29 -146h106q116 0 156 -56.5t18 -165.5q-23 -110 -86.5 -167.5t-183.5 -57.5h-100l-31 -157h-98l150 750h98zM258 528l-60 -295h100q49 0 86 23t54 65q10 25 16.5 59.5t6.5 59.5q0 42 -24.5 65t-72.5 23h-106z" />
    <glyph glyph-name="germandbls" unicode="&#xdf;" horiz-adv-x="990" 
d="M616 551q20 104 89.5 156.5t170.5 52.5q107 0 147.5 -54t19.5 -161q-2 -8 -4 -16.5t-4 -16.5h-98q2 6 4 14.5t3 14.5q6 29 5.5 54.5t-9.5 45.5t-28 31.5t-51 11.5q-56 0 -95.5 -34.5t-50.5 -89.5q-7 -34 3 -57.5t30.5 -40.5t48.5 -30.5t57 -27t56 -30t46 -40t27 -56
t-1 -79.5q-21 -105 -90 -157t-170 -52q-211 0 -167 216q2 8 3.5 16t3.5 16h98q-2 -6 -3.5 -14.5t-3.5 -14.5q-6 -29 -5.5 -55t9.5 -45.5t28.5 -31t51.5 -11.5q57 0 96 35.5t50 91.5q7 34 -3 57.5t-30.5 40.5t-48.5 30t-57 26t-56 29t-46 39.5t-27 56t1 79.5zM158 551
q21 105 89.5 157t170.5 52q107 0 147.5 -54t19.5 -161q-2 -8 -4 -16.5t-4 -16.5h-97q2 6 3.5 14.5t3.5 14.5q6 29 5.5 54.5t-10 45.5t-28.5 31.5t-51 11.5q-56 0 -95.5 -34.5t-50.5 -89.5q-7 -34 3 -57.5t30.5 -40.5t48.5 -30.5t57 -27t56 -30t46 -40t27 -56t-1 -79.5
q-21 -105 -89.5 -157t-170.5 -52q-107 0 -147.5 54t-19.5 162l4 16l4 16h97q-2 -6 -3.5 -14.5t-3.5 -14.5q-6 -29 -5.5 -55t9.5 -45.5t28.5 -31t51.5 -11.5q57 0 96 35.5t50 91.5q7 34 -3 57.5t-30.5 40.5t-48.5 30t-57 26t-56 29t-46 39.5t-27 56t1 79.5z" />
    <glyph glyph-name="agrave" unicode="&#xe0;" horiz-adv-x="518" 
d="M345 902h85l20 -120h-58zM324 750h170l-15 -750h-99l10 235h-167l-85 -235h-99zM243 307h155l11 367h-30z" />
    <glyph glyph-name="aacute" unicode="&#xe1;" horiz-adv-x="518" 
d="M451 902h85l-96 -120h-58zM324 750h170l-15 -750h-99l10 235h-167l-85 -235h-99zM243 307h155l11 367h-30z" />
    <glyph glyph-name="acircumflex" unicode="&#xe2;" horiz-adv-x="518" 
d="M406 902h67l76 -120h-71l-48 65h-3l-75 -65h-70zM324 750h170l-15 -750h-99l10 235h-167l-85 -235h-99zM243 307h155l11 367h-30z" />
    <glyph glyph-name="atilde" unicode="&#xe3;" horiz-adv-x="518" 
d="M338 782h-47q12 47 35.5 64.5t48.5 17.5q27 0 54.5 -10t48.5 -10q24 0 33 27h47q-12 -47 -35.5 -64.5t-49.5 -17.5q-13 0 -27 3t-27.5 7t-25.5 7t-22 3q-24 0 -33 -27zM324 750h170l-15 -750h-99l10 235h-167l-85 -235h-99zM243 307h155l11 367h-30z" />
    <glyph glyph-name="adieresis" unicode="&#xe4;" horiz-adv-x="518" 
d="M508 778h-75l15 75h75zM397 778h-76l16 75h75zM324 750h170l-15 -750h-99l10 235h-167l-85 -235h-99zM243 307h155l11 367h-30z" />
    <glyph glyph-name="aring" unicode="&#xe5;" horiz-adv-x="518" 
d="M354 854q8 33 33 54t57 21q33 0 50 -21t9 -54q-6 -33 -31 -53.5t-58 -20.5q-32 0 -49 20.5t-11 53.5zM384 854q-4 -20 6 -32.5t30 -12.5t35 12.5t19 32.5t-6 32.5t-30 12.5t-35 -12.5t-19 -32.5zM324 750h170l-15 -750h-99l10 235h-167l-85 -235h-99zM243 307h155l11 367
h-30z" />
    <glyph glyph-name="ae" unicode="&#xe6;" horiz-adv-x="685" 
d="M324 750h464l-15 -76h-266l-53 -263h241l-15 -72h-241l-52 -263h266l-15 -76h-364l47 235h-98l-85 -235h-99zM243 307h93l73 367h-30z" />
    <glyph glyph-name="ccedilla" unicode="&#xe7;" horiz-adv-x="506" 
d="M163 569q20 99 83 145t159 46t141 -46.5t25 -144.5l-19 -95h-98l21 105q9 45 -11.5 75t-73.5 30q-52 0 -85 -30t-42 -75l-82 -408q-9 -45 12.5 -75t72.5 -30q53 0 86 30t42 75l21 105h97l-19 -95q-18 -90 -72 -136t-136 -53q22 -26 14 -62q-3 -17 -13.5 -34t-27 -30.5
t-38.5 -21.5t-48 -8q-19 0 -36 4l20 66q38 -6 57 8.5t23 34.5q6 26 -9 41q-84 6 -122 52.5t-19 138.5z" />
    <glyph glyph-name="egrave" unicode="&#xe8;" horiz-adv-x="466" 
d="M325 902h85l20 -120h-58zM204 750h364l-15 -76h-266l-53 -263h241l-14 -72h-242l-52 -263h266l-15 -76h-364z" />
    <glyph glyph-name="eacute" unicode="&#xe9;" horiz-adv-x="466" 
d="M420 902h85l-96 -120h-58zM204 750h364l-15 -76h-266l-53 -263h241l-14 -72h-242l-52 -263h266l-15 -76h-364z" />
    <glyph glyph-name="ecircumflex" unicode="&#xea;" horiz-adv-x="466" 
d="M383 902h68l75 -120h-71l-48 65h-2l-75 -65h-71zM204 750h364l-15 -76h-266l-53 -263h241l-14 -72h-242l-52 -263h266l-15 -76h-364z" />
    <glyph glyph-name="edieresis" unicode="&#xeb;" horiz-adv-x="466" 
d="M486 782h-75l15 75h76zM375 782h-76l16 75h75zM204 750h364l-15 -76h-266l-53 -263h241l-14 -72h-242l-52 -263h266l-15 -76h-364z" />
    <glyph glyph-name="igrave" unicode="&#xec;" horiz-adv-x="206" 
d="M185 902h85l20 -120h-58zM204 750h98l-150 -750h-98z" />
    <glyph glyph-name="iacute" unicode="&#xed;" horiz-adv-x="206" 
d="M300 902h85l-96 -120h-59zM204 750h98l-150 -750h-98z" />
    <glyph glyph-name="icircumflex" unicode="&#xee;" horiz-adv-x="206" 
d="M250 902h67l76 -120h-71l-48 65h-3l-75 -65h-70zM204 750h98l-150 -750h-98z" />
    <glyph glyph-name="idieresis" unicode="&#xef;" horiz-adv-x="206" 
d="M352 782h-75l15 75h76zM242 782h-76l16 75h75zM204 750h98l-150 -750h-98z" />
    <glyph glyph-name="eth" unicode="&#xf0;" 
d="M226 -10q-75 0 -114 44t-31 123q2 18 4.5 36.5t5.5 37.5q3 14 6.5 27t6.5 26q23 81 78.5 124t130.5 45q52 0 76 -33q5 46 1 87t-20 82l-129 -39l-4 51l117 36q-25 55 -66 93l50 24q32 -17 57 -41.5t44 -54.5l146 44l4 -51l-126 -39q17 -37 24.5 -77.5t8 -82t-5 -84.5
t-13.5 -86q-7 -32 -15 -64t-18 -62q-25 -78 -81.5 -122t-136.5 -44zM309 381q-44 0 -73 -30t-38 -74q-3 -14 -6.5 -29t-6.5 -30l-9 -48q-9 -49 9 -77t60 -28q41 0 70 28t40 75l21 102l2 8q8 44 -9 73.5t-60 29.5z" />
    <glyph glyph-name="ntilde" unicode="&#xf1;" horiz-adv-x="516" 
d="M347 782h-47q12 47 35.5 64.5t48.5 17.5q14 0 27.5 -3t27 -7t26 -7t22.5 -3q26 0 33 27h47q-12 -47 -35.5 -64.5t-49.5 -17.5q-27 0 -54.5 10t-47.5 10q-24 0 -33 -27zM204 750h98l96 -583l116 583h98l-150 -750h-98l-95 583l-117 -583h-98z" />
    <glyph glyph-name="ograve" unicode="&#xf2;" 
d="M428 902l21 -120h-59l-47 120h85zM165 569q20 99 83 145t159 46t141 -46.5t25 -144.5l-78 -388q-20 -99 -82.5 -145t-159.5 -46q-96 0 -140.5 46t-24.5 145zM183 171q-9 -45 12.5 -75t72.5 -30q53 0 86 30t42 75l81 408q9 45 -11.5 75t-73.5 30q-52 0 -85 -30t-42 -75z
" />
    <glyph glyph-name="oacute" unicode="&#xf3;" 
d="M533 902l-96 -120h-58l69 120h85zM165 569q20 99 83 145t159 46t141 -46.5t25 -144.5l-78 -388q-20 -99 -82.5 -145t-159.5 -46q-96 0 -140.5 46t-24.5 145zM183 171q-9 -45 12.5 -75t72.5 -30q53 0 86 30t42 75l81 408q9 45 -11.5 75t-73.5 30q-52 0 -85 -30t-42 -75z
" />
    <glyph glyph-name="ocircumflex" unicode="&#xf4;" 
d="M469 902l76 -120h-71l-48 65h-3l-75 -65h-70l124 120h67zM165 569q20 99 83 145t159 46t141 -46.5t25 -144.5l-78 -388q-20 -99 -82.5 -145t-159.5 -46q-96 0 -140.5 46t-24.5 145zM183 171q-9 -45 12.5 -75t72.5 -30q53 0 86 30t42 75l81 408q9 45 -11.5 75t-73.5 30
q-52 0 -85 -30t-42 -75z" />
    <glyph glyph-name="otilde" unicode="&#xf5;" 
d="M287 782q12 47 35.5 64.5t48.5 17.5q14 0 27.5 -3t27 -7t26 -7t22.5 -3q26 0 33 27h47q-12 -47 -35.5 -64.5t-49.5 -17.5q-27 0 -54.5 10t-47.5 10q-24 0 -33 -27h-47zM165 569q20 99 83 145t159 46t141 -46.5t25 -144.5l-78 -388q-20 -99 -82.5 -145t-159.5 -46
q-96 0 -140.5 46t-24.5 145zM183 171q-9 -45 12.5 -75t72.5 -30q53 0 86 30t42 75l81 408q9 45 -11.5 75t-73.5 30q-52 0 -85 -30t-42 -75z" />
    <glyph glyph-name="odieresis" unicode="&#xf6;" 
d="M429 782l15 75h76l-16 -75h-75zM318 782l16 75h75l-15 -75h-76zM165 569q20 99 83 145t159 46t141 -46.5t25 -144.5l-78 -388q-20 -99 -82.5 -145t-159.5 -46q-96 0 -140.5 46t-24.5 145zM183 171q-9 -45 12.5 -75t72.5 -30q53 0 86 30t42 75l81 408q9 45 -11.5 75
t-73.5 30q-52 0 -85 -30t-42 -75z" />
    <glyph glyph-name="divide" unicode="&#xf7;" horiz-adv-x="420" 
d="M264 471l16 81h81l-16 -81h-81zM114 317l14 72h319l-14 -72h-319zM297 235l-15 -81h-81l16 81h80z" />
    <glyph glyph-name="oslash" unicode="&#xf8;" horiz-adv-x="515" 
d="M166 569q20 99 83 145t159 46t141 -46.5t25 -144.5l-78 -388q-20 -99 -82.5 -145t-159.5 -46q-95 0 -139.5 46.5t-25.5 144.5zM184 171q-9 -45 12.5 -75t73.5 -30t85 30t42 75l81 408q10 45 -11 75t-74 30q-51 0 -84.5 -30t-42.5 -75zM593 760l-471 -770h-50l471 770h50z
" />
    <glyph glyph-name="ugrave" unicode="&#xf9;" horiz-adv-x="512" 
d="M348 902h85l21 -120h-59zM202 750h98l-116 -579q-9 -45 12.5 -75t72.5 -30q53 0 86 30t42 75l115 579h98l-114 -569q-20 -99 -82.5 -145t-159.5 -46q-96 0 -140.5 46t-24.5 145z" />
    <glyph glyph-name="uacute" unicode="&#xfa;" horiz-adv-x="512" 
d="M443 902h85l-96 -120h-58zM202 750h98l-116 -579q-9 -45 12.5 -75t72.5 -30q53 0 86 30t42 75l115 579h98l-114 -569q-20 -99 -82.5 -145t-159.5 -46q-96 0 -140.5 46t-24.5 145z" />
    <glyph glyph-name="ucircumflex" unicode="&#xfb;" horiz-adv-x="512" 
d="M404 902h68l75 -120h-71l-48 65h-2l-75 -65h-71zM202 750h98l-116 -579q-9 -45 12.5 -75t72.5 -30q53 0 86 30t42 75l115 579h98l-114 -569q-20 -99 -82.5 -145t-159.5 -46q-96 0 -140.5 46t-24.5 145z" />
    <glyph glyph-name="udieresis" unicode="&#xfc;" horiz-adv-x="512" 
d="M504 782h-76l16 75h75zM394 782h-75l15 75h76zM202 750h98l-116 -579q-9 -45 12.5 -75t72.5 -30q53 0 86 30t42 75l115 579h98l-114 -569q-20 -99 -82.5 -145t-159.5 -46q-96 0 -140.5 46t-24.5 145z" />
    <glyph glyph-name="yacute" unicode="&#xfd;" horiz-adv-x="529" 
d="M542 902l-96 -120h-58l69 120h85zM294 750l45 -377l196 377h101l-270 -487l-53 -263h-97l52 263l-76 487h102z" />
    <glyph glyph-name="thorn" unicode="&#xfe;" horiz-adv-x="522" 
d="M302 750l-29 -146h106q116 0 156 -56.5t18 -165.5q-23 -110 -86.5 -167.5t-183.5 -57.5h-100l-31 -157h-98l150 750h98zM258 528l-60 -295h100q49 0 86 23t54 65q10 25 16.5 59.5t6.5 59.5q0 42 -24.5 65t-72.5 23h-106z" />
    <glyph glyph-name="ydieresis" unicode="&#xff;" horiz-adv-x="529" 
d="M442 782l16 75h75l-15 -75h-76zM331 782l15 75h76l-16 -75h-75zM294 750l45 -377l196 377h101l-270 -487l-53 -263h-97l52 263l-76 487h102z" />
    <glyph glyph-name="Dcroat" unicode="&#x110;" horiz-adv-x="522" 
d="M213 750h203q96 0 141 -46.5t25 -144.5l-73 -368q-20 -98 -83.5 -144.5t-159.5 -46.5h-203l69 346h-63l14 71h63zM230 346l-54 -270h106q52 0 85 30t42 75l78 388q9 45 -12 75t-73 30h-107l-51 -257h100l-14 -71h-100z" />
    <glyph glyph-name="dcroat" unicode="&#x111;" horiz-adv-x="522" 
d="M213 750h203q96 0 141 -46.5t25 -144.5l-73 -368q-20 -98 -83.5 -144.5t-159.5 -46.5h-203l69 347h-63l15 71h63zM230 347l-54 -271h106q52 0 85 30t42 75l78 388q9 45 -12 75t-73 30h-107l-51 -256h104l-14 -71h-104z" />
    <glyph glyph-name="dotlessi" unicode="&#x131;" horiz-adv-x="206" 
d="M204 750h98l-150 -750h-98z" />
    <glyph glyph-name="Lslash" unicode="&#x141;" horiz-adv-x="545" 
d="M286 750h97l-67 -334l134 25l-14 -72l-134 -25l-53 -268h266l-15 -76h-364l65 327l-95 -18l13 72l97 17z" />
    <glyph glyph-name="lslash" unicode="&#x142;" horiz-adv-x="545" 
d="M286 750h97l-67 -334l134 25l-14 -72l-134 -25l-53 -268h266l-15 -76h-364l65 327l-95 -18l13 72l97 17z" />
    <glyph glyph-name="OE" unicode="&#x152;" horiz-adv-x="773" 
d="M165 569q11 53 36.5 89.5t61.5 59t80 32.5t92 10q26 0 50 -2.5t46 -7.5h344l-15 -76h-266l-53 -263h241l-14 -72h-242l-52 -263h266l-15 -76h-344q-23 -5 -48.5 -7.5t-51.5 -2.5q-48 0 -88 10t-67 32.5t-37.5 59t-0.5 89.5zM183 171q-6 -30 2.5 -50t25.5 -32t40.5 -17.5
t47.5 -5.5q33 0 56 9t25 18l113 564q2 9 -17.5 18t-52.5 9q-24 0 -49.5 -5.5t-47.5 -17.5t-38.5 -32t-22.5 -50z" />
    <glyph glyph-name="oe" unicode="&#x153;" horiz-adv-x="773" 
d="M165 569q11 53 36.5 89.5t61.5 59t80 32.5t92 10q26 0 50 -2.5t46 -7.5h344l-15 -76h-266l-53 -263h241l-14 -72h-242l-52 -263h266l-15 -76h-344q-23 -5 -48.5 -7.5t-51.5 -2.5q-48 0 -88 10t-67 32.5t-37.5 59t-0.5 89.5zM183 171q-6 -30 2.5 -50t25.5 -32t40.5 -17.5
t47.5 -5.5q33 0 56 9t25 18l113 564q2 9 -17.5 18t-52.5 9q-24 0 -49.5 -5.5t-47.5 -17.5t-38.5 -32t-22.5 -50z" />
    <glyph glyph-name="Scaron" unicode="&#x160;" horiz-adv-x="532" 
d="M309 914h71l52 -77h3l83 77h71l-133 -132h-68zM158 551q21 105 89.5 157t170.5 52q107 0 147.5 -54t19.5 -161q-2 -8 -4 -16.5t-4 -16.5h-97q2 6 3.5 14.5t3.5 14.5q6 29 5.5 54.5t-10 45.5t-28.5 31.5t-51 11.5q-56 0 -95.5 -34.5t-50.5 -89.5q-7 -34 3 -57.5
t30.5 -40.5t48.5 -30.5t57 -27t56 -30t46 -40t27 -56t-1 -79.5q-21 -105 -89.5 -157t-170.5 -52q-107 0 -147.5 54t-19.5 162l4 16l4 16h97q-2 -6 -3.5 -14.5t-3.5 -14.5q-6 -29 -5.5 -55t9.5 -45.5t28.5 -31t51.5 -11.5q57 0 96 35.5t50 91.5q7 34 -3 57.5t-30.5 40.5
t-48.5 30t-57 26t-56 29t-46 39.5t-27 56t1 79.5z" />
    <glyph glyph-name="scaron" unicode="&#x161;" horiz-adv-x="532" 
d="M309 914h71l52 -77h3l83 77h71l-133 -132h-68zM158 551q21 105 89.5 157t170.5 52q107 0 147.5 -54t19.5 -161q-2 -8 -4 -16.5t-4 -16.5h-97q2 6 3.5 14.5t3.5 14.5q6 29 5.5 54.5t-10 45.5t-28.5 31.5t-51 11.5q-56 0 -95.5 -34.5t-50.5 -89.5q-7 -34 3 -57.5
t30.5 -40.5t48.5 -30.5t57 -27t56 -30t46 -40t27 -56t-1 -79.5q-21 -105 -89.5 -157t-170.5 -52q-107 0 -147.5 54t-19.5 162l4 16l4 16h97q-2 -6 -3.5 -14.5t-3.5 -14.5q-6 -29 -5.5 -55t9.5 -45.5t28.5 -31t51.5 -11.5q57 0 96 35.5t50 91.5q7 34 -3 57.5t-30.5 40.5
t-48.5 30t-57 26t-56 29t-46 39.5t-27 56t1 79.5z" />
    <glyph glyph-name="Ydieresis" unicode="&#x178;" horiz-adv-x="529" 
d="M449 782l15 75h76l-16 -75h-75zM337 782l15 75h76l-16 -75h-75zM294 750l45 -377l196 377h101l-270 -487l-53 -263h-97l52 263l-76 487h102z" />
    <glyph glyph-name="Zcaron" unicode="&#x17d;" horiz-adv-x="483" 
d="M356 914l52 -77h3l83 77h70l-133 -132h-67l-79 132h71zM163 76h288l-15 -76h-391l15 74l410 600h-288l15 76h390l-14 -73z" />
    <glyph glyph-name="zcaron" unicode="&#x17e;" horiz-adv-x="483" 
d="M356 914l52 -77h3l83 77h70l-133 -132h-67l-79 132h71zM163 76h288l-15 -76h-391l15 74l410 600h-288l15 76h390l-14 -73z" />
    <glyph glyph-name="florin" unicode="&#x192;" horiz-adv-x="417" 
d="M135 411h106l32 158q20 99 82.5 145t159.5 46l-16 -76q-51 0 -84.5 -30t-42.5 -75l-34 -168h116l-14 -72h-116l-31 -158q-20 -99 -83 -145t-159 -46l15 76q51 0 84.5 30t42.5 75l34 168h-106z" />
    <glyph glyph-name="circumflex" unicode="&#x2c6;" horiz-adv-x="350" 
d="M359 750l75 -120h-70l-49 65h-2l-75 -65h-71l124 120h68z" />
    <glyph glyph-name="caron" unicode="&#x2c7;" horiz-adv-x="362" 
d="M262 750l53 -77h2l83 77h71l-132 -132h-68l-80 132h71z" />
    <glyph glyph-name="breve" unicode="&#x2d8;" horiz-adv-x="362" 
d="M240 750q-3 -14 -1 -30t10 -29.5t23.5 -22t40.5 -8.5t44 8.5t32.5 22t21 29.5t10.5 30h49q-5 -26 -19 -51t-35.5 -44.5t-49.5 -31.5t-63 -12q-34 0 -58 12t-37.5 31.5t-17.5 44.5t1 51h49z" />
    <glyph glyph-name="dotaccent" unicode="&#x2d9;" horiz-adv-x="158" 
d="M252 675h-76l15 75h76z" />
    <glyph glyph-name="ring" unicode="&#x2da;" horiz-adv-x="232" 
d="M180 689q6 33 31 54t58 21q32 0 49 -21t11 -54q-8 -32 -33 -53t-57 -21q-33 0 -50 21t-9 53zM209 689q-4 -20 6 -32t30 -12t34.5 12t19.5 32q4 20 -6 32.5t-30 12.5t-34.5 -12.5t-19.5 -32.5z" />
    <glyph glyph-name="ogonek" unicode="&#x2db;" horiz-adv-x="210" 
d="M153 0q-26 0 -44.5 -18t-23.5 -41t8.5 -42.5t50.5 -19.5l-15 -75q-32 0 -54 10.5t-34 27.5t-15.5 38.5t1.5 44.5q5 22 16 43t28.5 37.5t40 26.5t50.5 10z" />
    <glyph glyph-name="tilde" unicode="&#x2dc;" horiz-adv-x="328" 
d="M218 661h-47q12 47 36 64.5t49 17.5q27 0 54.5 -10t48.5 -10q24 0 33 27h47q-13 -48 -36.5 -65t-49.5 -17q-27 0 -54.5 10t-47.5 10q-24 0 -33 -27z" />
    <glyph glyph-name="hungarumlaut" unicode="&#x2dd;" horiz-adv-x="354" 
d="M273 518l96 182h84l-137 -182h-43zM145 518l96 182h83l-136 -182h-43z" />
    <glyph glyph-name="endash" unicode="&#x2013;" horiz-adv-x="416" 
d="M130 411h319l-14 -72h-318z" />
    <glyph glyph-name="emdash" unicode="&#x2014;" horiz-adv-x="484" 
d="M130 411h388l-14 -72h-387z" />
    <glyph glyph-name="quoteleft" unicode="&#x2018;" horiz-adv-x="178" 
d="M231 750h48l-44 -57h33l-16 -81h-81l16 80z" />
    <glyph glyph-name="quoteright" unicode="&#x2019;" horiz-adv-x="178" 
d="M220 612h-48l44 57h-33l16 81h81l-16 -80z" />
    <glyph glyph-name="quotesinglbase" unicode="&#x201a;" horiz-adv-x="181" 
d="M86 -57h-48l44 57h-33l17 81h80l-16 -80z" />
    <glyph glyph-name="quotedblleft" unicode="&#x201c;" horiz-adv-x="295" 
d="M231 750h48l-44 -57h33l-16 -81h-81l16 80zM347 750h48l-44 -57h33l-16 -81h-80l15 80z" />
    <glyph glyph-name="quotedblright" unicode="&#x201d;" horiz-adv-x="295" 
d="M337 612h-48l43 57h-33l17 81h80l-16 -80zM220 612h-48l44 57h-33l16 81h81l-16 -80z" />
    <glyph glyph-name="quotedblbase" unicode="&#x201e;" horiz-adv-x="298" 
d="M202 -57h-48l44 57h-32l16 81h81l-17 -80zM86 -57h-48l44 57h-33l17 81h80l-16 -80z" />
    <glyph glyph-name="dagger" unicode="&#x2020;" horiz-adv-x="399" 
d="M162 565h111l43 215h79l-43 -215h110l-14 -71h-111l-104 -524h-79l105 524h-111z" />
    <glyph glyph-name="daggerdbl" unicode="&#x2021;" horiz-adv-x="418" 
d="M235 328l35 175h-120l14 71h120l41 206h79l-41 -206h120l-14 -71h-120l-35 -175h120l-14 -71h-120l-58 -287h-79l58 287h-120l14 71h120z" />
    <glyph glyph-name="bullet" unicode="&#x2022;" horiz-adv-x="246" 
d="M124 375q6 30 32 52t57 22q30 0 47 -22t11 -52t-32 -52t-56 -22t-47.5 22t-11.5 52z" />
    <glyph glyph-name="ellipsis" unicode="&#x2026;" horiz-adv-x="555" 
d="M132 0h-81l17 81h80zM318 0h-81l17 81h80zM504 0h-81l17 81h80z" />
    <glyph glyph-name="perthousand" unicode="&#x2030;" horiz-adv-x="710" 
d="M182 675q8 39 34.5 61t65.5 22t56.5 -22.5t9.5 -60.5l-36 -180q-8 -39 -34.5 -61.5t-65.5 -22.5t-56 22t-9 62zM501 750l-312 -750h-40l312 750h40zM275 724q-19 0 -31.5 -12.5t-15.5 -29.5l-39 -194q-4 -18 3.5 -31t26.5 -13q20 0 32.5 13t16.5 31l38 194
q4 17 -3.5 29.5t-27.5 12.5zM340 264q8 39 34.5 61t64.5 22q39 0 57 -22.5t10 -60.5l-36 -180q-8 -39 -34.5 -61.5t-65.5 -22.5q-38 0 -56 22t-10 62zM550 264q8 39 34 61t65 22q38 0 56.5 -22.5t10.5 -60.5l-36 -180q-8 -39 -35 -61.5t-65 -22.5q-39 0 -56.5 22t-9.5 62z
M433 313q-19 0 -31 -12.5t-16 -29.5l-39 -194q-4 -18 3.5 -31t26.5 -13q20 0 32.5 13t16.5 31l38 194q4 17 -3.5 29.5t-27.5 12.5zM642 313q-19 0 -31 -12.5t-16 -29.5l-39 -194q-3 -18 4 -31t26 -13q20 0 32.5 13t16.5 31l39 194q4 17 -4 29.5t-28 12.5z" />
    <glyph glyph-name="guilsinglleft" unicode="&#x2039;" horiz-adv-x="335" 
d="M167 345v-2l156 -180l-15 -75l-201 230l11 54l292 226l-15 -75z" />
    <glyph glyph-name="guilsinglright" unicode="&#x203a;" horiz-adv-x="335" 
d="M305 345l-156 178l15 75l202 -226l-11 -54l-293 -230l15 75l228 180v2z" />
    <glyph glyph-name="fraction" unicode="&#x2044;" horiz-adv-x="354" 
d="M371 750h81l-320 -750h-81z" />
    <glyph glyph-name="Euro" unicode="&#x20ac;" horiz-adv-x="493" 
d="M97 263l10 52h62l23 118h-61l10 52h62l20 99q17 88 69.5 130t132.5 42q81 0 117 -41t18 -131l-4 -17h-79l5 23q8 42 -10 69.5t-60 27.5t-71.5 -27.5t-37.5 -69.5l-21 -105h154l-10 -52h-154l-24 -118h154l-10 -52h-154l-21 -103q-8 -42 10.5 -69.5t60.5 -27.5t71 27.5
t37 69.5l5 23h79l-4 -17q-18 -90 -70.5 -131t-133.5 -41q-80 0 -115 42t-18 130l19 97h-61z" />
    <glyph glyph-name="trademark" unicode="&#x2122;" horiz-adv-x="506" 
d="M343 750l-6 -25h-58l-45 -225h-32l44 225h-58l5 25h150zM435 750l25 -193l102 193h46l-50 -250h-32l39 195l-103 -195h-27l-24 195l-39 -195h-33l50 250h46z" />
    <glyph glyph-name="minus" unicode="&#x2212;" horiz-adv-x="447" 
d="M130 411h350l-13 -72h-350z" />
    </font>
</defs>
</svg>
